<?xml version="1.0" encoding="utf-8"?>
<!-- Generator: Adobe Illustrator 16.0.0, SVG Export Plug-In . SVG Version: 6.00 Build 0)  -->
<!DOCTYPE svg PUBLIC "-//W3C//DTD SVG 1.1//EN" "http://www.w3.org/Graphics/SVG/1.1/DTD/svg11.dtd">
<svg version="1.1" id="Capa_1" xmlns="http://www.w3.org/2000/svg" xmlns:xlink="http://www.w3.org/1999/xlink" x="0px" y="0px"
	 width="74.6px" height="14.809px" viewBox="0 0 74.6 14.809" enable-background="new 0 0 74.6 14.809" xml:space="preserve">
<g enable-background="new    ">
	<path fill="#2D3AE0" d="M3.59,3.864c0-0.151-0.059-0.257-0.176-0.318c-0.118-0.061-0.328-0.117-0.631-0.17
		C2.73,3.36,2.698,3.339,2.686,3.313s-0.017-0.07-0.017-0.131c0-0.046,0.007-0.106,0.023-0.183c0.25,0.016,0.493,0.029,0.728,0.04
		c0.235,0.012,0.458,0.018,0.671,0.018h2.251c0.295,0,0.576-0.012,0.841-0.034c0.265-0.023,0.447-0.034,0.546-0.034
		c0.091,0,0.155,0.062,0.193,0.188C7.96,3.301,7.991,3.45,8.013,3.625c0.023,0.174,0.049,0.358,0.08,0.552
		c0.03,0.192,0.083,0.361,0.159,0.506C8.23,4.713,8.199,4.734,8.161,4.745C8.123,4.756,8.086,4.762,8.048,4.762
		c-0.091,0-0.152-0.034-0.182-0.103c-0.091-0.204-0.18-0.379-0.267-0.522C7.511,3.992,7.413,3.875,7.303,3.784
		S7.062,3.627,6.91,3.585C6.759,3.544,6.57,3.523,6.342,3.523H4.659v3.024h1.694c0.152,0,0.26-0.073,0.324-0.222
		c0.064-0.147,0.115-0.324,0.153-0.528c0.023-0.099,0.091-0.148,0.205-0.148c0.061,0,0.122,0.008,0.182,0.023
		C7.202,5.839,7.189,6.03,7.178,6.246C7.166,6.462,7.161,6.65,7.161,6.809c0,0.129,0.003,0.284,0.011,0.466
		c0.007,0.183,0.023,0.391,0.045,0.626C7.157,7.915,7.1,7.923,7.047,7.923c-0.061,0-0.11-0.01-0.148-0.028S6.839,7.836,6.831,7.776
		c-0.03-0.197-0.08-0.371-0.147-0.523c-0.068-0.151-0.178-0.228-0.33-0.228H4.659v2.639c0,0.151,0.097,0.256,0.29,0.312
		s0.43,0.104,0.711,0.142c0.091,0.008,0.136,0.072,0.136,0.193c0,0.054-0.007,0.118-0.022,0.193
		c-0.159-0.008-0.33-0.015-0.512-0.022c-0.152-0.008-0.328-0.016-0.529-0.022c-0.201-0.008-0.412-0.012-0.631-0.012
		c-0.205,0-0.436,0.006-0.693,0.017c-0.258,0.012-0.497,0.025-0.716,0.04c-0.016-0.075-0.023-0.137-0.023-0.182
		c0-0.114,0.038-0.175,0.114-0.182c0.25-0.061,0.447-0.12,0.591-0.177S3.59,9.803,3.59,9.652V3.864z"/>
	<path fill="#2D3AE0" d="M8.377,8.048c0-0.349,0.066-0.678,0.199-0.989c0.132-0.311,0.312-0.58,0.54-0.807
		c0.228-0.228,0.495-0.408,0.802-0.541c0.307-0.132,0.638-0.198,0.995-0.198c0.372,0,0.712,0.062,1.023,0.188
		s0.578,0.298,0.802,0.518s0.398,0.486,0.523,0.801c0.125,0.315,0.188,0.658,0.188,1.029c0,0.356-0.066,0.688-0.199,0.995
		c-0.133,0.307-0.312,0.574-0.54,0.802s-0.495,0.407-0.802,0.54s-0.639,0.199-0.995,0.199c-0.371,0-0.712-0.062-1.023-0.188
		c-0.311-0.125-0.578-0.298-0.802-0.518S8.69,9.394,8.565,9.083C8.44,8.773,8.377,8.427,8.377,8.048z M9.446,7.673
		c0,0.28,0.03,0.568,0.091,0.864C9.598,8.833,9.691,9.1,9.816,9.339c0.125,0.238,0.286,0.436,0.483,0.591
		c0.197,0.155,0.436,0.233,0.716,0.233c0.432,0,0.768-0.151,1.006-0.455c0.239-0.303,0.358-0.693,0.358-1.171
		c0-0.28-0.028-0.574-0.085-0.882c-0.057-0.307-0.148-0.587-0.273-0.841s-0.288-0.465-0.489-0.631
		c-0.201-0.167-0.449-0.251-0.745-0.251c-0.402,0-0.726,0.139-0.972,0.415C9.569,6.625,9.446,7.067,9.446,7.673z"/>
	<path fill="#2D3AE0" d="M14.256,8.048c0-0.349,0.066-0.678,0.199-0.989c0.132-0.311,0.312-0.58,0.54-0.807
		c0.228-0.228,0.495-0.408,0.802-0.541c0.307-0.132,0.638-0.198,0.995-0.198c0.372,0,0.712,0.062,1.023,0.188
		s0.578,0.298,0.802,0.518s0.398,0.486,0.523,0.801c0.125,0.315,0.188,0.658,0.188,1.029c0,0.356-0.066,0.688-0.199,0.995
		c-0.133,0.307-0.312,0.574-0.54,0.802s-0.495,0.407-0.802,0.54s-0.639,0.199-0.995,0.199c-0.371,0-0.712-0.062-1.023-0.188
		c-0.311-0.125-0.578-0.298-0.802-0.518s-0.398-0.485-0.523-0.796C14.318,8.773,14.256,8.427,14.256,8.048z M15.324,7.673
		c0,0.28,0.03,0.568,0.091,0.864c0.061,0.296,0.153,0.562,0.278,0.802c0.125,0.238,0.286,0.436,0.483,0.591
		c0.197,0.155,0.436,0.233,0.716,0.233c0.432,0,0.768-0.151,1.006-0.455c0.239-0.303,0.358-0.693,0.358-1.171
		c0-0.28-0.028-0.574-0.085-0.882c-0.057-0.307-0.148-0.587-0.273-0.841s-0.288-0.465-0.489-0.631
		c-0.201-0.167-0.449-0.251-0.745-0.251c-0.402,0-0.726,0.139-0.972,0.415C15.448,6.625,15.324,7.067,15.324,7.673z"/>
	<path fill="#2D3AE0" d="M24.876,9.436c0,0.091,0.007,0.169,0.023,0.232c0.015,0.064,0.045,0.12,0.091,0.165
		c0.045,0.046,0.108,0.082,0.188,0.108s0.184,0.047,0.313,0.062c0.098,0.016,0.147,0.064,0.147,0.147
		c0,0.046-0.007,0.099-0.022,0.159c-0.099,0-0.229,0.006-0.393,0.018c-0.163,0.011-0.301,0.024-0.415,0.039
		c-0.169,0.031-0.316,0.063-0.443,0.097c-0.127,0.034-0.221,0.052-0.282,0.052c-0.107,0-0.161-0.057-0.161-0.171V9.481
		c-0.106,0.145-0.212,0.283-0.318,0.415c-0.106,0.133-0.229,0.25-0.37,0.353s-0.301,0.185-0.483,0.245
		c-0.182,0.061-0.402,0.091-0.659,0.091c-0.258,0-0.504-0.054-0.739-0.159c-0.235-0.106-0.443-0.264-0.625-0.472
		c-0.182-0.209-0.328-0.465-0.438-0.768c-0.11-0.304-0.165-0.648-0.165-1.035c0-0.417,0.08-0.79,0.239-1.12s0.356-0.606,0.591-0.83
		s0.491-0.394,0.768-0.512c0.276-0.117,0.532-0.176,0.768-0.176c0.288,0,0.544,0.028,0.768,0.085
		c0.223,0.057,0.445,0.131,0.665,0.222V3.67c0-0.227-0.04-0.388-0.12-0.482s-0.252-0.154-0.517-0.177
		c-0.099-0.015-0.148-0.068-0.148-0.159c0-0.045,0.007-0.099,0.023-0.159c0.098,0,0.237-0.006,0.415-0.017
		c0.178-0.012,0.324-0.025,0.438-0.04c0.176-0.022,0.333-0.053,0.472-0.091c0.138-0.038,0.237-0.058,0.299-0.058
		c0.107,0,0.161,0.058,0.161,0.171c0,0.129-0.011,0.277-0.034,0.443c-0.023,0.167-0.034,0.372-0.034,0.614V9.436z M23.921,6.559
		c-0.189-0.197-0.398-0.353-0.625-0.466c-0.228-0.114-0.485-0.171-0.773-0.171c-0.44,0-0.771,0.182-0.995,0.546
		c-0.224,0.363-0.335,0.83-0.335,1.398c0,0.288,0.032,0.562,0.097,0.824s0.159,0.491,0.284,0.688
		c0.125,0.196,0.277,0.352,0.455,0.466c0.178,0.113,0.377,0.171,0.597,0.171c0.152,0,0.303-0.046,0.455-0.137
		c0.151-0.091,0.29-0.207,0.415-0.347c0.125-0.141,0.227-0.3,0.307-0.478c0.08-0.179,0.12-0.354,0.12-0.529V6.559z"/>
	<path fill="#2D3AE0" d="M31.312,4.842c-0.076,0.015-0.133,0.022-0.17,0.022c-0.099,0-0.171-0.019-0.216-0.057
		s-0.08-0.08-0.103-0.125c-0.197-0.433-0.432-0.747-0.705-0.944c-0.273-0.196-0.645-0.295-1.114-0.295
		c-0.182,0-0.354,0.024-0.518,0.073c-0.163,0.05-0.305,0.121-0.426,0.216c-0.122,0.096-0.218,0.211-0.29,0.348
		c-0.072,0.136-0.108,0.288-0.108,0.454c0,0.356,0.149,0.648,0.449,0.876c0.3,0.228,0.741,0.459,1.325,0.693
		c0.728,0.288,1.264,0.608,1.609,0.961c0.345,0.353,0.517,0.786,0.517,1.302c0,0.312-0.047,0.602-0.142,0.87
		c-0.095,0.27-0.243,0.504-0.443,0.705c-0.201,0.201-0.46,0.358-0.779,0.472c-0.318,0.114-0.701,0.171-1.148,0.171
		c-0.47,0-0.896-0.05-1.279-0.148c-0.383-0.098-0.707-0.228-0.972-0.387c-0.023-0.318-0.057-0.625-0.103-0.921
		c-0.045-0.295-0.099-0.591-0.159-0.887c0.053-0.022,0.118-0.034,0.193-0.034c0.091,0,0.161,0.021,0.21,0.062
		c0.049,0.042,0.093,0.108,0.131,0.199c0.189,0.546,0.434,0.947,0.733,1.205c0.299,0.258,0.718,0.387,1.256,0.387
		c0.243,0,0.455-0.034,0.637-0.103s0.333-0.163,0.455-0.284c0.121-0.121,0.212-0.258,0.272-0.409
		c0.061-0.151,0.091-0.314,0.091-0.489c0-0.394-0.135-0.705-0.404-0.932c-0.269-0.228-0.654-0.433-1.154-0.614
		c-0.326-0.121-0.622-0.248-0.887-0.381c-0.266-0.133-0.493-0.286-0.682-0.461c-0.189-0.174-0.335-0.377-0.438-0.608
		c-0.102-0.23-0.153-0.506-0.153-0.824c0-0.28,0.051-0.544,0.153-0.79c0.103-0.246,0.25-0.461,0.443-0.643
		c0.193-0.182,0.427-0.326,0.7-0.432c0.272-0.106,0.58-0.159,0.921-0.159c0.356,0,0.697,0.034,1.023,0.102
		c0.326,0.068,0.693,0.183,1.103,0.342c0.015,0.228,0.036,0.472,0.062,0.733C31.23,4.369,31.266,4.615,31.312,4.842z"/>
	<path fill="#2D3AE0" d="M37.361,10.141c0.083,0,0.129,0.079,0.137,0.238c-0.197,0.137-0.448,0.205-0.75,0.205
		c-0.168,0-0.313-0.025-0.436-0.074c-0.123-0.05-0.227-0.115-0.311-0.199c-0.084-0.083-0.149-0.178-0.196-0.284
		c-0.046-0.105-0.077-0.216-0.092-0.329c-0.189,0.341-0.415,0.574-0.676,0.699c-0.262,0.125-0.563,0.188-0.904,0.188
		c-0.152,0-0.313-0.014-0.483-0.04s-0.332-0.082-0.483-0.165c-0.152-0.083-0.277-0.2-0.375-0.353
		c-0.099-0.151-0.148-0.353-0.148-0.603c0-0.28,0.066-0.518,0.199-0.711c0.133-0.193,0.303-0.353,0.512-0.478
		s0.436-0.226,0.683-0.301c0.246-0.076,0.483-0.141,0.71-0.193c0.129-0.022,0.248-0.048,0.358-0.074
		c0.109-0.026,0.206-0.055,0.29-0.085c0.106-0.03,0.172-0.072,0.199-0.125c0.026-0.053,0.04-0.155,0.04-0.308
		c0-0.355-0.068-0.649-0.205-0.881c-0.136-0.231-0.379-0.347-0.728-0.347c-0.129,0-0.239,0.015-0.33,0.045
		c-0.091,0.031-0.167,0.078-0.228,0.143c-0.061,0.064-0.114,0.149-0.159,0.256s-0.091,0.231-0.137,0.375
		c-0.022,0.084-0.074,0.145-0.153,0.182c-0.08,0.038-0.214,0.084-0.404,0.137c-0.045,0.016-0.102,0.03-0.17,0.046
		c-0.068,0.015-0.125,0.022-0.17,0.022c-0.076,0-0.114-0.079-0.114-0.238c0-0.167,0.064-0.334,0.193-0.501
		c0.128-0.166,0.293-0.314,0.495-0.443c0.201-0.129,0.418-0.233,0.654-0.312c0.235-0.08,0.458-0.119,0.671-0.119
		c0.265,0,0.504,0.022,0.718,0.068c0.213,0.045,0.396,0.129,0.55,0.25c0.154,0.121,0.271,0.284,0.351,0.488
		c0.081,0.205,0.121,0.471,0.121,0.796v1.956c0,0.266,0.009,0.457,0.028,0.574c0.019,0.118,0.047,0.211,0.085,0.278
		c0.053,0.106,0.112,0.177,0.176,0.211s0.131,0.051,0.199,0.051c0.083,0,0.142-0.007,0.176-0.022S37.323,10.141,37.361,10.141z
		 M35.632,7.923L35.266,7.98c-0.198,0.038-0.391,0.084-0.578,0.137c-0.187,0.053-0.353,0.127-0.498,0.222
		c-0.145,0.095-0.261,0.215-0.349,0.358s-0.131,0.322-0.131,0.534c0,0.288,0.074,0.508,0.223,0.659
		c0.148,0.152,0.333,0.228,0.555,0.228c0.145,0,0.288-0.032,0.429-0.097c0.141-0.063,0.263-0.155,0.366-0.272
		s0.187-0.256,0.251-0.415c0.065-0.159,0.097-0.334,0.097-0.523V7.923z"/>
	<path fill="#2D3AE0" d="M38.691,6.126h-0.682V5.922c0-0.083,0.035-0.135,0.107-0.153c0.072-0.02,0.15-0.034,0.233-0.046
		s0.161-0.038,0.233-0.079c0.072-0.042,0.107-0.131,0.107-0.268V4.853c0-0.416,0.059-0.772,0.177-1.068
		c0.117-0.296,0.267-0.54,0.449-0.733c0.182-0.193,0.384-0.336,0.608-0.427c0.223-0.091,0.441-0.137,0.654-0.137
		c0.25,0,0.475,0.025,0.676,0.074c0.201,0.05,0.373,0.116,0.518,0.199c0.144,0.083,0.256,0.176,0.336,0.278
		c0.079,0.103,0.119,0.207,0.119,0.312c0,0.046-0.033,0.09-0.098,0.131c-0.064,0.042-0.136,0.078-0.215,0.108
		c-0.08,0.03-0.158,0.053-0.234,0.068c-0.075,0.015-0.129,0.022-0.158,0.022c-0.106,0-0.186-0.046-0.239-0.137
		C41.2,3.379,41.1,3.231,40.982,3.102c-0.117-0.129-0.293-0.193-0.528-0.193c-0.272,0-0.476,0.112-0.608,0.336
		s-0.199,0.544-0.199,0.961v1.443h1.342c0,0.152-0.011,0.27-0.033,0.353c-0.023,0.084-0.088,0.125-0.193,0.125h-1.115v3.479
		c0,0.197,0.088,0.332,0.262,0.404c0.175,0.072,0.459,0.127,0.854,0.165c0.083,0.015,0.125,0.064,0.125,0.147
		c0,0.022-0.004,0.057-0.012,0.103c-0.008,0.045-0.012,0.071-0.012,0.079c-0.022,0-0.089-0.004-0.199-0.011
		c-0.109-0.008-0.24-0.016-0.392-0.023s-0.315-0.013-0.489-0.017s-0.338-0.006-0.488-0.006c-0.129,0-0.26,0.002-0.393,0.006
		s-0.26,0.009-0.381,0.017s-0.227,0.016-0.312,0.023c-0.088,0.007-0.143,0.011-0.166,0.011c0-0.008-0.004-0.034-0.011-0.079
		c-0.007-0.046-0.011-0.08-0.011-0.103c0-0.076,0.033-0.121,0.102-0.137c0.167-0.03,0.303-0.073,0.41-0.131
		c0.105-0.057,0.158-0.146,0.158-0.267V6.126z"/>
	<path fill="#2D3AE0" d="M45.617,9.39c0.053-0.053,0.109-0.079,0.17-0.079c0.075,0,0.147,0.064,0.216,0.193
		c-0.1,0.136-0.213,0.269-0.342,0.397s-0.282,0.244-0.461,0.347c-0.178,0.103-0.381,0.185-0.607,0.245
		c-0.229,0.061-0.489,0.091-0.785,0.091c-0.303,0-0.592-0.05-0.863-0.148c-0.273-0.098-0.514-0.25-0.723-0.454
		c-0.209-0.205-0.375-0.459-0.5-0.763c-0.125-0.303-0.188-0.659-0.188-1.068c0-0.387,0.073-0.743,0.221-1.069
		c0.148-0.325,0.34-0.604,0.574-0.835c0.235-0.231,0.495-0.411,0.779-0.54s0.559-0.193,0.824-0.193c0.705,0,1.219,0.204,1.541,0.613
		c0.322,0.41,0.483,0.944,0.483,1.604c0,0.046-0.022,0.068-0.068,0.068l-3.286,0.147c0,0.296,0.041,0.569,0.125,0.819
		c0.082,0.25,0.199,0.466,0.352,0.647c0.15,0.183,0.334,0.324,0.549,0.427s0.459,0.153,0.73,0.153c0.242,0,0.475-0.057,0.697-0.17
		C45.279,9.708,45.466,9.565,45.617,9.39z M43.78,5.922c-0.378,0-0.672,0.147-0.883,0.443c-0.212,0.296-0.317,0.683-0.317,1.16
		l2.139-0.103c0.113,0,0.17-0.05,0.17-0.148c0-0.144-0.022-0.295-0.067-0.454c-0.046-0.159-0.113-0.306-0.204-0.438
		c-0.09-0.132-0.205-0.242-0.345-0.329S43.968,5.922,43.78,5.922z"/>
	<path fill="#2D3AE0" d="M49.459,9.777c0.038-0.038,0.069-0.061,0.097-0.068c0.026-0.007,0.047-0.011,0.062-0.011
		c0.068,0,0.129,0.049,0.182,0.147c-0.197,0.22-0.409,0.397-0.637,0.534s-0.471,0.205-0.728,0.205c-0.151,0-0.296-0.018-0.433-0.052
		s-0.254-0.1-0.352-0.198c-0.1-0.099-0.177-0.233-0.234-0.404c-0.057-0.17-0.084-0.392-0.084-0.665V6.126h-0.683V6.001
		c0-0.053,0.009-0.102,0.028-0.147c0.019-0.046,0.059-0.068,0.119-0.068c0.205,0,0.371-0.053,0.5-0.159
		c0.129-0.105,0.235-0.242,0.318-0.409c0.092-0.182,0.171-0.353,0.239-0.512s0.144-0.239,0.228-0.239h0.205v1.183h1.33
		c0,0.159-0.018,0.279-0.051,0.358c-0.035,0.08-0.098,0.119-0.188,0.119h-1.092v2.82c0,0.243,0.011,0.438,0.033,0.586
		c0.023,0.147,0.057,0.261,0.103,0.341s0.099,0.131,0.159,0.153s0.129,0.034,0.205,0.034c0.129,0,0.248-0.028,0.357-0.085
		C49.256,9.919,49.361,9.853,49.459,9.777z"/>
	<path fill="#2D3AE0" d="M52.825,9.208c0.113-0.288,0.238-0.586,0.375-0.893c0.137-0.308,0.264-0.597,0.381-0.87
		c0.117-0.272,0.214-0.52,0.29-0.739c0.075-0.22,0.113-0.383,0.113-0.488c0-0.068-0.03-0.12-0.091-0.154S53.767,6,53.695,5.973
		c-0.072-0.026-0.139-0.053-0.199-0.079s-0.09-0.07-0.09-0.131c0-0.016,0.003-0.038,0.011-0.068c0.007-0.03,0.015-0.057,0.022-0.08
		c0.296,0.023,0.61,0.034,0.943,0.034c0.175,0,0.326-0.001,0.455-0.005s0.25-0.014,0.364-0.029c0.015,0.023,0.024,0.05,0.028,0.08
		s0.006,0.053,0.006,0.068c0,0.083-0.049,0.137-0.148,0.159c-0.113,0.022-0.202,0.045-0.267,0.068
		c-0.064,0.022-0.118,0.053-0.159,0.091c-0.042,0.038-0.08,0.087-0.113,0.147c-0.035,0.061-0.074,0.148-0.119,0.262l-2.332,5.504
		c-0.151,0.363-0.379,0.651-0.682,0.863c-0.304,0.213-0.629,0.318-0.979,0.318c-0.061,0-0.104-0.017-0.131-0.051
		c-0.026-0.034-0.039-0.074-0.039-0.119c0-0.084,0.012-0.173,0.033-0.268c0.023-0.095,0.054-0.182,0.092-0.262
		c0.037-0.079,0.081-0.144,0.131-0.193c0.049-0.049,0.1-0.073,0.153-0.073c0.061,0,0.115,0.006,0.165,0.017
		c0.049,0.012,0.104,0.018,0.164,0.018c0.205,0,0.357-0.04,0.455-0.12c0.099-0.079,0.186-0.206,0.262-0.381l0.58-1.353l-1.751-3.9
		c-0.054-0.106-0.099-0.191-0.137-0.256s-0.079-0.117-0.125-0.159s-0.099-0.072-0.159-0.091s-0.141-0.036-0.238-0.052
		c-0.1-0.022-0.148-0.079-0.148-0.17c0-0.016,0.002-0.038,0.006-0.068s0.014-0.057,0.028-0.08c0.151,0.016,0.306,0.025,0.46,0.029
		c0.156,0.004,0.332,0.005,0.529,0.005h0.33c0.182,0,0.352-0.001,0.512-0.005c0.158-0.004,0.318-0.014,0.477-0.029
		c0.016,0.023,0.025,0.05,0.029,0.08s0.006,0.053,0.006,0.068c0,0.091-0.05,0.141-0.148,0.147c-0.174,0.03-0.291,0.062-0.352,0.097
		c-0.062,0.034-0.092,0.082-0.092,0.143c0,0.038,0.023,0.133,0.068,0.284s0.121,0.341,0.228,0.568L52.825,9.208z"/>
	<path fill="#2D3AE0" d="M54.621,9.845c0-0.197,0.069-0.37,0.21-0.518s0.316-0.222,0.529-0.222c0.197,0,0.363,0.074,0.5,0.222
		s0.205,0.32,0.205,0.518c0,0.22-0.068,0.399-0.205,0.54s-0.303,0.21-0.5,0.21c-0.213,0-0.389-0.069-0.529-0.21
		S54.621,10.065,54.621,9.845z"/>
	<path fill="#2D3AE0" d="M57.634,10.208c-0.326-0.188-0.488-0.462-0.488-0.818c0-0.379,0.25-0.689,0.75-0.933
		c-0.212-0.129-0.381-0.301-0.506-0.517c-0.125-0.217-0.188-0.483-0.188-0.802c0-0.213,0.051-0.417,0.153-0.614
		s0.241-0.371,0.415-0.523c0.174-0.151,0.373-0.271,0.598-0.357c0.223-0.088,0.46-0.131,0.71-0.131c0.38,0,0.683,0.045,0.909,0.136
		c0.229,0.092,0.426,0.205,0.592,0.342l1.126-0.489c0.083,0.053,0.144,0.123,0.182,0.21c0.038,0.088,0.058,0.169,0.058,0.245
		c0,0.167-0.058,0.25-0.171,0.25l-0.409-0.012c-0.145,0-0.318,0.023-0.523,0.068c0.182,0.235,0.273,0.523,0.273,0.864
		c0,0.235-0.054,0.451-0.16,0.648c-0.105,0.197-0.25,0.365-0.432,0.506s-0.398,0.25-0.648,0.33c-0.25,0.079-0.516,0.119-0.796,0.119
		c-0.159,0-0.311-0.01-0.454-0.028c-0.145-0.02-0.281-0.052-0.41-0.097c-0.197,0.091-0.334,0.182-0.409,0.272
		s-0.114,0.179-0.114,0.262c0,0.061,0.02,0.119,0.058,0.176c0.038,0.058,0.108,0.106,0.21,0.148
		c0.103,0.042,0.246,0.076,0.433,0.103c0.186,0.026,0.423,0.039,0.71,0.039c0.342,0,0.664,0.027,0.967,0.08s0.57,0.141,0.802,0.262
		s0.413,0.28,0.546,0.478c0.133,0.196,0.199,0.436,0.199,0.716c0,0.311-0.062,0.592-0.188,0.842s-0.3,0.464-0.523,0.643
		c-0.224,0.178-0.492,0.314-0.807,0.409c-0.315,0.095-0.658,0.142-1.029,0.142c-0.713,0-1.27-0.129-1.672-0.386
		c-0.402-0.258-0.603-0.671-0.603-1.24c0-0.166,0.026-0.32,0.079-0.46c0.053-0.141,0.119-0.268,0.199-0.381
		c0.08-0.114,0.171-0.213,0.273-0.296C57.447,10.33,57.544,10.262,57.634,10.208z M57.907,10.345
		c-0.182,0.175-0.284,0.395-0.307,0.66c-0.008,0.061-0.012,0.121-0.012,0.182s0,0.125,0,0.193c0.008,0.159,0.049,0.318,0.125,0.478
		s0.186,0.299,0.33,0.421c0.144,0.121,0.322,0.22,0.534,0.295c0.212,0.076,0.458,0.114,0.739,0.114c0.523,0,0.904-0.116,1.143-0.347
		c0.238-0.231,0.357-0.518,0.357-0.858c0-0.145-0.029-0.277-0.09-0.398s-0.164-0.226-0.308-0.312s-0.333-0.155-0.568-0.205
		c-0.235-0.049-0.526-0.073-0.876-0.073c-0.197,0-0.389-0.012-0.574-0.034C58.216,10.436,58.052,10.399,57.907,10.345z
		 M59.193,8.332c0.28,0,0.504-0.091,0.67-0.272c0.168-0.182,0.251-0.433,0.251-0.751c0-0.166-0.017-0.331-0.052-0.494
		c-0.033-0.163-0.092-0.311-0.176-0.443S59.691,6.13,59.55,6.047s-0.316-0.125-0.528-0.125c-0.266,0-0.476,0.087-0.631,0.262
		c-0.155,0.174-0.233,0.413-0.233,0.716c0,0.175,0.018,0.347,0.051,0.518c0.035,0.171,0.092,0.324,0.171,0.461
		c0.079,0.136,0.187,0.246,0.318,0.329C58.83,8.291,58.995,8.332,59.193,8.332z"/>
	<path fill="#2D3AE0" d="M62.251,8.048c0-0.349,0.066-0.678,0.199-0.989c0.133-0.311,0.312-0.58,0.54-0.807
		c0.228-0.228,0.495-0.408,0.802-0.541c0.307-0.132,0.639-0.198,0.994-0.198c0.372,0,0.713,0.062,1.023,0.188
		c0.312,0.125,0.578,0.298,0.803,0.518c0.223,0.22,0.397,0.486,0.522,0.801c0.125,0.315,0.188,0.658,0.188,1.029
		c0,0.356-0.066,0.688-0.198,0.995c-0.133,0.307-0.312,0.574-0.541,0.802c-0.227,0.228-0.494,0.407-0.801,0.54
		c-0.308,0.133-0.639,0.199-0.996,0.199c-0.371,0-0.712-0.062-1.022-0.188c-0.312-0.125-0.578-0.298-0.802-0.518
		s-0.398-0.485-0.523-0.796S62.251,8.427,62.251,8.048z M63.32,7.673c0,0.28,0.031,0.568,0.092,0.864S63.565,9.1,63.69,9.339
		c0.125,0.238,0.286,0.436,0.483,0.591s0.436,0.233,0.717,0.233c0.432,0,0.768-0.151,1.006-0.455
		c0.238-0.303,0.357-0.693,0.357-1.171c0-0.28-0.027-0.574-0.084-0.882c-0.058-0.307-0.148-0.587-0.273-0.841
		s-0.288-0.465-0.488-0.631c-0.201-0.167-0.449-0.251-0.746-0.251c-0.401,0-0.726,0.139-0.972,0.415
		C63.443,6.625,63.32,7.067,63.32,7.673z"/>
	<path fill="#2D3AE0" d="M70.529,9.208c0.364-0.902,0.635-1.596,0.813-2.081c0.178-0.485,0.267-0.788,0.267-0.909
		c0-0.076-0.024-0.139-0.073-0.188c-0.05-0.049-0.169-0.089-0.358-0.119c-0.099-0.007-0.148-0.057-0.148-0.147
		c0-0.016,0.004-0.038,0.012-0.068s0.016-0.057,0.023-0.08c0.295,0.023,0.609,0.034,0.943,0.034c0.174,0,0.328-0.001,0.461-0.005
		s0.26-0.014,0.381-0.029c0.022,0.062,0.033,0.11,0.033,0.148c0,0.045-0.013,0.078-0.039,0.097
		c-0.027,0.019-0.062,0.044-0.108,0.073c-0.136,0.084-0.269,0.16-0.397,0.228c-0.129,0.068-0.225,0.179-0.285,0.33l-1.648,4.07
		c-0.045,0.016-0.102,0.023-0.17,0.023c-0.084,0-0.143-0.036-0.177-0.108s-0.089-0.195-0.165-0.369L68.334,6.49
		c-0.046-0.113-0.087-0.203-0.125-0.268c-0.038-0.063-0.079-0.115-0.125-0.153s-0.103-0.066-0.171-0.085s-0.155-0.036-0.262-0.052
		c-0.098-0.007-0.147-0.063-0.147-0.17c0-0.038,0.012-0.087,0.034-0.148c0.189,0.016,0.367,0.025,0.535,0.029
		c0.166,0.004,0.359,0.005,0.579,0.005c0.243,0,0.456-0.001,0.643-0.005c0.186-0.004,0.377-0.014,0.574-0.029
		c0.022,0.046,0.034,0.096,0.034,0.148c0,0.091-0.049,0.141-0.148,0.147c-0.182,0.03-0.301,0.062-0.357,0.097
		s-0.086,0.082-0.086,0.143c0,0.038,0.023,0.131,0.068,0.278c0.046,0.147,0.117,0.339,0.217,0.574L70.529,9.208z"/>
</g>
</svg>
