<?xml version="1.0" encoding="utf-8"?>
<!-- Generator: Adobe Illustrator 16.0.0, SVG Export Plug-In . SVG Version: 6.00 Build 0)  -->
<!DOCTYPE svg PUBLIC "-//W3C//DTD SVG 1.1//EN" "http://www.w3.org/Graphics/SVG/1.1/DTD/svg11.dtd">
<svg version="1.1" id="Capa_1" xmlns="http://www.w3.org/2000/svg" xmlns:xlink="http://www.w3.org/1999/xlink" x="0px" y="0px"
	 width="185.992px" height="46.498px" viewBox="0 0 185.992 46.498" enable-background="new 0 0 185.992 46.498"
	 xml:space="preserve">
<path fill="#5D5D5D" d="M108.143,34.185c1.067,0.127,2.08,0.248,3.092,0.371c0.47,0.057,0.938,0.119,1.409,0.172
	c0.115,0.014,0.18,0.041,0.212,0.174c0.218,0.91,0.921,1.06,1.646,1.027c0.91-0.041,1.367-0.47,1.486-1.369
	c0.1-0.746,0.096-1.502,0.053-2.299c-0.75,1.266-1.929,1.563-3.225,1.606c-1.469,0.048-2.648-0.548-3.588-1.655
	c-0.938-1.105-1.318-2.411-1.395-3.83c-0.066-1.27,0.006-2.52,0.504-3.711c0.871-2.089,2.807-2.994,4.877-2.819
	c0.451,0.038,0.896,0.104,1.326,0.257c0.795,0.284,1.401,0.784,1.804,1.57c0-0.411,0.02-0.824-0.007-1.233
	c-0.019-0.268,0.029-0.364,0.326-0.359c1.309,0.021,2.616,0.023,3.924,0.013c0.259-0.002,0.31,0.079,0.309,0.319
	c-0.008,2.945-0.014,5.889,0.001,8.833c0.004,0.906-0.015,1.812,0.015,2.72c0.063,1.883-1.027,4.424-3.922,4.959
	c-2.064,0.381-4.126,0.412-6.148-0.195c-1.853-0.557-2.803-2.002-2.7-3.939C108.152,34.597,108.143,34.396,108.143,34.185z"/>
<path fill="#5D5D5D" d="M107.08,34.366c-0.293,0-0.564,0-0.834,0c-1.457,0-2.914-0.004-4.369,0.004
	c-0.217,0.001-0.324-0.04-0.389-0.279c-0.195-0.738-0.438-1.466-0.646-2.201c-0.045-0.16-0.11-0.215-0.278-0.214
	c-1.593,0.007-3.187,0.007-4.78,0c-0.169,0-0.24,0.06-0.283,0.216c-0.211,0.733-0.436,1.465-0.646,2.2
	c-0.056,0.191-0.121,0.284-0.354,0.282c-1.594-0.016-3.188-0.014-4.78-0.001c-0.275,0.002-0.336-0.036-0.234-0.315
	c0.918-2.526,1.823-5.06,2.732-7.59c1.026-2.856,2.056-5.712,3.076-8.571c0.071-0.203,0.158-0.266,0.373-0.265
	c1.721,0.01,3.439,0.01,5.16,0c0.217-0.001,0.299,0.067,0.371,0.267c1.236,3.471,2.482,6.938,3.725,10.407
	c0.707,1.971,1.408,3.943,2.111,5.916C107.044,34.259,107.056,34.297,107.08,34.366z"/>
<path fill="#5D5D5D" d="M56.478,23.907c0.716-1.274,1.813-1.871,3.211-2.032c0.745-0.086,1.474-0.051,2.185,0.168
	c1.364,0.421,2.122,1.405,2.455,2.752c0.141,0.573,0.197,1.158,0.195,1.75c-0.004,2.501-0.006,5.003,0.005,7.504
	c0.001,0.267-0.067,0.326-0.328,0.323c-1.414-0.014-2.828-0.016-4.242,0c-0.273,0.003-0.321-0.076-0.32-0.331
	c0.011-2.194,0.006-4.392,0.005-6.585c0-0.148,0.006-0.298-0.019-0.441c-0.132-0.779-0.515-1.173-1.15-1.199
	c-0.77-0.03-1.343,0.381-1.547,1.119c-0.127,0.459-0.156,0.933-0.157,1.406c-0.002,1.91-0.005,3.82,0.004,5.729
	c0.001,0.229-0.044,0.305-0.291,0.303c-1.436-0.014-2.871-0.01-4.306-0.002c-0.197,0.001-0.266-0.038-0.266-0.254
	c0.007-3.916,0.006-7.831,0.001-11.747c0-0.197,0.037-0.272,0.256-0.271c1.35,0.01,2.7,0.009,4.051,0
	c0.208-0.001,0.269,0.055,0.263,0.264C56.468,22.878,56.478,23.393,56.478,23.907z"/>
<path fill="#5D5D5D" d="M140.473,21.823c1.284,0.04,2.647,0.217,3.858,0.958c1.558,0.955,2.469,2.364,2.77,4.163
	c0.25,1.509,0.115,2.978-0.587,4.351c-0.915,1.788-2.414,2.825-4.365,3.188c-1.569,0.291-3.149,0.274-4.653-0.319
	c-2.137-0.845-3.442-2.417-3.822-4.699c-0.295-1.784-0.036-3.478,1.027-4.983c1.032-1.46,2.465-2.271,4.223-2.533
	C139.402,21.876,139.882,21.826,140.473,21.823z"/>
<path fill="#5D5D5D" d="M81.748,21.825c1.432,0.022,2.829,0.213,4.076,0.98c1.592,0.979,2.497,2.424,2.762,4.264
	c0.198,1.375,0.099,2.724-0.497,4c-0.888,1.904-2.409,3.023-4.443,3.412c-1.63,0.31-3.274,0.289-4.829-0.375
	c-2.189-0.934-3.446-2.607-3.726-4.984c-0.207-1.757,0.119-3.391,1.21-4.82c1.025-1.345,2.405-2.091,4.063-2.351
	C80.824,21.877,81.282,21.817,81.748,21.825z"/>
<path fill="#5D5D5D" d="M67.498,30.112c0-1.33-0.005-2.659,0.005-3.988c0.002-0.227-0.063-0.285-0.281-0.273
	c-0.379,0.018-0.759-0.002-1.139,0.008c-0.172,0.004-0.237-0.039-0.235-0.227c0.008-1.098,0.01-2.195-0.001-3.292
	c-0.002-0.206,0.069-0.246,0.254-0.24c0.38,0.013,0.76-0.008,1.14,0.009c0.207,0.009,0.261-0.053,0.263-0.26
	c0.008-0.79,0.067-1.581,0.322-2.332c0.413-1.217,1.333-1.845,2.561-2.058c1.42-0.247,2.832-0.057,4.243,0.109
	c0.146,0.018,0.293,0.045,0.439,0.043c0.282-0.005,0.339,0.107,0.288,0.38c-0.165,0.865-0.308,1.734-0.446,2.604
	c-0.032,0.2-0.154,0.167-0.276,0.155c-0.501-0.05-1.002-0.126-1.508-0.071c-0.466,0.052-0.707,0.301-0.75,0.778
	c-0.058,0.629-0.058,0.629,0.573,0.635c0.422,0.004,0.844,0.017,1.266,0.008c0.187-0.004,0.257,0.036,0.254,0.241
	c-0.012,0.875,0.003,1.751-0.01,2.627c-0.012,0.807-0.104,0.887-0.895,0.887c-0.327,0-0.655,0.008-0.981-0.004
	c-0.173-0.006-0.238,0.041-0.237,0.228c0.01,1.909,0.013,3.819,0.014,5.729c0.001,0.78-0.013,1.561-0.005,2.342
	c0.002,0.193-0.076,0.221-0.242,0.22c-1.457-0.005-2.913-0.009-4.369,0.003c-0.225,0.002-0.25-0.082-0.249-0.271
	C67.501,32.771,67.498,31.442,67.498,30.112z"/>
<path fill="#5D5D5D" d="M128.393,23.76c0.041-0.016,0.058-0.019,0.06-0.024c0.336-1.673,1.969-2.18,3.457-1.766
	c0.426,0.118,0.825,0.302,1.219,0.501c0.141,0.071,0.19,0.139,0.115,0.317c-0.445,1.027-0.871,2.064-1.297,3.102
	c-0.072,0.176-0.15,0.199-0.328,0.131c-0.271-0.103-0.557-0.174-0.848-0.226c-0.618-0.106-1.146,0.121-1.467,0.673
	c-0.424,0.73-0.512,1.547-0.567,2.364c-0.118,1.737-0.04,3.479-0.049,5.218c-0.001,0.27-0.074,0.324-0.331,0.322
	c-1.414-0.014-2.828-0.012-4.24-0.001c-0.229,0.001-0.304-0.042-0.304-0.29c0.009-3.893,0.008-7.786,0.001-11.679
	c-0.001-0.231,0.053-0.306,0.296-0.304c1.329,0.012,2.658,0.011,3.987,0c0.236-0.002,0.311,0.06,0.301,0.3
	C128.378,22.848,128.393,23.298,128.393,23.76z"/>
<path fill="#5D5D5D" d="M49.396,28.242c0,1.94-0.005,3.882,0.006,5.823c0.001,0.25-0.068,0.309-0.312,0.307
	c-1.414-0.012-2.827-0.012-4.241,0c-0.241,0.002-0.291-0.064-0.291-0.296c0.007-3.894,0.007-7.786,0-11.679
	c0-0.236,0.057-0.301,0.296-0.299c1.413,0.012,2.827,0.013,4.24,0c0.261-0.003,0.308,0.083,0.306,0.32
	C49.392,24.358,49.396,26.301,49.396,28.242z"/>
<path fill="#5D5D5D" d="M167.734,29.126c0.666-1.104,2.944-1.275,3.581,0.125c0.08-0.09,0.158-0.171,0.229-0.258
	c0.598-0.717,1.389-0.842,2.234-0.672c0.824,0.164,1.354,0.856,1.436,1.785c0.135,1.504,0.033,3.014,0.068,4.52
	c0.006,0.203-0.107,0.186-0.238,0.184c-0.633-0.002-1.267-0.012-1.898,0.004c-0.227,0.006-0.255-0.084-0.254-0.274
	c0.007-1.086,0.004-2.173,0.003-3.259c0-0.116-0.004-0.232-0.017-0.348c-0.035-0.332-0.229-0.57-0.496-0.615
	c-0.271-0.045-0.582,0.14-0.7,0.435c-0.103,0.256-0.125,0.531-0.125,0.806c-0.001,0.99-0.007,1.982,0.004,2.974
	c0.002,0.216-0.046,0.29-0.274,0.284c-0.601-0.018-1.203-0.021-1.804,0c-0.252,0.01-0.288-0.08-0.286-0.303
	c0.012-1.139,0.006-2.277,0.004-3.416c0-0.459-0.193-0.74-0.525-0.781c-0.338-0.041-0.639,0.219-0.745,0.634
	c-0.042,0.165-0.06,0.329-0.06,0.5c0.002,1.034-0.004,2.067,0.006,3.101c0.002,0.201-0.045,0.271-0.258,0.266
	c-0.611-0.015-1.225-0.012-1.836,0c-0.193,0.002-0.271-0.033-0.271-0.254c0.009-1.972,0.007-3.942,0.002-5.914
	c0-0.168,0.03-0.241,0.222-0.238c0.602,0.01,1.202,0.003,1.803-0.006c0.153-0.002,0.207,0.048,0.199,0.197
	C167.727,28.774,167.734,28.951,167.734,29.126z"/>
<path fill="#5D5D5D" d="M25.323,10.935c0.791-0.862,1.599-1.709,2.531-2.422c0.877-0.671,1.787-1.321,2.893-1.528
	c0.621-0.117,1.27-0.097,1.901,0.115c0.736,0.248,1.388,0.61,1.898,1.198c0.39,0.449,0.617,0.994,0.847,1.536
	c0.082,0.192,0.132,0.403,0.274,0.564c0.203,0.229,0.409,0.438,0.744,0.49c0.329,0.051,0.647,0.168,0.971,0.253
	c0.114,0.03,0.238,0.048,0.261,0.189c0.021,0.125-0.078,0.2-0.164,0.25c-0.279,0.164-0.557,0.336-0.854,0.463
	c-0.913,0.39-1.872,0.496-2.842,0.323c-0.861-0.153-1.701-0.399-2.377-1.005c-0.614-0.549-1.345-0.597-2.081-0.401
	c-1.052,0.28-2.104,0.575-3.115,0.989c-0.622,0.272-1.253,0.524-1.857,0.835c-0.103,0.053-0.205,0.107-0.3,0.174l0,0
	c-0.083,0.041-0.17,0.071-0.242,0.135c-0.061,0.054-0.137,0.057-0.197-0.004c-0.068-0.07-0.021-0.133,0.029-0.19
	c0.056-0.062,0.116-0.119,0.154-0.195l0,0C24.304,12.112,24.807,11.518,25.323,10.935z"/>
<path fill="#5D5D5D" d="M22.402,13.347c-0.468-0.23-0.909-0.509-1.369-0.756c-0.971-0.522-1.976-0.909-3.078-1.028
	c-0.732-0.08-1.465-0.158-2.188-0.309c-1.344-0.28-2.504-0.888-3.434-1.912c-0.198-0.218-0.412-0.423-0.617-0.634
	c-0.074-0.076-0.174-0.164-0.103-0.271c0.069-0.106,0.191-0.049,0.29-0.016c0.259,0.088,0.503,0.214,0.751,0.324
	c0.599,0.264,1.144,0.107,1.666-0.153c1.131-0.565,2.328-0.907,3.57-1.085c0.8-0.116,1.54,0.14,2.24,0.513
	c0.222,0.109,0.403,0.286,0.633,0.38l0,0c0.427,0.291,0.846,0.594,1.165,1.005c0.355,0.457,0.616,0.964,0.799,1.516
	c0.263,0.793,0.254,1.61,0.259,2.429c0.001,0.109,0.001,0.218-0.108,0.275c-0.125,0.066-0.22-0.005-0.307-0.091
	C22.512,13.475,22.458,13.411,22.402,13.347z"/>
<path fill="#5D5D5D" d="M161.203,28.252c2.299,0.013,3.44,1.618,3.312,3.672c-0.093,1.481-1.127,3.158-3.614,3.027
	c-1.877-0.099-3.197-1.64-3.037-3.638C157.998,29.642,159.126,28.235,161.203,28.252z"/>
<path fill="#5D5D5D" d="M153.823,28.257c0.732,0.012,1.447,0.094,2.078,0.518c0.597,0.398,0.884,0.994,1.083,1.653
	c0.046,0.154-0.025,0.179-0.15,0.194c-0.613,0.081-1.229,0.165-1.842,0.252c-0.111,0.016-0.168-0.02-0.22-0.12
	c-0.295-0.577-0.502-0.7-1.04-0.639c-0.447,0.051-0.748,0.332-0.88,0.86c-0.117,0.467-0.125,0.94,0.013,1.403
	c0.139,0.464,0.499,0.744,0.938,0.769c0.436,0.025,0.82-0.217,0.992-0.686c0.082-0.227,0.177-0.296,0.418-0.259
	c0.561,0.087,1.125,0.144,1.689,0.208c0.178,0.021,0.217,0.087,0.172,0.271c-0.335,1.361-1.355,2.205-2.755,2.254
	c-0.664,0.024-1.325,0.023-1.966-0.193c-1.051-0.355-1.831-1.409-1.902-2.52c-0.039-0.593-0.043-1.176,0.111-1.752
	c0.342-1.273,1.413-2.133,2.727-2.189C153.466,28.274,153.645,28.267,153.823,28.257z"/>
<path fill="#5D5D5D" d="M14.046,17.512c0.23-0.387,0.625-0.581,0.983-0.806c0.777-0.488,1.646-0.782,2.511-1.059
	c0.835-0.268,1.699-0.448,2.554-0.651c0.646-0.154,1.297-0.291,1.95-0.419c0.934-0.184,1.87-0.35,2.806-0.521
	c1.997-0.367,4.014-0.421,6.029-0.314c0.835,0.044,1.69,0.242,2.366,0.815c0.435,0.368,0.732,0.86,1.051,1.33
	c0.487,0.718,0.787,1.53,1.135,2.312c0.271,0.607,0.473,1.25,0.683,1.886c0.246,0.746,0.478,1.496,0.69,2.25
	c0.242,0.857,0.424,1.732,0.605,2.605c0.196,0.941,0.408,1.884,0.494,2.843c0.06,0.667,0.175,1.327,0.187,2.003
	c0.005,0.333,0.078,0.679,0.081,1.023c0.006,0.844-0.094,1.678-0.324,2.485c-0.105,0.37-0.424,0.616-0.734,0.837
	c-0.356,0.254-0.703,0.528-1.145,0.628c-0.024-0.032-0.026-0.065-0.006-0.1c0.172-0.158,0.372-0.281,0.579-0.379
	c0.937-0.447,1.324-1.233,1.35-2.216c0.036-1.336,0.04-2.674-0.176-4c-0.041-0.328-0.03-0.664-0.129-0.982
	c-0.016-0.029-0.028-0.061-0.037-0.092c-0.05-0.208,0.006-0.424-0.052-0.631c-0.009-0.029-0.016-0.062-0.021-0.092
	c-0.008-0.174-0.073-0.332-0.119-0.496c-0.007-0.03-0.012-0.062-0.015-0.092c0.009-0.238-0.093-0.451-0.162-0.67
	c-0.01-0.029-0.017-0.061-0.022-0.091c-0.018-0.218-0.066-0.433-0.104-0.646c-0.011-0.031-0.02-0.062-0.027-0.094
	c-0.264-0.923-0.384-1.882-0.713-2.788c-0.014-0.029-0.025-0.06-0.034-0.09c-0.116-0.407-0.174-0.833-0.396-1.204
	c-0.19-0.478-0.382-0.955-0.507-1.455c0.002-0.208-0.104-0.37-0.222-0.528c-0.362-0.676-0.627-1.398-1.018-2.062
	c-0.672-1.145-1.581-1.919-2.963-2.004c-0.197-0.083-0.4-0.104-0.613-0.103c-0.756,0.006-1.512,0.006-2.267,0.001
	c-0.346-0.007-0.694-0.05-1.029,0.09c-0.087,0.037-0.187,0.028-0.282,0.027c-0.866-0.006-1.708,0.15-2.552,0.331
	c-0.532,0.114-1.059,0.247-1.619,0.337c0.201,0.113,0.237,0.136,0.414,0.074c0.279-0.1,0.506-0.024,0.779,0.075
	c0.389,0.142,0.802,0.243,1.213,0.331c0.473,0.101,0.946,0.255,1.332,0.518c0.366,0.249,0.756,0.403,1.149,0.569
	c0.33,0.14,0.357,0.193,0.212,0.509c0.098,0.09,0.218,0.048,0.328,0.045c0.227-0.005,0.442,0.022,0.63,0.161
	c0.125,0.091,0.28,0.084,0.418,0.129c0.14,0.044,0.358,0.025,0.322,0.28c-0.257,0.06-0.493-0.064-0.734-0.104
	c-0.302-0.05-0.599-0.104-0.904-0.085c-0.393,0.024-0.773-0.048-1.155-0.118c-0.579,0.003-1.05-0.355-1.592-0.476
	c-0.645-0.144-1.255-0.447-1.916-0.491c-0.784-0.051-1.566-0.134-2.359-0.1c-0.576,0.025-1.107,0.167-1.646,0.324
	c-0.071,0.021-0.143,0.062-0.213,0.055c-0.521-0.049-0.977,0.206-1.397,0.414c-0.411,0.203-0.896,0.234-1.262,0.597
	c-0.188,0.186-0.507,0.319-0.754,0.482c-0.541,0.358-1.039,0.77-1.497,1.246c-0.338,0.351-0.475,0.854-0.94,1.107
	C13,20.405,12.964,20.736,12.889,21c-0.052,0.183-0.105,0.365-0.173,0.542c-0.046,0.123-0.118,0.25-0.276,0.186
	c-0.157-0.064-0.164-0.201-0.102-0.346c0.152-0.36,0.254-0.734,0.305-1.122C12.904,19.237,13.403,18.337,14.046,17.512z"/>
<path fill="#5D5D5D" d="M46.979,17.637c0.717,0,1.433,0.005,2.149-0.003c0.189-0.002,0.276,0.023,0.273,0.25
	c-0.014,1-0.011,2.001-0.001,3.002c0.001,0.188-0.038,0.25-0.24,0.249c-1.454-0.01-2.908-0.01-4.362,0
	c-0.204,0.001-0.241-0.062-0.239-0.25c0.008-1,0.012-2.001-0.002-3.001c-0.003-0.225,0.083-0.252,0.272-0.25
	C45.546,17.643,46.263,17.637,46.979,17.637z"/>
<path fill="#5D5D5D" d="M146.994,33.51c0-0.358,0.004-0.716-0.002-1.073c-0.004-0.151,0.021-0.23,0.202-0.229
	c0.706,0.01,1.411,0.008,2.117,0.001c0.149-0.001,0.199,0.042,0.198,0.194c-0.008,0.738-0.006,1.476,0,2.213
	c0.001,0.152-0.047,0.197-0.197,0.195c-0.706-0.006-1.412-0.008-2.117,0.002c-0.181,0.002-0.206-0.078-0.203-0.229
	C146.998,34.228,146.994,33.869,146.994,33.51z"/>
<path fill="#5D5D5D" d="M34.191,35.506c-0.529,0.263-1.105,0.39-1.661,0.571c-1.145,0.374-2.317,0.648-3.49,0.91
	c-1.081,0.242-2.179,0.414-3.273,0.597c-1.645,0.274-3.3,0.438-4.967,0.551c-0.955,0.064-1.907,0.105-2.855,0.071
	c-1.009-0.035-2.027-0.114-3.014-0.354c-0.821-0.201-1.635-0.455-2.295-1.029c-0.142-0.124-0.305-0.229-0.364-0.424
	c-0.024-0.039-0.016-0.066,0.026-0.086c0.265,0.098,0.431,0.328,0.653,0.484c0.889,0.629,1.912,0.842,2.955,1.023
	c0.807,0.14,1.616,0.102,2.425,0.131c0.947,0.033,1.9,0.045,2.837-0.038c0.672-0.06,1.356-0.121,2.027-0.249
	c0.38-0.073,0.773-0.117,1.157-0.137c0.496-0.022,0.976-0.148,1.469-0.157c0.199-0.004,0.357-0.121,0.54-0.167
	c0.07-0.016,0.142-0.018,0.213-0.018c0.209,0.019,0.407-0.035,0.602-0.1c1.714-0.273,3.411-0.624,5.068-1.145
	c0.595-0.14,1.145-0.437,1.757-0.52C34.074,35.431,34.143,35.444,34.191,35.506z"/>
<path fill="#5D5D5D" d="M12.278,36.327c-0.002,0.023-0.004,0.049-0.005,0.072c-0.389-0.385-0.51-0.906-0.671-1.396
	c-0.358-1.089-0.452-2.221-0.562-3.358c-0.084-0.863-0.126-1.725-0.062-2.572c0.062-0.809,0.074-1.625,0.195-2.436
	c0.109-0.734,0.168-1.479,0.291-2.213c0.09-0.537,0.229-1.066,0.345-1.6c0.245-1.13,0.58-2.235,0.993-3.313
	c0.186-0.483,0.437-0.945,0.73-1.377c0.152-0.223,0.27-0.477,0.515-0.624c-0.145,0.329-0.405,0.585-0.563,0.911
	c-0.289,0.593-0.645,1.156-0.763,1.82c-0.154,0.396-0.296,0.812-0.369,1.217c-0.07,0.388-0.163,0.773-0.243,1.16
	c-0.08,0.388-0.176,0.781-0.232,1.165c-0.069,0.479-0.292,0.951-0.156,1.453c0.023,0.086-0.011,0.164-0.034,0.246
	c-0.284,1.017-0.493,2.043-0.452,3.106c0.005,0.562,0.003,1.121-0.006,1.681c-0.026,1.106,0.01,2.207,0.237,3.295
	c0.176,0.845,0.39,1.677,0.756,2.463C12.266,36.123,12.322,36.216,12.278,36.327z"/>
<path fill="#5D5D5D" d="M22.402,13.347c0.175,0.029,0.237,0.346,0.438,0.229c0.196-0.115,0.047-0.349,0.062-0.527
	c0.074-0.861-0.042-1.703-0.369-2.502c-0.289-0.708-0.716-1.326-1.347-1.785c-0.149-0.109-0.335-0.179-0.424-0.361
	c0.599,0.274,1.046,0.713,1.413,1.254c0.692,1.018,0.9,2.153,0.859,3.354c-0.003,0.099-0.054,0.241,0.06,0.285
	c0.104,0.041,0.178-0.084,0.253-0.153c0.154-0.141,0.257-0.335,0.45-0.437c0.017,0.142-0.153,0.193-0.166,0.34
	c0.169,0.101,0.266-0.167,0.422-0.085c-0.21,0.239-0.5,0.378-0.718,0.623C23.057,13.895,22.607,13.75,22.402,13.347z"/>
<path fill="#5D5D5D" d="M34.191,35.506c-0.066-0.002-0.132-0.004-0.198-0.006c0.014-0.171,0.163-0.222,0.28-0.263
	c0.487-0.17,0.959-0.377,1.444-0.549c0.078-0.027,0.162-0.054,0.244-0.004c0.002,0.024,0.003,0.049,0.005,0.074
	c-0.337,0.283-0.784,0.323-1.161,0.521C34.614,35.381,34.397,35.433,34.191,35.506z"/>
<path fill="#5D5D5D" d="M24.054,12.959c0.1-0.199,0.316-0.235,0.487-0.313c0.547-0.252,1.072-0.563,1.67-0.696
	c-0.244,0.221-0.558,0.311-0.853,0.422C24.911,12.543,24.52,12.834,24.054,12.959z"/>
<path fill="#5D5D5D" d="M25.323,10.935c-0.034,0.233-0.242,0.337-0.379,0.485c-0.391,0.42-0.689,0.923-1.146,1.285
	c0.147-0.331,0.413-0.572,0.643-0.837C24.722,11.545,24.969,11.189,25.323,10.935z"/>
<path fill="#5D5D5D" d="M20.764,8.4c-0.265-0.037-0.464-0.183-0.633-0.38C20.42,8.015,20.566,8.25,20.764,8.4z"/>
<path fill="#FFFFFF" d="M116.068,28.046c0.016,0.362-0.037,0.755-0.167,1.137c-0.257,0.754-0.886,1.215-1.628,1.19
	c-0.751-0.024-1.348-0.511-1.531-1.304c-0.176-0.756-0.166-1.523,0.022-2.276c0.187-0.749,0.624-1.162,1.254-1.233
	c0.748-0.084,1.368,0.235,1.729,0.895C115.972,26.858,116.069,27.334,116.068,28.046z"/>
<path fill="#FFFFFF" d="M98.191,22.315c0.307,1.092,0.604,2.148,0.896,3.206c0.182,0.655,0.349,1.313,0.543,1.965
	c0.059,0.197,0.015,0.232-0.172,0.231c-0.854-0.007-1.707-0.005-2.562-0.001c-0.147,0.001-0.248-0.007-0.192-0.199
	c0.479-1.701,0.953-3.4,1.431-5.102C98.141,22.396,98.155,22.379,98.191,22.315z"/>
<path fill="#FFFFFF" d="M138.423,28.313c-0.012-0.565,0.027-1.088,0.197-1.592c0.273-0.808,0.955-1.34,1.719-1.348
	c0.828-0.009,1.486,0.449,1.771,1.3c0.364,1.091,0.336,2.197-0.034,3.278c-0.265,0.77-1,1.244-1.744,1.206
	c-0.853-0.043-1.541-0.638-1.773-1.539C138.444,29.179,138.406,28.729,138.423,28.313z"/>
<path fill="#FFFFFF" d="M79.885,28.249c-0.001-0.506,0.029-1.007,0.197-1.492c0.318-0.919,1-1.412,1.915-1.383
	c0.733,0.023,1.418,0.623,1.645,1.477c0.264,0.996,0.257,1.996-0.06,2.98c-0.268,0.831-0.927,1.326-1.718,1.328
	c-0.802,0.002-1.478-0.506-1.765-1.325C79.919,29.319,79.884,28.787,79.885,28.249z"/>
<path fill="#FFFFFF" d="M160.201,31.515c0.027-0.189,0.043-0.391,0.086-0.584c0.118-0.51,0.5-0.841,0.936-0.826
	c0.422,0.013,0.767,0.351,0.875,0.857c0.107,0.505,0.061,1.007-0.062,1.5c-0.099,0.396-0.481,0.689-0.849,0.688
	c-0.356-0.002-0.729-0.289-0.84-0.662C160.251,32.175,160.237,31.849,160.201,31.515z"/>
<path fill="#5D5D5D" d="M26.779,17.014c0.94,0.205,1.927,0.054,2.852,0.376c0.164-0.085,0.279,0.042,0.412,0.095
	c0.057,0.057,0.162,0.101,0.057,0.204c-0.104,0.047-0.207,0.036-0.307-0.007c-0.593-0.258-1.22-0.317-1.855-0.32
	c-0.485-0.003-0.971-0.005-1.456,0c-1.236,0.013-2.453,0.17-3.655,0.462c-0.365,0.089-0.749,0.092-1.123,0.156
	c-0.756,0.13-1.511,0.265-2.259,0.435c-0.584,0.133-1.167,0.284-1.75,0.421c-0.825,0.195-1.329,0.749-1.715,1.436
	c-0.625,1.111-0.99,2.32-1.295,3.553c-0.185,0.747-0.32,1.5-0.436,2.259c-0.201,1.313-0.301,2.634-0.291,3.961
	c0.005,0.608,0.049,1.224,0.206,1.815c0.109,0.412,0.445,0.656,0.789,0.869c0.735,0.455,1.55,0.707,2.385,0.903
	c0.892,0.21,1.788,0.398,2.696,0.522c0.584,0.08,1.173,0.136,1.761,0.179c1.061,0.078,2.124,0.129,3.186,0.179
	c0.526,0.023,1.053,0.033,1.58-0.022c0.566-0.06,1.134-0.029,1.701,0.019c0.147,0.158,0.009,0.209-0.101,0.272
	c-0.031,0.015-0.064,0.026-0.098,0.034c-0.43,0.127-0.883,0.045-1.317,0.146c-0.24,0.056-0.47,0.095-0.606,0.342
	c-0.081,0.146-0.252,0.181-0.41,0.212c-0.441,0.092-0.868,0.189-1.275,0.426c-0.407,0.237-0.906,0.257-1.379,0.278
	c-0.276,0.013-0.548,0.017-0.81,0.116c-0.049,0.02-0.105,0.048-0.153,0.035c-0.393-0.111-0.796-0.008-1.19-0.059
	c-0.23-0.028-0.454-0.093-0.689-0.053c-0.083,0.014-0.169-0.008-0.25-0.031c-0.696-0.196-1.412-0.354-2.077-0.629
	c-0.834-0.346-1.628-0.791-2.319-1.391c-0.122-0.105-0.252-0.189-0.405-0.242c-0.101-0.035-0.183-0.101-0.253-0.183
	c-0.445-0.511-0.791-1.103-1.26-1.591c-0.648-0.676-0.989-1.525-1.389-2.344c-0.148-0.304-0.219-0.644-0.269-0.973
	c-0.092-0.604-0.291-1.188-0.331-1.8c-0.057-0.877,0.029-1.743,0.295-2.583c0.128-0.404,0.091-0.827,0.208-1.238
	c0.193-0.675,0.444-1.305,0.822-1.902c0.265-0.418,0.57-0.806,0.832-1.226c0.269-0.431,0.681-0.745,1.021-1.12
	c0.498-0.548,1.145-0.896,1.789-1.224c0.364-0.186,0.63-0.491,0.994-0.665c0.342-0.164,0.686-0.314,1.06-0.384
	c0.073-0.014,0.148-0.017,0.216-0.044c0.751-0.302,1.549-0.271,2.334-0.336c0.901-0.075,1.779,0.119,2.664,0.213
	c0.286,0.03,0.581,0.116,0.794,0.352c0.073,0.081,0.175,0.126,0.285,0.114c0.516-0.056,1.029-0.056,1.541,0.038
	C26.617,17.085,26.706,17.062,26.779,17.014z"/>
<path fill="#5D5D5D" d="M28.235,13.849c0.654-0.001,1.308-0.002,1.961-0.002c0.365,0,0.733-0.034,1.078,0.129
	c0.003,0.129-0.1,0.111-0.177,0.125c-0.088,0.015-0.193-0.024-0.26,0.098c0.071,0.114,0.21,0.117,0.315,0.175
	c0.179,0.098,0.337,0.215,0.448,0.39c0.045,0.071,0.091,0.174,0.171,0.176c0.308,0.007,0.408,0.245,0.55,0.448
	c0.158,0.226,0.443,0.358,0.575,0.571c0.312,0.507,0.826,0.841,1.099,1.375c0.311,0.611,0.732,1.148,1.148,1.692
	c0.374,0.487,0.503,1.107,0.686,1.684c0.171,0.542,0.422,1.055,0.539,1.614c0.062,0.296,0.15,0.582,0.156,0.892
	c0.007,0.299,0.131,0.585,0.187,0.883c0.127,0.683,0.252,1.361,0.292,2.057c0.024,0.412,0.064,0.818-0.108,1.21
	c-0.013,0.028-0.021,0.063-0.013,0.093c0.146,0.496-0.083,0.951-0.153,1.423c-0.003,0.021,0,0.046-0.011,0.062
	c-0.271,0.396-0.212,0.854-0.259,1.295c-0.05,0.464-0.012,0.927-0.035,1.389c-0.014,0.275-0.056,0.548-0.175,0.798
	c-0.057,0.119-0.105,0.296-0.313,0.212c-0.073-0.238,0.095-0.423,0.154-0.627c0.173-0.604,0.156-1.223,0.067-1.816
	c-0.139-0.932-0.314-1.863-0.652-2.754c-0.1-0.264-0.234-0.52-0.258-0.808c-0.028-0.341-0.238-0.621-0.319-0.944
	c-0.027-0.108-0.088-0.213-0.139-0.316c-0.043-0.088-0.083-0.184,0.026-0.251c0.105-0.065,0.173,0.019,0.248,0.075
	c0.115,0.087,0.126,0.24,0.249,0.365c-0.318-1.156-0.276-2.342-0.721-3.453c-0.222-0.555-0.561-1.083-0.625-1.701
	c-0.011-0.109-0.089-0.188-0.168-0.26c-0.088-0.08-0.158-0.173-0.179-0.291c-0.035-0.194-0.174-0.332-0.257-0.497
	c-0.315-0.626-0.818-1.115-1.209-1.684c-0.284-0.414-0.671-0.753-1.025-1.111c-0.524-0.53-1.056-1.066-1.717-1.421
	c-0.313-0.168-0.589-0.391-0.91-0.541c-0.106-0.05-0.203-0.111-0.295-0.182C27.881,14.17,27.887,14.064,28.235,13.849z"/>
<path fill="#5D5D5D" d="M35.959,32.655c0.345-0.233,0.335-0.618,0.373-0.961c0.064-0.582-0.08-1.18,0.122-1.754
	c-0.258-0.336,0.052-0.569,0.117-0.859c0.113-0.503,0.417-0.999,0.216-1.551c-0.017-0.047-0.015-0.111,0.004-0.156
	c0.358-0.893,0.016-1.771-0.039-2.658c-0.021-0.346-0.237-0.65-0.167-1.011c0.028-0.14-0.201-0.205-0.175-0.354
	c0.038-0.219-0.01-0.416-0.049-0.63c-0.065-0.352-0.139-0.702-0.283-1.021c-0.204-0.451-0.247-0.954-0.472-1.388
	c-0.201-0.389-0.236-0.838-0.493-1.205c-0.215-0.307-0.496-0.557-0.693-0.883c-0.106-0.175-0.222-0.356-0.323-0.535
	c-0.272-0.48-0.633-0.883-0.983-1.305c-0.294-0.354-0.663-0.635-0.922-1.007c-0.125-0.18-0.176-0.374-0.453-0.326
	c-0.066,0.011-0.123-0.071-0.154-0.143c-0.132-0.308-0.395-0.449-0.693-0.55c-0.101-0.034-0.274-0.038-0.224-0.196
	c0.036-0.116,0.188-0.172,0.316-0.165c0.101,0.006,0.2,0.08,0.29-0.024c0.872,0.126,1.652,0.392,2.255,1.112
	c0.662,0.789,1.09,1.693,1.507,2.613c0.058,0.128,0.11,0.259,0.165,0.389c0.08,0.171,0.142,0.351,0.25,0.508
	c0.12,0.503,0.314,0.981,0.508,1.459c0.105,0.428,0.242,0.846,0.379,1.264h0.001c0.105,0.494,0.238,0.982,0.345,1.477
	c0.104,0.484,0.214,0.976,0.416,1.435l0,0c0.062,0.229,0.012,0.479,0.127,0.697c0.001,0.021,0.001,0.041,0,0.062
	c0.051,0.236,0.099,0.473,0.188,0.697c0,0.021,0,0.043,0,0.063c-0.036,0.188,0.031,0.351,0.127,0.506
	c0.001,0.021,0.001,0.042,0.001,0.062c0.073,0.229-0.052,0.475,0.063,0.699l0,0c0.123,0.326,0.053,0.689,0.19,1.014
	c0.23,1.357,0.236,2.727,0.172,4.093c-0.025,0.528-0.091,1.091-0.476,1.54c-0.113,0.133-0.25,0.227-0.378,0.328
	c-0.353,0.279-0.73,0.525-1.153,0.689c-0.652,0.283-1.355,0.44-1.968,0.816c-0.348,0.076-0.686,0.176-1.017,0.309
	c-0.221,0.09-0.459,0.137-0.689,0.202c-0.201,0.052-0.414,0.054-0.608,0.14c-0.139,0.062-0.259,0.021-0.308-0.121
	c-0.049-0.143,0.062-0.213,0.175-0.256c0.462-0.178,0.742-0.57,1.074-0.901c0.068-0.068,0.059-0.149,0.055-0.235
	c-0.012-0.328,0.035-0.339,0.362-0.426c0.573-0.152,1.157-0.289,1.661-0.629c0.06-0.049,0.127-0.086,0.199-0.117
	C35.333,33.302,35.633,32.961,35.959,32.655z"/>
<path fill="#5D5D5D" d="M28.235,13.849c-0.264,0.328-0.225,0.408,0.224,0.651c0.668,0.362,1.353,0.714,1.914,1.227
	c0.529,0.483,1.027,1.004,1.523,1.526c0.381,0.401,0.594,0.935,1.059,1.263c0.082,0.058,0.099,0.204,0.157,0.302
	c0.132,0.226,0.236,0.469,0.444,0.647c0.088,0.075,0.127,0.192,0.125,0.315c-0.002,0.089,0.021,0.185,0.088,0.229
	c0.212,0.139,0.27,0.334,0.324,0.574c0.064,0.286,0.155,0.572,0.346,0.83c0.21,0.285,0.164,0.68,0.316,1.007
	c0.383,0.824,0.369,1.731,0.5,2.606c0.023,0.158,0.104,0.271,0.16,0.402c0.037,0.088,0.083,0.194-0.039,0.243
	c-0.117,0.046-0.206-0.01-0.233-0.139c-0.009-0.041,0.005-0.093-0.015-0.125c-0.07-0.11-0.169-0.292-0.275-0.241
	c-0.151,0.073,0.04,0.184,0.07,0.277c0.125,0.381,0.268,0.756,0.404,1.133c-0.226-0.004-0.251-0.195-0.304-0.344
	c-0.257-0.734-0.575-1.442-0.897-2.148c-0.239-0.525-0.434-1.073-0.726-1.574c-0.459-0.788-0.904-1.585-1.34-2.384
	c-0.359-0.659-0.791-1.262-1.204-1.88c-0.214-0.32-0.5-0.561-0.849-0.726c-0.125-0.044-0.251-0.087-0.377-0.131
	c-0.149-0.127-0.349-0.13-0.513-0.201c-0.417-0.18-0.829-0.286-1.285-0.266c-0.153,0.007-0.188-0.115-0.027-0.211
	c0.269-0.16,0.124-0.24-0.061-0.317c-0.405-0.17-0.878-0.202-1.18-0.587c-0.047-0.061-0.143-0.09-0.221-0.118
	c-0.727-0.254-1.442-0.551-2.217-0.64c-0.011-0.001-0.025,0.002-0.031-0.003c-0.347-0.343-0.749-0.168-1.138-0.124
	c-0.129,0.015-0.302,0-0.306-0.146c-0.005-0.178,0.18-0.147,0.313-0.173c0.29-0.057,0.573-0.148,0.863-0.205
	c0.305-0.06,0.614-0.094,0.919-0.164c0.792-0.181,1.599-0.241,2.413-0.287C27.512,13.927,27.873,13.851,28.235,13.849z"/>
<path fill="#5D5D5D" d="M26.779,17.014c-0.099,0.119-0.233,0.143-0.373,0.123c-0.466-0.067-0.931-0.087-1.397,0
	c-0.099,0.019-0.209-0.002-0.268-0.071c-0.399-0.472-0.98-0.375-1.493-0.501c-0.374-0.092-0.757-0.078-1.134-0.139
	c-0.355-0.058-0.753-0.02-1.125,0.026c-0.601,0.075-1.216,0.018-1.802,0.238c-0.403,0.151-0.837,0.221-1.237,0.378
	c-0.274,0.107-0.55,0.246-0.754,0.483c-0.234,0.272-0.606,0.31-0.888,0.51c-0.497,0.353-1.064,0.602-1.467,1.088
	c-0.241,0.291-0.577,0.512-0.777,0.824c-0.251,0.392-0.599,0.717-0.785,1.152c-0.075,0.176-0.238,0.298-0.329,0.458
	c-0.3,0.534-0.519,1.095-0.669,1.7c-0.163,0.653-0.188,1.327-0.415,1.976c-0.121,0.344-0.089,0.791-0.12,1.19
	c-0.059,0.751,0.186,1.452,0.295,2.171c0.101,0.663,0.315,1.308,0.653,1.914c0.212,0.379,0.519,0.718,0.607,1.166
	c0.009,0.044,0.054,0.09,0.094,0.119c0.322,0.228,0.496,0.607,0.768,0.844c0.26,0.227,0.351,0.531,0.584,0.765
	c0.644,0.645,1.401,1.116,2.16,1.575c0.454,0.275,0.917,0.623,1.459,0.684c0.629,0.07,1.165,0.504,1.784,0.473
	c0.451-0.023,0.879,0.095,1.329,0.082c0.453-0.014,0.898-0.062,1.347-0.098c0.697-0.056,1.393-0.054,2-0.518
	c0.194-0.148,0.518-0.134,0.784-0.18c0.24-0.041,0.493-0.041,0.547-0.364c0.017-0.103,0.131-0.103,0.206-0.121
	c0.326-0.078,0.653-0.168,0.992-0.147c0.256,0.016,0.5-0.054,0.751-0.066c-0.011,0.173-0.15,0.191-0.27,0.199
	c-0.276,0.017-0.498,0.127-0.71,0.303c-0.192,0.16-0.403,0.307-0.653,0.378c-0.081,0.022-0.162,0.062-0.216,0.127
	c-0.177,0.212-0.392,0.272-0.67,0.265c-0.287-0.01-0.538,0.164-0.785,0.305c-0.1,0.058-0.194,0.146-0.313,0.139
	c-0.435-0.025-0.818,0.191-1.233,0.247c-0.74,0.101-1.502,0.269-2.228,0.113c-0.675-0.146-1.359-0.27-2.035-0.388
	c-0.458-0.08-0.831-0.287-1.245-0.435c-0.624-0.224-1.201-0.531-1.771-0.864c-0.578-0.337-1.073-0.762-1.5-1.271
	c-0.057-0.068-0.135-0.099-0.216-0.125c-0.104-0.034-0.204-0.087-0.248-0.185c-0.188-0.41-0.544-0.692-0.808-1.045
	c-0.197-0.263-0.374-0.541-0.577-0.798c-0.282-0.358-0.417-0.772-0.574-1.187c-0.202-0.531-0.385-1.065-0.507-1.623
	c-0.054-0.246-0.118-0.489-0.139-0.79c-0.118,0.159-0.038,0.403-0.272,0.425c-0.047-1.004,0.161-1.982,0.412-2.938
	c0.085-0.322-0.051-0.617,0.065-0.923c0.04-0.104,0.017-0.255,0.103-0.366c0.019-0.025,0.048-0.063,0.041-0.082
	c-0.151-0.375,0.143-0.684,0.155-1.042c0.014-0.396,0.128-0.794,0.245-1.178c0.172-0.563,0.251-1.154,0.504-1.693
	c0.013-0.027,0.038-0.049,0.057-0.073c-0.042,0.407-0.133,0.803-0.319,1.168c-0.063,0.125-0.036,0.222,0.062,0.265
	c0.124,0.054,0.154-0.079,0.183-0.163c0.132-0.383,0.184-0.792,0.391-1.151c0.06-0.104,0.126-0.198,0.231-0.25
	c0.24-0.118,0.431-0.263,0.417-0.567c-0.001-0.034,0.036-0.077,0.065-0.104c0.584-0.545,1.114-1.167,1.811-1.561
	c0.261-0.147,0.43-0.486,0.799-0.454c0.047,0.004,0.104-0.093,0.153-0.147c0.049-0.054,0.091-0.155,0.142-0.16
	c0.434-0.036,0.767-0.339,1.18-0.425c0.051-0.011,0.117-0.007,0.15-0.038c0.456-0.429,1.105-0.21,1.622-0.49
	c0.242-0.131,0.576-0.11,0.859-0.247c0.138-0.066,0.358,0.043,0.555,0.048c0.579,0.012,1.155-0.065,1.745,0.062
	c0.391,0.084,0.818,0.105,1.23,0.147c0.241,0.025,0.399,0.224,0.604,0.235c0.379,0.02,0.704,0.212,1.061,0.268
	c0.288,0.044,0.466,0.32,0.777,0.302C26.543,16.976,26.664,17.011,26.779,17.014z"/>
<path fill="#5D5D5D" d="M37.101,24.233c-0.106-0.06-0.195-0.135-0.188-0.268c0.01-0.165-0.026-0.302-0.145-0.43
	c-0.096-0.103,0.02-0.318-0.016-0.346c-0.256-0.204-0.132-0.509-0.212-0.753c-0.116-0.351-0.235-0.726-0.2-1.115
	c0.24,0.304,0.271,0.694,0.354,1.042c0.133,0.56,0.247,1.125,0.395,1.682C37.104,24.104,37.097,24.17,37.101,24.233z"/>
<path fill="#5D5D5D" d="M36.339,21.321c-0.236-0.058-0.105-0.28-0.174-0.417c-0.129-0.258-0.249-0.538-0.205-0.847
	C36.17,20.453,36.278,20.88,36.339,21.321z"/>
<path fill="#5D5D5D" d="M37.798,28.032c-0.166-0.318-0.193-0.663-0.19-1.014c0.071,0.035,0.126,0.09,0.119,0.17
	C37.703,27.476,37.798,27.75,37.798,28.032z"/>
<path fill="#5D5D5D" d="M37.417,25.688c-0.197-0.196-0.209-0.442-0.188-0.697C37.353,25.207,37.433,25.437,37.417,25.688z"/>
<path fill="#5D5D5D" d="M35.452,18.597c-0.194-0.115-0.265-0.29-0.25-0.508C35.368,18.218,35.439,18.393,35.452,18.597z"/>
<path fill="#5D5D5D" d="M37.544,26.259c-0.223-0.124-0.241-0.298-0.127-0.506C37.483,25.916,37.559,26.076,37.544,26.259z"/>
<path fill="#5D5D5D" d="M37.228,24.931c-0.212-0.203-0.099-0.463-0.127-0.697C37.178,24.459,37.236,24.688,37.228,24.931z"/>
<path fill="#5D5D5D" d="M37.608,27.019c-0.175-0.219-0.074-0.461-0.063-0.697C37.667,26.544,37.577,26.787,37.608,27.019z"/>
<path fill="#5D5D5D" d="M12.278,36.327c-0.357-0.696-0.587-1.43-0.776-2.191c-0.314-1.263-0.391-2.535-0.364-3.822
	c0.071-0.098-0.002-0.311,0.157-0.305c0.15,0.006,0.179,0.2,0.194,0.326c0.081,0.643,0.367,1.201,0.671,1.759
	c0.139,0.255,0.341,0.455,0.509,0.685c0.432,0.589,0.842,1.186,1.397,1.693c0.415,0.379,0.933,0.609,1.303,1.031
	c0.063,0.072,0.166,0.09,0.26,0.105c0.116,0.019,0.245,0.037,0.321,0.121c0.309,0.35,0.752,0.48,1.131,0.715
	c0.406,0.25,0.875,0.359,1.333,0.472c0.255,0.062,0.508,0.136,0.765,0.194c0.63,0.144,1.275,0.135,1.915,0.175
	c0.084,0.005,0.168,0.002,0.251,0.018c0.673,0.128,1.339,0.074,2.002-0.073c0.268-0.059,0.543-0.049,0.814-0.105
	c0.723-0.148,1.418-0.361,2.057-0.741c0.085-0.05,0.178-0.061,0.274-0.061c0.108-0.001,0.224-0.011,0.294-0.093
	c0.209-0.242,0.5-0.347,0.771-0.484c0.425-0.215,0.818-0.477,1.159-0.809c0.19-0.187,0.417-0.277,0.673-0.317
	c0.085-0.021,0.171-0.021,0.258-0.027c0.23-0.008,0.453-0.058,0.673-0.122c0.295-0.087,0.594-0.088,0.895-0.033
	c0.156,0.119,0.026,0.158-0.062,0.178c-0.378,0.084-0.746,0.213-1.13,0.268c-0.127,0.018-0.22,0.021-0.18,0.202
	c0.045,0.204-0.097,0.336-0.258,0.427c-0.459,0.26-0.857,0.59-1.259,0.93c-0.276,0.234-0.621,0.449-1.032,0.431
	c-0.259-0.013-0.12,0.173-0.137,0.28c-0.169,0.138-0.37,0.13-0.57,0.125c-0.046-0.062,0.007-0.197-0.112-0.196
	c-0.142,0.002-0.029,0.139-0.079,0.196c-0.278,0.172-0.594,0.15-0.899,0.205c-0.73,0.134-1.472,0.14-2.201,0.25
	c-1.285,0.191-2.568,0.328-3.873,0.32c-0.867-0.006-1.738,0.004-2.602-0.033c-0.669-0.028-1.341-0.143-2.001-0.328
	c-0.424-0.117-0.842-0.225-1.239-0.42C13.093,37.03,12.642,36.74,12.278,36.327z"/>
<path fill="#5D5D5D" d="M27.159,37.151c-0.054-0.09-0.243-0.114-0.163-0.264c0.066-0.121,0.213-0.146,0.336-0.104
	c0.162,0.054,0.281,0.056,0.365-0.118c0.019-0.038,0.083-0.076,0.127-0.077c0.355-0.007,0.524-0.275,0.75-0.488
	c0.256-0.242,0.563-0.429,0.874-0.604c0.21-0.118,0.5-0.204,0.243-0.557c-0.083-0.114,0.084-0.127,0.17-0.131
	c0.49-0.023,0.941-0.216,1.413-0.316c0.123-0.204,0.336-0.19,0.527-0.208c0.827-0.077,1.615-0.31,2.397-0.57
	c0.18-0.06,0.354-0.187,0.562-0.104c-0.081,0.177-0.261,0.214-0.415,0.257c-0.475,0.131-0.903,0.409-1.41,0.438
	c-0.236,0.014-0.225,0.178-0.182,0.344c0.017,0.064,0.116,0.125,0.033,0.191c-0.404,0.323-0.652,0.835-1.194,0.993
	c-0.085,0.024-0.212,0.052-0.169,0.179c0.031,0.092,0.143,0.152,0.232,0.086c0.2-0.146,0.42-0.072,0.631-0.086
	c-0.428,0.196-0.886,0.286-1.343,0.383c-0.375,0.08-0.753,0.16-1.111,0.291c-0.336,0.125-0.693,0.084-1.03,0.205
	c-0.347,0.123-0.73,0.107-1.083,0.229C27.538,37.183,27.346,37.14,27.159,37.151z"/>
<path fill="#5D5D5D" d="M26.398,37.276c-0.058-0.075-0.191-0.135-0.076-0.256c0.085-0.088,0.187-0.072,0.285-0.006
	c0.145,0.101,0.02,0.178-0.018,0.262C26.525,37.276,26.462,37.276,26.398,37.276z"/>
<path fill="#5D5D5D" d="M29.375,34.683c-0.418,0.107-0.693,0.405-1.006,0.68c-0.308,0.271-0.719,0.43-1.096,0.615
	c-0.136,0.065-0.267,0.123-0.349,0.252c-0.062,0.098-0.155,0.17-0.257,0.16c-0.392-0.039-0.633,0.324-0.954,0.37
	c-0.453,0.065-0.809,0.362-1.267,0.401c-0.56,0.049-1.112,0.206-1.672,0.246c-0.428,0.029-0.856,0.089-1.299,0.017
	c-0.524-0.086-1.064-0.108-1.603-0.104c-0.256,0.004-0.516-0.078-0.768-0.144c-0.593-0.153-1.185-0.31-1.771-0.487
	c-0.155-0.047-0.293-0.162-0.426-0.263c-0.121-0.093-0.241-0.171-0.398-0.159c-0.136,0.008-0.2-0.069-0.271-0.174
	c-0.152-0.222-0.354-0.383-0.64-0.396c-0.146-0.008-0.269-0.067-0.359-0.176c-0.214-0.256-0.493-0.414-0.791-0.547
	c-0.047-0.021-0.109-0.048-0.127-0.088c-0.132-0.293-0.403-0.447-0.624-0.656c-0.262-0.246-0.528-0.478-0.692-0.83
	c-0.159-0.344-0.451-0.625-0.693-0.926c-0.232-0.289-0.357-0.635-0.546-0.945c-0.278-0.456-0.27-0.997-0.457-1.481
	c-0.122,0.062-0.077,0.207-0.172,0.267c0-0.59,0.001-1.183,0.001-1.773c0.118-0.1,0.127-0.232,0.126-0.374
	c0-0.092-0.013-0.222,0.113-0.222c0.111,0,0.132,0.123,0.136,0.216c0.021,0.583,0.18,1.146,0.384,1.676
	c0.216,0.56,0.312,1.174,0.688,1.671c0.143,0.188,0.354,0.344,0.335,0.621c0.401,0.127,0.438,0.585,0.732,0.811
	c0.144,0.109,0.262,0.242,0.333,0.414c0.076,0.183,0.171,0.342,0.41,0.325c0.036-0.002,0.099,0.024,0.108,0.052
	c0.161,0.479,0.644,0.649,0.963,0.968c0.299,0.298,0.705,0.536,1.13,0.688c0.138,0.05,0.301,0.084,0.397,0.181
	c0.239,0.24,0.556,0.271,0.847,0.375c0.177,0.062,0.366,0.092,0.474,0.281c0.03,0.051,0.14,0.11,0.186,0.094
	c0.452-0.172,0.816,0.199,1.249,0.184c0.68-0.025,1.302,0.4,2.005,0.277c0.704-0.121,1.443-0.02,2.119-0.33
	c0.038-0.018,0.083-0.047,0.119-0.039c0.529,0.104,0.896-0.288,1.344-0.434c0.04-0.013,0.079-0.056,0.114-0.051
	c0.675,0.096,1.066-0.455,1.573-0.721c0.295-0.154,0.546-0.354,0.899-0.346c0.06,0.002,0.123-0.07,0.184-0.108l0,0
	c0.306-0.108,0.617-0.185,0.946-0.151C29.167,34.604,29.287,34.584,29.375,34.683z"/>
<path fill="#5D5D5D" d="M34.942,33.467c0.052-0.052,0.094-0.12,0.156-0.151c0.774-0.395,0.983-1.116,1.045-1.885
	c0.077-0.953-0.117-1.881-0.355-2.799c-0.49-1.887-1.291-3.652-2.117-5.407c-0.47-0.998-1.009-1.958-1.558-2.913
	c-0.394-0.686-0.831-1.346-1.255-2.013c-0.179-0.281-0.486-0.427-0.724-0.646c-0.042-0.043-0.083-0.087-0.126-0.131
	c0.393,0.019,0.639,0.292,0.833,0.568c0.384,0.548,0.814,1.07,1.118,1.67c0.391,0.772,0.825,1.521,1.25,2.272
	c0.644,1.14,1.104,2.354,1.645,3.537c0.153,0.334,0.149,0.754,0.474,1.009c0.047,0.455,0.276,0.854,0.406,1.284
	c0.202,0.675,0.35,1.357,0.46,2.05c0.142,0.887,0.211,1.776-0.221,2.62c-0.018,0.035-0.009,0.083-0.013,0.125
	c-0.207,0.445-0.617,0.656-1.013,0.885C34.913,33.519,34.911,33.494,34.942,33.467z"/>
<path fill="#5D5D5D" d="M28.299,34.565c0.023-0.002,0.047-0.002,0.071-0.004c0.361-0.037,0.721,0.073,1.083,0.002
	c0.075-0.016,0.174-0.004,0.176,0.119c-0.084,0-0.168,0-0.253,0c-0.424-0.022-0.846,0.019-1.267,0.062
	C28.15,34.662,28.303,34.697,28.299,34.565z"/>
<path fill="#5D5D5D" d="M29.628,34.683c-0.192-0.125-0.407-0.039-0.609-0.062c-0.215-0.023-0.44,0.047-0.649-0.059
	c0.08-0.105,0.196-0.067,0.293-0.06c0.938,0.083,1.853-0.142,2.779-0.211c0.898-0.067,1.775-0.278,2.635-0.554
	c0.288-0.092,0.559-0.238,0.866-0.271c0.001,0.024,0.003,0.049,0.004,0.073c-0.062,0.022-0.124,0.046-0.185,0.069
	c-0.829,0.339-1.699,0.537-2.566,0.738c-0.299,0.069-0.627,0.006-0.921,0.145C30.708,34.405,30.181,34.651,29.628,34.683z"/>
<path fill="#5D5D5D" d="M11.412,27.408c-0.027-0.173-0.061-0.345-0.08-0.519c-0.008-0.074,0.024-0.156,0.114-0.16
	c0.112-0.004,0.14,0.088,0.127,0.174c-0.024,0.17-0.064,0.337-0.097,0.505C11.454,27.409,11.433,27.409,11.412,27.408z"/>
<path fill="#5D5D5D" d="M26.717,27.147c0.302-0.231,0.412-0.6,0.631-0.889c0.262-0.566,0.396-1.148,0.327-1.785
	c-0.04-0.365-0.239-0.645-0.399-0.941c-0.215-0.401-0.548-0.708-0.95-0.93c-0.494-0.395-1.074-0.533-1.688-0.589
	c-0.487-0.044-0.972,0.012-1.424,0.153c-0.393,0.123-0.757,0.353-1.12,0.566c-0.697,0.41-1.098,1.054-1.453,1.738
	c-0.268,0.518-0.231,1.088-0.184,1.639c0.088,1.01,0.561,1.83,1.341,2.474c0.971,0.658,2.018,0.958,3.206,0.806
	c0.969-0.125,1.701-0.597,2.295-1.33c0.144-0.177,0.308-0.242,0.522-0.214c0.206,0.028,0.265,0.132,0.142,0.294
	c-0.12,0.158-0.221,0.332-0.353,0.482c-0.468,0.527-1.039,0.908-1.695,1.16c-0.325,0.125-0.67,0.176-1.01,0.205
	c-0.639,0.053-1.292,0.048-1.907-0.133c-0.975-0.287-1.815-0.8-2.435-1.643c-0.624-0.848-0.783-1.807-0.749-2.822
	c0.009-0.262,0.145-0.503,0.143-0.77c0.125-0.105,0.093-0.271,0.151-0.405c0.482-1.088,1.238-1.921,2.332-2.405
	c0.96-0.425,1.972-0.461,2.997-0.29c0.413,0.175,0.842,0.301,1.225,0.559c0.768,0.519,1.348,1.158,1.541,2.092
	c0.268,1.3-0.124,2.383-1.051,3.311c-0.483,0.482-1.02,0.793-1.723,0.763c-0.219-0.011-0.417-0.052-0.552-0.245
	c-0.163-0.23-0.346-0.244-0.547-0.047c-0.758,0.551-1.923,0.499-2.5-0.5c-0.382-0.66-0.257-1.313-0.069-1.98
	c0.26-0.926,0.858-1.584,1.648-2.091c0.417-0.189,0.853-0.264,1.31-0.225c0.313,0.026,0.555,0.185,0.754,0.412
	c0.161,0.184,0.293,0.236,0.423-0.026c0.085-0.172,0.249-0.16,0.385-0.106c0.161,0.063,0.151,0.224,0.101,0.355
	c-0.259,0.683-0.469,1.38-0.71,2.069c-0.154,0.44-0.288,0.892-0.401,1.346c-0.094,0.377,0.141,0.632,0.524,0.561
	C26.186,27.694,26.472,27.447,26.717,27.147z"/>
<path fill="#5D5D5D" d="M20.007,24.623c0.048,0.399-0.158,0.767-0.137,1.171c0.032,0.609,0.131,1.202,0.374,1.755
	c0.282,0.646,0.753,1.144,1.326,1.56c0.43,0.312,0.9,0.549,1.399,0.668c0.776,0.184,1.571,0.213,2.373,0.082
	c0.915-0.147,1.611-0.652,2.256-1.266c0.035,0.024,0.038,0.053,0.009,0.083c-0.564,0.669-1.262,1.091-2.131,1.28
	c-0.846,0.184-1.688,0.165-2.499-0.042c-0.917-0.233-1.714-0.738-2.332-1.483c-0.78-0.941-0.98-2.046-0.88-3.222
	c0.021-0.247,0.038-0.526,0.231-0.733C20.047,24.521,20.038,24.571,20.007,24.623z"/>
<path fill="#5D5D5D" d="M21.768,28.616c-0.742-0.526-1.167-1.299-1.343-2.135c-0.136-0.646-0.171-1.375,0.141-2.017
	c0.386-0.792,0.919-1.458,1.705-1.916c0.795-0.464,1.634-0.7,2.544-0.594c0.559,0.065,1.11,0.203,1.536,0.622
	c-0.024,0.036-0.055,0.041-0.089,0.013c-0.63-0.367-1.309-0.533-2.038-0.513c-0.754,0.02-1.423,0.288-2.059,0.669
	c-0.717,0.43-1.18,1.079-1.486,1.826c-0.253,0.616-0.203,1.278-0.085,1.929c0.149,0.822,0.609,1.459,1.186,2.03
	C21.803,28.563,21.798,28.592,21.768,28.616z"/>
<path fill="#5D5D5D" d="M24.312,27.907c0.197-0.205,0.369-0.221,0.568,0.021c0.327,0.396,0.781,0.287,1.168,0.175
	c0.876-0.254,1.424-0.9,1.814-1.697c0.26-0.531,0.402-1.1,0.363-1.684c-0.057-0.857-0.398-1.584-1.056-2.183
	c-0.513-0.465-1.125-0.7-1.737-0.957c0.09-0.083,0.187-0.044,0.283-0.014c0.509,0.078,0.906,0.388,1.295,0.68
	c0.615,0.462,1.096,1.06,1.271,1.819c0.286,1.248-0.052,2.35-0.914,3.289c-0.417,0.455-0.887,0.824-1.514,0.951
	c-0.397,0.08-0.756,0.043-1.029-0.293c-0.106-0.13-0.218-0.188-0.377-0.104C24.401,27.94,24.356,27.946,24.312,27.907z"/>
<path fill="#5D5D5D" d="M26.717,27.147c-0.216,0.431-0.586,0.646-1.046,0.687c-0.336,0.03-0.547-0.319-0.459-0.659
	c0.279-1.084,0.704-2.122,1.011-3.195c0.022-0.08,0.09-0.147,0.104-0.227c0.017-0.095,0.062-0.228-0.08-0.267
	c-0.107-0.03-0.218-0.036-0.309,0.083c-0.256,0.334-0.262,0.331-0.549,0.002c-0.289-0.331-1.027-0.497-1.458-0.305
	c-0.167,0.074-0.341,0.095-0.509,0.146c-0.021-0.014-0.029-0.028-0.022-0.042c0.007-0.014,0.015-0.021,0.022-0.021
	c0.701-0.434,1.499-0.361,2.126,0.204c0.125,0.112,0.198,0.128,0.287-0.035c0.137-0.249,0.376-0.199,0.589-0.152
	c0.172,0.039,0.183,0.167,0.108,0.321c-0.366,0.755-0.562,1.571-0.83,2.361c-0.121,0.355-0.265,0.702-0.341,1.072
	c-0.042,0.206-0.086,0.424,0.107,0.546c0.185,0.116,0.412,0.078,0.598-0.045C26.29,27.474,26.5,27.306,26.717,27.147z"/>
<path fill="#5D5D5D" d="M21.768,28.616c0.004-0.028,0.008-0.057,0.012-0.084c0.405,0.144,0.727,0.443,1.146,0.572
	c0.835,0.256,1.655,0.315,2.521,0.119c0.769-0.174,1.308-0.623,1.789-1.186c0.175-0.205,0.373-0.285,0.634-0.262
	c0.231,0.021,0.341,0.176,0.198,0.347c-0.154,0.185-0.257,0.412-0.461,0.553c-0.003-0.028-0.006-0.056-0.009-0.083
	c0.088-0.154,0.158-0.322,0.299-0.441c0.049-0.043,0.087-0.101,0.067-0.168c-0.028-0.096-0.117-0.07-0.187-0.074
	c-0.174-0.008-0.31,0.029-0.436,0.188c-0.735,0.924-1.68,1.385-2.885,1.406c-0.951,0.018-1.758-0.325-2.56-0.748
	C21.844,28.726,21.81,28.663,21.768,28.616z"/>
<path fill="#5D5D5D" d="M23.422,23.348c0,0.021,0,0.042,0,0.063c-0.289,0.285-0.64,0.494-0.915,0.802
	c-0.343,0.386-0.551,0.833-0.7,1.31c-0.095,0.306-0.149,0.623-0.16,0.953c-0.026,0.754,0.323,1.293,0.94,1.616
	c0.577,0.302,1.182,0.179,1.725-0.185c0.045,0.001,0.09,0.003,0.135,0.004c-0.613,0.652-2.043,0.688-2.666-0.41
	c-0.366-0.646-0.273-1.292-0.114-1.953c0.2-0.829,0.715-1.449,1.34-1.991C23.121,23.458,23.283,23.417,23.422,23.348z"/>
<path fill="#5D5D5D" d="M25.715,21.568c-0.094,0.004-0.188,0.009-0.283,0.013c-0.772-0.093-1.537-0.139-2.307,0.072
	c-1.263,0.346-2.165,1.116-2.811,2.231c-0.137,0.236-0.12,0.529-0.308,0.738c-0.004-0.049-0.007-0.1-0.011-0.148
	c0.05-0.564,0.416-0.974,0.729-1.394c0.682-0.916,1.624-1.482,2.732-1.652C24.197,21.315,24.982,21.226,25.715,21.568z"/>
<path fill="#5D5D5D" d="M26.262,22.591c0.03-0.004,0.06-0.009,0.089-0.013c0.422,0.176,0.731,0.491,0.947,0.873
	c0.208,0.366,0.436,0.727,0.461,1.185c0.033,0.594-0.067,1.135-0.411,1.623c-0.042-0.182,0.077-0.32,0.125-0.479
	c0.405-1.309-0.04-2.348-1.096-3.085C26.335,22.666,26.3,22.626,26.262,22.591z"/>
<path fill="#5D5D5D" d="M24.56,27.019c-0.271,0.483-0.704,0.741-1.24,0.756c-0.498,0.013-0.846-0.237-1.05-0.729
	c-0.237-0.573-0.095-1.103,0.08-1.637c0.182-0.56,0.527-1.013,0.97-1.396c0.345-0.299,0.728-0.518,1.196-0.437
	c0.787,0.136,1.033,0.827,0.91,1.38c-0.137,0.616-0.316,1.227-0.613,1.794C24.753,26.865,24.684,26.966,24.56,27.019
	c-0.059-0.067-0.045-0.146-0.007-0.207c0.312-0.514,0.374-1.114,0.586-1.664c0.203-0.521,0.101-0.905-0.276-1.19
	c-0.29-0.219-0.904-0.19-1.253,0.071c-0.594,0.449-0.954,1.044-1.134,1.771c-0.102,0.412-0.147,0.798,0.014,1.202
	c0.163,0.409,0.626,0.66,1.05,0.531c0.252-0.076,0.496-0.174,0.694-0.362C24.321,27.087,24.411,26.981,24.56,27.019z"/>
<path fill="#FFFFFF" d="M23.193,25.244c0.128-0.221,0.268-0.433,0.465-0.603c0.372-0.32,0.796-0.363,1.188-0.118
	c0.314,0.195,0.462,0.633,0.344,1.063c-0.138,0.503-0.395,0.938-0.783,1.288c-0.328,0.295-0.743,0.344-1.089,0.145
	c-0.351-0.202-0.517-0.597-0.435-1.027C22.937,25.721,23.056,25.479,23.193,25.244z"/>
</svg>
