<?xml version="1.0" encoding="utf-8"?>
<!-- Generator: Adobe Illustrator 16.0.0, SVG Export Plug-In . SVG Version: 6.00 Build 0)  -->
<!DOCTYPE svg PUBLIC "-//W3C//DTD SVG 1.1//EN" "http://www.w3.org/Graphics/SVG/1.1/DTD/svg11.dtd">
<svg version="1.1" id="Capa_1" xmlns="http://www.w3.org/2000/svg" xmlns:xlink="http://www.w3.org/1999/xlink" x="0px" y="0px"
	 width="542.973px" height="196.102px" viewBox="0 0 542.973 196.102" enable-background="new 0 0 542.973 196.102"
	 xml:space="preserve">
<path fill="#5D5D5D" d="M519.535,148.953c-4.822,0.039-9.66-0.145-14.465,0.188c-3.553,0.246-5.418-0.647-4.41-5.562
	c-6.002,5.875-12.395,8.045-19.682,7.056c-6.678-0.905-12.236-3.965-16.676-9.114c-9.146-10.614-9.184-27.954-0.002-38.621
	c9.111-10.59,22.189-11.828,36.17-2.824c0-4.514,0-8.535,0-12.559c0-6.987,0.121-13.979-0.061-20.96
	c-0.07-2.829,0.805-3.772,3.652-3.66c5.15,0.204,10.312,0.059,15.471,0.06C519.535,91.619,519.535,120.286,519.535,148.953z
	 M489.138,110.088c-6.959-0.045-12.314,5.311-12.322,12.325c-0.01,6.859,4.979,11.926,11.932,12.125
	c7.119,0.204,12.475-4.896,12.572-11.978C501.414,115.615,496.064,110.134,489.138,110.088z"/>
<path fill="#5D5D5D" d="M19.536,70.953c11.802-0.014,23.611-0.347,35.397,0.061c9.923,0.341,18.461,4.24,22.166,14.105
	c3.938,10.481,3.436,21.041-3.812,30.2c-4.275,5.401-10.703,7.045-17.323,7.587c-2.978,0.243-5.981,0.146-8.974,0.155
	c-7.27,0.021-7.27,0.009-7.27,7.516c0,4.821-0.131,9.647,0.049,14.463c0.106,2.854-0.515,4.255-3.783,4.091
	c-5.473-0.274-10.967-0.141-16.45-0.179C19.536,122.953,19.536,96.953,19.536,70.953z M39.723,96.938
	c0,10.958,0.512,11.442,10.225,9.692c6.074-1.094,8.861-4.822,8.188-10.954c-0.756-6.874-5.025-9.472-15.166-8.666
	c-6.414,0.51-1.848,5.722-3.219,8.445C39.551,95.854,39.723,96.439,39.723,96.938z"/>
<path fill="#5D5D5D" d="M245.515,30.124c0.007-4.725,0.014-9.447,0.021-14.171c0.666,0,1.334,0,2,0
	c17.754,9.093,22.693,25.029,23.166,43.357c0.062,2.482,0.135,4.967,0.2,7.451c-0.119,1.987-0.336,3.977-0.339,5.963
	c-0.027,24.153-0.008,48.309-0.067,72.461c-0.005,1.914,0.721,4.015-0.821,5.738c-1.11-0.774-0.911-2.045-1.21-3.138
	c-2.877-10.533-7.414-20.214-17.509-25.459c-4.286-2.228-5.349-4.526-5.323-9.018C245.772,85.583,245.589,57.853,245.515,30.124z"/>
<path fill="#5D5D5D" d="M270.368,63.935c13.092-24.229,34.977-32.281,63.844-23.438c17.079,5.231,32.145,14.321,46.641,24.493
	c1.635,1.146,2.447,2.466,2.438,4.546c-0.15,39.807-0.252,79.613-0.369,119.42c0,0.138-0.15,0.274-0.467,0.813
	c-2.018-0.545-3.379-2.211-4.947-3.484c-16.879-13.686-34.398-26.292-55.486-32.856c-8.383-2.608-16.961-3.654-25.625-1.951
	c-11.303,2.224-16.357,6.187-26.979,20.674c0-4.738,0-8.446,0-12.154c0.055-29.736,0.109-59.473,0.155-89.208
	C269.573,68.468,269.425,66.14,270.368,63.935z M349.816,102.027c0.281,0.056,0.562,0.108,0.846,0.163
	c1.646,13.194,3.359,26.384,4.895,39.592c0.336,2.904,0.969,4.603,4.463,4.344c4.307-0.318,8.662-0.21,12.984-0.03
	c2.945,0.123,3.518-0.699,3.043-3.707c-3.338-21.188-6.453-42.414-9.596-63.634c-1.617-10.941-1.576-10.947-12.771-10.947
	c-1.332,0-2.693,0.174-3.992-0.032c-3.936-0.624-5.863,0.949-7.291,4.757c-4.518,12.046-9.5,23.918-14.799,37.092
	c-3.742-9.863-6.92-18.545-10.338-27.131c-1.896-4.765-2.164-11.243-6.102-13.849c-4.113-2.725-10.357-0.396-15.631-0.904
	c-3.371-0.325-4.23,1.35-4.697,4.127c-3.959,23.612-7.941,47.222-12.027,70.812c-0.484,2.795,0.385,3.532,3.01,3.409
	c3.324-0.155,6.66-0.036,9.992-0.037c6.969,0,6.846-0.018,7.768-6.738c1.471-10.708,3.1-21.395,4.732-32.078
	c0.158-1.036-0.354-2.716,1.086-2.979c1.82-0.333,1.826,1.553,2.283,2.688c4.596,11.414,9.221,22.816,13.689,34.28
	c1.152,2.953,2.104,4.988,6.127,5.033c4.18,0.047,4.902-2.372,6.057-5.157C338.937,128.062,344.386,115.048,349.816,102.027z"/>
<path fill="#5D5D5D" d="M175.483,144.429c0.582,4.521-2.001,4.997-5.343,4.661c-4.581-0.46-10.477,1.993-13.429-1.024
	c-2.718-2.777-0.79-8.578-0.807-13.039c-0.075-22.493,0.058-44.988-0.122-67.481c-0.031-3.797,1.045-5.088,4.773-4.641
	c4.729,0.568,10.88-2.052,13.887,1.079c2.757,2.867,0.71,8.896,0.784,13.528c0.118,7.271,0.031,14.547,0.031,22.716
	c6.771-5.591,13.791-7.423,21.53-5.863c6.46,1.302,11.666,4.696,15.615,10.004c8.649,11.618,7.446,28.885-2.733,38.952
	C200.108,152.781,187.024,153.324,175.483,144.429z M186.525,134.329c7.368-0.015,12.138-4.836,12.03-12.167
	c-0.1-6.919-5.054-11.944-11.886-12.059c-7.089-0.117-12.178,4.938-12.237,12.153C174.372,129.657,179.066,134.343,186.525,134.329z
	"/>
<path fill="#5D5D5D" d="M245.515,30.124c0.074,27.729,0.258,55.459,0.117,83.188c-0.023,4.49,1.037,6.79,5.323,9.018
	c10.095,5.245,14.632,14.927,17.509,25.459c0.299,1.093,0.1,2.362,1.21,3.138c0.218,4.021-0.272,8.081,0.71,12.057
	c-0.062,2.555-0.125,5.107-0.188,7.663c-0.52,0.069-1.039,0.142-1.559,0.211c-3.016-15.892-15.361-26.529-32.471-27.959
	c-3.77-0.314-9.332,0.809-10.863-1.188c-1.955-2.55-0.741-7.594-0.744-11.562c-0.021-33.273-0.014-66.547-0.014-99.82
	c0-1.817,0-3.635,0-5.827C232.144,24.875,238.856,27.394,245.515,30.124z"/>
<path fill="#5D5D5D" d="M431.962,125.693c-5.332,0.001-10.678,0.208-15.994-0.067c-3.881-0.202-4.16,1.633-3.357,4.56
	c1.85,6.736,12.279,9.896,17.822,4.958c5.936-5.289,12.66-1.943,18.99-2.515c1.924-0.173,1.033,1.999,0.562,3.138
	c-3.115,7.537-9.123,11.734-16.684,13.82c-6.707,1.852-13.506,1.715-20.23-0.169c-13.762-3.854-21.816-15.754-20.242-29.884
	c1.658-14.88,11.498-24.535,26.031-25.548c19.479-1.355,32.193,9.275,32.873,27.118c0.15,3.971-1.174,4.85-4.777,4.654
	C441.972,125.491,436.962,125.692,431.962,125.693z M423.419,114.729c2.492,0,4.992-0.109,7.479,0.027
	c2.982,0.167,3.586-0.819,2.109-3.413c-3.802-6.671-14.863-7.075-19.062-0.625c-0.609,0.942-1.541,1.975-1.074,3.171
	c0.562,1.441,2.014,0.766,3.068,0.809C418.429,114.796,420.927,114.729,423.419,114.729z"/>
<path fill="#5D5D5D" d="M87.438,114.931c0-4.996,0.211-10.004-0.074-14.982c-0.192-3.42,1.119-4.287,4.271-4.083
	c3.648,0.234,7.335,0.234,10.983-0.001c3.023-0.196,4.039,0.728,3.967,3.877c-0.203,8.82-0.211,17.653,0.004,26.474
	c0.188,7.645,5.771,11.292,13.067,8.949c4.94-1.587,5.779-5.594,5.839-9.914c0.111-8.491,0.171-16.987-0.029-25.477
	c-0.073-3.078,0.809-4.126,3.912-3.916c3.812,0.259,7.673,0.28,11.479-0.005c3.278-0.245,3.849,1.147,3.8,4.04
	c-0.162,9.654,0.021,19.316-0.125,28.974c-0.166,10.875-5.227,17.453-15.689,20.327c-9.025,2.479-18.146,2.377-27.085-0.375
	c-9.05-2.785-13.957-9.442-14.238-18.901c-0.146-4.991-0.024-9.99-0.024-14.984C87.474,114.931,87.455,114.931,87.438,114.931z"/>
</svg>
