<?xml version="1.0" encoding="utf-8"?>
<!-- Generator: Adobe Illustrator 16.0.0, SVG Export Plug-In . SVG Version: 6.00 Build 0)  -->
<!DOCTYPE svg PUBLIC "-//W3C//DTD SVG 1.1//EN" "http://www.w3.org/Graphics/SVG/1.1/DTD/svg11.dtd">
<svg version="1.1" id="Capa_1" xmlns="http://www.w3.org/2000/svg" xmlns:xlink="http://www.w3.org/1999/xlink" x="0px" y="0px"
	 width="83px" height="80px" viewBox="0 0 83 80" enable-background="new 0 0 83 80" xml:space="preserve">
<g>
	<path fill-rule="evenodd" clip-rule="evenodd" d="M58.247,55.959c-0.688-0.686-1.363-1.359-2.039-2.033
		c-0.191-0.192-0.393-0.376-0.572-0.578c-0.149-0.168-0.251-0.156-0.415-0.002c-1.132,1.064-2.382,1.971-3.741,2.726
		c-2.299,1.279-4.755,2.069-7.375,2.335c-0.189,0.02-0.379,0.036-0.569,0.049c-0.038,0.003-0.076-0.011-0.143-0.022
		c0.009-0.187,0-0.369,0.037-0.54c0.016-0.075,0.121-0.171,0.198-0.185c0.889-0.151,1.779-0.293,2.671-0.426
		c0.526-0.079,0.815-0.4,0.866-0.897c0.169-1.625-0.069-3.149-1.208-4.417c-0.544-0.606-1.205-1.067-1.936-1.412
		c-0.346-0.163-0.501-0.352-0.454-0.748c0.048-0.407,0.052-0.824,0.025-1.233c-0.022-0.332,0.119-0.438,0.412-0.534
		c0.751-0.246,1.51-0.49,2.226-0.822c1.25-0.578,2.201-1.472,2.458-2.887c0.34-1.881-0.297-3.395-1.866-4.502
		c-0.845-0.597-1.796-0.975-2.763-1.314c-0.157-0.055-0.255-0.102-0.25-0.303c0.032-1.255,0.05-2.511,0.074-3.766
		c0-0.017,0.015-0.034,0.045-0.096c0.539,0.352,1.112,0.603,1.844,0.421c-0.077-0.118-0.141-0.248-0.235-0.35
		c-0.101-0.108-0.174-0.472-0.088-0.59c0.124-0.17,0.242-0.347,0.382-0.504c0.05-0.056,0.157-0.062,0.238-0.091
		c0.024,0.038,0.048,0.077,0.072,0.115c-0.225,0.188-0.45,0.375-0.675,0.562c0.022,0.031,0.045,0.062,0.067,0.093
		c0.077-0.025,0.171-0.029,0.228-0.077c0.412-0.357,0.914-0.322,1.405-0.34c0.052-0.002,0.12-0.009,0.153-0.042
		c0.338-0.327,0.67-0.66,1.001-0.989c-0.203-0.252-0.599-0.267-0.851-0.016c-0.216,0.214-0.463,0.319-0.75,0.336
		c-0.099,0.005-0.202-0.066-0.292-0.142c0.245-0.099,0.463-0.345,0.69-0.1c0.172-0.153,0.35-0.288,0.497-0.45
		c0.061-0.067,0.056-0.193,0.044-0.306c0.388-0.291,0.821-0.512,1.151,0.049c0.947-0.945,1.874-1.87,2.811-2.805
		c-0.137-0.106-0.056-0.249,0.041-0.416c0.181-0.312,0.337-0.637,0.524-0.997c0.118,0.195,0.227,0.376,0.336,0.558
		c0.292-0.314,0.573-0.618,0.88-0.949c-0.041-0.071-0.123-0.215-0.217-0.379c0.142-0.049,0.269-0.093,0.436-0.15
		c-0.303-0.38-0.588-0.729-0.861-1.086c-0.069-0.09-0.144-0.211-0.141-0.315c0.045-1.388-0.323-2.657-1.076-3.814
		c0.165-0.097,0.31-0.197,0.469-0.268c0.057-0.025,0.154,0.002,0.218,0.035c0.597,0.309,1.216,0.585,1.777,0.951
		c0.403,0.263,0.771,0.612,0.881,1.133c0.069,0.326,0.15,0.65,0.245,1.059c0.171,0.114,0.821-0.193,0.649,0.455
		c0.826-0.824,1.686-1.683,2.579-2.575c-3.879-3.738-8.559-5.937-14.002-6.541c0.052-0.25,0.095-0.463,0.149-0.724
		c0.45,0.054,0.887,0.091,1.318,0.162c4.082,0.667,7.778,2.24,11.029,4.799c4.622,3.639,7.575,8.339,8.824,14.097
		c0.526,2.424,0.646,4.876,0.401,7.337c-0.907,9.141-6.84,16.711-14.989,20.021c-2.561,1.041-5.225,1.623-7.986,1.729
		c-5.625,0.217-10.745-1.295-15.284-4.625c-4.899-3.595-8.021-8.392-9.37-14.319c-0.546-2.402-0.689-4.841-0.462-7.301
		c0.512-5.558,2.675-10.381,6.494-14.436c3.622-3.846,8.055-6.249,13.26-7.204c0.473-0.087,0.949-0.158,1.426-0.222
		c0.107-0.015,0.299,0,0.321,0.054c0.073,0.181,0.097,0.384,0.112,0.581c0.002,0.029-0.144,0.091-0.225,0.1
		c-2.279,0.253-4.468,0.844-6.571,1.751c-2.524,1.088-4.782,2.583-6.786,4.462c-0.073,0.069-0.143,0.142-0.211,0.216
		c-0.02,0.021-0.03,0.05-0.032,0.054c0.929,0.929,1.851,1.851,2.803,2.802c1.173-1.113,2.472-2.106,3.873-2.894
		c-0.19,0.387-0.384,0.796-0.594,1.196c-0.043,0.082-0.142,0.136-0.219,0.197c-0.754,0.6-1.509,1.198-2.265,1.796
		c-0.094,0.075-0.191,0.146-0.291,0.223c0.567,0.556,1.087,1.065,1.615,1.582c-0.466,0.351-0.823,0.333-1.162-0.006
		c-0.306-0.305-0.613-0.608-0.921-0.912c-0.013-0.013-0.035-0.017-0.092-0.042c-1.545,1.62-2.759,3.469-3.641,5.538
		c-0.954,2.238-1.446,4.573-1.483,7.029c1.35,0,2.66,0,3.999,0c0.116-3.742,1.432-6.99,3.967-9.765
		c-0.498-0.371-0.061-0.647,0.065-1.001c0.171,0.158,0.315,0.29,0.486,0.447c2.032-1.913,4.403-3.176,7.125-3.761
		c0.279-0.06,0.564-0.096,0.871-0.147c0,0.271,0,0.498,0,0.747c-2.85,0.476-5.329,1.692-7.435,3.681
		c0.943,0.94,1.864,1.858,2.715,2.706c-0.309,0.708-0.661,1.297-0.827,1.934c-0.541,2.083-0.292,4.027,1.236,5.669
		c0.609,0.655,1.353,1.134,2.162,1.506c0.239,0.11,0.411,0.256,0.537,0.491c0.126,0.234,0.304,0.44,0.504,0.722
		c0.348-0.617,0.795-0.607,1.349-0.243c-0.273,0.225-0.542,0.448-0.851,0.702c0.273,0.172,0.456,0.322,0.664,0.41
		c0.263,0.11,0.369,0.272,0.329,0.551c-0.018,0.125-0.003,0.253-0.003,0.442c-0.298-0.144-0.545-0.249-0.778-0.379
		c-0.236-0.132-0.458-0.288-0.651-0.412c-0.941,0.945-1.874,1.881-2.849,2.86c0.621,0.422,1.265,0.86,1.93,1.312
		c-0.072,0.19-0.151,0.403-0.243,0.647c-0.836-0.375-1.551-0.9-2.191-1.439c-0.945,0.948-1.876,1.881-2.819,2.826
		c0.853,0.793,1.835,1.483,2.907,2.045c1.443,0.757,2.97,1.257,4.589,1.459c0.197,0.025,0.317,0.09,0.29,0.32
		c-0.018,0.145-0.003,0.293-0.003,0.473c-2.671-0.286-5.046-1.247-7.179-2.809c-0.031,0.022-0.057,0.03-0.06,0.043
		c-0.128,0.574-0.133,0.578-0.703,0.56c-0.131-0.004-0.265,0.014-0.392-0.009c-0.396-0.069-0.685,0.067-0.934,0.381
		c-0.083,0.104-0.313,0.187-0.436,0.149c-0.612-0.192-1.016,0.081-1.36,0.535c-0.035,0.046-0.075,0.09-0.142,0.171
		c3.198,2.959,6.951,4.627,11.292,5.026c0,0.239,0,0.474,0,0.74c-2.228-0.167-4.341-0.702-6.366-1.598
		c-2.02-0.894-3.828-2.11-5.406-3.58c-0.944,0.944-1.871,1.871-2.798,2.797C34.12,64.289,48.928,65.095,58.247,55.959z
		 M27.956,25.792c-0.951-0.952-1.876-1.878-2.826-2.829c-4.164,4.459-6.338,9.756-6.495,15.91c1.366,0,2.676,0,4.007,0
		C22.776,33.825,24.557,29.458,27.956,25.792z M58.834,55.405c0.209-0.223,0.439-0.458,0.657-0.704
		c3.726-4.232,5.706-9.166,5.953-14.798c0.011-0.241-0.101-0.26-0.286-0.259c-1.145,0.004-2.291,0.007-3.435-0.003
		c-0.221-0.002-0.288,0.064-0.305,0.285c-0.059,0.77-0.099,1.544-0.225,2.304c-0.63,3.8-2.245,7.13-4.841,9.981
		c-0.119,0.13-0.232,0.266-0.33,0.379C56.966,53.536,57.887,54.457,58.834,55.405z M59.062,23.019
		c-0.98,0.98-1.912,1.913-2.892,2.893c0.572,0.562,1.179,1.158,1.786,1.753c0.107,0.105,0.238,0.194,0.318,0.316
		c0.46,0.694,0.911,1.393,1.357,2.096c0.056,0.088,0.064,0.207,0.102,0.337c-0.148-0.023-0.237-0.037-0.388-0.06
		c1.372,2.714,2.041,5.548,2.103,8.539c1.256,0,2.461-0.011,3.665,0.007c0.296,0.004,0.366-0.104,0.34-0.364
		c-0.104-1.058-0.144-2.125-0.313-3.172c-0.589-3.646-1.975-6.973-4.156-9.956C60.368,24.567,59.678,23.781,59.062,23.019z
		 M25.345,55.53c0.937-0.937,1.814-1.82,2.699-2.695c0.154-0.152,0.062-0.235-0.041-0.343c-0.899-0.939-1.69-1.962-2.387-3.059
		c-0.049-0.078-0.105-0.151-0.186-0.266c-0.068,0.218-0.117,0.376-0.163,0.521c-0.316,0.001-0.479-0.16-0.603-0.403
		c-0.126-0.25-0.27-0.494-0.43-0.724c-0.072-0.104-0.191-0.191-0.308-0.245c-0.249-0.113-0.414-0.267-0.408-0.562
		c0.002-0.111-0.023-0.222-0.037-0.34c-0.077,0.016-0.105,0.024-0.135,0.027c-0.169,0.017-0.338,0.047-0.507,0.045
		c-0.219-0.002-0.329-0.123-0.357-0.35c-0.009-0.071-0.136-0.128-0.25-0.228c-0.017,0.25-0.029,0.424-0.041,0.598
		c-0.232-0.217-0.406-0.456-0.556-0.709c-0.123-0.206-0.284-0.262-0.487-0.208c-0.024,0.239-0.103,0.477-0.056,0.687
		c0.07,0.317,0.22,0.618,0.351,0.919c0.095,0.218,0.214,0.425,0.323,0.638c-0.04,0.032-0.08,0.065-0.12,0.097
		c-0.035-0.073-0.067-0.147-0.106-0.218c-0.582-1.053-1.174-2.102-1.248-3.342c-0.01-0.172,0.004-0.353,0.045-0.52
		c0.083-0.34,0.394-0.416,0.665-0.545c0.203-0.096,0.34-0.079,0.437,0.132c-0.053,0.076-0.107,0.153-0.19,0.272
		c0.341,0.059,0.641,0.111,0.999,0.172c-0.114-0.186-0.184-0.298-0.27-0.438c0.54,0.032,1.042,0.004,1.491,0.444
		c-0.209-0.962-0.426-1.795-0.563-2.642c-0.138-0.848-0.196-1.708-0.292-2.585c-0.094-0.005-0.192-0.014-0.291-0.014
		c-1.105-0.001-2.21,0.01-3.315-0.008c-0.302-0.005-0.388,0.095-0.357,0.378c0.107,0.977,0.153,1.963,0.313,2.931
		c0.673,4.054,2.314,7.682,4.897,10.878C24.326,54.4,24.832,54.942,25.345,55.53z M55.427,52.067
		c0.091-0.084,0.154-0.134,0.208-0.192c3.116-3.374,4.79-7.357,5.052-11.938c0.013-0.222-0.063-0.297-0.289-0.296
		c-1.155,0.009-2.31,0.008-3.465,0.001c-0.192-0.001-0.26,0.059-0.275,0.253c-0.042,0.539-0.075,1.083-0.166,1.615
		c-0.494,2.895-1.736,5.425-3.73,7.584c-0.045,0.049-0.082,0.108-0.1,0.132c0.41,0.41,0.804,0.805,1.264,1.265
		c0.048-0.284,0.101-0.534,0.131-0.787c0.074-0.617,0.082-0.625,0.665-0.418c0.018,0.006,0.03,0.026,0.045,0.041
		c-0.008,0.078-0.051,0.195-0.017,0.226c0.313,0.282,0.217,0.684,0.317,1.026c0.098,0.335,0.212,0.683-0.196,0.935
		C55.072,51.714,55.24,51.881,55.427,52.067z M60.689,38.881c0-0.121,0.002-0.209,0-0.297c-0.084-2.412-0.596-4.726-1.567-6.938
		c-0.161-0.367-0.169-0.383-0.543-0.227c-0.247,0.104-0.394,0.052-0.557-0.153c-0.319-0.4-0.662-0.782-1.007-1.16
		c-0.212-0.232-0.357-0.571-0.767-0.531c-0.048,0.005-0.104-0.056-0.154-0.087c-0.291-0.179-0.576-0.367-0.872-0.536
		c-0.163-0.093-0.242-0.192-0.166-0.385c0.087-0.219-0.064-0.4-0.222-0.422c-0.436-0.061-0.909-0.237-1.264,0.242
		c-0.159,0.215-0.372,0.395-0.579,0.569c-0.177,0.149-0.186,0.25-0.028,0.435c0.384,0.45,0.738,0.926,1.104,1.391
		c0.05,0.064,0.106,0.124,0.177,0.205c0.084-0.166,0.146-0.289,0.214-0.423c0.369,0.176-0.022,0.458,0.116,0.651
		c0.126-0.013,0.253-0.026,0.359-0.038c-0.061,0.182-0.11,0.329-0.164,0.489c-0.004,0-0.051,0.004-0.097,0.007
		c-0.016,0.026-0.032,0.052-0.049,0.079c0.155,0.148,0.289,0.375,0.471,0.423c0.253,0.067,0.378,0.193,0.377,0.416
		c-0.002,0.255,0.065,0.463,0.213,0.667c0.054,0.075,0.031,0.209,0.036,0.316c0.005,0.102-0.028,0.216,0.008,0.303
		c0.09,0.223,0.219,0.429,0.315,0.649c0.096,0.22,0.238,0.239,0.476,0.12c-0.127-0.673-0.214-1.361-0.392-2.024
		c-0.286-1.068-0.822-2.02-1.494-2.896c-0.077-0.101-0.121-0.226-0.181-0.34c0.028-0.022,0.055-0.044,0.083-0.066
		c0.271,0.185,0.541,0.37,0.811,0.554c-0.009,0.023-0.018,0.046-0.026,0.069c-0.084,0.009-0.168,0.018-0.273,0.029
		c0.052,0.083,0.085,0.144,0.126,0.199c0.603,0.798,1.119,1.641,1.312,2.64c0.099,0.51,0.247,1.029,0.231,1.54
		c-0.014,0.475-0.218,0.944-0.333,1.417c-0.022,0.092-0.039,0.192-0.025,0.284c0.067,0.465,0.158,0.928,0.216,1.395
		c0.06,0.473,0.091,0.95,0.136,1.434C58.036,38.881,59.34,38.881,60.689,38.881z M34.622,32.502
		c-0.908-0.907-1.839-1.837-2.785-2.783c-2.329,2.571-3.574,5.624-3.678,9.172c0.542,0,1.023-0.012,1.504,0.005
		c0.246,0.009,0.321-0.075,0.353-0.316c0.029-0.212,0.129-0.43,0.249-0.611c0.115-0.175,0.303-0.298,0.121-0.539
		c-0.031-0.042,0.004-0.156,0.039-0.221c0.222-0.427,0.447-0.853,0.685-1.271c0.04-0.07,0.163-0.153,0.227-0.138
		c0.359,0.082,0.615-0.086,0.87-0.296c0.088-0.073,0.209-0.107,0.318-0.152c0.216-0.088,0.444-0.159,0.571-0.45
		c-0.32,0.059-0.591,0.108-0.862,0.158c-0.014-0.029-0.027-0.058-0.041-0.087c0.164-0.084,0.323-0.178,0.492-0.249
		c0.205-0.086,0.501-0.091,0.611-0.24C33.779,33.826,34.21,33.127,34.622,32.502z M52.073,48.682
		c0.032-0.018,0.053-0.023,0.066-0.038c2.304-2.462,3.544-5.384,3.784-8.74c0.014-0.198-0.063-0.263-0.259-0.262
		c-0.864,0.008-1.729,0.003-2.593,0.005c-0.054,0-0.109,0.018-0.202,0.035c0.12,0.254,0.223,0.479,0.333,0.701
		c0.22,0.446,0.654,0.615,1.131,0.447c0.127-0.045,0.257-0.083,0.425-0.137c0,0.16,0,0.279,0,0.398
		c-0.12-0.012-0.242-0.018-0.36-0.039c-0.081-0.015-0.158-0.05-0.308-0.1c0.082,0.28,0.144,0.491,0.2,0.684
		c-0.395,0.141-0.771,0.329-1.167,0.4c-0.38,0.068-0.782,0.015-1.17,0.015c0.152,0.277,0.116,0.304-0.156,0.434
		c-0.232,0.111-0.478,0.267-0.625,0.469c-0.269,0.371-0.473,0.791-0.695,1.194c-0.028,0.052-0.001,0.133,0,0.201
		c0.055-0.026,0.125-0.038,0.163-0.08c0.165-0.183,0.359-0.161,0.439,0.069c0.142,0.406,0.214,0.814-0.006,1.222
		c-0.037,0.068-0.088,0.179-0.06,0.222c0.157,0.242-0.001,0.423-0.1,0.61c-0.13,0.246-0.279,0.481-0.432,0.741
		c0.115,0.11,0.235,0.224,0.377,0.36c0.218-0.321,0.415-0.61,0.642-0.946c0.089,0.326,0.173,0.583,0.228,0.846
		c0.033,0.161,0.062,0.34,0.024,0.494C51.641,48.354,51.628,48.351,52.073,48.682z M32.025,48.737
		c0.953-0.951,1.886-1.883,2.831-2.828c-0.776-0.829-1.419-1.792-1.889-2.869c-0.468-1.074-0.709-2.204-0.804-3.375
		c-0.228,0-0.422,0-0.624,0c0.269,0.675-0.197,1.296-0.056,1.945c-0.278-0.37-0.293-0.389-0.131-1.133
		c0.175-0.803,0.066-0.878-0.681-0.827c-0.134,0.009-0.266,0.081-0.394,0.134c-0.119,0.05-0.227,0.153-0.347,0.164
		c-0.336,0.032-0.603,0.378-0.455,0.681c0.123,0.25,0.129,0.473,0.011,0.708c-0.085,0.17-0.003,0.233,0.132,0.327
		c0.171,0.119,0.327,0.275,0.449,0.445c0.133,0.185,0.231,0.399,0.322,0.611c0.045,0.104,0.084,0.243,0.052,0.343
		c-0.091,0.288-0.019,0.534,0.134,0.77c0.239,0.366,0.316,0.767,0.314,1.201c-0.001,0.513,0.085,1.008,0.325,1.48
		c0.099,0.195,0.082,0.455,0.097,0.686c0.016,0.242-0.075,0.531,0.029,0.718C31.518,48.235,31.809,48.488,32.025,48.737z
		 M53.679,36.6c0.558,0.182,0.997-0.045,1.08-0.595c0.033-0.219,0.138-0.332,0.308-0.436c0.241-0.148,0.343-0.351,0.215-0.637
		c-0.077-0.173-0.139-0.356-0.183-0.54c-0.16-0.675-0.532-1.174-1.179-1.45c-0.222-0.095-0.267-0.26-0.287-0.495
		c-0.023-0.273,0.166-0.316,0.34-0.417c-0.506-0.838-1.061-1.612-1.7-2.275c-0.957,0.952-1.881,1.871-2.814,2.799
		c0.251,0.335,0.5,0.7,0.788,1.031c0.083,0.096,0.276,0.097,0.462,0.154c-0.027-0.133-0.041-0.196-0.06-0.292
		c0.135-0.006,0.254-0.012,0.438-0.021c-0.145,0.126-0.222,0.193-0.276,0.239c0.352,0.4,0.669,0.774,1.005,1.132
		c0.062,0.066,0.192,0.083,0.292,0.091c0.077,0.006,0.159-0.038,0.238-0.06c0.018,0.104,0.036,0.208,0.049,0.29
		c-0.165-0.019-0.279-0.032-0.394-0.044c0.036,0.135,0.041,0.29,0.114,0.399c0.077,0.115,0.22,0.187,0.407,0.334
		c0.145-0.3,0.277-0.548,0.385-0.807c0.082-0.199,0.505-0.4,0.656-0.273c0.227,0.19,0.433,0.405,0.571,0.537
		C53.966,35.759,53.823,36.178,53.679,36.6z M27.405,39.646c-1.295,0-2.549,0.001-3.804-0.001c-0.168,0-0.202,0.089-0.192,0.23
		c0.021,0.27,0.034,0.541,0.057,0.811c0.114,1.343,0.368,2.659,0.768,3.947c0.052,0.167,0.141,0.24,0.303,0.213
		c0.254-0.043,0.514-0.077,0.759-0.153c0.663-0.208,0.711-0.224,0.624-0.896c-0.101-0.768,0.09-1.382,0.635-1.926
		c0.189-0.188,0.322-0.457,0.412-0.712c0.06-0.17,0.126-0.263,0.292-0.275c0.202-0.014,0.246-0.116,0.223-0.301
		C27.445,40.284,27.431,39.984,27.405,39.646z M35.382,45.358c0.951-0.95,1.884-1.883,2.807-2.806
		c-0.262-0.391-0.547-0.817-0.877-1.31c-0.083,0.625-0.281,1.114-0.827,1.412c-0.092-0.185-0.162-0.326-0.244-0.489
		c0.195-0.058,0.364-0.108,0.592-0.176c-0.232-0.29-0.438-0.546-0.709-0.885c-0.148,0.36-0.257,0.624-0.373,0.904
		c-0.113-0.075-0.253-0.168-0.396-0.263c0.049-0.086,0.09-0.158,0.143-0.249c-0.184-0.121-0.368-0.338-0.511-0.314
		c-0.265,0.044-0.381-0.123-0.553-0.217c-0.146-0.08-0.302-0.239-0.438-0.223c-0.365,0.042-0.583-0.135-0.786-0.384
		c-0.047-0.057-0.112-0.099-0.236-0.206C33.239,42.226,34.057,43.94,35.382,45.358z M51.43,55.143
		c0.021,0.016,0.042,0.032,0.063,0.048c1.225-0.722,2.356-1.567,3.348-2.526c-0.95-0.954-1.873-1.881-2.814-2.827
		c-0.201,0.176-0.424,0.371-0.677,0.593c0.139,0.159,0.264,0.419,0.381,0.416c0.489-0.015,0.645,0.37,0.888,0.601
		c-0.328,0.527-0.641,1.03-0.946,1.521c0.087,0.079,0.106,0.107,0.132,0.118c0.49,0.208,0.483,0.446,0.049,0.771
		c-0.048,0.036-0.106,0.072-0.13,0.123c-0.034,0.07-0.049,0.153-0.057,0.231c-0.017,0.158,0,0.323-0.039,0.474
		C51.587,54.844,51.498,54.991,51.43,55.143z M53.056,37.34c0.147,0.118,0.215,0.16,0.267,0.217
		c0.062,0.068,0.109,0.148,0.163,0.224c-0.084,0.038-0.17,0.073-0.252,0.114c-0.146,0.072-0.301,0.132-0.43,0.226
		c-0.109,0.079-0.198,0.193-0.275,0.306c-0.064,0.095-0.155,0.227-0.13,0.312c0.022,0.074,0.189,0.146,0.293,0.147
		c0.985,0.011,1.969,0.007,2.954,0.005c0.086,0,0.173-0.014,0.313-0.026c-0.065-0.687-0.128-1.347-0.192-2.008
		c-0.028-0.007-0.057-0.014-0.085-0.021c-0.145,0.18-0.291,0.359-0.436,0.54c-0.031-0.014-0.061-0.027-0.091-0.041
		c0.106-0.346,0.193-0.699,0.325-1.035c0.116-0.296,0.063-0.551-0.082-0.853c-0.034,0.083-0.063,0.126-0.07,0.173
		c-0.06,0.381-0.181,0.718-0.572,0.888c-0.047,0.021-0.089,0.087-0.105,0.14c-0.063,0.208-0.224,0.239-0.409,0.29
		C53.863,37.041,53.497,37.187,53.056,37.34z M32.148,38.89c0.029-0.301,0.054-0.567,0.081-0.833
		c0.076-0.746,0.139-0.649-0.61-0.812c-0.313-0.068-0.621,0.02-0.743,0.252c-0.121,0.23-0.127,0.574-0.057,0.834
		c0.056,0.212,0.267,0.463,0.467,0.536C31.539,38.96,31.852,38.89,32.148,38.89z M29.386,39.646c-0.323,0-0.612,0.013-0.898-0.004
		c-0.246-0.015-0.349,0.06-0.312,0.32c0.063,0.444,0.1,0.893,0.168,1.336c0.017,0.107,0.108,0.288,0.168,0.289
		c0.215,0.003,0.46-0.005,0.64-0.105c0.144-0.082,0.209-0.303,0.333-0.499c-0.406-0.21-0.369-0.522-0.219-0.867
		C29.322,39.983,29.339,39.832,29.386,39.646z M49.51,34.494c0.026-0.185,0.121-0.389,0.057-0.5
		c-0.187-0.322-0.438-0.607-0.682-0.931c-0.505,0.476-0.812,0.917-0.251,1.492c-0.061,0.036-0.133,0.078-0.219,0.129
		c0.182,0.092,0.339,0.171,0.517,0.26c0.045-0.104,0.091-0.209,0.12-0.276c-0.098-0.125-0.168-0.214-0.238-0.302
		C49.096,34.114,49.237,34.437,49.51,34.494z M47.805,47.175c0.159,0.062,0.293,0.087,0.391,0.16
		c0.294,0.218,0.586,0.397,0.983,0.357c0.157-0.016,0.324,0.091,0.49,0.12c0.083,0.015,0.176-0.021,0.264-0.034
		c-0.032-0.074-0.055-0.155-0.099-0.22c-0.039-0.056-0.097-0.103-0.155-0.139c-0.362-0.229-0.724-0.46-1.094-0.677
		c-0.059-0.034-0.177-0.034-0.232,0.003C48.173,46.865,48.009,47.011,47.805,47.175z M27.845,51.19
		c0.292,0.322,0.569,0.629,0.868,0.959c0.227-0.239,0.423-0.445,0.65-0.685c-0.231-0.14-0.457-0.28-0.685-0.414
		C28.252,50.801,28.251,50.802,27.845,51.19z"/>
	<path fill-rule="evenodd" clip-rule="evenodd" d="M64.704,66.547c-1.27,1.126-2.727,1.9-4.367,2.323
		c-1.662,0.429-3.351,0.449-5.053,0.35c-2.27-0.133-4.399-0.849-6.544-1.51c-1.343-0.414-2.701-0.766-4.114-0.843
		c-0.214-0.012-0.429-0.002-0.658,0.033c2.175,1.193,4.12,2.659,5.786,4.567c-0.502,0.07-0.947,0.123-1.389,0.197
		c-0.232,0.04-0.351-0.04-0.477-0.241c-1.307-2.087-3.094-3.559-5.487-4.252c-0.262-0.076-0.499-0.076-0.761,0
		c-2.37,0.687-4.153,2.136-5.451,4.203c-0.162,0.258-0.324,0.334-0.603,0.284c-0.411-0.074-0.826-0.125-1.295-0.194
		c1.663-1.905,3.608-3.371,5.796-4.532c-0.01-0.033-0.021-0.066-0.031-0.099c-0.453,0.032-0.907,0.049-1.357,0.1
		c-1.493,0.169-2.923,0.606-4.342,1.072c-2.271,0.744-4.574,1.268-6.98,1.28c-2.911,0.015-5.586-0.665-7.871-2.561
		c-0.046-0.038-0.092-0.076-0.138-0.116c-0.014-0.013-0.024-0.03-0.038-0.048c0.462,0.143,0.914,0.312,1.38,0.421
		c1.32,0.311,2.661,0.293,3.976,0.029c1.846-0.371,3.67-0.844,5.508-1.256c1.943-0.436,3.91-0.704,5.903-0.722
		c1.943-0.019,3.833,0.313,5.667,0.959c0.153,0.054,0.358,0.055,0.511,0.001c2.336-0.825,4.734-1.081,7.201-0.894
		c2.464,0.187,4.85,0.744,7.228,1.37c1.505,0.396,3.029,0.705,4.594,0.723C62.473,67.203,63.614,67.02,64.704,66.547z"/>
	<path fill-rule="evenodd" clip-rule="evenodd" d="M40.2,40.922c-1.5-0.481-2.955-1.02-4.058-2.201
		c-0.96-1.029-1.235-2.282-1.154-3.65c0.132-2.217,1.409-3.568,3.33-4.437c1.397-0.631,2.886-0.964,4.364-1.332
		c1.313-0.327,2.637-0.627,3.848-1.264c0.894-0.47,1.602-1.114,1.862-2.133c0.355-1.393-0.141-2.712-1.325-3.541
		c-0.806-0.564-1.714-0.863-2.685-0.987c-0.058-0.007-0.116-0.014-0.189-0.022c-0.006-0.09-0.017-0.167-0.017-0.246
		c-0.001-0.792-0.001-1.583-0.001-2.461c0.571,0.083,1.058,0.121,1.528,0.227c1.601,0.361,3.056,1.015,4.279,2.145
		c2.742,2.531,2.335,7.473-1.305,9.394c-1.362,0.719-2.82,1.136-4.297,1.521c-1.308,0.34-2.619,0.68-3.904,1.096
		c-0.521,0.168-1.027,0.476-1.453,0.826c-1.091,0.899-1.082,2.504-0.011,3.432c0.293,0.253,0.649,0.433,0.968,0.658
		c0.088,0.062,0.208,0.166,0.21,0.251C40.206,39.089,40.2,39.98,40.2,40.922z"/>
	<path fill-rule="evenodd" clip-rule="evenodd" d="M40.827,28.799c0-0.695,0.013-1.417-0.002-2.137
		c-0.068-3.282-0.123-6.565-0.232-9.846c-0.029-0.854-0.242-1.703-0.365-2.554C40.1,13.387,40,12.511,40.194,11.63
		c0.301-1.374,1.773-2.012,2.99-1.289c0.489,0.291,0.69,0.76,0.784,1.293c0.147,0.837,0.066,1.676-0.141,2.479
		c-0.504,1.963-0.416,3.962-0.466,5.954c-0.067,2.68-0.122,5.36-0.188,8.04c-0.002,0.077-0.069,0.205-0.129,0.221
		c-0.697,0.183-1.398,0.349-2.099,0.518C40.93,28.85,40.91,28.833,40.827,28.799z"/>
	<path fill-rule="evenodd" clip-rule="evenodd" d="M21.556,55.43c1.672,1.544,3.319,3.176,4.409,5.269
		c0.314,0.603,0.567,1.24,0.806,1.878c0.38,1.016,0.757,2.03,1.425,2.947c-1.655-0.361-3.282-0.036-4.905-0.076
		c-1.696-0.042-3.362-0.24-4.938-0.921c-2.178-0.941-3.753-2.542-4.958-4.544c-0.111-0.186-0.214-0.376-0.305-0.582
		c0.882,0.901,1.964,1.451,3.151,1.797c0.797,0.232,1.607,0.427,2.421,0.596c1.647,0.341,3.319,0.581,4.911,1.154
		c0.571,0.206,1.125,0.461,1.774,0.731c-0.171-0.186-0.282-0.315-0.403-0.435c-1.62-1.615-2.57-3.556-2.904-5.819
		C21.939,56.74,21.715,56.073,21.556,55.43z"/>
	<path fill-rule="evenodd" clip-rule="evenodd" d="M55.886,65.472c0.604-0.839,1.015-1.809,1.346-2.81
		c0.71-2.145,1.957-3.943,3.521-5.541c0.58-0.593,1.178-1.168,1.797-1.73c-0.499,1.049-0.549,2.196-0.81,3.29
		c-0.42,1.76-1.355,3.222-2.592,4.511c-0.135,0.141-0.269,0.283-0.373,0.468c0.043-0.014,0.09-0.021,0.13-0.042
		c1.444-0.762,3.013-1.126,4.595-1.461c1.527-0.323,3.057-0.645,4.562-1.052c1.095-0.296,2.069-0.867,2.893-1.693
		c-0.034,0.07-0.063,0.143-0.102,0.21c-1.143,2.019-2.638,3.683-4.758,4.715c-1.327,0.646-2.738,0.996-4.203,1.041
		c-1.422,0.044-2.848-0.033-4.272-0.028C57.044,65.353,56.468,65.429,55.886,65.472z"/>
	<path fill-rule="evenodd" clip-rule="evenodd" d="M65.304,58.158c1.442-1.327,3.201-2.119,4.873-3.047
		c1.223-0.679,2.439-1.375,3.432-2.373c0.604-0.608,1.125-1.299,1.649-2c-0.064,0.229-0.125,0.459-0.194,0.686
		c-0.07,0.229-0.147,0.458-0.227,0.684c-0.532,1.516-1.233,2.94-2.265,4.187c-1.249,1.508-2.847,2.492-4.7,3.061
		c-1.042,0.32-2.107,0.568-3.165,0.84c-0.864,0.222-1.715,0.478-2.525,0.972c0.22-0.397,0.431-0.746,0.611-1.109
		c0.526-1.065,0.779-2.212,0.913-3.38c0.307-2.683,1.104-5.189,2.601-7.454c0.044-0.067,0.086-0.135,0.131-0.202
		c0.011-0.016,0.029-0.027,0.071-0.064c-0.22,1.28-0.012,2.53,0.019,3.782c0.037,1.497-0.042,2.972-0.679,4.359
		C65.683,57.458,65.486,57.805,65.304,58.158z"/>
	<path fill-rule="evenodd" clip-rule="evenodd" d="M18.732,58.223c-0.275-0.612-0.561-1.165-0.776-1.743
		c-0.441-1.188-0.479-2.433-0.438-3.682c0.024-0.732,0.089-1.463,0.104-2.195c0.011-0.54-0.029-1.081-0.046-1.604
		c0.006,0.007,0.039,0.039,0.063,0.076c1.374,2.083,2.254,4.35,2.581,6.833c0.171,1.3,0.334,2.61,0.888,3.822
		c0.216,0.473,0.472,0.927,0.721,1.411c-1.261-0.753-2.693-0.962-4.072-1.343c-0.839-0.232-1.683-0.464-2.493-0.779
		c-2.65-1.032-4.396-2.992-5.511-5.551c-0.386-0.887-0.685-1.811-0.975-2.727c0.375,0.491,0.726,1.004,1.131,1.469
		c0.875,1.003,1.958,1.751,3.103,2.41c0.921,0.531,1.864,1.025,2.794,1.541C16.843,56.737,17.852,57.353,18.732,58.223z"/>
	<path fill-rule="evenodd" clip-rule="evenodd" d="M14.747,52.255c-0.081-0.439-0.164-0.878-0.241-1.318
		c-0.373-2.102-0.158-4.148,0.527-6.165c0.311-0.914,0.523-1.862,0.775-2.776c0.034,0.098,0.086,0.25,0.138,0.402
		c0.641,1.871,0.713,3.784,0.492,5.734c-0.154,1.363-0.299,2.738-0.292,4.106c0.006,1.011,0.265,2.02,0.412,3.03
		c0.005,0.037,0.015,0.073,0.032,0.156c-1.257-1.31-2.85-2.082-4.251-3.116c-1.74-1.283-3.211-2.788-4.124-4.78
		c-0.733-1.602-1.054-3.292-1.09-5.07c0.041,0.025,0.072,0.033,0.08,0.05c0.543,1.304,1.439,2.357,2.391,3.371
		c1.285,1.368,2.636,2.68,3.719,4.225c0.454,0.648,0.852,1.336,1.276,2.005c0.036,0.056,0.074,0.109,0.112,0.164
		C14.717,52.267,14.732,52.261,14.747,52.255z"/>
	<path fill-rule="evenodd" clip-rule="evenodd" d="M76.919,42.442c-0.072,3.023-0.94,5.698-3,7.923
		c-1.018,1.1-2.218,1.971-3.458,2.797c-1.033,0.688-2.123,1.3-2.975,2.238c0.117-0.705,0.246-1.391,0.344-2.081
		c0.15-1.049,0.111-2.102,0.014-3.154c-0.127-1.378-0.295-2.754-0.351-4.135c-0.056-1.365,0.257-2.688,0.716-3.973
		c0.013-0.037,0.034-0.071,0.078-0.163c0.051,0.304,0.071,0.558,0.138,0.799c0.259,0.936,0.521,1.871,0.805,2.799
		c0.637,2.089,0.61,4.19,0.149,6.304c-0.033,0.151-0.059,0.304-0.039,0.475c0.029-0.037,0.065-0.07,0.086-0.111
		c1.003-1.89,2.38-3.492,3.832-5.045c0.952-1.018,1.87-2.069,2.753-3.146C76.374,43.529,76.605,42.981,76.919,42.442z"/>
	<path fill-rule="evenodd" clip-rule="evenodd" d="M15.974,35.417c0.128,2.192-0.386,4.281-1.347,6.279
		c-0.547,1.138-1.121,2.274-1.366,3.525c-0.167,0.85-0.246,1.717-0.359,2.541c-0.487-1.061-1.334-1.928-2.157-2.817
		c-0.45-0.486-0.897-0.976-1.318-1.488c-1.606-1.953-2.166-4.217-1.931-6.699c0.07-0.747,0.211-1.487,0.322-2.23
		c0.011-0.077,0.039-0.152,0.076-0.295c0.036,1.393,0.568,2.55,1.176,3.687c0.753,1.405,1.534,2.798,2.223,4.234
		c0.403,0.841,0.649,1.757,0.984,2.692c0-0.153,0.001-0.266,0-0.379c-0.015-1.391,0.051-2.78,0.554-4.091
		c0.274-0.714,0.635-1.411,1.054-2.052C14.544,37.319,15.284,36.369,15.974,35.417z"/>
	<path fill-rule="evenodd" clip-rule="evenodd" d="M71.79,44.806c0.568-2.187,1.591-4.148,2.712-6.067
		c0.597-1.022,1.192-2.049,1.465-3.218c0.093-0.398,0.142-0.807,0.215-1.232c0.087,0.484,0.185,0.96,0.256,1.44
		c0.204,1.379,0.232,2.757-0.059,4.131c-0.337,1.585-1.137,2.923-2.198,4.121c-0.36,0.405-0.734,0.798-1.102,1.196
		c-0.749,0.81-1.503,1.617-1.966,2.654c-0.067-0.688-0.106-1.354-0.204-2.011c-0.207-1.386-0.793-2.643-1.386-3.896
		c-0.598-1.263-1.133-2.552-1.31-3.95c-0.109-0.859-0.144-1.729-0.149-2.59c0.819,1.16,1.669,2.299,2.447,3.486
		c0.776,1.183,1.091,2.533,1.19,3.932C71.75,43.469,71.761,44.138,71.79,44.806z"/>
	<path fill-rule="evenodd" clip-rule="evenodd" d="M72.435,40.157c-0.366-1.366-0.997-2.657-1.878-3.822
		c-0.738-0.978-1.515-1.927-2.229-2.922c-1.063-1.48-1.781-3.134-2.32-4.869c-0.014-0.045-0.02-0.094-0.066-0.087
		c1.029,0.907,2.078,1.793,3.084,2.725c1.648,1.528,2.712,3.412,3.277,5.583c0.024,0.094,0.054,0.187,0.132,0.276
		c0.019-0.311,0.015-0.625,0.06-0.931c0.231-1.566,0.478-3.13,0.714-4.695c0.235-1.562,0.426-3.125,0.094-4.698
		c-0.051-0.243-0.117-0.483-0.196-0.803c0.089,0.113,0.137,0.166,0.175,0.224c0.965,1.455,1.674,3.015,1.898,4.763
		c0.207,1.62-0.044,3.188-0.676,4.681c-0.433,1.024-0.959,2.008-1.426,3.019C72.839,39.119,72.641,39.654,72.435,40.157z"/>
	<path fill-rule="evenodd" clip-rule="evenodd" d="M10.927,25.984c-0.388,1.239-0.446,2.507-0.297,3.781
		c0.127,1.084,0.314,2.161,0.473,3.242c0.195,1.337,0.388,2.674,0.535,4.04c0.028-0.062,0.067-0.12,0.083-0.185
		c0.665-2.746,2.2-4.912,4.392-6.657c0.688-0.547,1.319-1.166,1.989-1.763c-0.29,0.752-0.566,1.529-0.885,2.287
		c-0.687,1.636-1.692,3.075-2.821,4.43c-1.246,1.495-2.286,3.1-2.798,5.003c-0.005,0.019-0.02,0.034-0.031,0.054
		c-0.174-0.883-0.612-1.654-1.013-2.438c-0.626-1.226-1.223-2.461-1.531-3.814c-0.493-2.165-0.165-4.226,0.808-6.195
		c0.307-0.622,0.674-1.215,1.014-1.821C10.873,25.96,10.9,25.972,10.927,25.984z"/>
	<path fill-rule="evenodd" clip-rule="evenodd" d="M43.747,39.301c1.307,0.473,2.476,0.933,3.363,1.903
		c1.052,1.149,1.349,3.687-0.659,4.938c-0.871,0.543-1.836,0.839-2.797,1.158c-0.77,0.255-1.53,0.542-2.29,0.826
		c-0.187,0.069-0.364,0.171-0.531,0.279c-0.29,0.187-0.434,0.451-0.427,0.81c0.013,0.702,0.004,1.403,0.004,2.096
		c-0.813-0.166-1.831-1.382-1.909-2.286c-0.072-0.842,0.227-1.508,0.87-2.038c0.776-0.639,1.701-0.97,2.634-1.286
		c0.588-0.199,1.192-0.363,1.758-0.612c0.405-0.179,0.804-0.425,1.125-0.727c0.55-0.52,0.513-1.248-0.06-1.741
		c-0.261-0.225-0.594-0.365-0.889-0.553c-0.075-0.048-0.183-0.128-0.185-0.194C43.743,41.044,43.747,40.212,43.747,39.301z"/>
	<path fill-rule="evenodd" clip-rule="evenodd" d="M71.85,33.117c-0.655-1.371-1.448-2.62-2.562-3.612
		c-0.875-0.78-1.821-1.48-2.758-2.187c-0.975-0.735-1.907-1.505-2.599-2.528c-0.515-0.761-0.895-1.583-1.194-2.514
		c0.875,0.981,2,1.51,3.042,2.153c1.532,0.945,2.959,2.008,4.018,3.493c0.284,0.397,0.533,0.82,0.833,1.222
		c-0.095-0.399-0.217-0.795-0.28-1.2c-0.194-1.248-0.361-2.499-0.549-3.748c-0.212-1.403-0.482-2.789-1.277-4.024
		c0.059,0.04,0.122,0.075,0.177,0.12c2,1.632,3.072,3.756,3.374,6.303c0.171,1.446,0.089,2.884-0.052,4.324
		C71.954,31.638,71.909,32.358,71.85,33.117z"/>
	<path fill-rule="evenodd" clip-rule="evenodd" d="M13.418,29.192c0.048-0.055,0.081-0.08,0.098-0.113
		c1.02-1.924,2.586-3.305,4.405-4.433c0.666-0.412,1.349-0.798,2-1.232c0.481-0.32,0.923-0.697,1.344-1.019
		c-0.449,1.421-1.187,2.756-2.374,3.787c-0.817,0.709-1.695,1.352-2.57,1.99c-1.729,1.261-3.105,2.812-4.031,4.75
		c-0.023,0.049-0.057,0.094-0.112,0.182c-0.082-2.063-0.445-4.057-0.263-6.081c0.248-2.75,1.331-5.057,3.51-6.805
		c0.023-0.018,0.053-0.027,0.075-0.039c-0.218,0.469-0.466,0.928-0.65,1.412c-0.421,1.104-0.571,2.27-0.726,3.433
		c-0.18,1.35-0.303,2.71-0.703,4.022C13.409,29.08,13.418,29.12,13.418,29.192z"/>
	<path fill-rule="evenodd" clip-rule="evenodd" d="M31.022,28.299c0.048-0.207,0.097-0.414,0.151-0.647
		c-0.326,0.07-0.614,0.131-0.902,0.193c-0.006-0.017-0.012-0.035-0.017-0.052c0.035-0.017,0.069-0.042,0.106-0.049
		c0.743-0.13,1.203-0.6,1.505-1.254c0.044-0.097,0.043-0.213,0.066-0.32c0.051-0.243,0.083-0.492,0.159-0.727
		c0.157-0.484,0.326-0.964,0.513-1.438c0.128-0.323,0.263-0.652,0.451-0.941c0.257-0.394,0.56-0.761,0.859-1.125
		c0.699-0.851,1.599-1.376,2.659-1.667c0.547-0.15,1.073-0.378,1.604-0.582c0.521-0.2,1.036-0.414,1.613-0.645
		c0.017,0.361,0.036,0.646,0.043,0.931c0.015,0.562,0.019,1.125,0.038,1.687c0.006,0.164-0.047,0.251-0.201,0.319
		c-0.789,0.344-1.437,0.862-1.961,1.552c-0.209,0.276-0.477,0.527-0.765,0.718c-1.02,0.676-2.05,1.338-3.097,1.971
		c-0.428,0.259-0.91,0.414-1.432,0.406c-0.108-0.001-0.253,0.088-0.321,0.18c-0.306,0.408-0.592,0.832-0.881,1.252
		c-0.056,0.081-0.098,0.169-0.146,0.255C31.051,28.31,31.037,28.304,31.022,28.299z M34.113,23.732
		c0.857-0.013,1.1-0.717,1.565-1.162c-0.224-0.053-0.432-0.064-0.636-0.047c-0.087,0.007-0.204,0.049-0.248,0.115
		C34.566,22.979,34.359,23.333,34.113,23.732z"/>
	<path fill-rule="evenodd" clip-rule="evenodd" d="M41.165,45.092c0-0.376,0.005-0.705,0-1.033
		c-0.051-2.952-0.104-5.904-0.158-8.857c-0.008-0.421-0.024-0.843-0.022-1.265c0-0.082,0.051-0.219,0.108-0.237
		c0.635-0.205,1.277-0.39,1.94-0.588c0,0.598,0.008,1.127-0.001,1.656c-0.027,1.576-0.061,3.153-0.094,4.729
		c-0.034,1.616-0.069,3.232-0.112,4.849c-0.002,0.089-0.062,0.232-0.129,0.256C42.216,44.771,41.729,44.915,41.165,45.092z"/>
	<path fill-rule="evenodd" clip-rule="evenodd" d="M60.293,16.076c4.215,0.938,7.73,4.95,8.61,9.316
		c-1.165-1.246-2.637-2.017-3.924-3.03c-0.877-0.69-1.526-1.557-2.061-2.526c-0.566-1.027-1.1-2.078-1.903-2.954
		C60.759,16.602,60.508,16.315,60.293,16.076z"/>
	<path fill-rule="evenodd" clip-rule="evenodd" d="M23.882,16.055c-0.182,0.167-0.335,0.305-0.486,0.446
		c-0.862,0.812-1.476,1.804-1.996,2.848c-0.792,1.59-1.928,2.844-3.415,3.81c-1,0.65-1.997,1.313-2.833,2.227
		C15.924,21.214,19.469,16.994,23.882,16.055z"/>
	<path fill-rule="evenodd" clip-rule="evenodd" d="M42.699,48.464c0,0.974,0.011,1.896-0.002,2.817
		c-0.034,2.258-0.074,4.516-0.124,6.774c-0.019,0.872-0.064,1.743-0.119,2.613c-0.012,0.192-0.094,0.391-0.187,0.564
		c-0.149,0.277-0.431,0.281-0.541-0.014c-0.131-0.351-0.238-0.731-0.25-1.102c-0.05-1.545-0.058-3.091-0.085-4.637
		c-0.035-2.057-0.07-4.114-0.116-6.171c-0.005-0.23,0.07-0.345,0.282-0.417C41.943,48.759,42.321,48.606,42.699,48.464z"/>
	<path fill-rule="evenodd" clip-rule="evenodd" d="M43.516,51.275c2.013,0.928,2.971,2.446,2.846,4.524
		c-0.09-0.21-0.159-0.382-0.237-0.55c-0.49-1.056-1.323-1.772-2.326-2.308c-0.211-0.113-0.307-0.231-0.29-0.48
		C43.535,52.083,43.516,51.703,43.516,51.275z"/>
	<path fill-rule="evenodd" clip-rule="evenodd" d="M47.614,25.59c-0.096,0.24-0.183,0.457-0.253,0.632
		c-0.89-0.247-1.735-0.481-2.579-0.715c-0.039-0.01-0.078-0.019-0.117-0.025c-0.629-0.111-0.629-0.111-0.523-0.833
		C45.333,24.791,46.468,25.127,47.614,25.59z"/>
	<path fill-rule="evenodd" clip-rule="evenodd" d="M40.164,34.14c0,0.545,0.004,1.062-0.006,1.579
		c-0.001,0.058-0.075,0.125-0.13,0.169c-0.297,0.239-0.311,0.457-0.058,0.725c0.098,0.105,0.166,0.239,0.22,0.377
		c-0.583-0.106-1.075-0.732-1.108-1.337C39.046,34.998,39.454,34.391,40.164,34.14z"/>
	<path fill-rule="evenodd" clip-rule="evenodd" d="M44.386,17.729c0.125,0,0.25,0.014,0.373-0.004
		c0.151-0.022,0.299-0.068,0.447-0.108c0.075-0.02,0.147-0.063,0.223-0.069c0.663-0.049,1.106,0.012,1.478,0.216
		c-0.102,0.065-0.185,0.166-0.266,0.163c-0.728-0.019-1.455-0.056-2.182-0.09c-0.026-0.001-0.051-0.027-0.077-0.042
		C44.383,17.772,44.385,17.75,44.386,17.729z"/>
	<path fill-rule="evenodd" clip-rule="evenodd" d="M43.724,42.901c0.311,0.192,0.66,0.246,0.667,0.62
		c0.007,0.417-0.352,0.531-0.667,0.717C43.724,43.794,43.724,43.385,43.724,42.901z"/>
	<path fill-rule="evenodd" clip-rule="evenodd" d="M52.861,21.147c0.292-0.326,0.334-0.331,0.731-0.09
		c0.263,0.16,0.359,0.434,0.244,0.713C53.517,21.566,53.198,21.362,52.861,21.147z"/>
	<path fill-rule="evenodd" clip-rule="evenodd" d="M30.679,28.4c-0.108-0.114-0.181-0.19-0.276-0.291
		c0.128-0.028,0.227-0.049,0.375-0.082C30.74,28.169,30.714,28.269,30.679,28.4z"/>
	<path fill-rule="evenodd" clip-rule="evenodd" d="M22.159,49.467c0.359,0.083,0.627,0.48,0.663,1.009
		C22.578,50.105,22.377,49.8,22.159,49.467z"/>
	<path fill-rule="evenodd" clip-rule="evenodd" d="M31.041,41.845c0.196,0.023,0.314,0.037,0.475,0.056
		c0.04,0.25,0.084,0.524,0.128,0.798c-0.054,0.018-0.107,0.036-0.161,0.053C31.339,42.459,31.197,42.166,31.041,41.845z"/>
	<path fill-rule="evenodd" clip-rule="evenodd" d="M52.922,31.208c-0.065,0.055-0.132,0.11-0.208,0.174
		c0.072,0.13,0.138,0.25,0.204,0.369c-0.012,0.016-0.023,0.031-0.035,0.047c-0.207-0.137-0.414-0.273-0.637-0.42
		c-0.169,0.178-0.354,0.311-0.126,0.594c0.438,0.545,0.362,0.737-0.325,0.934c-0.056,0.016-0.113,0.028-0.242-0.011
		c0.055-0.086,0.09-0.209,0.168-0.253c0.381-0.21,0.392-0.221,0.195-0.576c-0.143-0.259,0.027-0.757,0.321-0.932
		c0.06-0.036,0.131-0.055,0.188-0.095C52.644,30.884,52.812,30.898,52.922,31.208z"/>
</g>
</svg>
