<?xml version="1.0" encoding="utf-8"?>
<!-- Generator: Adobe Illustrator 16.0.0, SVG Export Plug-In . SVG Version: 6.00 Build 0)  -->
<!DOCTYPE svg PUBLIC "-//W3C//DTD SVG 1.1//EN" "http://www.w3.org/Graphics/SVG/1.1/DTD/svg11.dtd">
<svg version="1.1" id="Capa_1" xmlns="http://www.w3.org/2000/svg" xmlns:xlink="http://www.w3.org/1999/xlink" x="0px" y="0px"
	 width="47.52px" height="46.289px" viewBox="0 0 47.52 46.289" enable-background="new 0 0 47.52 46.289" xml:space="preserve">
<g id="logoTecsia" display="none">
	<g display="inline">
		<circle fill="#ADC90E" cx="-197.797" cy="20.895" r="22.442"/>
		<path fill="#13110C" d="M-212.369,9.413c0.033,0.561,0.021,0.816,0.062,1.094c0.042,0.278,0.261,0.496,0.583,0.784
			c0.323,0.287,0.485,0.43,0.492,0.558c0.008,0.127-0.312,0.759-0.349,1.017c-0.036,0.257,0.122,0.324,0.159,0.526
			c0.037,0.202,0.067,0.303,0.19,0.652c0.123,0.351,0.073,1.248,0.095,1.604s0.104,0.479,0.213,0.574
			c0.106,0.095,0.175-0.061,0.205,0.013c0.029,0.076,0.093,0.276,0.175,0.373c0.083,0.097,0.286,0.085,0.514,0.047
			c0.229-0.04,0.37-0.226,0.338-0.327c-0.031-0.1-0.219-0.243-0.253-0.394s-0.07-0.328-0.134-0.553
			c-0.064-0.227,0.027-0.845-0.021-1.174c-0.044-0.33,0.014-0.665,0.243-1.087c0.23-0.422,0.531-0.951,0.531-0.951
			s-0.042,0.59-0.058,0.744c-0.018,0.154,0.168,0.271,0.271,0.316c0.105,0.044,0.278,0.392,0.397,0.666
			c0.117,0.274,0.375,0.718,0.546,1.04c0.172,0.322,0.341,0.593,0.447,0.663c0.104,0.07,0.2-0.037,0.2-0.037
			s0.271,0.239,0.353,0.312c0.081,0.072,0.335,0.057,0.512,0.021c0.176-0.036,0.347-0.173,0.312-0.35
			c-0.036-0.177-0.58-0.298-0.721-0.494c-0.14-0.196-0.258-0.47-0.32-0.696c-0.064-0.226-0.241-0.625-0.34-0.977
			c-0.098-0.352-0.006-0.536,0.062-0.718c0.064-0.183-0.007-0.562,0.018-0.997c0.025-0.436,0.196-1.007,0.196-1.007
			s0.72,0.085,1.064,0.295c0.345,0.209,0.711,0.366,0.967,0.376c0.256,0.01,0.141-0.213,0.132-0.365
			c-0.009-0.153,0.142-0.187,0.365-0.302c0.223-0.115,0.506-0.081,0.862-0.076c0.358,0.005,1.024,0.042,1.384,0.046
			c0.355,0.004,1.116,0.343,1.222,0.363c0.103,0.02,0.151,0.399,0.219,0.702c0.07,0.302,0.281,0.417,0.259,0.495
			c-0.021,0.078,0.111,0.581,0.2,0.806c0.09,0.225-0.051,0.412-0.089,0.644s0.075,0.404,0.16,0.553
			c0.085,0.148,0.223-0.116,0.223-0.116s-0.009,0.282,0.026,0.433c0.034,0.151,0.16,0.118,0.244,0.241s0.301-0.094,0.301-0.094
			s0.073-0.056,0.109,0.121c0.035,0.176,0.069,0.328,0.232,0.497c0.164,0.169,0.149-0.06,0.185,0.066
			c0.031,0.126,0.312,0.083,0.489,0.098c0.182,0.015,0.437,0.025,0.53-0.107c0.094-0.133-0.218-0.243-0.335-0.491
			c-0.117-0.249-0.246-0.701-0.34-1.002c-0.094-0.301-0.1-0.811-0.118-1.142c-0.02-0.331,0.293-1.09,0.293-1.09
			s0.335,0.057,0.521,0.148c0.184,0.091,0.392,0.156,0.521,0.199s0.303,0.365,0.441,0.562c0.139,0.196,0.234,0.114,0.217,0.217
			c-0.021,0.103,0.372,0.258,0.612,0.423c0.238,0.165,0.784,0.337,0.939,0.379c0.156,0.042,0.312,0.058,0.506-0.081
			c0.196-0.14,0.521-0.286,0.588-0.418c0.068-0.132-0.259-0.495-0.351-0.745c-0.09-0.25-0.146-0.758-0.165-1.063
			c-0.018-0.305,0.195-0.598,0.316-0.708c0.121-0.109,0.265,0.163,0.441,0.153c0.18-0.011,0.328-0.07,0.479-0.105
			c0.149-0.035,0.368,0.208,0.368,0.208s-0.159-0.552-0.193-0.703c-0.034-0.151-0.334-0.466-0.549-0.658
			c-0.217-0.192-0.562-0.426-0.562-0.426s-0.198-0.347-0.413-0.512c-0.214-0.166-0.666-0.905-1.074-1.341
			c-0.408-0.436-1.538-1.416-2.038-1.667c-0.5-0.252-2.027-1.03-5.004-1.264c-2.977-0.233-3.403-0.132-4.813,0.207
			c-1.41,0.338-2.02,0.907-2.557,1.249c-0.224,0.14-0.531,0.516-0.656,0.575c-0.124,0.058-0.561,0.058-0.838,0.075
			c-0.28,0.016-0.448,0.205-0.539,0.389c-0.092,0.184,0.042,0.278,0.179,0.449c0.138,0.171,0.55,0.223,0.557,0.325
			s-0.065,0.183-0.175,0.521C-212.202,8.33-212.401,8.853-212.369,9.413z M-212.064,6.765c-0.106-0.096-0.006-0.102,0.093-0.159
			c0.101-0.056,0.501-0.157,0.501-0.157s-0.16,0.291-0.284,0.349C-211.849,6.84-211.957,6.86-212.064,6.765z"/>
		<path fill="#13110C" d="M-199.254,3.477c0.016,0.114,0.139,0.122,0.171,0.139c0.033,0.016,0.163,0.016,0.188,0.041
			c0.025,0.024-0.139,0.049-0.153,0.074c-0.018,0.024,0.041,0.016,0.072,0.033c0.033,0.016,0.154,0.073,0.154,0.073
			s-0.016,0.074,0,0.098c0.016,0.025-0.024,0.058-0.048,0.098c-0.025,0.041,0.032,0.065,0.032,0.065s-0.01,0.09,0.023,0.139
			c0.032,0.049,0.082,0.016,0.171,0.033c0.089,0.016,0.146,0.057,0.146,0.057s-0.008,0.049-0.025,0.098
			c-0.016,0.049,0.033,0.058,0.059,0.098c0.023,0.041,0.244,0.082,0.393,0.098c0.146,0.016,0.367,0.098,0.367,0.098
			s-0.082,0.024-0.155,0.024c-0.075,0-0.156-0.041-0.196,0.065c-0.041,0.106,0.182,0.073,0.182,0.073l-0.106,0.082
			c0,0,0.073,0.058,0.14,0.074c0.063,0.016,0.146,0,0.293,0.008c0.146,0.008,0.27-0.016,0.407-0.008
			c0.141,0.008,0.17,0.041,0.277,0.073c0.106,0.033,0.204,0.017,0.31-0.008c0.106-0.024,0.188-0.016,0.237,0.008
			c0.049,0.025,0.064,0.139,0.024,0.18c-0.041,0.041-0.033,0.212-0.049,0.334c-0.018,0.122,0.023,0.188,0.123,0.196
			c0.098,0.008,0.146,0.196,0.212,0.327c0.063,0.13,0.163,0.155,0.243,0.163c0.082,0.009,0.146,0.204,0.214,0.36
			c0.064,0.155,0.139,0.04,0.302,0.089c0.163,0.049,0.275,0.041,0.375,0.114c0.098,0.073,0.18,0.131,0.22,0.171
			c0.041,0.041,0.179,0.326,0.245,0.522c0.065,0.196,0.065,0.294,0.049,0.368c-0.017,0.073-0.009,0.155-0.064,0.228
			c-0.059,0.074-0.163,0.123-0.154,0.156c0.008,0.033,0.138,0,0.22-0.025c0.082-0.024,0.146-0.008,0.212-0.008
			c0.066,0,0.14,0.065,0.196,0.082c0.056,0.017,0.195,0.09,0.236,0.114c0.041,0.025,0.063-0.008,0.057-0.073
			c-0.007-0.065-0.057-0.106-0.057-0.106s0.205,0.041,0.284,0.049c0.082,0.009,0.236,0.017,0.213,0.017s-0.105,0.106-0.065,0.123
			c0.042,0.017,0.18,0.033,0.261,0.008c0.082-0.024,0.236,0.017,0.334,0.033c0.1,0.016,0.114,0.049,0.286,0.065
			c0.171,0.016,0.312,0.074,0.417,0.082c0.106,0.008,0.188,0.058,0.22,0.058c0.033,0,0.024-0.09-0.03-0.139
			c-0.06-0.049-0.246-0.089-0.246-0.089s0.327-0.025,0.425-0.025s0.105-0.057,0.139-0.09c0.032-0.032,0.065,0.049,0.099,0.049
			s0.058-0.008,0.041-0.049c-0.018-0.041-0.106-0.073-0.181-0.081c-0.072-0.009-0.18,0.016-0.335,0.024
			c-0.153,0.008-0.383-0.008-0.383-0.008s-0.023-0.049-0.065-0.089c-0.041-0.041-0.104,0.041-0.172,0.032
			c-0.064-0.009-0.244-0.261-0.351-0.408c-0.106-0.147-0.252-0.351-0.277-0.448c-0.022-0.099,0.05-0.212,0.115-0.286
			c0.064-0.073,0.334-0.22,0.546-0.334c0.211-0.114,0.449-0.261,0.604-0.343c0.153-0.081,0.171-0.008,0.275,0.016
			c0.106,0.025,0.164-0.016,0.253-0.122c0.091-0.106,0.212-0.359,0.318-0.571c0.105-0.212,0.277-0.53,0.326-0.776
			c0.05-0.244,0-0.506-0.032-0.693c-0.033-0.188-0.269-0.742-0.343-0.921c-0.073-0.18-0.196-0.408-0.245-0.531
			s-0.114-0.229-0.114-0.229s0.13,0.024,0.181,0.024c0.048,0,0.171-0.163,0.22-0.252c0.049-0.09,0.008-0.294,0.008-0.294
			s0.081,0,0.146,0.024c0.063,0.025,0.171,0.041,0.188,0.017s-0.023-0.131-0.074-0.204c-0.049-0.073-0.123-0.073-0.123-0.073
			s-0.008-0.058,0-0.09c0.009-0.032-0.032-0.098-0.049-0.204c-0.017-0.106-0.063-0.188-0.104-0.196
			c-0.04-0.008-0.064-0.212-0.091-0.22c-0.022-0.008-0.049,0.171-0.072,0.163c-0.024-0.008-0.073-0.343-0.105-0.335
			c-0.032,0.008-0.049,0.204-0.072,0.221c-0.024,0.017-0.05-0.326-0.073-0.326c-0.025,0-0.041,0.261-0.091,0.261
			s-0.072-0.253-0.099-0.253c-0.023,0-0.041,0.179-0.082,0.179s-0.082-0.082-0.154-0.041s-0.058,0.196,0.01,0.253
			c0.063,0.058,0.146,0.139,0.146,0.139s-0.286,0.041-0.562,0.18c-0.277,0.139-0.352,0.367-0.441,0.596
			c-0.089,0.229-0.22,0.767-0.317,0.93c-0.098,0.164-0.406,0.229-0.547,0.221c-0.139-0.008-0.383-0.082-0.569-0.074
			c-0.188,0.008-0.734,0.033-0.939,0.041c-0.203,0.008-0.904,0-1.043-0.024c-0.14-0.025-0.454-0.253-0.636-0.367
			c-0.13-0.082-0.302-0.156-0.482-0.221c-0.18-0.065-0.357-0.114-0.619-0.212c-0.262-0.098-0.728-0.163-0.841-0.18
			c-0.114-0.016-0.22,0.123-0.276,0.212c-0.059,0.09-0.141,0.22-0.172,0.302c-0.032,0.082-0.032,0.229,0,0.278
			c0.032,0.048,0.105,0.089,0.105,0.089s-0.049-0.016-0.089-0.016c-0.041,0-0.09,0.008-0.099,0.057
			C-199.229,3.273-199.271,3.363-199.254,3.477z M-194.376,7.014c0,0,0,0,0.043-0.018c0.065-0.03,0.237-0.006,0.33-0.019
			c0.092-0.012,0.178-0.067,0.208,0c0.028,0.067,0.122,0.092,0.085,0.135c-0.037,0.043-0.005,0.086,0.037,0.104
			c0.043,0.019,0.062,0.043,0.108,0.092c0.048,0.049,0.171,0.202,0.257,0.325s0.266,0.324,0.308,0.416
			c0.043,0.092,0.123,0.184,0.098,0.208c-0.022,0.024-0.122-0.049-0.188-0.073c-0.068-0.024-0.361-0.024-0.361-0.024
			s0.188-0.025,0.141-0.086c-0.049-0.061-0.208-0.03-0.307-0.03c-0.097,0-0.146,0.043-0.25-0.012
			c-0.104-0.055-0.141-0.024-0.245-0.3c-0.104-0.275-0.146-0.398-0.189-0.483C-194.345,7.161-194.376,7.014-194.376,7.014z"/>
		<path fill="#12100B" d="M-197.343,17.372c2.503,0.108,2.843-1.096,3.194-3.085c-2.5,0.039-3.657-0.097-3.564,2.043
			c0.859-0.629,1.183-0.822,2.163-1.242C-196.469,15.847-197.16,16.213-197.343,17.372L-197.343,17.372z"/>
		<path fill="#12100B" d="M-190.742,9.59c0.011-0.205-0.1-0.266-0.273-0.246c-0.645,0.773-0.54,0.818-0.709,1.746
			c-3.793-0.506-1.478,5.372,0.22,3.628c1.803,1.729,3.938-4.254,0.246-3.573C-191.241,10.469-191.135,10.126-190.742,9.59
			L-190.742,9.59z"/>
		<path d="M-201.907,13.151c-0.638-0.041-1.003,0.223-1.504,0.335c-1.855-0.231-1.761-0.089-2.982,0.831
			c1.024,2.247,0.687,1.426,2.464,3.361c0.233,0.495,0.505,0.859,1.064,0.923c-0.357-0.482-0.133-0.531-0.213-0.828
			c1.319,1.751,2.997,1.178,4.612,1.447c0.211,0.93,0.505,1.514,1.279,2.391c-0.262-1.547,0.169-2.859,1.253-3.241
			c-1.342-0.336-1.67-0.165-2.371,0.002c-0.192-0.255-0.377-0.497-0.552-0.728c-0.076-0.205,0.009-0.324,0.133-0.323
			c0.311,0-0.57-0.643-0.695-1.072c-0.017-0.05-0.307-0.327-0.571-0.127C-200.823,14.726-201.638,14.255-201.907,13.151
			L-201.907,13.151z M-204.788,14.5c0.131,0.147,0.172,0.348,0.09,0.451s-0.255,0.066-0.387-0.081
			c-0.131-0.146-0.171-0.348-0.09-0.45C-205.093,14.316-204.92,14.353-204.788,14.5L-204.788,14.5z"/>
		<path d="M-178.685,32.672c-0.096-0.146-3.955-2.062-5.208-2.576c-0.57-0.234-1.813-0.422-2.226-1.082
			c-0.41-0.664-0.905-2.108-3.064-4.503c-0.863-0.959-0.59-0.954-1.18-1.445c-0.589-0.491-1.011-0.639-1.271-0.883
			c-0.262-0.245-0.785-0.678-1.078-1.222c-0.292-0.545-0.479-0.783-0.611-0.98c-0.134-0.197-0.318-0.375-0.35-0.531
			c-0.064-0.31,0.176-1.048,0.023-1.266c-0.148-0.216-0.645-0.553-1.076-0.29c-0.431,0.264-1.479,1.25-0.94,3.428
			c0.241,0.969,0.532,1.104,0.802,1.405c0.164,0.182,0.363,0.588,0.473,0.858c0.109,0.269,0.359,1.108,0.359,1.108
			s-0.661,0.115-1.073,0.139s-1.286,0.01-1.548,0.025c-0.263,0.018-1.226-0.061-1.938,0.237c-0.714,0.3-1.829,0.962-2.135,1.546
			c-0.17,0.324-0.126,1.127,0.202,1.45c0.329,0.324,1.099,0.497,1.099,0.497s-0.925,0.842-0.884,1.496
			c0.041,0.655,0.329,1.031,0.558,1.218c0.228,0.188,0.313,0.269,0.313,0.269s-0.642,1.052-0.467,1.658
			c0.254,0.879,0.918,1.115,0.918,1.115s-0.269,0.748-0.247,1.008c0.02,0.203,0.231,0.631,0.376,0.799
			c0.16,0.181,0.567,0.488,0.803,0.541c0.423,0.099,1.023-0.059,1.732,0.008c0.298,0.025,2.486,0.251,3.493,0.332
			c1.093,0.088,2.477,0.046,3.112,0.021c0.635-0.021,1.056-0.209,1.411-0.204c0.246,0.002,0.312,0.08,0.901,0.389
			c0.59,0.308,2.799,1.777,2.799,1.777S-181.155,36.725-178.685,32.672z"/>
	</g>
</g>
<g id="Nosotros" display="none">
	<g display="inline">
		<circle fill="#71C8DB" cx="-140.618" cy="19.895" r="17.375"/>
		<g>
			<path fill="#FFFFFF" d="M-130.623,26.818c0,1.088-0.331,1.945-0.992,2.576c-0.663,0.631-1.543,0.944-2.64,0.944h-11.891
				c-1.098,0-1.977-0.313-2.638-0.944c-0.662-0.631-0.993-1.488-0.994-2.576c0-0.481,0.019-0.951,0.048-1.408
				c0.032-0.457,0.098-0.952,0.19-1.482c0.096-0.53,0.216-1.021,0.359-1.477c0.146-0.452,0.342-0.894,0.587-1.325
				c0.242-0.431,0.523-0.798,0.844-1.102c0.315-0.305,0.705-0.547,1.163-0.729c0.457-0.181,0.963-0.271,1.517-0.272
				c0.081,0,0.271,0.098,0.57,0.293s0.637,0.412,1.014,0.652c0.377,0.24,0.866,0.458,1.469,0.653
				c0.604,0.195,1.207,0.292,1.815,0.292c0.609,0,1.215-0.097,1.815-0.292c0.602-0.195,1.093-0.413,1.47-0.653
				c0.376-0.24,0.715-0.457,1.014-0.652s0.489-0.293,0.57-0.293c0.554,0,1.059,0.091,1.517,0.272
				c0.458,0.181,0.846,0.425,1.163,0.729c0.317,0.303,0.602,0.671,0.845,1.102c0.244,0.432,0.439,0.873,0.585,1.325
				c0.146,0.453,0.267,0.946,0.36,1.477c0.095,0.531,0.158,1.025,0.19,1.482C-130.64,25.867-130.623,26.337-130.623,26.818z
				 M-134.975,14.671c0,1.442-0.51,2.673-1.528,3.693c-1.021,1.02-2.251,1.53-3.693,1.53c-1.441,0-2.672-0.511-3.692-1.53
				c-1.021-1.021-1.528-2.251-1.528-3.693c0-1.441,0.51-2.673,1.528-3.693c1.021-1.02,2.251-1.53,3.692-1.53
				c1.442,0,2.673,0.511,3.693,1.53C-135.485,11.998-134.975,13.229-134.975,14.671z"/>
			<path fill="#FFFFFF" d="M-125.36,24.475c0,0.606-0.185,1.086-0.554,1.438c-0.37,0.353-0.86,0.526-1.474,0.526h-6.63
				c-0.61,0-1.103-0.176-1.472-0.526c-0.369-0.353-0.553-0.831-0.554-1.438c0-0.269,0.009-0.529,0.025-0.785
				c0.02-0.253,0.055-0.529,0.106-0.827c0.053-0.296,0.12-0.569,0.201-0.823c0.081-0.252,0.188-0.498,0.326-0.738
				c0.137-0.241,0.293-0.445,0.471-0.615s0.393-0.305,0.646-0.405c0.257-0.102,0.537-0.152,0.848-0.152
				c0.045,0,0.149,0.055,0.316,0.163s0.355,0.229,0.565,0.364c0.21,0.134,0.481,0.255,0.819,0.364
				c0.336,0.108,0.674,0.163,1.013,0.163s0.677-0.055,1.013-0.163c0.336-0.109,0.609-0.23,0.819-0.364
				c0.21-0.135,0.397-0.256,0.564-0.364c0.166-0.108,0.272-0.163,0.317-0.163c0.309,0,0.59,0.051,0.846,0.152
				c0.256,0.101,0.474,0.236,0.648,0.405c0.177,0.169,0.334,0.374,0.471,0.615c0.137,0.24,0.245,0.486,0.327,0.738
				c0.081,0.253,0.147,0.527,0.201,0.823c0.053,0.297,0.088,0.572,0.104,0.827C-125.369,23.943-125.36,24.206-125.36,24.475z
				 M-127.788,17.7c0,0.805-0.285,1.49-0.854,2.06c-0.567,0.569-1.255,0.854-2.06,0.854c-0.804,0-1.49-0.284-2.062-0.854
				c-0.567-0.569-0.854-1.255-0.854-2.06c0-0.804,0.285-1.49,0.854-2.06c0.569-0.568,1.258-0.854,2.062-0.854s1.49,0.285,2.06,0.854
				C-128.072,16.21-127.788,16.896-127.788,17.7z"/>
			<path fill="#FFFFFF" d="M-143.375,23.347c0,0.709-0.216,1.271-0.648,1.682c-0.432,0.412-1.006,0.617-1.722,0.617h-7.758
				c-0.719,0-1.291-0.205-1.724-0.617c-0.432-0.411-0.646-0.973-0.646-1.682c0-0.314,0.011-0.62,0.031-0.919
				c0.021-0.299,0.062-0.622,0.124-0.968c0.062-0.347,0.141-0.667,0.234-0.964c0.094-0.295,0.224-0.583,0.381-0.864
				c0.16-0.281,0.345-0.521,0.553-0.719c0.207-0.199,0.46-0.357,0.759-0.476c0.299-0.118,0.629-0.178,0.99-0.178
				c0.053,0,0.178,0.063,0.371,0.191c0.195,0.126,0.416,0.269,0.661,0.426c0.246,0.156,0.565,0.298,0.958,0.426
				c0.395,0.128,0.789,0.19,1.187,0.19c0.396,0,0.792-0.062,1.186-0.19c0.396-0.128,0.712-0.27,0.958-0.426
				c0.245-0.157,0.466-0.3,0.662-0.426c0.194-0.128,0.319-0.191,0.372-0.191c0.361,0,0.691,0.06,0.99,0.178s0.552,0.277,0.759,0.476
				c0.207,0.197,0.391,0.438,0.551,0.719c0.16,0.281,0.287,0.569,0.382,0.864c0.096,0.297,0.175,0.617,0.235,0.964
				c0.062,0.347,0.104,0.669,0.124,0.968C-143.386,22.727-143.375,23.032-143.375,23.347z M-146.215,15.419
				c0,0.941-0.333,1.744-1,2.41c-0.666,0.666-1.471,0.999-2.41,0.999c-0.94,0-1.744-0.333-2.41-0.999s-1-1.469-1-2.41
				s0.333-1.744,1-2.41c0.666-0.666,1.469-0.999,2.41-0.999c0.939,0,1.745,0.333,2.41,0.999
				C-146.549,13.675-146.215,14.478-146.215,15.419z"/>
		</g>
	</g>
</g>
<g id="servicios" display="none">
	<g display="inline">
		<circle fill="#E83969" cx="-89.74" cy="20.895" r="17.375"/>
		<g>
			<path fill="#FFFFFF" d="M-82.738,22.734c-0.036-0.017-0.076-0.026-0.116-0.026c-0.052,0-0.104,0.015-0.146,0.044l-3.812,2.196
				l-2.743-2.626c-0.048-0.045-0.111-0.071-0.182-0.071s-0.134,0.026-0.182,0.071l-2.748,2.626l-3.812-2.196
				c-0.044-0.029-0.095-0.044-0.146-0.044c-0.04,0-0.08,0.009-0.116,0.026c-0.084,0.04-0.138,0.122-0.138,0.21v2.733
				c0,0.083,0.047,0.16,0.124,0.202l6.63,3.412c0.04,0.023,0.085,0.034,0.13,0.034c0.042,0,0.084-0.009,0.123-0.029l7.143-3.412
				c0.081-0.042,0.131-0.12,0.131-0.207v-2.733C-82.6,22.856-82.653,22.774-82.738,22.734z"/>
			<path fill="#FFFFFF" d="M-80.867,19.562l-2.164-2.363l2.105-2.054c0.062-0.06,0.09-0.147,0.073-0.233
				c-0.015-0.086-0.068-0.158-0.146-0.194l-5.458-2.231c-0.033-0.015-0.068-0.022-0.104-0.022c-0.038,0-0.076,0.008-0.109,0.026
				l-2.597,1.276c-0.085,0.042-0.14,0.127-0.145,0.223c-0.004,0.096,0.043,0.186,0.125,0.235l5.909,2.965l-5.909,2.964
				c-0.066,0.04-0.111,0.108-0.122,0.187c-0.011,0.078,0.013,0.157,0.066,0.214l2.335,2.55c0.05,0.055,0.116,0.083,0.187,0.083
				c0.045,0,0.09-0.012,0.131-0.037l5.769-3.189c0.064-0.04,0.109-0.109,0.123-0.187C-80.79,19.698-80.814,19.619-80.867,19.562z"/>
			<path fill="#FFFFFF" d="M-92.66,23.188c0.069,0,0.137-0.028,0.187-0.083l2.336-2.55c0.055-0.058,0.077-0.137,0.066-0.214
				c-0.011-0.079-0.056-0.147-0.122-0.187l-5.909-2.964l5.909-2.965c0.081-0.049,0.129-0.14,0.125-0.236
				c-0.004-0.096-0.061-0.182-0.146-0.223l-2.646-1.276c-0.035-0.017-0.072-0.025-0.107-0.025s-0.07,0.007-0.104,0.022l-5.41,2.197
				c-0.078,0.035-0.133,0.107-0.146,0.192c-0.017,0.085,0.012,0.173,0.071,0.233l2.107,2.089l-2.165,2.364
				c-0.053,0.057-0.077,0.136-0.066,0.214c0.013,0.078,0.058,0.146,0.123,0.187l5.768,3.189
				C-92.75,23.176-92.705,23.188-92.66,23.188z"/>
		</g>
	</g>
</g>
<g id="Clientes" display="none">
	<g display="inline">
		<circle fill="#F2DA00" cx="-33.332" cy="20.457" r="17.375"/>
		<g>
			<g>
				<path fill="#FFFFFF" d="M-23.822,14.434H-34.6h-6.974v12.68h-1.269V13.166h8.876c0-0.7-0.567-1.268-1.27-1.268h-7.606
					c-0.7,0-1.27,0.568-1.27,1.268v14.582c0,0.7,0.567,1.268,1.27,1.268h19.02c0.7,0,1.269-0.566,1.269-1.268V15.702
					C-22.554,15.002-23.122,14.434-23.822,14.434z"/>
			</g>
		</g>
	</g>
</g>
<g id="Contacto">
	<g>
		<circle fill="#F49839" cx="24.025" cy="20.446" r="17.375"/>
		<g>
			<path fill="#FFFFFF" d="M16.385,30.198l-1.047-0.733c-0.938-0.654,2.264-5.225,3.201-4.57l1.046,0.733
				c1.401,0.981,2.608,0.78,3.574-0.595l4.303-6.144c0.963-1.375,0.739-2.581-0.664-3.563l-1.047-0.732
				c-0.938-0.656,2.555-5.642,3.491-4.987l1.047,0.733c3.271,2.292,3.259,6.17,1.013,9.379l-5.759,8.225
				C23.299,31.148,19.658,32.49,16.385,30.198z"/>
		</g>
	</g>
</g>
</svg>
