<?xml version="1.0" encoding="utf-8"?>
<!-- Generator: Adobe Illustrator 16.0.0, SVG Export Plug-In . SVG Version: 6.00 Build 0)  -->
<!DOCTYPE svg PUBLIC "-//W3C//DTD SVG 1.1//EN" "http://www.w3.org/Graphics/SVG/1.1/DTD/svg11.dtd">
<svg version="1.1" id="Capa_1" xmlns="http://www.w3.org/2000/svg" xmlns:xlink="http://www.w3.org/1999/xlink" x="0px" y="0px"
	 width="290.667px" height="138.667px" viewBox="0 0 290.667 138.667" enable-background="new 0 0 290.667 138.667"
	 xml:space="preserve">
<g>
	<path fill-rule="evenodd" clip-rule="evenodd" d="M21.811,119.842c-4.273,0-7.588,0-11.458,0c-0.124-1.678-0.341-3.269-0.342-4.861
		c-0.02-32.827,0.073-65.653-0.116-98.479c-0.026-4.565,1.568-5.569,5.764-5.554c35.492,0.129,70.985-0.038,106.477,0.114
		c23.787,0.102,43.615,14.982,50.923,37.729c0.483,1.504,1.067,2.977,1.987,5.525c3.148-5.111,5.742-9.299,8.312-13.501
		c4.949-8.095,10.106-16.075,14.727-24.355c2.149-3.851,4.616-5.669,9.038-5.022c2.27,0.333,4.627,0.059,7.875,0.059
		c-1.145,2.13-1.905,3.68-2.784,5.16C197.081,42.132,182.242,67.788,166.684,93c-10.583,17.148-26.16,26.59-46.823,26.524
		c-11.664-0.037-23.328,0.01-34.992-0.029c-2.265-0.008-4.876,0.46-4.868-3.249c0.043-19.974,0.02-39.949,0.02-59.632
		c0.648-0.489,0.901-0.846,1.164-0.854c13.648-0.43,10.733-1.265,10.923,9.854c0.199,11.661,0.025,23.328,0.063,34.992
		c0.007,2.124,0.249,4.248,0.454,7.513c13.306-0.675,26.53,0.238,39.038-2.335c20.979-4.316,34.285-25.429,31.355-46.412
		c-2.921-20.913-20.828-36.365-42.283-36.389c-30.994-0.035-61.988,0.098-92.979-0.119c-4.903-0.034-6.085,1.466-6.049,6.2
		c0.213,28.159,0.105,56.32,0.104,84.481C21.811,115.502,21.811,117.461,21.811,119.842z"/>
	<path fill-rule="evenodd" clip-rule="evenodd" d="M98.459,102.038c0-15.661,0-30.746,0-46.152c3.892,0,7.646,0,12.035,0
		c0,11.007,0,22.081,0,32.94c14.599,4.666,29.732-2.875,33.986-16.422c4.076-12.98-3.363-26.81-16.731-30.634
		c-3.148-0.9-6.565-1.18-9.861-1.193c-24.331-0.097-48.663,0.059-72.992-0.153c-4.715-0.041-6.215,1.608-5.791,6.044
		c0.266,2.774,0.049,5.595,0.049,8.93c11.694,0,22.768,0,34.246,0c0,4.272,0,8.016,0,12.204c-15.141,0-30.349,0-45.915,0
		c0-12.746,0-25.497,0-38.852c1.662-0.081,3.418-0.24,5.173-0.241c29.664-0.015,59.328-0.037,88.992-0.001
		c20.2,0.024,36.147,16.281,36.15,36.753c0.003,20.12-15.942,36.556-35.74,36.764C114.278,102.106,106.493,102.038,98.459,102.038z"
		/>
	<path fill-rule="evenodd" clip-rule="evenodd" d="M215.991,48.11c-1.244,1.833-2.032,2.838-2.657,3.936
		c-11.841,20.814-23.816,41.556-35.364,62.532c-2.369,4.303-4.951,6.049-9.703,5.466c-3.099-0.38-6.282-0.072-10.536-0.072
		c19.46-32.546,38.506-64.401,58.044-97.078c15.982,26.524,31.555,52.365,47.468,78.773c-21.964,0-43.267,0-64.909,0
		c0-3.592,0-7.01,0-11.136c13.782,0,27.496,0,42.904,0C232.44,75.752,224.396,62.234,215.991,48.11z"/>
	<path fill-rule="evenodd" clip-rule="evenodd" d="M272.791,106.917c-18.997-32.134-37.44-63.332-56.392-95.385
		c4.69,0,8.597-0.2,12.459,0.125c1.131,0.095,2.46,1.481,3.152,2.611c15.742,25.691,31.432,51.415,47.02,77.199
		c0.696,1.151,0.941,3.228,0.375,4.365C277.647,99.359,275.397,102.642,272.791,106.917z"/>
	<path fill-rule="evenodd" clip-rule="evenodd" d="M27.14,119.972c0-14.667,0.044-28.493-0.04-42.318
		c-0.015-2.571,0.947-3.624,3.474-3.618c13.166,0.031,26.333,0.042,39.499-0.018c2.786-0.013,3.906,1.151,3.756,3.908
		c-0.134,2.465-0.028,4.943-0.028,8.252c-7.865,0-15.294,0-22.723,0c-11.926,0-11.926,0-11.926,11.809
		c0,5.667-0.172,11.34,0.055,16.997c0.154,3.839-1.061,5.576-5.105,5.038C32.013,119.743,29.857,119.972,27.14,119.972z"/>
	<path fill-rule="evenodd" clip-rule="evenodd" d="M198.308,119.97c0-4.285,0-8.02,0-12.081c24.546,0,48.878,0,73.864,0
		c-2.136,3.646-3.965,7.133-6.188,10.347c-0.669,0.967-2.429,1.657-3.692,1.663C241.19,119.999,220.086,119.97,198.308,119.97z"/>
</g>
</svg>
