<?xml version="1.0" encoding="utf-8"?>
<!-- Generator: Adobe Illustrator 16.0.0, SVG Export Plug-In . SVG Version: 6.00 Build 0)  -->
<!DOCTYPE svg PUBLIC "-//W3C//DTD SVG 1.1//EN" "http://www.w3.org/Graphics/SVG/1.1/DTD/svg11.dtd">
<svg version="1.1" id="Capa_1" xmlns="http://www.w3.org/2000/svg" xmlns:xlink="http://www.w3.org/1999/xlink" x="0px" y="0px"
	 width="107.973px" height="41.333px" viewBox="0 0 107.973 41.333" enable-background="new 0 0 107.973 41.333"
	 xml:space="preserve">
<g>
	<path fill-rule="evenodd" clip-rule="evenodd" d="M57.198,10.338c0,1.348,0.033,2.616-0.03,3.879
		c-0.012,0.239-0.411,0.458-0.687,0.744c-0.108-0.468-0.152-0.823-0.274-1.149c-0.219-0.583-0.427-1.184-0.743-1.715
		c-0.679-1.139-1.929-1.48-2.835-0.837c-0.954,0.677-1.165,2.297-0.352,3.22c0.353,0.4,0.827,0.724,1.302,0.978
		c0.724,0.387,1.508,0.657,2.243,1.024c0.968,0.483,1.783,1.143,2.198,2.191c1.262,3.186-1.054,6.755-4.468,6.806
		c-1.062,0.016-2.128-0.216-3.194-0.282c-1.094-0.067-2.191-0.07-3.288-0.1c-0.154-0.004-0.309,0-0.53,0
		c-0.051-1.123-0.128-2.215-0.142-3.307c-0.025-2.079-0.015-4.158-0.018-6.237c-0.001-0.751-0.593-1.269-1.348-1.176
		c-0.617,0.076-1.055,0.432-1.398,0.918c-0.493,0.697-0.742,1.493-0.893,2.322c-0.296,1.625-0.332,3.252,0.105,4.857
		c0.129,0.471,0.333,0.943,0.601,1.35c0.592,0.899,1.482,1,2.317,0.32c0.079-0.064,0.155-0.133,0.239-0.206
		c0.152,0.784-0.536,1.512-1.479,1.545c-1.443,0.051-2.424-0.684-3.083-1.904c-0.711-1.315-0.823-2.744-0.682-4.194
		c0.171-1.749,0.743-3.353,2.047-4.587c0.442-0.42,1.009-0.745,1.571-0.995c0.613-0.274,1.287-0.355,2.004,0.102
		c-0.031-0.896,0.11-1.737-0.302-2.498c-0.112-0.208-0.446-0.316-0.698-0.421c-0.158-0.066-0.354-0.04-0.529-0.055
		c-0.022-0.602,0.003-0.618,0.519-0.73c0.853-0.187,1.7-0.392,2.516-0.581c0,1.161-0.005,2.322,0.001,3.482
		c0.014,3.255,0.028,6.509,0.052,9.764c0.002,0.258,0.055,0.521,0.122,0.771c0.147,0.548,0.381,0.709,1.018,0.708
		c0-0.138,0-0.277,0-0.416c0-1.164,0.043-2.33-0.018-3.491c-0.031-0.6,0.259-0.839,0.713-1.024c0.177,0.675,0.311,1.354,0.532,2.003
		c0.34,0.998,0.809,1.935,1.69,2.582c1.301,0.953,2.834,0.503,3.429-0.995c0.559-1.406,0.184-2.699-1.074-3.534
		c-0.476-0.316-1.008-0.546-1.521-0.803c-0.42-0.209-0.861-0.379-1.274-0.601c-1.919-1.027-2.702-2.517-2.088-4.978
		c0.479-1.922,2.086-3.152,4.058-3.097C54.737,10.025,55.943,10.214,57.198,10.338z"/>
	<path fill-rule="evenodd" clip-rule="evenodd" d="M66.744,15.073c0.063-0.473,0.253-0.789,0.599-1.086
		c0.448-0.385,0.831-0.863,1.175-1.349c0.489-0.692,0.901-1.439,1.382-2.138c0.219-0.319,0.494-0.612,0.79-0.863
		c0.438-0.373,0.894-0.399,1.315-0.011c0.463,0.427,0.844,0.942,1.26,1.418c-0.531,0.705-1.002,1.331-1.51,2.005
		c-0.13-0.215-0.225-0.41-0.354-0.577c-0.224-0.286-0.438-0.594-0.716-0.819c-0.323-0.263-0.689-0.107-0.768,0.301
		c-0.138,0.721,0.164,1.331,0.56,1.899c0.046,0.066,0.211,0.075,0.318,0.07c0.65-0.031,1.3-0.073,2.015-0.115
		c-0.175,0.414-0.311,0.78-0.486,1.125c-0.041,0.081-0.212,0.13-0.325,0.134c-0.44,0.015-0.883,0.006-1.35,0.006
		c-0.013,0.158-0.03,0.271-0.03,0.384c0.001,2.118-0.003,4.236,0.012,6.354c0.004,0.455,0.044,0.916,0.123,1.363
		c0.123,0.691,0.405,0.925,1.101,1.015c0.167,0.021,0.334,0.048,0.507,0.073c-0.005,0.055,0,0.094-0.012,0.127
		c-0.244,0.708-0.244,0.708-0.999,0.708c-2.104,0-4.21-0.005-6.315,0.006c-0.285,0.001-0.413-0.072-0.471-0.365
		c-0.371-1.869-0.759-3.734-1.142-5.601c-0.028-0.138-0.057-0.276-0.096-0.463c-1.172,0.655-1.905,1.562-2.033,2.878
		c-0.04,0.41-0.017,0.841,0.067,1.245c0.298,1.448,1.284,1.832,2.475,0.99c0.065,0.651-0.08,0.946-0.518,1.241
		c-1.251,0.841-3.168,0.534-4.086-0.536c-0.988-1.153-0.987-3.004,0.023-4.232c0.574-0.697,1.294-1.215,2.073-1.651
		c0.524-0.293,1.065-0.557,1.588-0.854c0.097-0.055,0.214-0.22,0.196-0.31c-0.14-0.689-0.249-1.394-0.484-2.052
		c-0.298-0.833-1.063-0.903-1.589-0.181c-0.554,0.76-0.712,1.672-0.928,2.559c-0.021,0.088-0.04,0.178-0.064,0.266
		c-0.006,0.023-0.028,0.042-0.044,0.063c-0.725-0.213-0.733-0.224-0.733-0.942c0-0.954,0-1.908,0-2.933
		c0.69-0.157,1.38-0.342,2.08-0.461c0.485-0.083,0.988-0.113,1.481-0.098c1.171,0.035,2.018,0.625,2.358,1.73
		c0.302,0.979,0.44,2.009,0.638,3.019c0.271,1.384,0.509,2.774,0.806,4.151c0.092,0.424,0.299,0.834,0.518,1.213
		c0.094,0.161,0.379,0.341,0.53,0.307c0.181-0.042,0.381-0.28,0.447-0.476c0.107-0.315,0.149-0.664,0.153-1
		c0.026-2.209,0.035-4.418,0.048-6.627c0.005-0.911,0.002-0.911-0.92-0.911C67.19,15.073,66.973,15.073,66.744,15.073z"/>
	<path fill-rule="evenodd" clip-rule="evenodd" d="M82.293,15.197c-0.476,0-0.916,0-1.388,0c0.113-0.443,0.216-0.785,0.68-1.023
		c0.977-0.503,1.582-1.396,2.026-2.37c0.229-0.502,0.541-0.842,1.113-1.016c0,0.558,0.005,1.108-0.001,1.66
		c-0.005,0.378-0.009,0.758-0.042,1.135c-0.029,0.334,0.069,0.459,0.429,0.456c1.358-0.014,2.719,0.004,4.077,0.009
		c0.144,0,0.286,0,0.475,0c0.769,2.958,1.534,5.905,2.299,8.853c0.028,0.001,0.056,0.002,0.084,0.002
		c0.092-0.268,0.199-0.531,0.274-0.804c0.348-1.256,0.696-2.513,1.02-3.775c0.073-0.286,0.056-0.596,0.067-0.896
		c0.024-0.657-0.25-1.133-0.863-1.399c-0.057-0.025-0.108-0.062-0.191-0.11c0.329-0.985,0.654-1.959,0.979-2.931
		c1.092,0.238,1.836,1.096,1.822,2.209c-0.008,0.645-0.061,1.324-0.271,1.926c-1.071,3.067-2.168,6.126-3.332,9.159
		c-0.302,0.788-0.808,1.526-1.34,2.191c-0.858,1.072-2.192,1.347-3.468,0.822c0.172-0.472,0.345-0.946,0.518-1.42
		c0.17-0.465,0.339-0.931,0.525-1.442c0.575,0.49,1.203,0.66,1.897,0.364c0.735-0.313,1.09-0.964,1.485-1.699
		c-0.354,0-0.635-0.016-0.914,0.005c-0.26,0.02-0.351-0.077-0.41-0.333c-0.479-2.072-0.944-4.15-1.487-6.206
		c-0.253-0.953-0.651-1.869-1.021-2.786c-0.209-0.518-0.609-0.78-1.21-0.723c-0.452,0.043-0.912,0.009-1.406,0.009
		c-0.013,0.155-0.033,0.28-0.032,0.406c0.015,2.196,0.023,4.392,0.055,6.587c0.007,0.454,0.061,0.915,0.154,1.359
		c0.148,0.707,0.479,0.962,1.202,0.999c0.27,0.014,0.541,0.002,0.873,0.002c-0.112,0.305-0.19,0.55-0.297,0.783
		c-0.029,0.064-0.137,0.125-0.213,0.131c-0.793,0.061-1.587,0.159-2.38,0.149c-0.954-0.012-1.534-0.452-1.66-1.397
		c-0.157-1.185-0.197-2.391-0.203-3.588c-0.008-1.672,0.062-3.344,0.098-5.016C82.317,15.399,82.304,15.322,82.293,15.197z"/>
	<path fill-rule="evenodd" clip-rule="evenodd" d="M80.821,19.137c-1.68,0-3.297,0-4.971,0c0.137-0.316,0.24-0.61,0.393-0.876
		c0.054-0.094,0.226-0.163,0.347-0.168c0.456-0.019,0.914-0.008,1.48-0.008c-0.059-0.695-0.092-1.365-0.182-2.028
		c-0.043-0.317-0.151-0.64-0.302-0.923c-0.31-0.587-0.978-0.653-1.379-0.121c-0.222,0.294-0.405,0.654-0.485,1.011
		c-0.461,2.057-0.326,4.073,0.529,6.019c0.084,0.19,0.192,0.371,0.307,0.546c0.878,1.348,2.151,1.656,3.553,0.863
		c0.09-0.05,0.179-0.101,0.336-0.19c-0.088,0.455-0.145,0.851-0.251,1.232c-0.035,0.128-0.184,0.244-0.307,0.327
		c-2.023,1.366-4.826,0.695-6.086-1.463c-0.889-1.524-1.023-3.19-0.84-4.896c0.149-1.392,0.585-2.679,1.576-3.72
		c1.654-1.737,4.355-1.379,5.49,0.732C80.639,16.605,80.847,17.825,80.821,19.137z"/>
	<path fill-rule="evenodd" clip-rule="evenodd" d="M23.462,15.355c-0.102-0.446-0.184-0.879-0.301-1.303
		c-0.358-1.299-1.054-2.326-2.372-2.818c-0.551-0.205-1.118-0.226-1.743-0.101c-0.061,1.955-0.121,3.907-0.183,5.895
		c1.033,0,2.032,0,3.084,0c-0.107,0.316-0.177,0.595-0.301,0.847c-0.045,0.09-0.221,0.162-0.338,0.163
		c-0.718,0.008-1.438,0-2.155-0.017c-0.211-0.005-0.313,0.047-0.31,0.28c0.024,1.449-0.002,2.901,0.071,4.347
		c0.062,1.247,0.591,1.7,1.842,1.755c0.208,0.009,0.416,0.001,0.625,0.001c-0.017,0.602-0.11,0.698-0.658,0.698
		c-1.555,0-3.11,0-4.665,0c-0.143,0-0.284,0-0.454,0c-0.051-0.234-0.096-0.442-0.147-0.68c0.131-0.007,0.22-0.015,0.309-0.016
		c0.895-0.016,1.227-0.248,1.366-1.12c0.123-0.771,0.202-1.557,0.205-2.337c0.011-2.457-0.02-4.913-0.043-7.37
		c-0.004-0.404-0.059-0.808-0.083-1.211c-0.046-0.759-0.556-1.336-1.269-1.33c-0.087,0.001-0.174-0.044-0.259-0.068
		c0.147-0.688,0.147-0.688,0.817-0.688c1.777,0,3.555,0.006,5.332-0.003c0.532-0.003,1.064-0.05,1.648-0.08
		c0.061,0.542,0.13,1.121,0.191,1.701c0.091,0.857,0.15,1.719,0.274,2.571C24.011,14.912,23.839,15.153,23.462,15.355z"/>
	<path fill-rule="evenodd" clip-rule="evenodd" d="M31.981,19.728c0.036-1.392,0.276-2.707,0.949-3.909
		c0.202-0.362,0.441-0.713,0.714-1.025c1.45-1.659,3.593-1.587,4.948,0.154c0.717,0.923,1.074,1.993,1.23,3.134
		c0.246,1.806,0.049,3.553-0.857,5.159c-0.296,0.525-0.688,1.028-1.137,1.43c-1.343,1.202-3.038,1.08-4.241-0.261
		c-1.062-1.182-1.472-2.618-1.577-4.166C31.998,20.062,31.99,19.88,31.981,19.728z M33.785,19.116
		c0.082,1.086,0.111,1.857,0.205,2.621c0.104,0.845,0.277,1.682,0.791,2.393c0.627,0.868,1.714,0.889,2.345,0.025
		c0.242-0.331,0.448-0.721,0.547-1.116c0.59-2.349,0.562-4.71-0.009-7.058c-0.093-0.382-0.294-0.763-0.53-1.08
		c-0.646-0.867-1.808-0.839-2.414,0.057c-0.223,0.328-0.422,0.713-0.491,1.097C34.028,17.169,33.899,18.296,33.785,19.116z"/>
	<path fill-rule="evenodd" clip-rule="evenodd" d="M31.263,19.382c-0.004,1.451-0.282,2.842-1.071,4.071
		c-0.34,0.528-0.776,1.031-1.269,1.417c-1.186,0.93-2.639,0.817-3.744-0.219c-1.027-0.964-1.513-2.205-1.724-3.562
		c-0.285-1.83-0.063-3.596,0.815-5.244c0.219-0.41,0.495-0.806,0.813-1.144c1.481-1.572,3.544-1.456,4.864,0.256
		c0.81,1.048,1.15,2.269,1.274,3.563C31.251,18.807,31.251,19.095,31.263,19.382z M29.489,19.913
		c-0.084-1.125-0.115-1.909-0.207-2.687c-0.091-0.766-0.248-1.525-0.685-2.186c-0.682-1.032-1.967-1.029-2.604,0.028
		c-0.225,0.373-0.391,0.804-0.484,1.23c-0.424,1.911-0.405,3.839-0.118,5.766c0.108,0.727,0.293,1.437,0.728,2.049
		c0.623,0.876,1.705,0.92,2.343,0.057c0.266-0.358,0.498-0.792,0.581-1.224C29.255,21.835,29.377,20.708,29.489,19.913z"/>
	<path fill-rule="evenodd" clip-rule="evenodd" d="M60.202,29.732c0.117,0.091,0.287,0.157,0.343,0.277
		c0.162,0.349,0.429,0.43,0.769,0.382c0.36-0.051,0.452-0.311,0.463-0.623c0.006-0.14,0.001-0.279,0.001-0.438
		c-0.698,0.396-1.21,0.352-1.555-0.112c-0.363-0.489-0.32-1.242,0.096-1.66c0.38-0.383,0.878-0.378,1.334-0.041
		c0.185-0.096,0.335-0.175,0.583-0.305c0,0.661,0.007,1.203-0.002,1.745c-0.006,0.364,0.008,0.736-0.062,1.09
		c-0.111,0.563-0.543,0.825-1.142,0.759c-0.574-0.063-0.888-0.389-0.923-0.961C60.139,29.808,60.171,29.77,60.202,29.732z
		 M60.424,28.454c0.006,0.461,0.288,0.767,0.703,0.762c0.409-0.004,0.691-0.324,0.688-0.779c-0.004-0.454-0.293-0.769-0.704-0.765
		C60.707,27.675,60.419,28.004,60.424,28.454z"/>
	<path fill-rule="evenodd" clip-rule="evenodd" d="M49.319,27.292c0.176,0.043,0.328,0.08,0.563,0.137
		c0.428-0.259,0.618-0.243,1.079,0.173c0.084-0.067,0.165-0.146,0.258-0.205c0.487-0.308,1.028-0.069,1.127,0.497
		c0.02,0.115,0.029,0.233,0.03,0.351c0.004,0.417,0.001,0.833,0.001,1.281c-0.148,0-0.268,0-0.433,0
		c0-0.335,0.003-0.658-0.001-0.981c-0.002-0.156-0.008-0.313-0.026-0.468c-0.028-0.229-0.125-0.403-0.392-0.401
		c-0.272,0.002-0.411,0.174-0.431,0.417c-0.03,0.376-0.023,0.756-0.033,1.135c-0.008,0.342-0.009,0.342-0.442,0.289
		c0-0.316,0.003-0.639,0-0.961c-0.002-0.156,0.032-0.336-0.032-0.463c-0.082-0.161-0.277-0.409-0.372-0.388
		c-0.17,0.038-0.398,0.229-0.431,0.39c-0.071,0.353-0.054,0.728-0.039,1.092c0.013,0.312-0.077,0.45-0.427,0.333
		C49.319,28.801,49.319,28.078,49.319,27.292z"/>
	<path fill-rule="evenodd" clip-rule="evenodd" d="M67.151,27.218c0,0.856,0,1.568,0,2.377c-0.195-0.071-0.346-0.126-0.5-0.182
		c-0.259,0.054-0.572,0.176-0.881,0.165c-0.203-0.008-0.44-0.17-0.588-0.332c-0.398-0.435-0.365-1.226,0.029-1.654
		c0.383-0.416,0.9-0.418,1.381-0.066C66.775,27.425,66.92,27.345,67.151,27.218z M66.728,28.456
		c0.005-0.473-0.255-0.776-0.673-0.784c-0.413-0.007-0.696,0.302-0.7,0.762c-0.003,0.47,0.265,0.78,0.677,0.784
		C66.45,29.222,66.723,28.925,66.728,28.456z"/>
	<path fill-rule="evenodd" clip-rule="evenodd" d="M83.189,28.518c0.024,0.361,0.159,0.585,0.455,0.671
		c0.365,0.106,0.633-0.06,0.843-0.378c0.117,0.062,0.228,0.122,0.338,0.181c-0.281,0.549-0.872,0.772-1.428,0.554
		c-0.527-0.207-0.792-0.846-0.615-1.486c0.161-0.581,0.618-0.871,1.221-0.774c0.565,0.091,0.856,0.511,0.811,1.231
		C84.281,28.518,83.743,28.518,83.189,28.518z M84.385,28.163c-0.079-0.374-0.291-0.515-0.595-0.499
		c-0.295,0.015-0.512,0.152-0.548,0.499C83.621,28.163,83.981,28.163,84.385,28.163z"/>
	<path fill-rule="evenodd" clip-rule="evenodd" d="M56.869,27.603c-0.017-0.331,0.171-0.324,0.417-0.246c0,0.705,0,1.417,0,2.228
		c-0.173-0.064-0.317-0.118-0.541-0.201c-0.557,0.334-1.056,0.314-1.413-0.131c-0.373-0.465-0.356-1.241,0.037-1.663
		C55.749,27.181,56.25,27.178,56.869,27.603z M56.896,28.479c0.019-0.449-0.258-0.786-0.661-0.806
		c-0.405-0.02-0.717,0.291-0.737,0.736c-0.02,0.435,0.275,0.792,0.666,0.807C56.576,29.232,56.878,28.929,56.896,28.479z"/>
	<path fill-rule="evenodd" clip-rule="evenodd" d="M70.583,29.128c0.509,0,0.933,0,1.368,0c0.029,0.208,0.138,0.42-0.173,0.426
		c-0.66,0.011-1.32,0.003-2.078,0.003c0.508-0.618,0.957-1.165,1.479-1.798c-0.353,0-0.617-0.014-0.879,0.003
		c-0.307,0.021-0.413-0.092-0.305-0.416c0.649,0,1.308,0,2.043,0C71.559,27.935,71.104,28.491,70.583,29.128z"/>
	<path fill-rule="evenodd" clip-rule="evenodd" d="M80.027,29.533c-0.153,0-0.277,0-0.447,0c0-0.456,0-0.896,0-1.336
		c0.001-0.274-0.064-0.497-0.395-0.521c-0.322-0.023-0.558,0.096-0.575,0.437c-0.023,0.465-0.006,0.933-0.006,1.42
		c-0.197,0-0.319,0-0.465,0c0-0.736,0-1.449,0-2.242c0.184,0.05,0.335,0.091,0.486,0.133c-0.005,0.029-0.01,0.059-0.014,0.089
		c0.088-0.054,0.171-0.117,0.264-0.16c0.569-0.266,1.099,0.034,1.145,0.679C80.056,28.512,80.027,28.998,80.027,29.533z"/>
	<path fill-rule="evenodd" clip-rule="evenodd" d="M75.155,27.314c0,0.761,0,1.463,0,2.216c-0.127,0.007-0.259,0.014-0.414,0.021
		c0-0.752,0-1.463,0-2.209C74.868,27.334,74.991,27.325,75.155,27.314z"/>
	<path fill-rule="evenodd" clip-rule="evenodd" d="M74.938,25.898c0.148,0.21,0.302,0.333,0.287,0.432
		c-0.016,0.107-0.18,0.247-0.296,0.264c-0.08,0.012-0.261-0.158-0.265-0.25C74.662,26.231,74.798,26.113,74.938,25.898z"/>
</g>
</svg>
