<?xml version="1.0" encoding="utf-8"?>
<!-- Generator: Adobe Illustrator 16.0.0, SVG Export Plug-In . SVG Version: 6.00 Build 0)  -->
<!DOCTYPE svg PUBLIC "-//W3C//DTD SVG 1.1//EN" "http://www.w3.org/Graphics/SVG/1.1/DTD/svg11.dtd">
<svg version="1.1" id="Capa_1" xmlns="http://www.w3.org/2000/svg" xmlns:xlink="http://www.w3.org/1999/xlink" x="0px" y="0px"
	 width="68.578px" height="36.094px" viewBox="0 0 68.578 36.094" enable-background="new 0 0 68.578 36.094" xml:space="preserve">
<g>
	<path fill="#CD1B1A" d="M61.086,19.028c0-4.351,0.058-8.702-0.034-13.049c-0.026-1.346,0.349-1.691,1.675-1.671
		c3.78,0.055,3.78-0.007,3.78,3.696c0.002,6.584-0.034,13.167,0.037,19.751c0.016,1.312-0.323,1.625-1.646,1.716
		c-2.17,0.154-3.546-0.521-4.841-2.349c-3.17-4.481-6.614-8.772-9.954-13.148c-0.697,0.372-0.383,0.942-0.386,1.363
		c-0.032,4.242-0.058,8.482,0.003,12.725c0.017,1.077-0.289,1.364-1.363,1.376c-4.044,0.048-4.044,0.089-4.044-3.979
		c0-6.521,0.029-13.042-0.028-19.561c-0.01-1.198,0.279-1.492,1.525-1.619c2.605-0.267,4.263,0.627,5.765,2.806
		c2.86,4.15,6.055,8.072,9.109,12.089C60.819,19.126,60.952,19.077,61.086,19.028z"/>
	<path fill="#CD1B1A" d="M33.211,29.811c-3.655-0.106-6.843-1.105-9.711-3.154c-0.837-0.599-1.102-1.066-0.274-1.896
		c0.799-0.801,1.32-2.068,2.254-2.499c1.104-0.51,1.854,0.965,2.854,1.414c1.763,0.792,3.542,1.338,5.484,1.172
		c1.312-0.111,2.58-0.413,2.895-1.938c0.332-1.602-0.771-2.289-2.045-2.711c-1.793-0.593-3.623-1.073-5.416-1.666
		c-4.41-1.457-6.167-3.803-5.809-7.665c0.345-3.722,3.176-6.402,7.414-6.841c3.436-0.357,6.636,0.479,9.578,2.3
		c0.84,0.52,1.146,1.016,0.384,1.903c-0.734,0.857-1.129,2.214-2.021,2.671c-0.997,0.509-1.917-0.824-2.94-1.214
		c-1.438-0.55-2.885-0.95-4.43-0.777c-1.201,0.134-2.241,0.572-2.459,1.938c-0.208,1.309,0.625,2.03,1.695,2.396
		c1.966,0.673,4.004,1.14,5.96,1.838c5.491,1.96,7.422,7.229,4.2,11.495C38.896,29.13,36.033,29.657,33.211,29.811z"/>
	<path fill="#CD1B1A" d="M3.666,16.796c0-3.736,0.034-7.471-0.022-11.205C3.628,4.599,3.896,4.309,4.905,4.317
		c5.506,0.049,11.015,0.057,16.522-0.002c1.138-0.012,1.326,0.391,1.329,1.412c0.017,3.619,0.055,3.619-3.491,3.619
		c-2.912,0-5.826,0.044-8.736-0.023c-1.085-0.026-1.381,0.332-1.409,1.394c-0.104,3.94-0.142,3.937,3.781,3.938
		c2.342,0,4.686,0.038,7.027-0.012c0.871-0.019,1.187,0.195,1.236,1.137c0.208,3.93,0.245,3.925-3.747,3.923
		c-2.088-0.001-4.184,0.095-6.266-0.032c-1.535-0.093-2.154,0.312-2.046,1.957c0.141,2.144-0.023,4.305,0.065,6.454
		c0.044,1.105-0.34,1.346-1.388,1.357c-4.118,0.053-4.118,0.091-4.117-4.095C3.667,22.493,3.667,19.644,3.666,16.796z"/>
</g>
</svg>
