<?xml version="1.0" encoding="utf-8"?>
<!-- Generator: Adobe Illustrator 16.0.0, SVG Export Plug-In . SVG Version: 6.00 Build 0)  -->
<!DOCTYPE svg PUBLIC "-//W3C//DTD SVG 1.1//EN" "http://www.w3.org/Graphics/SVG/1.1/DTD/svg11.dtd">
<svg version="1.1" id="Capa_1" xmlns="http://www.w3.org/2000/svg" xmlns:xlink="http://www.w3.org/1999/xlink" x="0px" y="0px"
	 width="286.69px" height="293.597px" viewBox="0 0 286.69 293.597" enable-background="new 0 0 286.69 293.597"
	 xml:space="preserve">
<g>
	<path fill-rule="evenodd" clip-rule="evenodd" fill="#5E5E5E" d="M151.077,17c5.326,1.99,11.041,1.771,16.547,2.831
		c19.203,3.694,36.368,11.641,51.969,23.209c17.984,13.337,31.5,30.299,40.763,50.662c5.756,12.652,9.147,25.882,10.823,39.719
		c2.723,22.48-0.662,43.953-9.087,64.784c-5.168,12.78-12.474,24.184-21.351,34.773c-12.544,14.963-27.819,26.092-45.367,34.278
		c-13.381,6.241-27.511,9.3-42.211,10.924c-18.466,2.04-36.166-0.513-53.614-6.085c-17.14-5.473-32.056-14.641-45.607-26.531
		c-12.501-10.969-22.317-23.891-29.695-38.509c-7.649-15.157-11.823-31.371-13.378-48.509C8.63,133.87,13.805,110.9,24.196,88.911
		c6.033-12.768,14.541-24.105,24.596-33.955c19.168-18.779,42.117-30.769,68.536-35.913c4.55-0.886,9.31-0.39,13.749-2.043
		C137.743,17,144.411,17,151.077,17z"/>
	<path fill-rule="evenodd" clip-rule="evenodd" fill="#E6E5E5" d="M25.956,147.431c-0.128-26.157,8.634-49.782,24.941-70.873
		c3.271-4.231,7.256-7.692,10.736-11.662c2.026-2.312,3.206-2.166,4.303,0.685c7.375,19.173,14.717,38.359,22.207,57.487
		c6.434,16.426,12.861,32.858,19.703,49.115c2.013,4.782,2.365,9.486,2.217,14.411c-0.254,8.462,0.592,16.463,5.631,23.862
		c3.019,4.434,7.068,6.671,11.595,8.47c6.326,2.515,8.77,5.707,8.784,12.488c0.018,8.332,0.05,16.665-0.012,24.996
		c-0.045,5.978-1.543,7.336-7.193,6.572c-30.174-4.081-55.765-17.185-75.461-40.397c-14.542-17.137-23.854-36.981-26.516-59.721
		C26.311,157.896,26.437,152.992,25.956,147.431z"/>
	<path fill-rule="evenodd" clip-rule="evenodd" fill="#E6E5E5" d="M217.94,62.438c19.278,17.467,31.285,38.194,36.302,63.148
		c1.46,7.262,2.559,14.63,2.547,21.828c-0.017,10.357-1.541,20.737-4.318,30.899c-5.365,19.627-15.314,36.619-29.545,50.874
		c-16.425,16.454-36.07,27.475-59.163,31.841c-4.652,0.879-9.262,1.999-14.033,1.954c-1.062-0.01-2.367,0.4-2.634-1.401
		c-1.639-11.044-1.341-22.154-0.656-33.213c0.34-5.491,4.934-8.03,9.624-9.853c10.51-4.085,14.195-12.538,16.263-22.952
		c1.333-6.718-1.894-13.23,0.782-19.822c7.663-18.878,15.035-37.875,22.521-56.826C202.98,100.308,210.33,81.701,217.94,62.438z"/>
	<path fill-rule="evenodd" clip-rule="evenodd" fill="#E6E5E5" d="M141.669,141.545c-2.057-6.063-5.096-10.182-9.756-13.354
		c-5.534-3.766-7.408-10.239-10.112-15.959c-8.872-18.766-17.589-37.606-26.347-56.426c-0.545-1.168-1.047-2.379-1.377-3.621
		c-0.757-2.833-4.389-5.47-2.911-7.926c1.217-2.023,5.034-2.509,7.726-3.613c17.536-7.197,35.93-8.885,54.557-7.489
		c12,0.9,23.46,4.744,34.611,9.301c3.019,1.233,4.18,2.24,2.332,6.093c-11.217,23.393-22.045,46.974-32.828,70.573
		c-2.305,5.042-6.367,8.407-10.225,11.905C144.354,133.737,142.223,136.588,141.669,141.545z"/>
	<path fill-rule="evenodd" clip-rule="evenodd" fill="#E6E5E5" d="M141.845,202.742c-1.522-0.547-1.554-1.647-1.826-2.841
		c-0.982-4.301-3.07-8.12-7.262-9.885c-10.213-4.301-14.904-12.816-18.77-22.498c-7.141-17.883-14.787-35.565-22.277-53.308
		c-7.365-17.446-14.82-34.855-22.182-52.303c-1.143-2.708,1.672-6.946,4.592-7.417c1.416-0.228,1.58,0.715,1.918,1.548
		c9.349,23.087,18.688,46.179,28.023,69.271c3.214,7.947,6.328,15.936,9.658,23.834c2.556,6.061,1.912,12.715,4.158,18.933
		c3.852,10.668,10.748,17.775,21.574,20.506c6.281,1.584,11.167-2.61,15.719-6.252c7.615-6.091,10.895-14.818,11.644-23.975
		c0.598-7.295,3.642-13.411,6.179-19.844c6.945-17.606,13.805-35.255,21.246-52.653c4.073-9.525,7.643-19.25,11.892-28.69
		c0.42-0.934,0.431-4.121,2.767-2.078c1.68,1.47,5.991,1.413,4.317,5.421c-7.984,19.114-16.104,38.172-24.089,57.286
		c-7.422,17.764-14.675,35.599-22.127,53.351c-3.164,7.535-7.447,14.26-15.386,17.682
		C145.493,191.469,142.339,196.175,141.845,202.742z"/>
	<path fill-rule="evenodd" clip-rule="evenodd" fill="#E6E5E5" d="M141.321,169.946c-1.658-6.921-7.188-9.927-12.229-13.518
		c-4.832-3.443-7.473-8.643-9.801-13.921c-7.256-16.449-14.391-32.952-21.653-49.398c-5.825-13.192-11.681-26.372-17.714-39.469
		c-1.947-4.23,1.98-4.045,3.648-5.469c2.455-2.094,3.276,0.102,4.066,1.894c6.148,13.931,12.296,27.863,18.412,41.809
		c4.814,10.98,9.568,21.987,14.385,32.966c1.34,3.051,0.455,6.214,0.609,9.318c0.578,11.67,6.826,20.478,17.883,24.304
		c1.514,0.524,2.727,0.464,4.252,0.048c9.152-2.498,19.229-13.068,17.818-24.143c-0.961-7.548,2.618-13.662,5.4-20.009
		c9.435-21.52,19.107-42.935,28.586-64.436c0.685-1.552,1.212-3.975,2.885-2.263c1.602,1.639,6.587,0.788,4.709,5.297
		c-3.113,7.471-6.283,14.92-9.563,22.319c-10.707,24.146-21.422,48.29-32.268,72.375c-2.032,4.514-5.572,7.932-9.905,10.364
		C146.137,160.654,142.793,164.317,141.321,169.946z"/>
	<path fill-rule="evenodd" clip-rule="evenodd" fill="#5E5E5E" d="M42.077,128.5c0-7.667,0.129-15.336-0.065-22.998
		c-0.073-2.906,0.911-3.609,3.669-3.561c8.996,0.157,18.006,0.276,26.994-0.036c4.285-0.149,3.531,2.47,3.347,4.79
		c-0.176,2.201,1.682,5.687-3.247,5.369c-4.647-0.3-9.334,0.063-13.994-0.113c-2.629-0.1-3.769,0.404-3.79,3.448
		C54.93,124.001,54.767,124,63.577,124c2,0,4.041,0.257,5.992-0.051c4.672-0.74,5.856,1.195,5.65,5.656
		c-0.153,3.312-0.664,4.768-4.346,4.475c-4.307-0.342-8.664,0.021-12.992-0.121c-2.184-0.071-2.904,0.653-2.846,2.841
		c0.135,4.996-0.109,10.004,0.098,14.996c0.125,3.021-0.414,4.358-3.958,4.305c-9.096-0.137-9.099,0.065-9.099-9.102
		C42.077,140.833,42.077,134.667,42.077,128.5z"/>
	<path fill-rule="evenodd" clip-rule="evenodd" fill="#5E5E5E" d="M68.304,228.428c6.405-3.757,12.8-7.525,19.215-11.257
		c1.449-0.844,2.955-0.979,4.344,0.187c1.112,0.933,1.771,1.695,1.383,3.595c-1.329,6.502-2.148,13.108-3.203,19.668
		c-0.222,1.379-0.992,2.85-2.492,2.004c-1.018-0.573-3.156-0.106-2.822-2.96c0.67-5.734-5.881-10.426-11.183-8.472
		C71.431,231.973,71.431,231.973,68.304,228.428z"/>
	<path fill-rule="evenodd" clip-rule="evenodd" fill="#5E5E5E" d="M68.981,193.701c0.186,1.574-1.314,1.286-2.001,1.804
		c-0.91,0.686-2.065,1.057-2.894-0.415c-0.877-1.557-2.072-2.958-2.783-4.58c-0.615-1.405-1.023-1.761-2.479-0.909
		c-1.307,0.765-2.254,1.149-1.021,2.817c0.855,1.156,1.346,2.584,1.976,3.902c0.694,1.451,0.257,2.641-1.075,3.377
		c-1.414,0.782-2.586,0.175-3.374-1.09c-0.511-0.82-0.966-1.715-1.232-2.639c-0.856-2.97-2.462-3.299-4.863-1.612
		c-0.921,0.646-1.995,1.07-2.985,1.621c-1.508,0.837-2.446,0.796-3.281-1.099c-0.688-1.563-1.197-2.731,0.557-3.669
		c5.576-2.982,11.184-5.908,16.773-8.864c0.785-0.415,1.877-0.667,2.296-0.022C64.974,185.991,66.16,190.335,68.981,193.701z"/>
	<path fill-rule="evenodd" clip-rule="evenodd" fill="#5E5E5E" d="M108.569,232.193c-1.145-0.405-2.712-0.825-4.153-1.51
		c-1.399-0.665-3.153-1.211-1.987-3.55c0.872-1.751,1.491-2.198,3.58-1.281c4.562,2.001,9.32,3.608,14.104,5.019
		c1.69,0.499,2.473,1.07,1.709,2.565c-0.574,1.127-0.56,3.336-3.296,1.872c-3.074-1.645-5.562-0.887-6.386,3.259
		c-0.652,3.292-1.914,6.49-3.179,9.619c-0.581,1.438-0.975,3.788-3.716,2.456c-1.942-0.943-2.496-1.766-1.519-4.097
		C105.651,241.957,106.953,237.106,108.569,232.193z"/>
	<path fill-rule="evenodd" clip-rule="evenodd" fill="#5E5E5E" d="M77.349,205.057c-0.874,0.939-1.477,1.721-2.207,2.351
		c-4.562,3.934-9.205,7.774-13.704,11.777c-1.536,1.366-2.254,0.389-3.233-0.55c-1.25-1.199-1.783-2.568-0.37-3.821
		c4.751-4.213,9.569-8.353,14.444-12.422c0.949-0.792,2.188-0.594,3.1,0.432C76.009,203.534,76.635,204.248,77.349,205.057z"/>
	<path fill-rule="evenodd" clip-rule="evenodd" fill="#5E5E5E" d="M246.077,129.974c0.603,6.427-1.362,12.844-5.316,19.056
		c-3.581,5.626-15.031,8.981-20.375,7.651c-13.245-3.297-19.259-11.287-19.331-25.372c-0.032-6.404-0.245-12.783,3.092-18.626
		c5.278-9.245,12.2-12.431,22.028-11.482c9.956,0.96,16.135,6.446,18.922,16.195C246.208,121.283,246.049,125.195,246.077,129.974z"
		/>
	<path fill-rule="evenodd" clip-rule="evenodd" fill="#5E5E5E" d="M214.104,213.162c-1.95-3.207-4.347-4.652-6.602-6.283
		c-1.695-1.227-2.497-2.344-0.664-4.581c1.936-2.361,2.891-1.053,4.233,0.177c4.007,3.672,8.102,7.255,11.946,11.089
		c0.976,0.973,3.851,1.581,1.977,3.984c-1.458,1.869-3.085,3.133-5.913,2.04c-3.711-1.433-7.645-2.292-12.21-2.672
		c2.613,2.397,5.271,4.75,7.82,7.212c1.146,1.106,2.518,2.285,0.343,3.909c-1.719,1.284-2.866,1.877-4.69-0.145
		c-3.781-4.191-7.999-7.985-11.856-12.112c-0.714-0.763-3.508-1.425-1.37-3.189c1.505-1.243,1.961-4.375,5.359-2.938
		C205.989,211.14,209.807,211.903,214.104,213.162z"/>
	<path fill-rule="evenodd" clip-rule="evenodd" fill="#5E5E5E" d="M186.586,247.517c-1.263-7.44-2.479-13.8-3.349-20.206
		c-0.282-2.087-1.195-4.655,1.498-6.222c2.367-1.376,3.774,0.188,5.469,1.452c4.537,3.382,9.231,6.553,13.753,9.955
		c0.896,0.675,2.927,1.77,1.72,2.939c-1.031,0.999-2.339,2.946-4.826,1.605c-5.24-2.823-10.178,0.481-9.998,6.333
		C190.938,246.174,187.828,245.107,186.586,247.517z"/>
	<path fill-rule="evenodd" clip-rule="evenodd" fill="#5E5E5E" d="M169.739,229.076c3.859-0.591,6.559,0.986,7.211,4.5
		c0.703,3.787,0.619,8.186-4.167,9.262c-4.304,0.968-3.62,3.244-2.403,5.795c1.521,3.189,0.748,4.314-2.739,4.675
		c-1.519,0.157-1.313-0.184-1.599-1.195c-1.667-5.914-3.137-11.916-5.336-17.632c-1.081-2.807-0.006-3.941,2.01-4.199
		C165.152,229.971,167.345,228.332,169.739,229.076z"/>
	<path fill-rule="evenodd" clip-rule="evenodd" fill="#5E5E5E" d="M221.078,179.477c-0.264-2.375,0.675-4.493,1.659-6.512
		c0.668-1.37,1.865-2.138,3.521-0.959c1.31,0.932,2.634,1.685,0.935,3.391c-1.501,1.506-1.945,3.514-0.243,4.726
		c1.938,1.38,2.53-1.296,3.639-2.18c6.293-5.014,12.017-3.99,13.703,2.71c0.813,3.234-0.323,6.169-2.224,8.897
		c-1.313,1.885-2.562,0.74-3.687,0.113c-1.379-0.769-1.755-1.908-0.336-3.175c0.463-0.413,0.646-1.124,1.06-1.612
		c1.19-1.406,0.986-2.478-0.342-3.787c-1.651-1.627-2.737-0.069-3.72,0.565c-2.38,1.535-3.507,4.719-7.286,4.437
		C223.27,185.755,221.074,183.928,221.078,179.477z"/>
	<path fill-rule="evenodd" clip-rule="evenodd" fill="#5E5E5E" d="M217.696,190.245c1.061,0.671,2.672,1.756,4.345,2.737
		c4.056,2.375,8.148,4.685,12.204,7.059c1.123,0.657,2.593,1.354,1.241,2.984c-1.041,1.256-2.182,2.769-4.154,1.626
		c-5.608-3.249-11.194-6.538-16.761-9.858c-0.76-0.453-1.951-1.153-0.587-2.13C215.087,191.872,214.778,189.462,217.696,190.245z"/>
	<path fill-rule="evenodd" clip-rule="evenodd" fill="#5E5E5E" d="M156.568,99c-5.866,2.09-6.85-2.836-7.322-7.22
		c-0.456-4.231-2.427-5.264-6.118-4.799c-0.984,0.124-2.02,0.157-2.993-0.004c-5.364-0.891-7.812,1.336-8.239,6.761
		c-0.139,1.766-0.188,4.85-2.887,5.118c-3.438,0.342-6.977,0.148-10.41-0.288c-0.972-0.124-0.584-2.015-0.273-3.104
		c4.581-16.018,9.205-32.024,13.735-48.057c0.503-1.779,1.444-2.438,3.165-2.413c2.499,0.035,4.999-0.02,7.498,0.011
		c9.244,0.114,6.725-1.316,9.245,7.162c3.872,13.025,7.177,26.218,10.924,39.282C165.073,99.051,165.249,99,156.568,99z"/>
	<path fill-rule="evenodd" clip-rule="evenodd" fill="#5E5E5E" d="M130.015,116.197c0.403-7.729,4.443-13.707,9.55-19.143
		c0.763-0.812,1.306-1.651,2.596-0.024c4.058,5.115,7.987,10.165,9.383,16.805c1.043,4.96-0.528,11.017-4.472,13.574
		c-4.279,2.776-8.699,2.165-12.926-0.403C130.007,124.491,129.737,120.488,130.015,116.197z"/>
	<path fill-rule="evenodd" clip-rule="evenodd" fill="#E6E5E5" d="M86.679,230.035c-1.731-0.665-4.49-1.097-4.277-2.64
		c0.33-2.382,3.244-3.061,5.424-4.181C87.44,225.5,87.076,227.668,86.679,230.035z"/>
	<path fill-rule="evenodd" clip-rule="evenodd" fill="#E6E5E5" d="M233.06,128.927c0.243,4.311-0.935,8.264-2.129,12.101
		c-1,3.214-3.826,5.65-7.123,5.766c-3.215,0.113-5.595-2.3-6.895-5.424c-3.392-8.147-3.103-16.335-0.183-24.503
		c1.125-3.147,3.63-5.731,6.767-5.641c3.608,0.104,6.55,2.508,7.577,6.403C232.066,121.392,233.356,125.108,233.06,128.927z"/>
	<path fill-rule="evenodd" clip-rule="evenodd" fill="#E6E5E5" d="M187.675,226.587c2.575,2.149,4.286,3.577,6.053,5.052
		c-0.756,1.446-2.444,1.589-4.067,2.494C189.075,231.909,188.534,229.855,187.675,226.587z"/>
	<path fill-rule="evenodd" clip-rule="evenodd" fill="#E6E5E5" d="M172.069,236.235c-0.047,1.796-0.976,2.527-2.708,2.794
		c-2.993,0.461-2.163-2.268-2.958-3.507c-0.847-1.322,0.525-1.466,1.498-1.509C169.723,233.932,171.57,233.839,172.069,236.235z"/>
	<path fill-rule="evenodd" clip-rule="evenodd" fill="#E6E5E5" d="M136.126,76.992c1.469-6.74,2.846-13.053,4.392-20.146
		c2.728,6.328,3.132,12.553,4.513,18.513c0.307,1.323-0.707,1.645-1.84,1.638C140.888,76.981,138.585,76.992,136.126,76.992z"/>
</g>
</svg>
