<?xml version="1.0" encoding="utf-8"?>
<!-- Generator: Adobe Illustrator 16.0.0, SVG Export Plug-In . SVG Version: 6.00 Build 0)  -->
<!DOCTYPE svg PUBLIC "-//W3C//DTD SVG 1.1//EN" "http://www.w3.org/Graphics/SVG/1.1/DTD/svg11.dtd">
<svg version="1.1" id="Capa_1" xmlns="http://www.w3.org/2000/svg" xmlns:xlink="http://www.w3.org/1999/xlink" x="0px" y="0px"
	 width="47.52px" height="46.289px" viewBox="0 0 47.52 46.289" enable-background="new 0 0 47.52 46.289" xml:space="preserve">
<g>
	<circle fill="#ACC90E" cx="23.578" cy="23.145" r="22.442"/>
	<path fill="#FFFFFF" d="M9.006,11.663c0.033,0.561,0.021,0.816,0.062,1.094c0.042,0.278,0.261,0.496,0.583,0.784
		c0.323,0.287,0.485,0.43,0.492,0.558c0.008,0.127-0.312,0.759-0.349,1.017c-0.036,0.257,0.122,0.324,0.159,0.526
		c0.037,0.202,0.067,0.303,0.19,0.652c0.123,0.351,0.073,1.248,0.096,1.604c0.021,0.356,0.104,0.479,0.212,0.574
		c0.106,0.095,0.175-0.061,0.205,0.013c0.029,0.076,0.093,0.276,0.175,0.373c0.083,0.097,0.286,0.085,0.514,0.047
		c0.229-0.04,0.37-0.226,0.338-0.327c-0.031-0.1-0.219-0.243-0.253-0.394s-0.07-0.328-0.134-0.553
		c-0.064-0.227,0.027-0.845-0.021-1.174c-0.044-0.33,0.014-0.665,0.243-1.087c0.23-0.422,0.531-0.951,0.531-0.951
		s-0.042,0.59-0.058,0.744c-0.018,0.154,0.168,0.271,0.271,0.316c0.105,0.044,0.278,0.392,0.397,0.666
		c0.117,0.274,0.375,0.718,0.546,1.04c0.172,0.322,0.341,0.593,0.447,0.663c0.104,0.07,0.2-0.037,0.2-0.037s0.271,0.239,0.353,0.312
		c0.081,0.072,0.335,0.057,0.512,0.021c0.176-0.036,0.347-0.173,0.312-0.35c-0.036-0.177-0.58-0.298-0.721-0.494
		c-0.14-0.196-0.258-0.47-0.32-0.696c-0.064-0.226-0.241-0.625-0.34-0.977c-0.098-0.352-0.006-0.536,0.062-0.718
		c0.065-0.183-0.007-0.562,0.018-0.997c0.025-0.436,0.196-1.007,0.196-1.007s0.72,0.085,1.064,0.295
		c0.345,0.209,0.711,0.366,0.967,0.376c0.256,0.01,0.141-0.213,0.132-0.365c-0.009-0.153,0.142-0.187,0.365-0.302
		c0.223-0.115,0.506-0.081,0.862-0.076c0.358,0.005,1.024,0.042,1.384,0.046c0.355,0.004,1.116,0.343,1.222,0.363
		c0.103,0.02,0.151,0.399,0.219,0.702c0.07,0.302,0.281,0.417,0.259,0.495c-0.021,0.078,0.111,0.581,0.2,0.806
		c0.09,0.225-0.051,0.412-0.089,0.644s0.075,0.404,0.16,0.553c0.085,0.148,0.223-0.116,0.223-0.116s-0.009,0.282,0.026,0.433
		c0.034,0.151,0.16,0.118,0.244,0.241s0.301-0.094,0.301-0.094s0.073-0.056,0.109,0.121c0.036,0.176,0.069,0.328,0.232,0.497
		c0.164,0.169,0.149-0.06,0.185,0.066c0.031,0.126,0.312,0.083,0.489,0.098c0.182,0.015,0.437,0.025,0.53-0.107
		c0.094-0.133-0.218-0.243-0.335-0.491c-0.117-0.249-0.246-0.701-0.34-1.002c-0.094-0.301-0.1-0.811-0.118-1.142
		c-0.02-0.331,0.293-1.09,0.293-1.09s0.335,0.057,0.521,0.148c0.184,0.091,0.392,0.156,0.521,0.199s0.303,0.365,0.441,0.562
		c0.139,0.196,0.234,0.114,0.217,0.217c-0.021,0.103,0.372,0.258,0.612,0.423c0.238,0.165,0.784,0.337,0.939,0.379
		c0.156,0.042,0.312,0.058,0.506-0.081c0.196-0.14,0.521-0.286,0.588-0.418c0.068-0.132-0.259-0.495-0.351-0.745
		c-0.09-0.25-0.146-0.758-0.165-1.063c-0.018-0.305,0.195-0.598,0.316-0.708c0.121-0.109,0.265,0.163,0.441,0.153
		c0.18-0.011,0.328-0.07,0.479-0.105c0.149-0.035,0.368,0.208,0.368,0.208s-0.159-0.552-0.193-0.703
		c-0.034-0.151-0.334-0.466-0.549-0.658c-0.217-0.192-0.562-0.426-0.562-0.426s-0.198-0.347-0.413-0.512
		c-0.214-0.166-0.666-0.905-1.074-1.341c-0.408-0.436-1.538-1.416-2.038-1.667c-0.5-0.252-2.027-1.03-5.004-1.264
		C15.137,6.221,14.71,6.322,13.3,6.661c-1.41,0.338-2.02,0.907-2.557,1.249c-0.224,0.14-0.531,0.516-0.656,0.575
		c-0.12,0.057-0.554,0.057-0.834,0.073S8.81,8.763,8.719,8.947C8.627,9.131,8.761,9.226,8.898,9.396
		c0.14,0.171,0.552,0.223,0.558,0.325S9.388,9.904,9.28,10.242C9.173,10.58,8.974,11.103,9.006,11.663z M9.311,9.015
		c-0.107-0.097-0.007-0.102,0.092-0.16c0.101-0.056,0.501-0.157,0.501-0.157S9.744,8.989,9.62,9.047
		C9.526,9.09,9.418,9.11,9.311,9.015z"/>
	<path fill="#FFFFFF" d="M22.121,5.727c0.016,0.114,0.139,0.122,0.171,0.139c0.033,0.016,0.163,0.016,0.188,0.041
		c0.025,0.024-0.139,0.049-0.153,0.074c-0.018,0.024,0.041,0.016,0.072,0.033c0.033,0.016,0.154,0.073,0.154,0.073
		s-0.016,0.074,0,0.098c0.016,0.025-0.024,0.058-0.048,0.098c-0.025,0.041,0.032,0.065,0.032,0.065s-0.01,0.09,0.023,0.139
		c0.032,0.049,0.082,0.016,0.171,0.033c0.089,0.016,0.146,0.057,0.146,0.057s-0.008,0.049-0.025,0.098
		c-0.016,0.049,0.033,0.058,0.059,0.098c0.023,0.041,0.243,0.082,0.393,0.098c0.146,0.016,0.367,0.098,0.367,0.098
		s-0.082,0.024-0.155,0.024c-0.075,0-0.156-0.041-0.196,0.065C23.28,7.163,23.5,7.13,23.5,7.13l-0.106,0.082
		c0,0,0.073,0.058,0.14,0.074c0.063,0.016,0.146,0,0.293,0.008c0.146,0.008,0.27-0.016,0.407-0.008
		c0.141,0.008,0.17,0.041,0.277,0.073c0.106,0.033,0.204,0.017,0.31-0.008c0.106-0.024,0.188-0.016,0.237,0.008
		c0.049,0.025,0.064,0.139,0.024,0.18c-0.041,0.041-0.033,0.212-0.049,0.334c-0.018,0.122,0.023,0.188,0.121,0.196
		c0.1,0.008,0.147,0.196,0.214,0.327c0.063,0.13,0.161,0.155,0.243,0.163c0.082,0.009,0.146,0.204,0.214,0.36
		c0.064,0.155,0.139,0.04,0.302,0.089c0.163,0.049,0.275,0.041,0.375,0.114c0.098,0.073,0.18,0.131,0.22,0.171
		c0.041,0.041,0.179,0.326,0.245,0.522c0.065,0.196,0.065,0.294,0.049,0.368c-0.017,0.073-0.009,0.155-0.064,0.228
		c-0.059,0.074-0.163,0.123-0.154,0.156c0.008,0.033,0.138,0,0.22-0.025c0.082-0.024,0.146-0.008,0.212-0.008
		c0.066,0,0.14,0.065,0.196,0.082c0.056,0.017,0.195,0.09,0.236,0.114c0.041,0.025,0.063-0.008,0.057-0.073
		c-0.007-0.065-0.057-0.106-0.057-0.106s0.205,0.041,0.284,0.049c0.082,0.009,0.236,0.017,0.213,0.017s-0.105,0.106-0.065,0.123
		c0.042,0.017,0.18,0.033,0.261,0.008c0.082-0.024,0.236,0.017,0.334,0.033c0.1,0.016,0.114,0.049,0.286,0.065
		c0.171,0.016,0.312,0.074,0.417,0.082c0.106,0.008,0.188,0.058,0.22,0.058c0.033,0,0.024-0.09-0.03-0.139
		c-0.06-0.049-0.246-0.089-0.246-0.089s0.327-0.025,0.425-0.025s0.104-0.057,0.139-0.09c0.032-0.032,0.065,0.049,0.099,0.049
		c0.032,0,0.058-0.008,0.041-0.049c-0.018-0.041-0.106-0.073-0.181-0.081c-0.073-0.009-0.18,0.016-0.335,0.024
		c-0.153,0.008-0.383-0.008-0.383-0.008s-0.024-0.049-0.066-0.089c-0.04-0.041-0.104,0.041-0.171,0.032
		c-0.064-0.009-0.244-0.261-0.351-0.408s-0.252-0.351-0.277-0.448c-0.022-0.099,0.049-0.212,0.115-0.286
		c0.064-0.073,0.334-0.22,0.546-0.334c0.211-0.114,0.449-0.261,0.604-0.343c0.153-0.081,0.171-0.008,0.275,0.016
		c0.106,0.025,0.164-0.016,0.253-0.122c0.09-0.106,0.211-0.359,0.318-0.571c0.105-0.212,0.277-0.53,0.326-0.776
		c0.05-0.244,0-0.506-0.032-0.693c-0.033-0.188-0.269-0.742-0.343-0.921c-0.073-0.18-0.196-0.408-0.245-0.531
		C30.044,4.976,29.98,4.87,29.98,4.87s0.13,0.024,0.181,0.024c0.048,0,0.171-0.163,0.22-0.252c0.049-0.09,0.008-0.294,0.008-0.294
		s0.081,0,0.146,0.024c0.063,0.025,0.171,0.041,0.188,0.017c0.016-0.024-0.024-0.131-0.074-0.204
		c-0.049-0.073-0.123-0.073-0.123-0.073s-0.008-0.058,0-0.09c0.01-0.032-0.031-0.098-0.049-0.204
		c-0.017-0.106-0.065-0.188-0.106-0.196c-0.04-0.008-0.064-0.212-0.092-0.22c-0.021-0.008-0.048,0.171-0.071,0.163
		c-0.024-0.008-0.073-0.343-0.105-0.335s-0.049,0.204-0.073,0.221c-0.023,0.017-0.049-0.326-0.072-0.326
		c-0.025,0-0.041,0.261-0.092,0.261c-0.049,0-0.071-0.253-0.098-0.253c-0.023,0-0.041,0.179-0.082,0.179s-0.082-0.082-0.155-0.041
		c-0.071,0.041-0.057,0.196,0.011,0.253c0.063,0.058,0.146,0.139,0.146,0.139s-0.286,0.041-0.562,0.18
		c-0.277,0.139-0.352,0.367-0.441,0.596c-0.089,0.229-0.22,0.767-0.318,0.93c-0.097,0.164-0.405,0.229-0.546,0.221
		c-0.139-0.008-0.383-0.082-0.569-0.074c-0.188,0.008-0.734,0.033-0.939,0.041c-0.203,0.008-0.905,0-1.043-0.024
		c-0.14-0.025-0.454-0.253-0.636-0.367c-0.13-0.082-0.302-0.156-0.482-0.221c-0.18-0.065-0.357-0.114-0.62-0.212
		c-0.261-0.098-0.727-0.163-0.84-0.18c-0.114-0.016-0.22,0.123-0.276,0.212c-0.059,0.09-0.141,0.22-0.173,0.302
		c-0.031,0.082-0.031,0.229,0,0.278c0.033,0.048,0.106,0.089,0.106,0.089s-0.049-0.016-0.089-0.016c-0.041,0-0.09,0.008-0.099,0.057
		C22.146,5.523,22.104,5.613,22.121,5.727z M26.999,9.264c0,0,0,0,0.043-0.018c0.065-0.03,0.237-0.006,0.33-0.019
		c0.092-0.012,0.178-0.067,0.208,0c0.028,0.067,0.122,0.092,0.085,0.135c-0.037,0.043-0.005,0.086,0.037,0.104
		c0.043,0.019,0.062,0.043,0.108,0.092c0.048,0.049,0.171,0.202,0.257,0.325s0.266,0.324,0.308,0.416
		c0.043,0.092,0.123,0.184,0.098,0.208c-0.022,0.024-0.122-0.049-0.188-0.073c-0.068-0.024-0.361-0.024-0.361-0.024
		s0.188-0.025,0.141-0.086c-0.049-0.061-0.208-0.03-0.307-0.03c-0.097,0-0.146,0.043-0.25-0.012c-0.104-0.055-0.141-0.024-0.245-0.3
		c-0.104-0.275-0.146-0.398-0.19-0.483C27.03,9.411,26.999,9.264,26.999,9.264z"/>
	<path fill="#FFFFFF" d="M24.032,19.622c2.503,0.108,2.843-1.096,3.194-3.085c-2.5,0.039-3.657-0.097-3.564,2.043
		c0.859-0.629,1.183-0.822,2.163-1.242C24.906,18.097,24.215,18.463,24.032,19.622L24.032,19.622z"/>
	<path fill="#FFFFFF" d="M30.633,11.84c0.011-0.205-0.1-0.266-0.273-0.246c-0.645,0.773-0.54,0.818-0.709,1.746
		c-3.793-0.506-1.478,5.372,0.22,3.628c1.803,1.729,3.938-4.254,0.246-3.573C30.134,12.719,30.24,12.376,30.633,11.84L30.633,11.84z
		"/>
	<path fill="#FFFFFF" d="M19.468,15.401c-0.638-0.041-1.003,0.223-1.504,0.335c-1.855-0.231-1.761-0.089-2.982,0.831
		c1.024,2.247,0.687,1.426,2.464,3.361c0.233,0.495,0.505,0.859,1.064,0.923c-0.357-0.482-0.133-0.531-0.213-0.828
		c1.319,1.751,2.997,1.178,4.612,1.447c0.211,0.93,0.505,1.514,1.279,2.392c-0.262-1.546,0.169-2.858,1.253-3.24
		c-1.342-0.336-1.67-0.165-2.371,0.002c-0.192-0.255-0.377-0.497-0.552-0.728c-0.076-0.205,0.009-0.324,0.133-0.323
		c0.311,0-0.57-0.643-0.695-1.072c-0.017-0.05-0.307-0.327-0.571-0.127C20.552,16.976,19.737,16.505,19.468,15.401L19.468,15.401z
		 M16.587,16.75c0.131,0.147,0.172,0.348,0.09,0.451s-0.255,0.066-0.387-0.081c-0.131-0.146-0.171-0.348-0.09-0.45
		C16.282,16.566,16.455,16.603,16.587,16.75L16.587,16.75z"/>
	<path fill="#FFFFFF" d="M42.808,34.922c-0.096-0.146-3.955-2.062-5.208-2.576c-0.571-0.234-1.813-0.422-2.226-1.082
		c-0.41-0.664-0.905-2.108-3.064-4.503c-0.864-0.959-0.59-0.954-1.18-1.444c-0.589-0.49-1.011-0.64-1.271-0.883
		c-0.261-0.246-0.784-0.679-1.078-1.223c-0.292-0.545-0.479-0.783-0.61-0.98c-0.134-0.197-0.318-0.375-0.351-0.531
		c-0.063-0.31,0.177-1.048,0.024-1.266c-0.149-0.216-0.645-0.553-1.076-0.29c-0.431,0.264-1.479,1.25-0.94,3.428
		c0.24,0.969,0.531,1.104,0.802,1.404c0.164,0.183,0.363,0.588,0.473,0.857s0.359,1.107,0.359,1.107s-0.661,0.115-1.073,0.14
		s-1.286,0.01-1.548,0.024c-0.263,0.019-1.227-0.06-1.938,0.238c-0.713,0.299-1.829,0.961-2.134,1.545
		c-0.17,0.325-0.126,1.127,0.202,1.451c0.329,0.324,1.098,0.497,1.098,0.497s-0.924,0.841-0.883,1.496s0.329,1.031,0.558,1.218
		c0.228,0.188,0.313,0.268,0.313,0.268s-0.642,1.053-0.467,1.658c0.254,0.879,0.918,1.116,0.918,1.116s-0.27,0.748-0.247,1.007
		c0.019,0.203,0.231,0.631,0.376,0.799c0.16,0.182,0.567,0.488,0.803,0.541c0.422,0.1,1.023-0.058,1.732,0.009
		c0.298,0.024,2.486,0.251,3.493,0.332c1.093,0.088,2.477,0.046,3.111,0.021c0.636-0.021,1.057-0.209,1.412-0.203
		c0.246,0.002,0.312,0.079,0.901,0.389c0.59,0.307,2.799,1.777,2.799,1.777s0.542-0.361,1.351-1.048
		C39.47,39.171,41.318,37.367,42.808,34.922z"/>
</g>
</svg>
