<?xml version="1.0" encoding="utf-8"?>
<!-- Generator: Adobe Illustrator 16.0.0, SVG Export Plug-In . SVG Version: 6.00 Build 0)  -->
<!DOCTYPE svg PUBLIC "-//W3C//DTD SVG 1.1//EN" "http://www.w3.org/Graphics/SVG/1.1/DTD/svg11.dtd">
<svg version="1.1" xmlns="http://www.w3.org/2000/svg" xmlns:xlink="http://www.w3.org/1999/xlink" x="0px" y="0px" width="47.52px"
	 height="46.289px" viewBox="0 0 47.52 46.289" enable-background="new 0 0 47.52 46.289" xml:space="preserve">
<g id="logoTecsia" display="none">
	<g display="inline">
		<circle fill-rule="evenodd" clip-rule="evenodd" fill="#ADC90E" cx="23.578" cy="-31.355" r="22.442"/>
		<path fill="#13110C" d="M9.006-42.837c0.033,0.561,0.022,0.816,0.064,1.094s0.259,0.496,0.583,0.784
			c0.323,0.287,0.485,0.43,0.492,0.558c0.008,0.127-0.312,0.759-0.349,1.017c-0.036,0.257,0.122,0.324,0.159,0.526
			s0.069,0.303,0.192,0.652c0.123,0.351,0.073,1.248,0.094,1.604c0.021,0.356,0.104,0.479,0.212,0.574s0.175-0.061,0.205,0.013
			c0.031,0.076,0.093,0.276,0.175,0.373c0.083,0.097,0.286,0.085,0.514,0.047c0.228-0.04,0.37-0.226,0.338-0.327
			c-0.031-0.1-0.219-0.243-0.253-0.394c-0.034-0.151-0.07-0.328-0.134-0.553c-0.064-0.227,0.027-0.845-0.019-1.174
			c-0.044-0.33,0.012-0.665,0.243-1.087c0.23-0.422,0.531-0.951,0.531-0.951s-0.042,0.59-0.058,0.744
			c-0.016,0.154,0.168,0.271,0.273,0.316c0.105,0.044,0.278,0.392,0.397,0.666c0.118,0.274,0.375,0.718,0.546,1.04
			c0.172,0.322,0.341,0.593,0.448,0.663c0.105,0.07,0.201-0.037,0.201-0.037s0.27,0.239,0.351,0.312
			c0.081,0.072,0.335,0.057,0.512,0.021c0.176-0.036,0.347-0.173,0.312-0.35c-0.036-0.177-0.58-0.298-0.719-0.494
			c-0.14-0.196-0.258-0.47-0.322-0.696c-0.064-0.226-0.241-0.625-0.338-0.977c-0.098-0.352-0.006-0.536,0.06-0.718
			c0.066-0.183-0.007-0.562,0.018-0.997c0.025-0.436,0.196-1.007,0.196-1.007s0.72,0.085,1.064,0.295
			c0.345,0.209,0.711,0.366,0.967,0.376c0.256,0.01,0.141-0.213,0.132-0.365c-0.009-0.153,0.142-0.187,0.365-0.302
			c0.223-0.115,0.506-0.081,0.864-0.076s1.024,0.042,1.382,0.046c0.357,0.004,1.118,0.343,1.222,0.363
			c0.103,0.02,0.151,0.399,0.219,0.702c0.07,0.302,0.281,0.417,0.259,0.495c-0.021,0.078,0.111,0.581,0.2,0.806
			c0.09,0.225-0.051,0.412-0.089,0.644c-0.038,0.232,0.075,0.404,0.16,0.553c0.085,0.148,0.223-0.116,0.223-0.116
			s-0.009,0.282,0.026,0.433c0.034,0.151,0.16,0.118,0.244,0.241c0.084,0.123,0.301-0.094,0.301-0.094s0.073-0.056,0.109,0.121
			c0.037,0.176,0.071,0.328,0.234,0.497c0.164,0.169,0.149-0.06,0.183,0.066c0.033,0.126,0.312,0.083,0.491,0.098
			c0.18,0.015,0.435,0.025,0.53-0.107c0.094-0.133-0.218-0.243-0.335-0.491c-0.117-0.249-0.246-0.701-0.34-1.002
			c-0.094-0.301-0.099-0.811-0.118-1.142c-0.02-0.331,0.293-1.09,0.293-1.09s0.335,0.057,0.52,0.148
			c0.184,0.091,0.392,0.156,0.522,0.199c0.13,0.043,0.303,0.365,0.441,0.562c0.139,0.196,0.236,0.114,0.217,0.217
			c-0.019,0.103,0.372,0.258,0.612,0.423c0.24,0.165,0.786,0.337,0.941,0.379c0.156,0.042,0.31,0.058,0.506-0.081
			c0.196-0.14,0.52-0.286,0.588-0.418s-0.259-0.495-0.351-0.745c-0.09-0.25-0.146-0.758-0.165-1.063
			c-0.018-0.305,0.195-0.598,0.316-0.708c0.122-0.109,0.265,0.163,0.443,0.153c0.179-0.011,0.328-0.07,0.479-0.105
			c0.151-0.035,0.369,0.208,0.369,0.208s-0.16-0.552-0.194-0.703c-0.034-0.151-0.334-0.466-0.549-0.658
			c-0.216-0.192-0.562-0.426-0.562-0.426s-0.199-0.347-0.413-0.512c-0.214-0.166-0.666-0.905-1.075-1.341
			c-0.409-0.436-1.539-1.416-2.039-1.667c-0.5-0.252-2.027-1.03-5.003-1.264c-2.976-0.233-3.404-0.132-4.814,0.207
			c-1.41,0.338-2.019,0.907-2.557,1.249c-0.222,0.14-0.531,0.516-0.656,0.575c-0.124,0.058-0.559,0.058-0.838,0.075
			c-0.28,0.016-0.448,0.205-0.539,0.389c-0.092,0.184,0.042,0.278,0.179,0.449c0.138,0.171,0.55,0.223,0.556,0.325
			c0.006,0.102-0.066,0.183-0.174,0.521C9.173-43.92,8.974-43.397,9.006-42.837z M9.311-45.485
			c-0.108-0.096-0.006-0.102,0.093-0.159c0.099-0.056,0.501-0.157,0.501-0.157s-0.162,0.291-0.286,0.349
			C9.526-45.41,9.418-45.39,9.311-45.485z"/>
		<path fill="#13110C" d="M22.121-48.773c0.016,0.114,0.139,0.122,0.171,0.139c0.033,0.016,0.163,0.016,0.188,0.041
			c0.025,0.024-0.139,0.049-0.155,0.074c-0.016,0.024,0.041,0.016,0.074,0.033c0.033,0.016,0.154,0.073,0.154,0.073
			s-0.016,0.074,0,0.098c0.016,0.025-0.024,0.058-0.048,0.098c-0.025,0.041,0.032,0.065,0.032,0.065s-0.008,0.09,0.025,0.139
			c0.032,0.049,0.082,0.016,0.171,0.033c0.089,0.016,0.146,0.057,0.146,0.057s-0.008,0.049-0.025,0.098
			c-0.016,0.049,0.033,0.058,0.057,0.098c0.025,0.041,0.245,0.082,0.393,0.098c0.146,0.016,0.367,0.098,0.367,0.098
			s-0.082,0.024-0.155,0.024c-0.075,0-0.156-0.041-0.196,0.065c-0.041,0.106,0.18,0.073,0.18,0.073l-0.106,0.082
			c0,0,0.073,0.058,0.138,0.074s0.146,0,0.293,0.008c0.146,0.008,0.27-0.016,0.409-0.008c0.139,0.008,0.17,0.041,0.277,0.073
			c0.106,0.033,0.204,0.017,0.31-0.008c0.106-0.024,0.188-0.016,0.237,0.008c0.049,0.025,0.064,0.139,0.024,0.18
			c-0.041,0.041-0.033,0.212-0.049,0.334c-0.016,0.122,0.025,0.188,0.123,0.196c0.098,0.008,0.147,0.196,0.212,0.327
			c0.065,0.13,0.163,0.155,0.245,0.163c0.082,0.009,0.146,0.204,0.212,0.36c0.066,0.155,0.139,0.04,0.302,0.089
			c0.163,0.049,0.277,0.041,0.375,0.114c0.098,0.073,0.18,0.131,0.22,0.171c0.041,0.041,0.179,0.326,0.245,0.522
			c0.065,0.196,0.065,0.294,0.049,0.368c-0.017,0.073-0.009,0.155-0.066,0.228c-0.057,0.074-0.163,0.123-0.154,0.156
			c0.008,0.033,0.138,0,0.22-0.025c0.082-0.024,0.146-0.008,0.212-0.008c0.065,0,0.138,0.065,0.196,0.082
			c0.056,0.017,0.195,0.09,0.236,0.114c0.041,0.025,0.065-0.008,0.057-0.073c-0.007-0.065-0.057-0.106-0.057-0.106
			s0.205,0.041,0.286,0.049c0.082,0.009,0.236,0.017,0.211,0.017c-0.023,0-0.105,0.106-0.065,0.123
			c0.042,0.017,0.18,0.033,0.261,0.008c0.082-0.024,0.236,0.017,0.334,0.033s0.114,0.049,0.286,0.065
			c0.171,0.016,0.31,0.074,0.417,0.082c0.106,0.008,0.188,0.058,0.22,0.058c0.033,0,0.024-0.09-0.032-0.139
			c-0.058-0.049-0.246-0.089-0.246-0.089s0.327-0.025,0.425-0.025s0.106-0.057,0.139-0.09c0.032-0.032,0.065,0.049,0.097,0.049
			c0.034,0,0.058-0.008,0.041-0.049c-0.016-0.041-0.106-0.073-0.179-0.081c-0.074-0.009-0.18,0.016-0.335,0.024
			c-0.155,0.008-0.383-0.008-0.383-0.008s-0.024-0.049-0.066-0.089c-0.041-0.041-0.105,0.041-0.171,0.032s-0.245-0.261-0.351-0.408
			c-0.106-0.147-0.252-0.351-0.277-0.448c-0.024-0.099,0.049-0.212,0.115-0.286c0.064-0.073,0.334-0.22,0.546-0.334
			c0.211-0.114,0.449-0.261,0.604-0.343c0.155-0.081,0.171-0.008,0.277,0.016c0.106,0.025,0.164-0.016,0.253-0.122
			c0.089-0.106,0.211-0.359,0.318-0.571c0.105-0.212,0.277-0.53,0.326-0.776c0.05-0.244,0-0.506-0.032-0.693
			c-0.033-0.188-0.269-0.742-0.343-0.921c-0.073-0.18-0.196-0.408-0.245-0.531c-0.049-0.123-0.114-0.229-0.114-0.229
			s0.13,0.024,0.179,0.024c0.048,0,0.171-0.163,0.22-0.252c0.049-0.09,0.008-0.294,0.008-0.294s0.081,0,0.146,0.024
			c0.065,0.025,0.171,0.041,0.188,0.017c0.016-0.024-0.024-0.131-0.074-0.204c-0.049-0.073-0.123-0.073-0.123-0.073
			s-0.008-0.058,0-0.09c0.008-0.032-0.033-0.098-0.049-0.204c-0.017-0.106-0.065-0.188-0.106-0.196
			c-0.04-0.008-0.064-0.212-0.09-0.22c-0.023-0.008-0.048,0.171-0.073,0.163c-0.024-0.008-0.073-0.343-0.105-0.335
			c-0.032,0.008-0.049,0.204-0.073,0.221c-0.025,0.017-0.049-0.326-0.074-0.326s-0.041,0.261-0.09,0.261s-0.073-0.253-0.098-0.253
			c-0.025,0-0.041,0.179-0.082,0.179c-0.041,0-0.082-0.082-0.155-0.041c-0.073,0.041-0.057,0.196,0.009,0.253
			c0.065,0.058,0.146,0.139,0.146,0.139s-0.286,0.041-0.563,0.18c-0.277,0.139-0.35,0.367-0.441,0.596
			c-0.089,0.229-0.22,0.767-0.318,0.93c-0.097,0.164-0.407,0.229-0.546,0.221c-0.139-0.008-0.383-0.082-0.571-0.074
			s-0.734,0.033-0.939,0.041c-0.203,0.008-0.905,0-1.043-0.024c-0.14-0.025-0.454-0.253-0.636-0.367
			c-0.13-0.082-0.302-0.156-0.482-0.221s-0.359-0.114-0.62-0.212c-0.261-0.098-0.727-0.163-0.84-0.18
			c-0.115-0.016-0.22,0.123-0.278,0.212c-0.057,0.09-0.139,0.22-0.171,0.302c-0.033,0.082-0.033,0.229,0,0.278
			c0.033,0.048,0.106,0.089,0.106,0.089s-0.049-0.016-0.089-0.016c-0.041,0-0.09,0.008-0.098,0.057
			C22.146-48.977,22.104-48.887,22.121-48.773z M26.999-45.236c0,0,0,0,0.043-0.018c0.067-0.03,0.239-0.006,0.33-0.019
			c0.092-0.012,0.178-0.067,0.208,0c0.03,0.067,0.122,0.092,0.085,0.135c-0.037,0.043-0.005,0.086,0.037,0.104
			c0.043,0.019,0.062,0.043,0.11,0.092c0.048,0.049,0.171,0.202,0.257,0.325s0.264,0.324,0.306,0.416
			c0.043,0.092,0.123,0.184,0.098,0.208c-0.024,0.024-0.122-0.049-0.189-0.073c-0.068-0.024-0.361-0.024-0.361-0.024
			s0.19-0.025,0.141-0.086c-0.049-0.061-0.208-0.03-0.307-0.03c-0.097,0-0.146,0.043-0.25-0.012s-0.141-0.024-0.245-0.3
			c-0.104-0.275-0.147-0.398-0.19-0.483C27.03-45.089,26.999-45.236,26.999-45.236z"/>
		<path fill-rule="evenodd" clip-rule="evenodd" fill="#12100B" d="M24.032-34.878c2.503,0.108,2.843-1.096,3.196-3.085
			c-2.5,0.039-3.657-0.097-3.566,2.043c0.861-0.629,1.183-0.822,2.163-1.242C24.906-36.403,24.215-36.037,24.032-34.878
			L24.032-34.878z"/>
		<path fill-rule="evenodd" clip-rule="evenodd" fill="#12100B" d="M30.633-42.66c0.011-0.205-0.1-0.266-0.273-0.246
			c-0.645,0.773-0.54,0.818-0.709,1.746c-3.793-0.506-1.478,5.372,0.218,3.628c1.803,1.729,3.939-4.254,0.246-3.573
			C30.134-41.781,30.24-42.124,30.633-42.66L30.633-42.66z"/>
		<path fill-rule="evenodd" clip-rule="evenodd" d="M19.468-39.099c-0.638-0.041-1.003,0.223-1.504,0.335
			c-1.855-0.231-1.761-0.089-2.982,0.831c1.024,2.247,0.685,1.426,2.464,3.361c0.233,0.495,0.503,0.859,1.064,0.923
			c-0.357-0.482-0.133-0.531-0.213-0.828c1.319,1.751,2.997,1.178,4.612,1.447c0.211,0.93,0.505,1.514,1.281,2.391
			c-0.262-1.547,0.169-2.859,1.253-3.241c-1.342-0.336-1.67-0.165-2.371,0.002c-0.194-0.255-0.377-0.497-0.552-0.728
			c-0.076-0.205,0.009-0.324,0.133-0.323c0.309,0-0.572-0.643-0.697-1.072c-0.015-0.05-0.305-0.327-0.571-0.127
			C20.552-37.524,19.737-37.995,19.468-39.099L19.468-39.099z M16.587-37.75c0.131,0.147,0.172,0.348,0.09,0.451
			c-0.082,0.103-0.255,0.066-0.387-0.081c-0.131-0.146-0.171-0.348-0.09-0.45C16.282-37.934,16.455-37.897,16.587-37.75
			L16.587-37.75z"/>
		<path d="M42.69-19.578c-0.096-0.147-3.955-2.063-5.208-2.576c-0.572-0.234-1.815-0.422-2.226-1.083
			c-0.41-0.663-0.905-2.109-3.064-4.502c-0.865-0.959-0.59-0.954-1.18-1.445c-0.589-0.491-1.011-0.639-1.271-0.883
			c-0.26-0.245-0.785-0.678-1.078-1.222c-0.292-0.545-0.478-0.783-0.611-0.98c-0.134-0.197-0.318-0.375-0.35-0.531
			c-0.064-0.31,0.176-1.048,0.025-1.266c-0.15-0.216-0.645-0.553-1.076-0.29c-0.431,0.264-1.481,1.25-0.942,3.428
			c0.241,0.969,0.532,1.104,0.802,1.405c0.164,0.182,0.363,0.588,0.473,0.858c0.109,0.269,0.359,1.108,0.359,1.108
			s-0.661,0.116-1.073,0.139c-0.412,0.024-1.286,0.01-1.548,0.026c-0.263,0.017-1.226-0.06-1.939,0.238
			c-0.712,0.298-1.829,0.961-2.133,1.545c-0.17,0.325-0.126,1.126,0.202,1.451c0.329,0.324,1.097,0.497,1.097,0.497
			s-0.923,0.84-0.882,1.496c0.041,0.655,0.329,1.031,0.556,1.218c0.228,0.186,0.315,0.267,0.315,0.267s-0.642,1.052-0.467,1.659
			c0.254,0.878,0.918,1.116,0.918,1.116s-0.269,0.748-0.247,1.006c0.018,0.203,0.231,0.632,0.376,0.799
			c0.16,0.181,0.567,0.488,0.803,0.542c0.421,0.098,1.023-0.058,1.732,0.007c0.298,0.026,2.486,0.251,3.493,0.332
			c1.093,0.088,2.477,0.046,3.112,0.021c0.635-0.023,1.056-0.209,1.413-0.204c0.246,0.002,0.311,0.08,0.901,0.388
			c0.59,0.307,2.799,1.777,2.799,1.777S40.22-15.525,42.69-19.578z"/>
	</g>
</g>
<g id="Nosotros" display="none">
	<g display="inline">
		<circle fill="#71C8DB" cx="80.757" cy="-32.355" r="17.375"/>
		<g>
			<path fill="#FFFFFF" d="M90.752-25.432c0,1.088-0.331,1.946-0.992,2.577c-0.663,0.631-1.543,0.945-2.64,0.945H75.232
				c-1.098,0-1.977-0.314-2.638-0.945c-0.662-0.631-0.993-1.489-0.994-2.577c0-0.481,0.017-0.951,0.048-1.408
				c0.032-0.457,0.096-0.952,0.19-1.482c0.096-0.53,0.216-1.022,0.361-1.477c0.145-0.452,0.34-0.894,0.585-1.325
				c0.244-0.431,0.525-0.798,0.844-1.102c0.317-0.305,0.705-0.547,1.163-0.729c0.457-0.181,0.963-0.271,1.517-0.272
				c0.081,0,0.271,0.098,0.57,0.293s0.637,0.412,1.014,0.652s0.866,0.458,1.469,0.653s1.207,0.292,1.815,0.292
				c0.609,0,1.215-0.097,1.816-0.292s1.092-0.413,1.469-0.653c0.376-0.24,0.715-0.457,1.014-0.652s0.489-0.293,0.57-0.293
				c0.554,0,1.059,0.091,1.517,0.272s0.846,0.425,1.163,0.729c0.317,0.303,0.6,0.671,0.845,1.102
				c0.244,0.432,0.439,0.873,0.585,1.325c0.145,0.453,0.265,0.946,0.36,1.477c0.095,0.531,0.158,1.025,0.19,1.482
				C90.737-26.383,90.752-25.913,90.752-25.432z M86.4-37.579c0,1.442-0.51,2.673-1.53,3.693c-1.021,1.02-2.251,1.53-3.693,1.53
				c-1.441,0-2.672-0.511-3.692-1.53c-1.021-1.021-1.53-2.251-1.53-3.693c0-1.441,0.51-2.673,1.53-3.693
				c1.021-1.02,2.251-1.53,3.692-1.53c1.442,0,2.673,0.511,3.693,1.53C85.89-40.252,86.4-39.021,86.4-37.579z"/>
			<path fill="#FFFFFF" d="M96.015-27.775c0,0.606-0.185,1.086-0.554,1.438c-0.37,0.352-0.86,0.527-1.472,0.527h-6.63
				c-0.612,0-1.103-0.176-1.472-0.527c-0.369-0.352-0.553-0.831-0.554-1.438c0-0.269,0.009-0.53,0.027-0.785
				c0.018-0.255,0.053-0.531,0.106-0.827c0.053-0.296,0.12-0.569,0.201-0.823c0.081-0.252,0.19-0.498,0.326-0.738
				c0.137-0.241,0.293-0.445,0.471-0.615s0.393-0.305,0.648-0.405c0.255-0.102,0.537-0.152,0.846-0.152
				c0.045,0,0.151,0.055,0.318,0.163s0.355,0.229,0.565,0.364c0.21,0.134,0.483,0.255,0.819,0.364
				c0.336,0.108,0.674,0.163,1.013,0.163c0.339,0,0.677-0.055,1.013-0.163c0.336-0.109,0.609-0.23,0.819-0.364
				c0.21-0.135,0.399-0.256,0.566-0.364c0.166-0.108,0.272-0.163,0.317-0.163c0.309,0,0.59,0.051,0.846,0.152
				c0.256,0.101,0.472,0.236,0.648,0.405c0.177,0.169,0.334,0.374,0.471,0.615c0.137,0.24,0.245,0.486,0.327,0.738
				c0.081,0.253,0.147,0.527,0.201,0.823c0.053,0.297,0.088,0.572,0.106,0.827C96.006-28.306,96.015-28.044,96.015-27.775z
				 M93.587-34.55c0,0.805-0.285,1.49-0.854,2.06c-0.569,0.569-1.255,0.854-2.06,0.854c-0.804,0-1.49-0.284-2.06-0.854
				c-0.569-0.569-0.854-1.255-0.854-2.06c0-0.804,0.285-1.49,0.854-2.06c0.569-0.568,1.256-0.854,2.06-0.854
				c0.804,0,1.49,0.285,2.06,0.854C93.303-36.04,93.587-35.354,93.587-34.55z"/>
			<path fill="#FFFFFF" d="M78-28.903c0,0.71-0.216,1.271-0.648,1.682c-0.432,0.412-1.006,0.617-1.722,0.617h-7.758
				c-0.717,0-1.291-0.205-1.722-0.617c-0.432-0.411-0.648-0.972-0.648-1.682c0-0.314,0.011-0.62,0.031-0.919
				c0.021-0.299,0.062-0.622,0.124-0.968c0.062-0.347,0.141-0.667,0.236-0.964c0.094-0.295,0.222-0.583,0.381-0.864
				c0.16-0.281,0.343-0.521,0.551-0.719c0.207-0.199,0.46-0.357,0.759-0.476c0.299-0.118,0.629-0.178,0.99-0.178
				c0.053,0,0.178,0.063,0.373,0.191c0.195,0.126,0.416,0.269,0.661,0.426c0.246,0.156,0.565,0.298,0.958,0.426
				s0.789,0.19,1.185,0.19c0.397,0,0.792-0.062,1.186-0.19s0.712-0.27,0.958-0.426c0.245-0.157,0.466-0.3,0.662-0.426
				c0.194-0.128,0.319-0.191,0.372-0.191c0.361,0,0.691,0.06,0.99,0.178c0.299,0.118,0.552,0.277,0.759,0.476
				c0.207,0.197,0.391,0.438,0.551,0.719c0.16,0.281,0.287,0.569,0.382,0.864c0.094,0.297,0.173,0.617,0.235,0.964
				c0.062,0.347,0.103,0.669,0.124,0.968C77.989-29.523,78-29.218,78-28.903z M75.16-36.831c0,0.941-0.333,1.744-1,2.41
				c-0.666,0.666-1.469,0.999-2.41,0.999c-0.94,0-1.744-0.333-2.41-0.999c-0.666-0.666-1-1.469-1-2.41s0.333-1.744,1-2.41
				c0.666-0.666,1.469-0.999,2.41-0.999c0.941,0,1.745,0.333,2.41,0.999C74.826-38.575,75.16-37.772,75.16-36.831z"/>
		</g>
	</g>
</g>
<g id="servicios" display="none">
	<g display="inline">
		<circle fill="#E83969" cx="131.635" cy="-31.355" r="17.375"/>
		<g>
			<path fill="#FFFFFF" d="M138.637-29.516c-0.036-0.017-0.076-0.026-0.116-0.026c-0.052,0-0.104,0.015-0.147,0.044l-3.812,2.196
				l-2.743-2.626c-0.048-0.045-0.113-0.071-0.182-0.071c-0.069,0-0.134,0.026-0.182,0.071l-2.748,2.626l-3.812-2.196
				c-0.044-0.029-0.095-0.044-0.147-0.044c-0.04,0-0.08,0.009-0.116,0.026c-0.084,0.04-0.138,0.122-0.138,0.21v2.733
				c0,0.083,0.047,0.16,0.124,0.202l6.63,3.412c0.04,0.023,0.085,0.034,0.13,0.034c0.042,0,0.084-0.009,0.123-0.029l7.143-3.412
				c0.081-0.042,0.131-0.121,0.131-0.207v-2.733C138.775-29.394,138.722-29.476,138.637-29.516z"/>
			<path fill="#FFFFFF" d="M140.508-32.688l-2.164-2.363l2.105-2.054c0.062-0.06,0.09-0.147,0.075-0.233
				c-0.015-0.086-0.07-0.158-0.148-0.194l-5.458-2.231c-0.033-0.015-0.068-0.022-0.104-0.022c-0.038,0-0.076,0.008-0.111,0.026
				l-2.595,1.276c-0.085,0.042-0.14,0.127-0.145,0.223c-0.004,0.096,0.043,0.186,0.125,0.235l5.909,2.965l-5.909,2.964
				c-0.066,0.04-0.111,0.108-0.122,0.187c-0.011,0.078,0.013,0.157,0.066,0.214l2.335,2.55c0.05,0.055,0.118,0.083,0.187,0.083
				c0.045,0,0.09-0.012,0.131-0.037l5.767-3.189c0.066-0.04,0.111-0.109,0.123-0.187C140.585-32.552,140.561-32.631,140.508-32.688z
				"/>
			<path fill="#FFFFFF" d="M128.715-29.062c0.069,0,0.137-0.028,0.187-0.083l2.336-2.55c0.053-0.058,0.077-0.137,0.066-0.214
				c-0.011-0.079-0.056-0.147-0.122-0.187l-5.909-2.964l5.909-2.965c0.081-0.049,0.129-0.14,0.125-0.236s-0.061-0.182-0.146-0.223
				l-2.644-1.276c-0.035-0.017-0.072-0.025-0.109-0.025c-0.035,0-0.07,0.007-0.103,0.022l-5.41,2.197
				c-0.078,0.035-0.133,0.107-0.148,0.192s0.012,0.173,0.073,0.233l2.107,2.089l-2.165,2.364c-0.053,0.057-0.077,0.136-0.066,0.214
				c0.011,0.078,0.056,0.146,0.123,0.187l5.766,3.189C128.625-29.074,128.67-29.062,128.715-29.062z"/>
		</g>
	</g>
</g>
<g id="Clientes" display="none">
	<g display="inline">
		<circle fill="#F2DA00" cx="188.043" cy="-31.793" r="17.375"/>
		<g>
			<g>
				<path fill="#FFFFFF" d="M197.553-37.816h-10.777h-6.974v12.68h-1.269v-13.948h8.876c0-0.7-0.567-1.268-1.268-1.268h-7.608
					c-0.7,0-1.268,0.568-1.268,1.268v14.582c0,0.7,0.567,1.268,1.268,1.268h19.02c0.7,0,1.269-0.568,1.269-1.268v-12.046
					C198.821-37.248,198.253-37.816,197.553-37.816z"/>
			</g>
		</g>
	</g>
</g>
<g id="Contacto" display="none">
	<g display="inline">
		<circle fill="#F4983A" cx="245.4" cy="-31.804" r="17.375"/>
		<g>
			<path fill="#FFFFFF" d="M237.76-22.052l-1.047-0.733c-0.937-0.654,2.264-5.225,3.201-4.57l1.046,0.733
				c1.403,0.982,2.61,0.78,3.574-0.595l4.303-6.144c0.963-1.375,0.739-2.581-0.664-3.563l-1.047-0.732
				c-0.936-0.656,2.555-5.642,3.491-4.987l1.047,0.733c3.272,2.292,3.259,6.17,1.013,9.379l-5.759,8.224
				C244.674-21.101,241.033-19.76,237.76-22.052z"/>
		</g>
	</g>
</g>
<g id="SENASICA">
	<g>
		<path fill-rule="evenodd" clip-rule="evenodd" fill="#FED148" d="M10.098,21.828c-0.082-0.106,0.021-0.152,0.074-0.208
			c0.747-0.792,1.496-1.583,2.244-2.374c0.403-0.426,0.806-0.853,1.208-1.28c0.038-0.04,0.088-0.073,0.078-0.153
			c-0.093-0.011-0.152,0.056-0.217,0.103c-1.383,0.991-2.769,1.98-4.147,2.979c-0.124,0.088-0.192,0.077-0.279-0.024
			c-0.042-0.048-0.089-0.093-0.135-0.136c-0.127-0.118-0.35-0.22-0.345-0.368c0.005-0.128,0.208-0.249,0.326-0.37
			c1.148-1.192,2.297-2.383,3.446-3.575c0.047-0.049,0.109-0.09,0.114-0.17c-0.096-0.036-0.143,0.042-0.202,0.085
			c-1.274,0.951-2.549,1.899-3.819,2.855c-0.117,0.089-0.187,0.098-0.27-0.024c-0.048-0.069-0.107-0.131-0.161-0.196
			C7.9,18.84,7.697,18.714,7.714,18.561c0.015-0.135,0.208-0.252,0.327-0.373c0.747-0.763,1.496-1.525,2.244-2.288
			c0.346-0.354,0.691-0.709,1.036-1.064c0.042-0.043,0.096-0.082,0.093-0.158c-0.095-0.021-0.148,0.044-0.208,0.087
			c-1.26,0.896-2.521,1.792-3.776,2.695c-0.111,0.08-0.168,0.071-0.264-0.012c-0.159-0.139-0.332-0.263-0.502-0.39
			c-0.082-0.061-0.088-0.108-0.011-0.183c0.611-0.6,1.22-1.201,1.827-1.805c0.713-0.709,1.422-1.42,2.132-2.131
			c0.019-0.019,0.027-0.048,0.047-0.083c-0.116-0.027-0.181,0.05-0.252,0.095c-1.309,0.836-2.62,1.673-3.924,2.517
			c-0.143,0.092-0.214,0.079-0.303-0.056c-0.094-0.141-0.205-0.271-0.317-0.396c-0.096-0.108-0.081-0.179,0.024-0.275
			c0.782-0.716,1.559-1.439,2.336-2.159c0.399-0.37,0.8-0.739,1.196-1.112c0.052-0.048,0.139-0.082,0.123-0.182
			c-0.082-0.042-0.134,0.02-0.191,0.054c-1.163,0.671-2.327,1.341-3.485,2.019c-0.15,0.088-0.228,0.082-0.316-0.071
			c-0.105-0.183-0.331-0.353-0.328-0.525c0.003-0.175,0.27-0.298,0.424-0.438c0.986-0.901,1.977-1.797,2.966-2.695
			c0.036-0.033,0.081-0.06,0.082-0.122C8.618,9.457,8.561,9.516,8.505,9.545c-1.075,0.552-2.15,1.105-3.222,1.663
			c-0.128,0.067-0.199,0.059-0.265-0.077c-0.077-0.158-0.167-0.312-0.268-0.457c-0.086-0.123-0.047-0.191,0.055-0.277
			c0.88-0.744,1.755-1.492,2.633-2.238c0.032-0.027,0.072-0.047,0.057-0.103C7.414,8.021,7.348,8.076,7.279,8.105
			C6.421,8.472,5.563,8.837,4.708,9.208C4.58,9.265,4.497,9.277,4.413,9.137C4.334,9.005,4.224,8.891,4.118,8.777
			c-0.105-0.112-0.08-0.18,0.034-0.27c0.549-0.434,1.092-0.875,1.636-1.313C5.843,7.15,5.899,7.106,5.927,7.034
			C5.831,7.004,5.758,7.058,5.683,7.09C5.326,7.243,4.966,7.391,4.615,7.557C4.483,7.619,4.408,7.596,4.346,7.476
			c-0.013-0.025-0.03-0.048-0.045-0.072C4.19,7.226,3.946,7.051,3.99,6.881c0.042-0.165,0.298-0.278,0.463-0.41
			c0.314-0.252,0.631-0.5,0.944-0.752c0.054-0.043,0.116-0.083,0.147-0.192C5.248,5.616,4.967,5.692,4.694,5.788
			C4.566,5.833,4.506,5.81,4.448,5.689C4.371,5.531,4.28,5.378,4.18,5.232C4.097,5.11,4.128,5.047,4.243,4.968
			C4.896,4.51,5.545,4.045,6.195,3.583c0.204,0.069,0.296,0.261,0.405,0.414c0.16,0.227,0.317,0.278,0.581,0.188
			c0.373-0.129,0.38-0.11,0.574,0.225c0.236,0.408,0.232,0.403-0.139,0.708C7.5,5.214,7.353,5.284,7.272,5.43
			c0.078,0.044,0.136-0.01,0.195-0.034c0.407-0.162,0.814-0.323,1.217-0.493c0.12-0.051,0.194-0.039,0.264,0.074
			c0.093,0.15,0.194,0.295,0.302,0.434c0.084,0.106,0.096,0.17-0.03,0.264c-0.44,0.332-0.869,0.677-1.3,1.019
			c-0.09,0.072-0.175,0.15-0.254,0.238c0.446-0.12,0.85-0.338,1.269-0.518c0.37-0.158,0.737-0.323,1.101-0.494
			c0.104-0.048,0.167-0.037,0.227,0.058c0.042,0.065,0.092,0.125,0.141,0.186c0.319,0.395,0.315,0.389-0.065,0.712
			C9.765,7.366,9.197,7.865,8.626,8.361c-0.027,0.023-0.05,0.049-0.04,0.093c0.1,0.035,0.172-0.038,0.25-0.078
			c0.845-0.427,1.689-0.855,2.529-1.291c0.136-0.069,0.231-0.079,0.318,0.059c0.034,0.054,0.077,0.101,0.117,0.15
			c0.318,0.4,0.314,0.396-0.072,0.744c-0.765,0.691-1.526,1.387-2.291,2.08c-0.079,0.072-0.167,0.131-0.231,0.221
			c0.118,0.016,0.2-0.031,0.281-0.078c1.116-0.639,2.234-1.273,3.345-1.918c0.143-0.083,0.223-0.068,0.307,0.059
			c0.039,0.059,0.087,0.111,0.135,0.164c0.303,0.329,0.299,0.325-0.019,0.622c-0.688,0.641-1.373,1.284-2.056,1.929
			c-0.184,0.173-0.401,0.313-0.535,0.537c-0.007,0.014-0.016,0.023-0.028,0.026c0.021,0.011,0.04-0.007,0.061-0.003
			c0.48-0.243,0.909-0.568,1.361-0.855c0.649-0.414,1.295-0.834,1.937-1.259c0.116-0.077,0.182-0.064,0.265,0.034
			c0.119,0.14,0.241,0.278,0.373,0.405c0.082,0.079,0.072,0.123-0.004,0.198c-0.397,0.394-0.788,0.793-1.181,1.191
			c-0.596,0.604-1.19,1.21-1.787,1.814c-0.06,0.061-0.12,0.12-0.153,0.22c0.099-0.005,0.164-0.062,0.234-0.111
			c1.152-0.817,2.306-1.631,3.455-2.453c0.115-0.083,0.183-0.091,0.278,0.02c0.12,0.139,0.254,0.267,0.39,0.391
			c0.09,0.082,0.108,0.138,0.01,0.237c-0.552,0.559-1.096,1.125-1.643,1.688c-0.502,0.518-1.006,1.033-1.507,1.552
			c-0.057,0.058-0.101,0.127-0.182,0.232c0.239-0.082,0.377-0.226,0.534-0.338c0.533-0.383,1.062-0.773,1.591-1.162
			c0.057-0.042,0.108-0.095,0.189-0.067c0.226,0.099,0.269,0.178,0.199,0.365c-0.046,0.054-0.141,0.064-0.143,0.159
			c-0.113,0.14-0.06,0.237,0.07,0.331c0.154,0.111,0.3,0.235,0.398,0.403c-0.001,0.088-0.069,0.135-0.12,0.192
			c-0.564,0.622-1.166,1.206-1.758,1.801c-0.029,0.029-0.065,0.054-0.09,0.113c0.54-0.407,1.081-0.786,1.607-1.181
			c0.124-0.094,0.253-0.18,0.378-0.271c0.06-0.043,0.122-0.108,0.208-0.047c0.094,0.113,0.246,0.19,0.28,0.336
			c0.039,0.165-0.146,0.224-0.223,0.335c-0.078,0.113-0.069,0.165,0.039,0.252c0.167,0.134,0.385,0.21,0.493,0.415
			c-0.002,0.078-0.056,0.128-0.106,0.176c-0.388,0.37-0.72,0.794-1.114,1.159c-0.176,0.163-0.301,0.374-0.484,0.533
			c0.531-0.366,1.053-0.745,1.575-1.124c0.094-0.068,0.18-0.167,0.319-0.125c0.105,0.08,0.224,0.148,0.236,0.3
			c-0.009,0.09-0.144,0.123-0.104,0.234c0.141,0.145,0.281,0.289,0.437,0.418c0.059,0.049,0.126,0.09,0.134,0.177
			c-0.12,0.298-0.381,0.485-0.579,0.721c-0.33,0.392-0.683,0.764-1.05,1.193c0.572-0.443,1.104-0.851,1.637-1.258
			c0.077-0.06,0.151-0.165,0.278-0.091c0.112,0.101,0.208,0.213,0.266,0.355c0.002,0.163-0.21,0.195-0.215,0.353
			c0.164,0.139,0.313,0.292,0.478,0.429c0.053,0.044,0.111,0.084,0.113,0.163c-0.04,0.155-0.176,0.234-0.269,0.346
			c-0.305,0.369-0.635,0.715-0.969,1.11c0.42-0.323,0.806-0.628,1.197-0.926c0.081-0.062,0.155-0.152,0.278-0.12
			c0.076,0.064,0.13,0.148,0.205,0.214c0.129,0.115,0.177,0.238,0.032,0.376c-0.081,0.078-0.028,0.132,0.028,0.196
			c0.148,0.167,0.349,0.288,0.446,0.502c-0.041,0.234-0.244,0.355-0.381,0.515c-0.355,0.417-0.719,0.828-1.101,1.252
			c0.545-0.4,1.069-0.788,1.597-1.174c0.07-0.051,0.132-0.137,0.241-0.096c0.079,0.148,0.248,0.237,0.274,0.419
			c-0.006,0.094-0.168,0.13-0.093,0.254c0.012,0.015,0.022,0.03,0.033,0.045c0.1,0.12,0.195,0.245,0.342,0.312
			c0.019,0.007,0.036,0.018,0.052,0.029c0.061,0.067,0.125,0.131,0.122,0.232c-0.286,0.373-0.623,0.704-0.921,1.095
			c0.373-0.277,0.745-0.518,1.103-0.779c0.067-0.049,0.132-0.111,0.229-0.089c0.121,0.065,0.197,0.181,0.298,0.268
			c0.125,0.108,0.143,0.229,0.028,0.348c-0.131,0.139-0.109,0.237,0.047,0.335c0.194,0.124,0.357,0.281,0.576,0.384
			c0.213,0.1,0.357,0.335,0.465,0.559c0.048,0.099-0.048,0.171-0.114,0.231c-0.108,0.097-0.099,0.176,0.017,0.253
			c0.083,0.056,0.15,0.13,0.228,0.19c0.121,0.095,0.104,0.183,0.008,0.283c-0.177,0.183-0.371,0.35-0.503,0.536
			c0.166-0.146,0.366-0.294,0.564-0.445c0.129-0.099,0.234-0.076,0.33,0.042c0.063,0.076,0.123,0.155,0.19,0.228
			c0.112,0.12,0.146,0.244,0.006,0.367c-0.094,0.084-0.079,0.15,0.02,0.219c0.111,0.076,0.212,0.165,0.318,0.248
			c0.118,0.093,0.114,0.184,0.015,0.285c-0.123,0.125-0.244,0.251-0.381,0.373c0.121-0.088,0.234-0.171,0.349-0.253
			c0.108-0.078,0.206-0.077,0.309,0.005c0.133,0.106,0.25,0.229,0.381,0.337c0.09,0.075,0.065,0.165-0.002,0.244
			c-0.091,0.106-0.067,0.185,0.045,0.259c0.089,0.058,0.168,0.129,0.251,0.195c0.105,0.083,0.095,0.155,0.013,0.246
			c-0.09,0.1-0.184,0.195-0.285,0.284c-0.013,0.013-0.024,0.027-0.04,0.037c0.023-0.001,0.028-0.026,0.046-0.036
			c0.046-0.046,0.099-0.085,0.155-0.111c0.098-0.047,0.166-0.206,0.309-0.094c0.147,0.115,0.239,0.352,0.177,0.488
			c-0.048,0.104,0.029,0.142,0.077,0.195c0.238,0.259,0.459,0.533,0.688,0.801c0.16,0.187,0.149,0.228-0.004,0.421
			c-0.022,0.028-0.042,0.059-0.067,0.083c-0.125,0.121-0.118,0.221,0.032,0.319c0.195,0.127,0.352,0.304,0.567,0.408
			c0.184,0.089,0.208,0.308,0.066,0.46c-0.106,0.114-0.216,0.225-0.33,0.331c-0.104,0.096-0.092,0.174,0.008,0.264
			c0.168,0.15,0.36,0.275,0.49,0.466c0.079,0.115,0.083,0.199-0.073,0.26c-0.147,0.057-0.285,0.141-0.427,0.212
			c-0.077,0.1-0.189,0.138-0.301,0.176c-0.151-0.021-0.24-0.137-0.345-0.228c-0.099-0.086-0.18-0.203-0.331-0.205
			c-0.107,0.016-0.155,0.147-0.273,0.141c-0.077-0.018-0.115-0.079-0.151-0.139c-0.109-0.189-0.27-0.323-0.459-0.424
			c-0.114-0.061-0.21-0.141-0.292-0.237c-0.094-0.124-0.156,0.035-0.236,0.028c-0.217-0.148-0.375-0.354-0.54-0.551
			c-0.035-0.041-0.054-0.104-0.14-0.044c-0.047,0.033-0.11-0.043-0.157-0.083c-0.064-0.055-0.14-0.094-0.2-0.154
			c-0.057-0.067-0.012-0.12,0.03-0.167c0.183-0.206,0.349-0.425,0.562-0.599c0.006-0.01,0.017-0.016,0.03-0.016
			c-0.001-0.009-0.006-0.01-0.015-0.003c-0.01,0.007-0.019,0.017-0.029,0.026c-0.193,0.157-0.403,0.289-0.599,0.44
			c-0.05,0.04-0.104,0.074-0.171,0.073c-0.118-0.008-0.194-0.083-0.249-0.173c-0.144-0.234-0.3-0.451-0.562-0.571
			c-0.073-0.033-0.136-0.097-0.174-0.176c-0.015-0.064,0.019-0.111,0.06-0.148c0.305-0.281,0.557-0.613,0.858-0.896
			c0.015-0.013,0.03-0.028,0.052-0.03c-0.033-0.009-0.045,0.023-0.067,0.034c-0.315,0.217-0.604,0.47-0.936,0.662
			c-0.162-0.027-0.249-0.16-0.337-0.27c-0.194-0.243-0.47-0.375-0.704-0.562c-0.068-0.091,0.007-0.146,0.057-0.198
			c0.334-0.345,0.688-0.672,1.001-1.038c0.025-0.023,0.056-0.041,0.083-0.063c-0.036,0.019-0.067,0.043-0.099,0.068
			c-0.284,0.2-0.55,0.423-0.838,0.615c-0.058,0.039-0.107,0.094-0.185,0.097c-0.16-0.064-0.251-0.21-0.346-0.333
			c-0.188-0.243-0.486-0.304-0.71-0.483c-0.044-0.097,0.018-0.165,0.075-0.221c0.37-0.362,0.716-0.747,1.077-1.118
			c0.044-0.047,0.096-0.083,0.151-0.111c-0.006-0.001-0.006,0.004-0.009,0.005c-0.059,0.024-0.104,0.064-0.15,0.105
			c-0.341,0.231-0.669,0.481-1.009,0.714c-0.08,0.055-0.155,0.122-0.259,0.128c-0.176-0.051-0.279-0.203-0.412-0.311
			c-0.161-0.131-0.307-0.282-0.464-0.418c-0.067-0.092-0.004-0.156,0.047-0.225c0.186-0.251,0.412-0.466,0.622-0.694
			c0.208-0.228,0.392-0.478,0.625-0.685c-0.44,0.284-0.863,0.59-1.292,0.887c-0.097,0.067-0.182,0.16-0.313,0.163
			c-0.313-0.24-0.629-0.477-0.838-0.822c0.284-0.411,0.655-0.748,0.971-1.131c0.205-0.249,0.449-0.465,0.628-0.736
			c0.017-0.048,0.005-0.068-0.048-0.047c-0.483,0.293-0.917,0.656-1.381,0.975c-0.163,0.112-0.321,0.23-0.481,0.345
			c-0.076,0.029-0.119-0.028-0.161-0.07c-0.282-0.281-0.597-0.528-0.872-0.819c-0.009-0.112,0.072-0.183,0.135-0.251
			c0.579-0.631,1.12-1.296,1.714-1.911c0.006-0.011,0.021-0.013,0.029-0.021c-0.011-0.006-0.019-0.002-0.025,0.013
			c-0.204,0.209-0.455,0.359-0.683,0.536c-0.53,0.41-1.061,0.819-1.601,1.218c-0.056,0.042-0.112,0.086-0.185,0.099
			c-0.223-0.069-0.331-0.272-0.489-0.417c-0.091-0.083-0.166-0.124-0.271-0.039c-0.105,0.028-0.159,0.148-0.275,0.158
			c-0.056-0.007-0.091-0.042-0.123-0.084c-0.084-0.104-0.048-0.187,0.031-0.279c0.312-0.365,0.638-0.717,0.957-1.076
			c0.463-0.523,0.933-1.04,1.394-1.562c0.006-0.007,0.015-0.014,0.026-0.019c-0.021-0.008-0.025,0.014-0.04,0.021
			c-0.931,0.693-1.855,1.394-2.784,2.087c-0.068,0.051-0.132,0.107-0.213,0.138c-0.083,0.01-0.126-0.048-0.169-0.104
			c-0.13-0.166-0.285-0.309-0.438-0.451c-0.046-0.029-0.082-0.002-0.117,0.025c-0.083,0.05-0.148,0.125-0.238,0.163
			c-0.055,0.01-0.103,0-0.131-0.053c-0.028-0.089,0.024-0.149,0.078-0.206c0.509-0.529,0.99-1.083,1.487-1.624
			c0.521-0.565,1.041-1.131,1.542-1.713c-1.274,0.906-2.553,1.806-3.818,2.725c-0.073,0.053-0.143,0.119-0.246,0.11
			C10.441,22.252,10.236,22.071,10.098,21.828z"/>
		<path fill-rule="evenodd" clip-rule="evenodd" fill="#231F20" d="M26.156,20.31c0.661,0.357,1.32,0.717,1.982,1.071
			c0.929,0.497,1.859,0.99,2.791,1.481c0.127,0.067,0.194,0.132,0.074,0.261c-0.014,0.015-0.021,0.037-0.032,0.055
			c-0.114,0.184-0.158,0.484-0.337,0.531c-0.17,0.045-0.395-0.131-0.599-0.199c-0.333-0.11-0.646-0.271-0.987-0.353
			c-0.03-0.012-0.059-0.023-0.089-0.002c0.02,0.009,0.032,0.024,0.044,0.041c0.65,0.314,1.296,0.634,1.95,0.939
			c0.135,0.063,0.142,0.118,0.078,0.232c-0.088,0.159-0.173,0.321-0.242,0.488c-0.054,0.13-0.11,0.174-0.248,0.102
			c-0.123-0.065-0.265-0.092-0.389-0.154c-0.116-0.057-0.175-0.039-0.22,0.085c-0.057,0.158-0.142,0.306-0.196,0.465
			c-0.046,0.133-0.1,0.163-0.244,0.117c-0.792-0.256-1.589-0.496-2.383-0.745c-0.074-0.023-0.141-0.054-0.249-0.013
			c0.475,0.225,0.928,0.44,1.381,0.655c1.728,0.82,3.456,1.64,5.186,2.457c0.115,0.054,0.158,0.093,0.081,0.22
			c-0.097,0.161-0.18,0.333-0.25,0.508c-0.056,0.139-0.12,0.145-0.252,0.097c-1.392-0.51-2.786-1.012-4.18-1.516
			c-0.079-0.029-0.153-0.073-0.241-0.069c-0.03-0.01-0.06-0.022-0.091-0.001c0.02,0.009,0.031,0.026,0.042,0.042
			c0.708,0.371,1.415,0.742,2.123,1.113c0.28,0.146,0.56,0.292,0.845,0.439c-0.119,0.219-0.244,0.43-0.351,0.65
			c-0.058,0.119-0.117,0.135-0.237,0.087c-0.87-0.348-1.743-0.689-2.617-1.03c-0.082-0.032-0.162-0.092-0.298-0.044
			c0.716,0.417,1.41,0.821,2.105,1.225c-0.13,0.22-0.265,0.426-0.377,0.645c-0.066,0.128-0.128,0.123-0.248,0.075
			c-0.614-0.25-1.234-0.489-1.851-0.731c-0.125,0.049-0.18-0.058-0.239-0.124c-0.104-0.116-0.187-0.126-0.319-0.03
			c-0.438,0.316-0.888,0.616-1.334,0.921c-0.052,0.035-0.101,0.08-0.172,0.051c-0.015-0.014-0.024-0.031-0.028-0.052
			c0.001-0.07,0.043-0.122,0.093-0.16c0.277-0.21,0.498-0.481,0.758-0.709c0.066-0.041,0.126-0.088,0.178-0.146
			c0.247-0.243,0.484-0.496,0.738-0.73c0.089-0.083,0.082-0.134,0.016-0.228c-0.116-0.165-0.285-0.273-0.412-0.424
			c-0.073-0.085-0.138-0.033-0.204,0.009c-0.435,0.277-0.874,0.548-1.308,0.828c-0.094,0.061-0.183,0.135-0.304,0.138
			c-0.032-0.008-0.053-0.028-0.061-0.061c0.011-0.129,0.1-0.213,0.181-0.298c0.29-0.305,0.546-0.638,0.835-0.943
			c0.05-0.044,0.1-0.088,0.134-0.147c0.161-0.216,0.358-0.4,0.533-0.604c0.086-0.101,0.087-0.185-0.031-0.262
			c-0.113-0.075-0.209-0.171-0.294-0.274c-0.122-0.148-0.229-0.157-0.394-0.046c-0.626,0.425-1.247,0.858-1.879,1.274
			c-0.062,0.041-0.116,0.11-0.207,0.077c-0.015-0.014-0.024-0.031-0.028-0.051c0.052-0.168,0.177-0.287,0.294-0.406
			c0.621-0.628,1.208-1.288,1.831-1.915c0.107-0.107,0.104-0.174-0.014-0.269c-0.13-0.107-0.248-0.231-0.358-0.36
			c-0.033-0.038-0.052-0.098-0.122-0.077c-0.481,0.295-0.93,0.636-1.395,0.954c-0.29,0.199-0.578,0.402-0.869,0.6
			c-0.058,0.039-0.113,0.086-0.188,0.09c-0.033-0.005-0.056-0.023-0.066-0.055c0.005-0.135,0.121-0.193,0.198-0.278
			c0.088-0.097,0.187-0.184,0.266-0.289c0.056-0.05,0.122-0.091,0.159-0.16c0.434-0.466,0.86-0.94,1.318-1.382
			c0.088-0.088,0.185-0.168,0.253-0.275c0.187-0.23,0.181-0.225-0.021-0.438c-0.109-0.114-0.258-0.17-0.368-0.28
			c-0.079-0.08-0.142-0.005-0.203,0.038c-0.415,0.291-0.83,0.582-1.246,0.87c-0.062,0.043-0.12,0.103-0.207,0.086
			c-0.111-0.049-0.232-0.081-0.31-0.186c-0.014-0.102,0.063-0.153,0.122-0.21c0.511-0.496,0.994-1.018,1.487-1.531
			c0.147-0.154,0.147-0.17-0.005-0.32c-0.056-0.055-0.118-0.1-0.179-0.149c-0.297-0.24-0.295-0.239-0.61-0.006
			c-0.244,0.18-0.479,0.371-0.722,0.552c-0.078,0.058-0.154,0.127-0.264,0.117c-0.217-0.093-0.455-0.146-0.636-0.314
			c-0.042-0.102,0.027-0.155,0.092-0.213c0.503-0.453,0.976-0.94,1.49-1.381c0.12-0.103,0.12-0.175-0.004-0.283
			c-0.132-0.117-0.28-0.218-0.391-0.356c-0.09-0.113-0.2-0.016-0.296-0.041c-0.316-0.149-0.646-0.272-0.928-0.487
			c-0.009-0.162,0.125-0.229,0.222-0.31c0.136-0.113,0.258-0.239,0.388-0.357c0.097-0.089,0.117-0.166,0.008-0.261
			c-0.168-0.148-0.292-0.413-0.493-0.439c-0.193-0.025-0.353,0.221-0.531,0.343c-0.157,0.107-0.298,0.236-0.452,0.348
			c-0.075,0.054-0.149,0.108-0.249,0.099c-0.237-0.099-0.478-0.19-0.676-0.363c-0.023-0.074,0.026-0.12,0.069-0.164
			c0.239-0.245,0.481-0.487,0.726-0.727c0.05-0.05,0.106-0.091,0.182-0.095c0.081-0.002,0.146,0.042,0.219,0.076
			c-0.063-0.045-0.144-0.069-0.153-0.159c0.038-0.169,0.186-0.241,0.302-0.339c0.245-0.206,0.247-0.234,0.023-0.459
			c-0.025-0.025-0.05-0.05-0.075-0.075c-0.322-0.322-0.316-0.315-0.685-0.029c-0.181,0.141-0.32,0.346-0.57,0.388
			c-0.288-0.094-0.559-0.221-0.799-0.408c-0.029-0.065,0.011-0.111,0.049-0.15c0.282-0.287,0.551-0.587,0.885-0.816
			c0.176-0.008,0.313,0.109,0.467,0.147c-0.116-0.054-0.248-0.098-0.343-0.204c-0.006-0.168,0.141-0.231,0.233-0.327
			c0.28-0.293,0.282-0.287,0-0.577c-0.105-0.108-0.25-0.188-0.283-0.354c0.009-0.034,0.034-0.051,0.066-0.059
			c0.075-0.01,0.137,0.026,0.2,0.056c1.16,0.563,2.334,1.098,3.495,1.661c0.228,0.111,0.454,0.226,0.688,0.321
			c0.067,0.023,0.119,0.079,0.188,0.1c-0.059-0.017-0.1-0.066-0.155-0.09c-0.414-0.18-0.809-0.398-1.208-0.609
			c-0.729-0.386-1.462-0.764-2.19-1.152c-0.535-0.286-1.077-0.556-1.609-0.848c-0.055-0.031-0.114-0.057-0.149-0.114
			c-0.008-0.021-0.015-0.046-0.003-0.061c0.235-0.284,0.473-0.564,0.789-0.764c2.108,1.112,4.216,2.223,6.325,3.334
			c0.014-0.023,0.028-0.046,0.042-0.069c-2.069-1.404-4.137-2.809-6.212-4.217c0.157-0.212,0.318-0.417,0.464-0.632
			c0.084-0.122,0.152-0.05,0.229-0.005c0.917,0.534,1.837,1.063,2.749,1.606c0.153,0.091,0.246,0.093,0.335-0.061
			c0.021-0.035,0.056-0.063,0.084-0.095c0.298-0.32,0.299-0.321,0.676-0.112c0.909,0.505,1.815,1.016,2.727,1.516
			c0.138,0.076,0.178,0.124,0.076,0.271c-0.241,0.347-0.233,0.354,0.097,0.619c0.276,0.221,0.551,0.443,0.833,0.655
			c0.103,0.077,0.122,0.142,0.029,0.234c-0.009,0.009-0.015,0.024-0.023,0.036c-0.103,0.158-0.326,0.323-0.284,0.465
			c0.04,0.138,0.292,0.216,0.452,0.317c0.523,0.331,1.048,0.659,1.576,0.991c-0.136,0.167-0.257,0.331-0.395,0.48
			c-0.09,0.097-0.069,0.14,0.033,0.205c0.161,0.101,0.309,0.224,0.466,0.332c0.093,0.063,0.136,0.12,0.065,0.238
			c-0.13,0.217-0.246,0.441-0.358,0.668c-0.052,0.105-0.099,0.125-0.211,0.074c-0.356-0.163-0.722-0.307-1.08-0.467
			c-0.115-0.051-0.179-0.049-0.251,0.071c-0.096,0.16-0.158,0.409-0.321,0.444c-0.145,0.032-0.33-0.12-0.496-0.195
			c-1.162-0.526-2.323-1.053-3.485-1.579c-0.025-0.011-0.053-0.016-0.08-0.024c-0.029-0.024-0.063-0.028-0.093-0.01
			c-0.019,0.012,0,0.034,0.009,0.049c0.72,0.455,1.438,0.913,2.159,1.365c1.007,0.632,2.014,1.263,3.026,1.885
			c0.14,0.086,0.162,0.158,0.085,0.294c-0.088,0.155-0.085,0.415-0.235,0.465c-0.127,0.042-0.318-0.103-0.479-0.167
			c-0.905-0.359-1.809-0.718-2.714-1.075c-0.058-0.023-0.121-0.032-0.182-0.048c-0.029-0.012-0.058-0.024-0.088-0.001
			C26.133,20.276,26.145,20.293,26.156,20.31z"/>
		<path fill-rule="evenodd" clip-rule="evenodd" fill="#94959A" d="M13.07,32.331c0.041-0.181,0.038-0.364,0.042-0.546
			c0.016-0.621,0.031-1.241,0.047-1.861c0.001-0.063-0.007-0.128,0.05-0.176c0.192,0.044,0.298,0.2,0.405,0.341
			c0.106,0.14,0.203,0.208,0.358,0.07c0.052-0.046,0.125-0.085,0.165,0.024c0.122,0.786,0.178,1.58,0.272,2.368
			c0.021,0.174,0.047,0.349,0.055,0.524c0.005,0.022,0.001,0.046,0.011,0.069c0.015-0.02,0.007-0.044,0.013-0.067
			c0.081-0.713,0.129-1.429,0.243-2.137c0.049-0.107,0.112-0.052,0.167-0.011c0.079,0.06,0.148,0.132,0.214,0.206
			c0.107,0.119,0.207,0.12,0.327,0.015c0.056-0.048,0.114-0.178,0.219-0.05c0.112,0.759,0.193,1.522,0.307,2.282
			c0.045-0.503,0.087-1.006,0.125-1.509c0.065-0.118,0.13-0.038,0.185,0.007c0.114,0.095,0.21,0.21,0.33,0.299
			c0.079,0.058,0.143,0.07,0.228,0.006c0.064-0.049,0.142-0.147,0.229-0.02c0.072,0.664,0.124,1.329,0.156,1.9
			c0.006-0.333,0.09-0.752,0.147-1.172c0.048-0.106,0.111-0.052,0.165-0.011c0.099,0.078,0.186,0.169,0.27,0.262
			c0.112,0.124,0.218,0.151,0.356,0.033c0.054-0.046,0.126-0.164,0.222-0.037c0.099,0.533,0.162,1.068,0.184,1.49
			c0.009-0.201,0.043-0.522,0.076-0.842c0.059-0.123,0.126-0.045,0.18,0c0.113,0.094,0.218,0.198,0.313,0.309
			c0.113,0.134,0.219,0.154,0.35,0.028c0.06-0.058,0.13-0.107,0.202-0.148c0.058-0.033,0.124-0.084,0.179,0.009
			c0.107,0.502,0.13,1.015,0.2,1.489c0.062-0.246,0.006-0.541,0.109-0.815c0.077-0.105,0.148-0.041,0.212,0.014
			c0.107,0.09,0.208,0.191,0.3,0.296c0.11,0.126,0.208,0.132,0.342,0.028c0.117-0.091,0.216-0.231,0.395-0.217
			c0.153,0.189,0.133,0.43,0.194,0.61c0.001-0.009-0.01-0.058,0.01-0.104c0.08-0.081,0.131-0.003,0.176,0.039
			c0.129,0.121,0.282,0.215,0.397,0.351c0.095,0.11,0.187,0.101,0.292,0.013c0.222-0.187,0.451-0.364,0.677-0.545
			c0.066-0.054,0.128-0.114,0.223-0.107c0.051,0.019,0.087,0.054,0.104,0.106c-0.013,0.126-0.119,0.187-0.194,0.265
			c-0.082,0.084-0.1,0.154-0.018,0.253c0.111,0.135,0.229,0.265,0.335,0.406c0.071,0.094,0.153,0.099,0.258,0.049
			c0.209-0.098,0.42-0.195,0.635-0.281c0.064-0.025,0.127-0.062,0.201-0.04c0.292,0.225,0.52,0.516,0.813,0.776
			c-0.053-0.27-0.177-0.495-0.247-0.737c-0.026-0.094-0.081-0.185-0.031-0.286c0.262-0.18,0.546-0.314,0.856-0.388
			c0.302,0.302,0.602,0.607,0.946,0.946c-0.082-0.45-0.208-0.84-0.273-1.242c0.205-0.154,0.422-0.275,0.687-0.28
			c0.317,0.322,0.644,0.634,0.938,0.978c0.047,0.056,0.106,0.158,0.183,0.114c0.083-0.046,0.009-0.139-0.015-0.206
			c-0.176-0.497-0.349-0.997-0.541-1.487c-0.077-0.196-0.045-0.302,0.145-0.4c0.337-0.174,0.337-0.19,0.573,0.078
			c0.344,0.39,0.678,0.79,1.019,1.182c0.064,0.073,0.124,0.157,0.243,0.187c0.041-0.161-0.061-0.283-0.115-0.407
			c-0.263-0.607-0.535-1.21-0.815-1.81c-0.075-0.16-0.062-0.236,0.107-0.315c0.406-0.191,0.394-0.194,0.679,0.18
			c0.337,0.44,0.689,0.868,1.035,1.301c0.032,0.04,0.074,0.064,0.14,0.072c-0.006-0.266-0.148-0.483-0.236-0.714
			c-0.208-0.545-0.433-1.084-0.662-1.621c-0.061-0.142-0.033-0.216,0.099-0.288c0.359-0.2,0.356-0.204,0.556,0.149
			c0.122,0.213,0.246,0.426,0.367,0.64c0.032,0.056,0.056,0.133,0.133,0.106c0.07-0.023,0.032-0.1,0.025-0.149
			c-0.076-0.536-0.155-1.071-0.234-1.607c-0.011-0.072-0.024-0.145,0.085-0.152c0.183-0.011,0.366-0.021,0.548-0.037
			c0.109-0.009,0.155,0.043,0.167,0.142c0.087,0.67,0.172,1.34,0.26,2.01c0.055,0.426,0.097,0.854,0.176,1.275
			c0.04,0.21,0.243,0.336,0.379,0.493c0.663,0.757,1.332,1.508,2.003,2.257c0.072,0.08,0.066,0.125-0.013,0.182
			c-0.103,0.074-0.215,0.139-0.301,0.229c-0.101,0.106-0.16,0.081-0.255-0.008c-0.575-0.542-1.156-1.076-1.735-1.612
			c-0.044-0.041-0.096-0.115-0.155-0.057c-0.049,0.048,0,0.119,0.03,0.174c0.31,0.561,0.612,1.125,0.934,1.678
			c0.231,0.398,0.237,0.378-0.18,0.567c-0.169,0.076-0.241,0.033-0.343-0.095c-0.416-0.521-0.84-1.037-1.268-1.547
			c-0.095-0.113-0.151-0.277-0.327-0.31c-0.027,0.093,0.012,0.169,0.049,0.245c0.215,0.444,0.422,0.892,0.65,1.329
			c0.074,0.142,0.038,0.216-0.07,0.299c-0.301,0.229-0.294,0.225-0.561-0.081c-0.403-0.461-0.816-0.913-1.223-1.371
			c-0.031-0.036-0.066-0.076-0.101-0.05c-0.062,0.045-0.028,0.12-0.006,0.173c0.125,0.305,0.252,0.611,0.39,0.912
			c0.243,0.527,0.244,0.521-0.248,0.831c-0.097,0.062-0.138,0.042-0.208-0.025c-0.424-0.415-0.852-0.826-1.279-1.237
			c-0.049-0.047-0.101-0.143-0.168-0.102c-0.084,0.052-0.008,0.137,0.017,0.204c0.137,0.376,0.277,0.752,0.417,1.128
			c0.01,0.026,0.035,0.062,0.025,0.078c-0.098,0.163-0.292,0.183-0.435,0.28c-0.088,0.059-0.16,0.014-0.223-0.049
			c-0.101-0.099-0.2-0.201-0.302-0.298c-0.306-0.293-0.612-0.585-0.919-0.876c-0.044-0.042-0.09-0.121-0.155-0.083
			c-0.069,0.041-0.032,0.129-0.018,0.192c0.1,0.425,0.203,0.85,0.31,1.272c0.032,0.126,0.05,0.242-0.108,0.292
			c-0.147,0.046-0.269,0.245-0.455,0.03c-0.336-0.389-0.695-0.759-1.046-1.135c-0.046-0.049-0.096-0.137-0.17-0.097
			c-0.071,0.039-0.027,0.125-0.005,0.189c0.15,0.455,0.295,0.911,0.456,1.362c0.046,0.13,0.013,0.168-0.105,0.208
			c-0.398,0.132-0.396,0.136-0.636-0.214c-0.281-0.412-0.563-0.822-0.842-1.235c-0.036-0.052-0.064-0.136-0.135-0.102
			c-0.069,0.033-0.018,0.109-0.007,0.168c0.112,0.587,0.221,1.175,0.334,1.763c0.013,0.066,0.036,0.126-0.048,0.157
			c-0.146,0.051-0.291,0.106-0.44,0.147c-0.112,0.032-0.121-0.077-0.147-0.141c-0.197-0.474-0.39-0.949-0.584-1.425
			c-0.146-0.358-0.29-0.717-0.438-1.074c-0.02-0.047-0.033-0.126-0.108-0.107c-0.076,0.019-0.043,0.096-0.041,0.145
			c0.043,0.739,0.084,1.479,0.145,2.216c0.01,0.122-0.024,0.148-0.114,0.167c-0.09,0.019-0.181,0.03-0.271,0.049
			c-0.088,0.019-0.137,0.003-0.17-0.097c-0.102-0.308-0.218-0.61-0.328-0.914c-0.177-0.497-0.352-0.995-0.53-1.492
			c-0.02-0.053-0.013-0.151-0.104-0.129c-0.066,0.017-0.031,0.099-0.03,0.149c0.012,0.707,0.024,1.413,0.046,2.119
			c0.004,0.166-0.014,0.278-0.22,0.253c-0.053-0.006-0.11,0.022-0.165,0.031c-0.13,0.023-0.195-0.011-0.235-0.16
			c-0.24-0.896-0.496-1.789-0.745-2.684c-0.019-0.068-0.021-0.139-0.125-0.173c0,0.204-0.003,0.399,0,0.593
			c0.011,0.636-0.031,1.273,0.041,1.907c0.022,0.198-0.067,0.223-0.233,0.244c-0.376,0.048-0.378,0.06-0.458-0.295
			c-0.255-1.125-0.508-2.25-0.761-3.376c-0.01-0.041-0.007-0.086-0.059-0.103c-0.057,0.022-0.056,0.072-0.058,0.122
			c-0.03,0.641-0.057,1.283-0.089,1.924c-0.021,0.415-0.051,0.83-0.078,1.245c-0.001,0.028,0.001,0.073-0.014,0.081
			c-0.171,0.09-0.356,0.025-0.535,0.041c-0.128,0.012-0.123-0.103-0.135-0.175c-0.093-0.541-0.178-1.083-0.265-1.625
			c-0.102-0.632-0.202-1.264-0.31-1.896c-0.009-0.054,0.009-0.171-0.094-0.158c-0.08,0.011-0.043,0.107-0.048,0.165
			c-0.087,1.053-0.173,2.106-0.255,3.16c-0.008,0.102-0.031,0.146-0.146,0.151c-0.519,0.025-0.535,0.032-0.608-0.469
			c-0.082-0.564-0.131-1.133-0.192-1.7c-0.047-0.434-0.09-0.869-0.135-1.303c-0.004-0.041,0.001-0.096-0.059-0.091
			c-0.054,0.005-0.051,0.058-0.053,0.1c-0.029,0.5-0.057,1-0.086,1.5c-0.027,0.457-0.058,0.915-0.083,1.372
			c-0.004,0.086-0.029,0.131-0.123,0.128c-0.169-0.007-0.36,0.039-0.503-0.024c-0.16-0.07-0.099-0.286-0.121-0.437
			c-0.1-0.697-0.185-1.395-0.284-2.092c-0.055-0.382-0.075-0.769-0.17-1.145c-0.039-0.068-0.06-0.14-0.053-0.219
			c-0.004,0.085,0.039,0.177-0.019,0.257c0,0.962-0.004,1.924,0.002,2.885c0.001,0.161-0.035,0.243-0.207,0.216
			c-0.007-0.001-0.015,0-0.021,0c-0.188,0.014-0.437,0.134-0.545,0.01c-0.115-0.131-0.096-0.383-0.128-0.583
			c-0.121-0.764-0.237-1.528-0.357-2.293c-0.121-0.771-0.249-1.54-0.365-2.312c-0.027-0.184-0.062-0.323-0.296-0.312
			c-0.123,0.005-0.248-0.056-0.373-0.063c-0.127-0.008-0.155-0.064-0.139-0.176c0.091-0.64,0.181-1.281,0.271-1.921
			c0.048-0.341,0.102-0.682,0.143-1.023c0.013-0.101,0.053-0.138,0.148-0.126c0.007,0,0.014,0,0.021,0
			c0.62-0.022,0.61-0.021,0.702,0.597c0.136,0.911,0.289,1.819,0.435,2.728c0.002,0.012,0.016,0.023,0.024,0.035
			c0.052,0.047,0.044,0.118,0.08,0.22C13.045,32.45,13.017,32.387,13.07,32.331z"/>
		<path fill-rule="evenodd" clip-rule="evenodd" fill="#231F20" d="M28.064,11.704c-0.315-0.119-0.233-0.28-0.121-0.455
			c0.102-0.158,0.156-0.393,0.297-0.467c0.146-0.077,0.355,0.074,0.542,0.105c0.021,0.004,0.042,0.007,0.061,0.016
			c0.349,0.172,0.57,0.077,0.822-0.237c0.172-0.214,0.362-0.424,0.524-0.652c0.052-0.074,0.104-0.066,0.181-0.034
			c0.283,0.12,0.571,0.229,0.854,0.347c0.102,0.042,0.157,0.031,0.203-0.08c0.076-0.181,0.175-0.351,0.256-0.529
			c0.042-0.094,0.083-0.111,0.19-0.08c0.451,0.131,0.909,0.235,1.359,0.37c0.136,0.041,0.207,0.013,0.286-0.088
			c0.104-0.134,0.229-0.251,0.331-0.386c0.067-0.089,0.12-0.078,0.205-0.028c0.532,0.314,1.071,0.619,1.6,0.939
			c0.13,0.079,0.218,0.085,0.314-0.033c0.031-0.038,0.081-0.06,0.11-0.098c0.096-0.125,0.18-0.103,0.295-0.013
			c0.792,0.615,1.59,1.221,2.381,1.836c0.119,0.093,0.175,0.1,0.273-0.032c0.237-0.317,0.245-0.309,0.577-0.101
			c0.339,0.213,0.684,0.419,1.02,0.639c0.105,0.069,0.174,0.079,0.222-0.046c0.073-0.189,0.175-0.211,0.359-0.118
			c0.4,0.201,0.412,0.193,0.625-0.196c0.063-0.112,0.122-0.139,0.229-0.079c0.03,0.017,0.064,0.026,0.098,0.037
			c0.213,0.07,0.436,0.216,0.635,0.19c0.21-0.028,0.299-0.311,0.444-0.479c0.064-0.074,0.102-0.085,0.185-0.027
			c0.676,0.472,1.354,0.941,2.037,1.404c0.102,0.069,0.107,0.118,0.04,0.213c-0.088,0.126-0.15,0.272-0.245,0.394
			c-0.115,0.149-0.063,0.222,0.083,0.295c0.164,0.082,0.318,0.18,0.475,0.274c0.042,0.025,0.124,0.037,0.078,0.118
			c-0.147,0.254-0.297,0.505-0.449,0.761c0.197,0.176,0.197,0.177,0.03,0.398c-0.068,0.09-0.132,0.185-0.208,0.267
			c-0.097,0.104-0.141,0.19,0.02,0.272c0.061,0.031,0.062,0.069,0.013,0.128c-0.155,0.183-0.305,0.371-0.447,0.564
			c-0.072,0.097-0.123,0.054-0.185,0c-0.075-0.067-0.121-0.08-0.19,0.029c-0.104,0.167-0.258,0.302-0.363,0.468
			c-0.112,0.176-0.218,0.172-0.356,0.044c-0.162-0.151-0.277-0.111-0.386,0.076c-0.088,0.151-0.215,0.28-0.315,0.425
			c-0.062,0.09-0.115,0.09-0.203,0.036c-0.203-0.125-0.416-0.237-0.621-0.359c-0.109-0.065-0.201-0.09-0.269,0.049
			c-0.009,0.018-0.028,0.031-0.042,0.047c-0.128,0.148-0.209,0.407-0.381,0.429c-0.164,0.021-0.351-0.146-0.528-0.23
			c-0.007-0.003-0.013-0.005-0.02-0.008c-0.18-0.077-0.364-0.275-0.526-0.223c-0.159,0.052-0.258,0.284-0.388,0.431
			c-0.06,0.068-0.097,0.125,0.007,0.181c0.129,0.068,0.105,0.14,0.017,0.227c-0.05,0.049-0.085,0.112-0.129,0.167
			c-0.111,0.135-0.179,0.365-0.335,0.387c-0.148,0.021-0.319-0.12-0.479-0.189s-0.336-0.212-0.478-0.185
			c-0.145,0.028-0.258,0.224-0.385,0.347c-0.03,0.03-0.054,0.065-0.077,0.093c-0.323-0.318-0.632-0.629-0.95-0.931
			c-0.08-0.077-0.054-0.124-0.001-0.193c0.125-0.162,0.237-0.333,0.366-0.492c0.076-0.092,0.061-0.138-0.025-0.213
			c-0.278-0.244-0.274-0.249-0.047-0.544c0.017-0.022,0.035-0.045,0.052-0.067c0.247-0.331,0.248-0.335,0.637-0.179
			c0.086,0.035,0.137,0.036,0.198-0.041c0.123-0.155,0.249-0.308,0.385-0.451c0.084-0.089,0.054-0.135-0.025-0.199
			c-0.136-0.112-0.262-0.237-0.397-0.351c-0.063-0.053-0.066-0.09-0.011-0.153c0.125-0.144,0.231-0.306,0.367-0.438
			c0.139-0.136,0.093-0.208-0.038-0.309c-0.357-0.276-0.699-0.574-1.062-0.845c-0.141-0.105-0.109-0.171-0.02-0.275
			c0.131-0.156,0.249-0.326,0.385-0.479c0.091-0.103,0.085-0.156-0.029-0.239c-0.604-0.44-1.206-0.885-1.799-1.34
			c-0.125-0.096-0.208-0.104-0.294,0.021c-0.132,0.19-0.27,0.192-0.468,0.076c-0.447-0.264-0.913-0.497-1.366-0.751
			c-0.114-0.063-0.186-0.066-0.255,0.057c-0.047,0.085-0.117,0.159-0.178,0.236c-0.275,0.351-0.275,0.351-0.696,0.178
			c-0.123-0.05-0.247-0.1-0.371-0.15c-0.411-0.166-0.411-0.166-0.688,0.163c-0.091,0.108-0.195,0.209-0.27,0.327
			c-0.09,0.141-0.173,0.157-0.286,0.036c-0.124-0.133-0.215-0.125-0.291,0.053c-0.058,0.135-0.157,0.252-0.209,0.389
			c-0.066,0.173-0.175,0.194-0.319,0.125c-0.212-0.103-0.349-0.054-0.412,0.179c-0.006,0.02-0.02,0.037-0.029,0.056
			c-0.074,0.145-0.113,0.337-0.229,0.42c-0.118,0.084-0.305-0.014-0.458-0.046c-0.15-0.031-0.21,0.058-0.281,0.161
			c-0.265,0.385-0.267,0.383-0.664,0.136c-0.347-0.215-0.692-0.434-1.042-0.645c-0.086-0.052-0.103-0.091-0.041-0.173
			c0.137-0.18,0.277-0.358,0.396-0.549C27.819,11.699,27.923,11.759,28.064,11.704z"/>
		<path fill-rule="evenodd" clip-rule="evenodd" fill="#94959A" d="M3.82,25.733c0.593-0.011,1.186-0.022,1.779-0.032
			c0.135-0.007,0.19,0.107,0.266,0.183c0.392,0.384,0.387,0.381,0.799,0.036c0.107-0.09,0.195-0.231,0.368-0.218
			C7.433,25.828,7.847,25.897,8.254,26c0.209,0.068,0.342,0.236,0.492,0.381c0.178,0.173,0.178,0.174,0.365,0.025
			c0.046-0.037,0.094-0.06,0.153-0.06c0.41,0.139,0.808,0.304,1.179,0.527c0.024,0.046-0.001,0.082-0.031,0.111
			c-0.081,0.078-0.057,0.15,0.009,0.219c0.115,0.122,0.232,0.242,0.363,0.347c0.11,0.088,0.196,0.074,0.293-0.018
			c0.1-0.095,0.196-0.201,0.344-0.225c0.266,0.179,0.542,0.344,0.776,0.566c-0.059,0.178-0.169,0.304-0.358,0.35
			c-0.373,0.211-0.652,0.532-0.96,0.819c-0.059,0.055-0.043,0.13-0.052,0.199c-0.08,0.691-0.162,1.383-0.242,2.075
			c-0.022,0.196-0.045,0.392-0.053,0.589c-0.004,0.125-0.044,0.171-0.174,0.176c-0.573,0.021-0.579,0.027-0.776-0.513
			c-0.079-0.217-0.183-0.333-0.442-0.298c-0.383,0.052-0.771,0.067-1.158,0.096c-0.123,0.009-0.181,0.066-0.161,0.191
			c0.007,0.048,0.021,0.096,0.028,0.145c0.029,0.175-0.008,0.274-0.224,0.258c-0.195-0.013-0.394,0.017-0.59,0.036
			c-0.121,0.012-0.209-0.032-0.27-0.128c-0.119-0.188-0.3-0.318-0.445-0.48c-0.032-0.037-0.069-0.085-0.123-0.067
			c-0.075,0.025-0.051,0.105-0.036,0.146c0.193,0.504-0.183,0.649-0.511,0.833c-0.096,0.053-0.128,0.013-0.181-0.057
			c-0.552-0.734-1.107-1.465-1.662-2.197c-0.237-0.313-0.47-0.629-0.712-0.938c-0.054-0.07-0.085-0.139-0.105-0.224
			c-0.135-0.561-0.268-1.123-0.423-1.678c-0.058-0.206,0.039-0.197,0.174-0.178c0.3,0.041,0.599,0.083,0.898,0.124
			c0.108,0.015,0.188-0.007,0.165-0.141c-0.06-0.366-0.021-0.733-0.035-1.1c-0.002-0.043-0.003-0.085-0.036-0.119
			C3.73,25.722,3.772,25.723,3.82,25.733z"/>
		<path fill-rule="evenodd" clip-rule="evenodd" fill="#15AA68" d="M23.151,23.966c0.468-0.324,0.939-0.643,1.404-0.972
			c0.13-0.092,0.209-0.146,0.351,0.013c0.111,0.124,0.256,0.233,0.394,0.34c0.17,0.132,0.141,0.23-0.021,0.332
			c-0.029,0.019-0.049,0.05-0.073,0.076c-0.084,0.085-0.191,0.15-0.241,0.266c-0.443,0.461-0.887,0.924-1.33,1.386
			c-0.045,0.05-0.101,0.089-0.151,0.133c-0.1,0.231-0.33,0.35-0.471,0.545c-0.012,0.029-0.034,0.051-0.049,0.077
			c0.029-0.012,0.06-0.014,0.088-0.026c0.757-0.525,1.514-1.051,2.271-1.575c0.062-0.043,0.13-0.08,0.195-0.119
			c0.057,0.021,0.09,0.069,0.127,0.113c0.184,0.128,0.301,0.331,0.498,0.448c0.105,0.062,0.011,0.123-0.03,0.166
			c-0.345,0.368-0.701,0.726-1.039,1.101c-0.385,0.426-0.811,0.812-1.173,1.258c0,0.021-0.051,0.043,0.002,0.062
			c0.712-0.481,1.427-0.96,2.134-1.447c0.129-0.089,0.206-0.086,0.312,0.031c0.126,0.139,0.254,0.28,0.418,0.381
			c0.114,0.07,0.122,0.132,0.016,0.259c-0.183,0.218-0.399,0.408-0.568,0.638c-0.054,0.032-0.083,0.092-0.137,0.122
			c-0.083,0.227-0.302,0.341-0.435,0.532c-0.173,0.25-0.396,0.467-0.596,0.698c-0.005,0.027-0.037,0.043-0.033,0.074
			c0.025-0.012,0.055-0.009,0.08-0.021c0.538-0.336,1.076-0.671,1.611-1.012c0.111-0.071,0.163-0.085,0.261,0.04
			c0.14,0.177,0.327,0.317,0.472,0.496c0.036,0.044,0.071,0.079,0.018,0.118c-0.324,0.238-0.558,0.572-0.875,0.817
			c-0.062,0.036-0.109,0.093-0.174,0.124c-0.172,0.249-0.405,0.439-0.627,0.637c-0.078,0.069-0.157,0.132-0.223,0.213
			c-0.016,0.02-0.032,0.042,0.002,0.06c0.5-0.341,1.005-0.678,1.5-1.027c0.137-0.096,0.231-0.129,0.344,0.026
			c0.055,0.076,0.125,0.154,0.224,0.185c0.021,0.083,0.095,0.123,0.154,0.166c0.119,0.087,0.157,0.177,0.066,0.303
			c0,0.113-0.083,0.169-0.156,0.234c-0.113,0.074-0.209,0.163-0.276,0.282c-0.056,0.102-0.129,0.189-0.222,0.261
			c-0.061,0.043-0.126,0.079-0.195,0.106c-0.055,0.054-0.115,0.104-0.163,0.164c-0.058,0.072-0.183,0.12-0.062,0.254
			c0.1,0.111,0.171,0.147,0.315,0.064c0.406-0.233,0.412-0.228,0.704,0.149c0.088,0.114,0.264,0.215,0.238,0.348
			c-0.022,0.113-0.184,0.202-0.287,0.298c-0.618,0.581-1.236,1.16-1.853,1.74c-0.031,0.028-0.056,0.062-0.083,0.094
			c-0.238-0.142-0.416-0.355-0.625-0.531c-0.075-0.062-0.029-0.107,0.019-0.155c0.141-0.139,0.283-0.277,0.419-0.42
			c0.123-0.129,0.059-0.308-0.103-0.386c-0.273-0.133-0.48-0.362-0.719-0.546c-0.041-0.031-0.006-0.062,0.015-0.089
			c0.039-0.05,0.083-0.096,0.118-0.149c0.065-0.097,0.232-0.182,0.184-0.286c-0.069-0.148-0.168-0.303-0.333-0.388
			c-0.072-0.038-0.055-0.134-0.117-0.192c-0.154-0.145-0.289-0.31-0.431-0.465c-0.042-0.046-0.091-0.074-0.019-0.151
			c0.196-0.208-0.078-0.294-0.14-0.428c-0.064-0.138-0.132,0.019-0.194,0.046c-0.082,0.037-0.155,0.095-0.232,0.145
			c-0.043,0.009-0.062-0.007-0.05-0.052c0.118-0.13,0.326-0.259,0.327-0.39c0.001-0.136-0.233-0.235-0.377-0.329
			c-0.147-0.094-0.076-0.171,0.001-0.241c0.113-0.102,0.106-0.179-0.018-0.262c-0.159-0.106-0.269-0.332-0.445-0.342
			c-0.172-0.009-0.313,0.19-0.475,0.288c-0.053,0.032-0.096,0.083-0.194,0.084c0.166-0.166,0.308-0.323,0.466-0.463
			c0.126-0.112,0.169-0.198-0.011-0.294c-0.068-0.036-0.125-0.093-0.185-0.142c-0.082-0.066-0.204-0.121-0.232-0.206
			c-0.03-0.087,0.108-0.143,0.17-0.215c0.043-0.051,0.062-0.092,0.012-0.146c-0.015-0.016-0.025-0.035-0.038-0.051
			c-0.335-0.431-0.336-0.432-0.773-0.103c-0.157,0.118-0.313,0.238-0.504,0.323c0.195-0.21,0.377-0.434,0.588-0.626
			c0.166-0.151,0.158-0.251-0.026-0.359c-0.018-0.011-0.033-0.027-0.049-0.041c-0.254-0.212-0.255-0.213-0.046-0.464
			c0.044-0.053,0.079-0.094,0.023-0.163c-0.127-0.158-0.219-0.389-0.383-0.463c-0.167-0.075-0.311-0.166-0.453-0.271
			c-0.04-0.029-0.082-0.055-0.115-0.09c-0.081-0.088-0.238-0.12-0.256-0.238c-0.017-0.11,0.127-0.171,0.186-0.266
			c0.052-0.082,0.042-0.118-0.016-0.175c-0.105-0.104-0.206-0.214-0.308-0.32c-0.002-0.111,0.091-0.15,0.16-0.204
			c0.278-0.212,0.562-0.417,0.827-0.644c0.359-0.256,0.69-0.548,1.05-0.803c0.054-0.037,0.109-0.072,0.172-0.091
			c0.384-0.288,0.772-0.569,1.149-0.864c0.115-0.09,0.184-0.088,0.282,0.013c0.133,0.136,0.274,0.269,0.426,0.381
			c0.14,0.104,0.106,0.166,0.001,0.272c-0.57,0.579-1.132,1.167-1.696,1.751c-0.017,0.087-0.099,0.129-0.136,0.203
			c-0.032,0.048-0.069,0.091-0.115,0.125c-0.124,0.09-0.241,0.185-0.307,0.329c-0.065,0.113-0.15,0.205-0.273,0.256
			c-0.05,0.014-0.06,0.071-0.107,0.1c0.046-0.023,0.058-0.068,0.093-0.09c0.346-0.207,0.66-0.458,0.992-0.684
			C23.04,24.001,23.089,23.969,23.151,23.966z"/>
		<path fill-rule="evenodd" clip-rule="evenodd" fill="#241F20" d="M33.247,25.138c-0.071-0.188-0.136-0.378-0.217-0.562
			c-0.042-0.098-0.042-0.158,0.068-0.192c0.006-0.002,0.011-0.008,0.018-0.012c0.21-0.112,0.412-0.281,0.636-0.319
			c0.251-0.044,0.288,0.312,0.499,0.399c0.005-0.007,0.019-0.021,0.016-0.026c-0.104-0.237,0.05-0.292,0.23-0.342
			c0.108-0.029,0.208-0.081,0.313-0.122c0.277-0.107,0.277-0.107,0.443,0.153c0.101,0.158,0.163,0.353,0.429,0.178
			c0.15-0.099,0.364-0.095,0.541-0.162c0.141-0.054,0.195,0,0.257,0.114c0.126,0.235,0.269,0.461,0.4,0.693
			c0.046,0.081,0.086,0.13,0.195,0.093c0.098-0.033,0.208-0.034,0.311-0.051c0.3-0.047,0.303-0.049,0.356,0.228
			c0.062,0.317,0.118,0.634,0.175,0.952c0.017,0.092,0.005,0.183-0.112,0.179c-0.323-0.009-0.57,0.182-0.839,0.311
			c-0.093,0.045-0.154,0.07-0.196-0.048c-0.047-0.135-0.126-0.161-0.26-0.102c-0.114,0.05-0.247,0.058-0.362,0.107
			c-0.225,0.095-0.423,0.15-0.531-0.155c-0.023-0.066-0.084-0.083-0.158-0.044c-0.105,0.055-0.218,0.098-0.326,0.147
			c-0.129,0.06-0.256,0.125-0.35-0.053c-0.034-0.064-0.089-0.052-0.146-0.031c-0.079,0.029-0.162,0.047-0.236,0.086
			c-0.349,0.184-0.671,0.188-0.957-0.123c-0.089-0.096-0.133-0.043-0.182,0.049c-0.077,0.146-0.103,0.383-0.247,0.414
			c-0.134,0.028-0.305-0.108-0.457-0.178c-0.453-0.207-0.902-0.421-1.358-0.619c-0.126-0.056-0.139-0.104-0.073-0.215
			c0.103-0.175,0.199-0.355,0.282-0.54c0.048-0.106,0.096-0.107,0.19-0.06c0.232,0.116,0.479,0.324,0.701,0.302
			c0.223-0.023,0.426-0.274,0.631-0.434C33.036,25.073,33.123,25.044,33.247,25.138z"/>
		<path fill-rule="evenodd" clip-rule="evenodd" fill="#94959A" d="M10.487,34.582c-0.01,0.361,0.095,0.7,0.151,1.045
			c0.063,0.384,0.074,0.371-0.311,0.473c-0.2,0.053-0.3,0.028-0.385-0.187c-0.259-0.653-0.548-1.294-0.825-1.941
			c-0.024-0.056-0.03-0.15-0.101-0.141c-0.104,0.013-0.052,0.114-0.053,0.174c-0.003,0.276-0.003,0.552,0.006,0.828
			C8.972,34.947,8.943,35,8.817,35.03c-0.326,0.078-0.325,0.087-0.512-0.203c-0.226-0.347-0.452-0.693-0.672-1.044
			c-0.074-0.12-0.138-0.158-0.265-0.058c-0.103,0.083-0.242,0.12-0.342,0.204c-0.136,0.115-0.212,0.047-0.296-0.054
			c-0.226-0.269-0.451-0.539-0.681-0.804c-0.175-0.202-0.179-0.198,0.025-0.357c0.127-0.099,0.265-0.188,0.379-0.3
			c0.109-0.107,0.159-0.062,0.219,0.042c0.052,0.091,0.113,0.177,0.174,0.263c0.067,0.095,0.13,0.125,0.159-0.025
			c0.028-0.148,0.108-0.222,0.264-0.202c0.021,0.003,0.043,0.001,0.063-0.005c0.396-0.123,0.702-0.039,0.882,0.368
			c0.025,0.056,0.059,0.174,0.155,0.14c0.074-0.027,0.062-0.13,0.071-0.206c0.03-0.238,0.071-0.474,0.091-0.712
			c0.022-0.281,0.257-0.201,0.411-0.255c0.146-0.051,0.188,0.052,0.236,0.161c0.205,0.463,0.415,0.924,0.624,1.386
			c0.018,0.041,0.008,0.111,0.083,0.1c0.062-0.009,0.064-0.074,0.075-0.116c0.054-0.204,0.119-0.408,0.144-0.617
			c0.031-0.263,0.187-0.339,0.419-0.369c0.16-0.021,0.237,0.002,0.298,0.176c0.473,1.339,0.958,2.674,1.445,4.008
			c0.06,0.162,0.061,0.256-0.138,0.294c-0.149,0.029-0.301,0.174-0.432,0.124c-0.124-0.047-0.133-0.25-0.196-0.382
			c-0.284-0.597-0.56-1.199-0.839-1.798C10.622,34.71,10.593,34.621,10.487,34.582z"/>
		<path fill-rule="evenodd" clip-rule="evenodd" fill="#15AA68" d="M17.636,8.972c-0.05-0.068-0.073-0.103-0.1-0.136
			c-0.124-0.155-0.238-0.317-0.374-0.46c-0.12-0.126-0.078-0.184,0.047-0.269c0.878-0.592,1.751-1.191,2.626-1.787
			c0.845-0.576,1.693-1.149,2.536-1.729c0.112-0.078,0.182-0.098,0.275,0.027c0.1,0.136,0.218,0.262,0.346,0.372
			c0.146,0.125,0.104,0.202-0.021,0.312c-0.658,0.588-1.309,1.186-1.964,1.778c-1.152,1.044-2.307,2.085-3.458,3.13
			c-0.367,0.333-0.363,0.337-0.714,0.004c-0.338-0.321-0.337-0.321,0.028-0.622c0.218-0.18,0.434-0.363,0.651-0.543
			C17.552,9.02,17.596,8.997,17.636,8.972z"/>
		<path fill-rule="evenodd" clip-rule="evenodd" fill="#15AA68" d="M15.364,14.67c-0.146-0.128-0.276-0.271-0.437-0.385
			c-0.145-0.103-0.234-0.227-0.029-0.365c0.005-0.077,0.082-0.096,0.119-0.148c0.158-0.213-0.101-0.242-0.159-0.359
			c0.275-0.313,0.616-0.554,0.931-0.823c1.348-1.15,2.704-2.292,4.054-3.439c0.344-0.292,0.339-0.299,0.667,0.017
			c0.005,0.004,0.01,0.01,0.015,0.015c0.33,0.314,0.325,0.309-0.013,0.631c-0.557,0.532-1.107,1.071-1.659,1.608
			c-0.039,0.039-0.07,0.087-0.104,0.131c-0.193,0.274-0.455,0.482-0.69,0.716c-0.158,0.101-0.272,0.25-0.407,0.376
			c-0.062,0.059-0.125,0.116-0.169,0.19c-0.156,0.189-0.328,0.362-0.518,0.518c-0.484,0.377-0.885,0.841-1.327,1.262
			C15.563,14.684,15.487,14.813,15.364,14.67z"/>
		<path fill-rule="evenodd" clip-rule="evenodd" fill="#15AA68" d="M20.563,12.414c-0.266,0.268-0.531,0.534-0.797,0.801
			c-0.054,0.113-0.164,0.18-0.23,0.283c-0.295,0.249-0.549,0.539-0.826,0.806c-0.091,0.085-0.179,0.175-0.266,0.266
			c-0.262,0.25-0.506,0.521-0.776,0.763c-0.406,0.341-0.753,0.742-1.135,1.107c-0.057,0.053-0.107,0.113-0.169,0.159
			c-0.057,0.043-0.117,0.085-0.187,0.019c-0.179-0.136-0.355-0.276-0.539-0.407c-0.095-0.068-0.18-0.123-0.041-0.23
			c0.025-0.02,0.037-0.058,0.051-0.09c0.05-0.112,0.257-0.138,0.208-0.279c-0.038-0.108-0.168-0.184-0.256-0.275
			c-0.009-0.009-0.011-0.025-0.017-0.038c0.085-0.191,0.275-0.278,0.422-0.406c0.494-0.432,1.019-0.828,1.504-1.27
			c0.293-0.213,0.557-0.463,0.844-0.685c0.132-0.113,0.278-0.208,0.391-0.341c0.202-0.196,0.433-0.358,0.641-0.547
			c0.042-0.039,0.091-0.067,0.151-0.066c0.176-0.064,0.296-0.207,0.432-0.325c0.086-0.074,0.145-0.081,0.229,0
			c0.138,0.132,0.278,0.262,0.431,0.375c0.135,0.099,0.155,0.178,0.013,0.282C20.61,12.34,20.589,12.381,20.563,12.414z"/>
		<path fill-rule="evenodd" clip-rule="evenodd" fill="#15AA68" d="M24.701,35.813c-0.289,0.125-0.58,0.247-0.866,0.377
			c-0.091,0.042-0.15,0.039-0.215-0.043c-0.139-0.176-0.284-0.347-0.432-0.516c-0.06-0.068-0.053-0.12,0.004-0.182
			c0.096-0.102,0.188-0.208,0.282-0.312c0.047-0.122,0.146-0.205,0.213-0.292c-0.093,0.057-0.167,0.17-0.298,0.2
			c-0.304,0.239-0.612,0.473-0.912,0.716c-0.107,0.086-0.177,0.093-0.279-0.013c-0.167-0.171-0.352-0.323-0.53-0.483
			c-0.056-0.047-0.014-0.092,0.002-0.138c0.301-0.34,0.603-0.68,0.896-1.027c0.146-0.153,0.296-0.302,0.43-0.468
			c0.044-0.055,0.082-0.14,0.183-0.103c0.333,0.229,0.693,0.429,0.898,0.802c0.125,0.001,0.154-0.149,0.265-0.171
			c0.076-0.047,0.114,0.016,0.161,0.055c0.162,0.136,0.323,0.272,0.485,0.409c0.133-0.009,0.236-0.108,0.367-0.123
			c0.553-0.239,1.108-0.472,1.656-0.723c0.154-0.07,0.225-0.038,0.29,0.103c0.067,0.146,0.138,0.294,0.229,0.426
			c0.091,0.13,0.064,0.208-0.066,0.272c-0.221,0.096-0.441,0.193-0.662,0.29c-0.207,0.166-0.442,0.265-0.702,0.311
			c-0.281,0.128-0.562,0.256-0.843,0.384C25.096,35.705,24.905,35.774,24.701,35.813z"/>
		<path fill-rule="evenodd" clip-rule="evenodd" fill="#15AA68" d="M3.82,25.733c-0.029,0.019-0.058,0.038-0.086,0.056
			c-0.309,0.185-0.573,0.429-0.859,0.642c-0.096,0.072-0.15,0.093-0.239-0.007c-0.135-0.152-0.29-0.287-0.435-0.43
			c-0.042-0.042-0.107-0.077-0.075-0.157c0.618-0.63,1.238-1.258,1.854-1.89c0.449-0.46,0.896-0.923,1.339-1.389
			c0.074-0.077,0.118-0.087,0.206-0.015c0.144,0.118,0.274,0.336,0.445,0.319c0.156-0.015,0.295-0.201,0.441-0.312
			c0.163-0.124,0.331-0.243,0.487-0.375c0.085-0.072,0.139-0.091,0.222,0.007c0.137,0.162,0.286,0.312,0.436,0.463
			c0.087,0.086,0.073,0.13-0.025,0.205c-1.173,0.896-2.343,1.795-3.511,2.696C3.947,25.603,3.863,25.647,3.82,25.733z"/>
		<path fill-rule="evenodd" clip-rule="evenodd" fill="#15AA68" d="M11.838,28.223c0.134-0.097,0.244-0.217,0.347-0.344
			c0.008-0.086,0.077-0.133,0.13-0.187c0.875-0.877,1.75-1.752,2.627-2.627c0.054-0.054,0.098-0.123,0.187-0.129
			c0.335,0.301,0.671,0.601,1.007,0.901c0.051,0.08-0.02,0.108-0.065,0.145c-1.158,0.951-2.318,1.9-3.475,2.853
			c-0.099,0.082-0.159,0.081-0.244-0.015c-0.137-0.152-0.288-0.292-0.433-0.437C11.875,28.339,11.82,28.299,11.838,28.223z"/>
		<path fill-rule="evenodd" clip-rule="evenodd" fill="#15AA68" d="M14.088,30.126c-0.294,0.228-0.292,0.226-0.554-0.06
			c-0.103-0.112-0.216-0.213-0.325-0.319c-0.044-0.054-0.064-0.109-0.01-0.167c0.202-0.297,0.458-0.536,0.76-0.729
			c0.26-0.248,0.524-0.492,0.781-0.743c0.571-0.557,1.138-1.117,1.707-1.676c0.281,0.267,0.562,0.535,0.842,0.802
			c0.144,0.086,0.08,0.176-0.003,0.255c-0.164,0.155-0.344,0.292-0.518,0.437c-0.831,0.69-1.651,1.393-2.486,2.078
			C14.224,30.051,14.172,30.116,14.088,30.126z"/>
		<path fill-rule="evenodd" clip-rule="evenodd" fill="#241F20" d="M38.466,24.136c-0.114-0.05-0.243-0.105-0.371-0.163
			c-0.141-0.062-0.351-0.092-0.402-0.199c-0.06-0.124,0.074-0.303,0.159-0.429c0.293-0.437,0.225-0.883,0.089-1.344
			c-0.049-0.17-0.107-0.34-0.047-0.534c0.075-0.242,0.196-0.42,0.428-0.53c0.244-0.116,0.402-0.307,0.484-0.571
			c0.071-0.227,0.178-0.441,0.263-0.664c0.038-0.099,0.087-0.146,0.196-0.104c0.223,0.083,0.445,0.17,0.673,0.237
			c0.103,0.03,0.095,0.065,0.064,0.144c-0.145,0.372-0.291,0.744-0.424,1.12c-0.059,0.166-0.211,0.223-0.33,0.313
			c-0.37,0.282-0.41,0.289-0.261,0.712c0.174,0.496,0.126,0.931-0.15,1.366c-0.104,0.165-0.163,0.357-0.251,0.532
			C38.565,24.065,38.562,24.141,38.466,24.136z"/>
		<path fill-rule="evenodd" clip-rule="evenodd" fill="#242020" d="M27.674,30.207c0.047-0.078,0.144-0.113,0.174-0.205
			c0.07-0.03,0.13-0.052,0.207,0.01c0.191,0.155,0.389,0.304,0.594,0.439c0.092,0.061,0.075,0.103,0.029,0.177
			c-0.114,0.185-0.222,0.374-0.332,0.562c-0.035,0.061-0.06,0.119-0.157,0.087c-0.365-0.118-0.732-0.228-1.098-0.341
			c-0.015-0.005-0.024-0.029-0.036-0.044c0.015-0.062,0.072-0.088,0.11-0.132c0.062-0.092,0.19-0.128,0.219-0.25
			C27.465,30.394,27.572,30.302,27.674,30.207z"/>
		<path fill-rule="evenodd" clip-rule="evenodd" fill="#242020" d="M19.537,11.984c-0.257,0.217-0.514,0.433-0.771,0.649
			c-0.296-0.035-0.531-0.186-0.731-0.397c0.229-0.237,0.455-0.478,0.713-0.685c0.22,0.104,0.442,0.208,0.661,0.316
			C19.46,11.893,19.537,11.899,19.537,11.984z"/>
		<path fill-rule="evenodd" clip-rule="evenodd" fill="#94959A" d="M13.96,28.85c-0.253,0.243-0.507,0.486-0.76,0.729
			c0-0.133-0.002-0.266-0.001-0.398c0.003-0.312,0.004-0.315,0.321-0.33C13.666,28.845,13.813,28.85,13.96,28.85z"/>
		<path fill-rule="evenodd" clip-rule="evenodd" fill="#15AA68" d="M6.984,25.715c-0.202,0.172-0.41,0.339-0.606,0.516
			c-0.081,0.072-0.131,0.072-0.209-0.004c-0.184-0.181-0.379-0.352-0.57-0.526c-0.011-0.069,0.042-0.1,0.081-0.14
			c1.035-1.064,2.073-2.125,3.102-3.194c0.122-0.126,0.208-0.137,0.315-0.015c0.145,0.165,0.261,0.142,0.41-0.011
			c0.182-0.186,0.393-0.344,0.591-0.514c0.188,0.193,0.376,0.386,0.564,0.579c0.163,0.089,0.068,0.173-0.013,0.242
			c-0.3,0.258-0.604,0.51-0.904,0.768c-0.719,0.615-1.442,1.224-2.161,1.838C7.394,25.418,7.222,25.61,6.984,25.715z"/>
		<path fill-rule="evenodd" clip-rule="evenodd" fill="#15AA68" d="M20.465,13.98c0.153,0.205,0.356,0.358,0.547,0.524
			c0.091,0.079,0.074,0.123-0.001,0.194c-0.173,0.166-0.337,0.338-0.506,0.508c-0.013,0.062-0.069,0.072-0.115,0.093
			c-0.315,0.309-0.631,0.617-0.947,0.925c-0.038,0.155-0.185,0.222-0.273,0.337c-0.244,0.254-0.534,0.458-0.766,0.724
			c-0.34,0.366-0.734,0.676-1.082,1.034c-0.065,0.066-0.143,0.186-0.251,0.041c-0.187-0.209-0.435-0.357-0.601-0.587
			c0.013-0.092,0.098-0.145,0.124-0.229c-0.019-0.131-0.154-0.176-0.208-0.281c0.015-0.103,0.098-0.15,0.169-0.207
			c0.556-0.446,1.1-0.906,1.656-1.351c0.033-0.027,0.062-0.058,0.087-0.092c0.292-0.267,0.602-0.512,0.913-0.755
			c0.098-0.061,0.198-0.118,0.261-0.22c0.243-0.2,0.483-0.404,0.728-0.601C20.276,13.979,20.358,13.912,20.465,13.98z"/>
		<path fill-rule="evenodd" clip-rule="evenodd" fill="#15AA68" d="M20.904,18.593c0.381-0.243,0.724-0.539,1.083-0.812
			c0.1-0.076,0.157-0.082,0.242,0.014c0.156,0.173,0.32,0.339,0.491,0.498c0.08,0.073,0.068,0.112-0.004,0.179
			c-0.245,0.224-0.483,0.454-0.724,0.682c-0.034,0.151-0.199,0.182-0.273,0.296c-0.541,0.553-1.121,1.065-1.667,1.612
			c-0.291,0.245-0.576,0.497-0.844,0.767c-0.063,0.063-0.121,0.172-0.245,0.099c-0.175-0.17-0.35-0.343-0.528-0.512
			c-0.063-0.06-0.107-0.114-0.011-0.181c0.182-0.128,0.126-0.244-0.013-0.366c-0.066-0.059-0.139-0.12-0.171-0.209
			c0.132-0.219,0.368-0.319,0.552-0.478c0.223-0.192,0.48-0.344,0.683-0.561c0.36-0.21,0.658-0.507,1.004-0.736
			C20.635,18.808,20.733,18.647,20.904,18.593z"/>
		<path fill-rule="evenodd" clip-rule="evenodd" fill="#15AA68" d="M20.273,16.637c0.241-0.189,0.484-0.375,0.721-0.569
			c0.124-0.101,0.229-0.119,0.343,0.013c0.073,0.085,0.161,0.158,0.242,0.235c0.293,0.274,0.293,0.273-0.004,0.557
			c-0.106,0.102-0.21,0.207-0.315,0.311c-0.015,0.05-0.035,0.095-0.095,0.105c-0.342,0.288-0.648,0.614-0.962,0.931
			c-0.118,0.18-0.296,0.304-0.437,0.465c-0.244,0.239-0.484,0.481-0.724,0.725c-0.258,0.277-0.55,0.52-0.826,0.777
			c-0.056,0.052-0.118,0.173-0.215,0.039c-0.21-0.193-0.419-0.387-0.629-0.581c0.042-0.146,0.224-0.188,0.253-0.343
			c-0.087-0.112-0.174-0.225-0.26-0.337c0.052-0.153,0.198-0.211,0.309-0.301c0.452-0.367,0.922-0.711,1.361-1.092
			c0.288-0.228,0.545-0.492,0.856-0.691C20.037,16.827,20.128,16.689,20.273,16.637z"/>
		<path fill-rule="evenodd" clip-rule="evenodd" fill="#15AA68" d="M22.954,19.653c0.138-0.117,0.231-0.05,0.336,0.062
			c0.122,0.132,0.258,0.253,0.402,0.36c0.118,0.088,0.121,0.147,0.015,0.245c-0.518,0.479-1.032,0.961-1.546,1.444
			c-0.051,0.047-0.096,0.102-0.143,0.153c-0.04,0.1-0.131,0.159-0.189,0.245c-0.28,0.257-0.563,0.512-0.845,0.77
			c-0.278,0.207-0.481,0.497-0.768,0.695c-0.051,0.035-0.085,0.133-0.176,0.062c-0.045-0.062-0.091-0.124-0.136-0.185
			c-0.108-0.201-0.212-0.405-0.344-0.592c-0.007-0.021-0.003-0.04,0.01-0.056c-0.034-0.167-0.229-0.229-0.258-0.398
			c0.04-0.114,0.146-0.164,0.232-0.229c0.385-0.292,0.771-0.583,1.15-0.881c0.679-0.524,1.361-1.042,2.043-1.561
			C22.805,19.737,22.885,19.704,22.954,19.653z"/>
		<path fill-rule="evenodd" clip-rule="evenodd" fill="#15AA68" d="M12.687,23.537c0.035,0.125-0.079,0.156-0.143,0.207
			c-1.029,0.815-2.062,1.626-3.093,2.439c-0.071,0.056-0.152,0.103-0.195,0.189c-0.031,0.017-0.066,0.029-0.093,0.05
			c-0.245,0.196-0.244,0.196-0.469-0.021c-0.132-0.127-0.26-0.259-0.414-0.361c-0.026-0.098,0.054-0.139,0.105-0.191
			c0.913-0.938,1.827-1.874,2.74-2.812c0.189-0.194,0.188-0.195,0.399-0.008c0.031,0.028,0.068,0.049,0.102,0.074
			c0.014,0.066,0.061,0.068,0.113,0.058c0.09-0.018,0.135-0.109,0.219-0.138c0.045-0.027,0.066-0.095,0.135-0.083
			C12.32,23.112,12.477,23.351,12.687,23.537z"/>
		<path fill-rule="evenodd" clip-rule="evenodd" fill="#15AA68" d="M10.438,26.894c0.466-0.441,0.935-0.88,1.399-1.323
			c0.45-0.428,0.897-0.859,1.343-1.292c0.055-0.053,0.103-0.094,0.181-0.06c0.023,0.041,0.051,0.076,0.098,0.089
			c0.146,0.032,0.159-0.154,0.276-0.171c0.085-0.118,0.157-0.114,0.257-0.002c0.148,0.167,0.318,0.316,0.478,0.473
			c0.155,0.107,0.036,0.177-0.039,0.242c-0.327,0.279-0.658,0.554-0.989,0.828c-0.592,0.489-1.178,0.985-1.766,1.479
			c-0.08,0.067-0.155,0.145-0.263,0.17c-0.125,0.103-0.253,0.203-0.375,0.309c-0.076,0.064-0.131,0.069-0.218,0.002
			c-0.136-0.103-0.257-0.218-0.377-0.337C10.228,27.086,10.228,27.086,10.438,26.894z"/>
		<path fill-rule="evenodd" clip-rule="evenodd" fill="#15AA68" d="M15.618,31.066c-0.354,0.276-0.354,0.276-0.694-0.043
			c-0.046-0.044-0.097-0.082-0.145-0.123c-0.221-0.071-0.255-0.167-0.115-0.333c0.049-0.058,0.098-0.117,0.153-0.169
			c0.221-0.184,0.408-0.403,0.618-0.599c0.136-0.09,0.247-0.208,0.361-0.322c0.542-0.541,1.076-1.09,1.645-1.603
			c0.052-0.046,0.095-0.107,0.177-0.1c0.284,0.248,0.568,0.496,0.852,0.743c0.142,0.06,0.092,0.131,0.013,0.204
			c-0.213,0.196-0.441,0.375-0.664,0.561c-0.662,0.552-1.327,1.101-1.986,1.655C15.769,30.992,15.707,31.052,15.618,31.066z"/>
		<path fill-rule="evenodd" clip-rule="evenodd" fill="#15AA68" d="M17.009,32.121c-0.322,0.218-0.322,0.218-0.609-0.055
			c-0.086-0.082-0.174-0.159-0.262-0.238c-0.211-0.113-0.06-0.217,0.008-0.323c0.223-0.223,0.455-0.437,0.656-0.682
			c0.383-0.41,0.794-0.792,1.171-1.208c0.196-0.217,0.377-0.451,0.634-0.605c0.351,0.134,0.653,0.333,0.879,0.637
			c0.049,0.066,0.114,0.122,0.171,0.181c0.059,0.096-0.018,0.144-0.074,0.19c-0.628,0.522-1.251,1.051-1.884,1.567
			c-0.037,0.032-0.072,0.066-0.107,0.101C17.391,31.823,17.242,32.028,17.009,32.121z"/>
		<path fill-rule="evenodd" clip-rule="evenodd" fill="#15AA68" d="M18.33,33.109c-0.354,0.264-0.353,0.264-0.679-0.049
			c-0.076-0.073-0.153-0.145-0.23-0.216c-0.141-0.041-0.152-0.125-0.077-0.235c0.031-0.046,0.073-0.084,0.112-0.124
			c0.291-0.282,0.574-0.571,0.86-0.858c0.377-0.372,0.749-0.749,1.124-1.122c0.064-0.064,0.122-0.139,0.215-0.167
			c0.397,0.206,0.702,0.522,1,0.846c0.04,0.11,0.04,0.131-0.07,0.223c-0.179,0.148-0.365,0.289-0.55,0.43
			c-0.235,0.18-0.474,0.355-0.696,0.551c-0.177,0.126-0.338,0.274-0.519,0.396C18.649,32.883,18.534,33.063,18.33,33.109z"/>
		<path fill-rule="evenodd" clip-rule="evenodd" fill="#15AA68" d="M19.817,33.945c-0.136,0.098-0.278,0.188-0.407,0.294
			c-0.098,0.081-0.159,0.067-0.242-0.022c-0.151-0.165-0.317-0.316-0.478-0.473c-0.141-0.075-0.062-0.155-0.005-0.234
			c0.318-0.314,0.634-0.631,0.949-0.95c0.272-0.267,0.538-0.542,0.811-0.808c0.084-0.082,0.163-0.179,0.297-0.184
			c0.181,0.215,0.49,0.284,0.63,0.547c0.078,0.146,0.163,0.287,0.318,0.365c0.052,0.11-0.042,0.148-0.103,0.196
			c-0.21,0.165-0.44,0.305-0.639,0.486c-0.216,0.153-0.434,0.303-0.64,0.468C20.138,33.726,20.018,33.899,19.817,33.945z"/>
		<path fill-rule="evenodd" clip-rule="evenodd" fill="#15AA68" d="M21.4,34.793c-0.137,0.097-0.28,0.188-0.411,0.293
			c-0.106,0.084-0.178,0.089-0.28-0.017c-0.154-0.163-0.304-0.333-0.494-0.457c-0.099-0.033-0.051-0.088-0.021-0.141
			c0.293-0.339,0.605-0.66,0.925-0.974c0.27-0.252,0.51-0.535,0.794-0.772c0.407,0.191,0.729,0.487,1.009,0.832
			c0.118,0.078,0.026,0.13-0.028,0.175c-0.157,0.131-0.335,0.234-0.491,0.368c-0.224,0.174-0.45,0.346-0.687,0.503
			C21.608,34.662,21.527,34.766,21.4,34.793z"/>
		<path fill-rule="evenodd" clip-rule="evenodd" fill="#8FBF66" d="M19.492,23.164c0.17,0.065,0.272,0.209,0.388,0.337
			C19.702,23.443,19.601,23.298,19.492,23.164z"/>
		<path fill-rule="evenodd" clip-rule="evenodd" fill="#56B680" d="M19.574,22.91c-0.015,0.076-0.15,0.09-0.103,0.198
			c-0.092,0.001-0.094-0.055-0.054-0.108c0.041-0.055,0.101-0.097,0.151-0.144C19.57,22.875,19.572,22.893,19.574,22.91z"/>
		<path fill-rule="evenodd" clip-rule="evenodd" fill="#5FB46C" d="M23.603,29.948c0.017,0.018,0.034,0.035,0.05,0.052
			c-0.049,0.061-0.108,0.104-0.213,0.126C23.488,30.038,23.539,29.988,23.603,29.948z"/>
		<path fill-rule="evenodd" clip-rule="evenodd" fill="#241F20" d="M19.518,13.457c0.33,0.162,0.659,0.325,0.989,0.488
			c-0.014,0.012-0.028,0.023-0.041,0.036c-0.142-0.01-0.225,0.09-0.321,0.17c-0.212,0.175-0.426,0.348-0.64,0.521
			c-0.065,0.036-0.125,0.004-0.175-0.028c-0.211-0.134-0.482-0.17-0.647-0.382C18.967,14,19.214,13.7,19.518,13.457z"/>
		<path fill-rule="evenodd" clip-rule="evenodd" fill="#242020" d="M21.807,22.121c0.243,0.08,0.484,0.16,0.727,0.241
			c-0.345,0.274-0.684,0.556-1.05,0.804c-0.171-0.089-0.342-0.178-0.514-0.268C21.24,22.628,21.514,22.364,21.807,22.121z"/>
		<path fill-rule="evenodd" clip-rule="evenodd" fill="#262524" d="M22.68,23.981c0.124-0.022,0.22,0.067,0.334,0.082
			c-0.297,0.213-0.595,0.427-0.894,0.638c-0.032,0.022-0.079,0.022-0.119,0.033c-0.027-0.017-0.027-0.032,0.001-0.047
			c0.1-0.062,0.172-0.154,0.247-0.242c0.078-0.142,0.211-0.234,0.321-0.348C22.607,24.059,22.643,24.021,22.68,23.981z"/>
		<path fill-rule="evenodd" clip-rule="evenodd" fill="#242021" d="M17.537,13.657c-0.163-0.087-0.325-0.175-0.488-0.261
			c-0.041-0.021-0.096-0.027-0.077-0.096c0.176-0.153,0.354-0.305,0.481-0.504c0.07-0.038,0.117-0.103,0.178-0.151
			c0.035-0.034,0.078-0.039,0.119-0.021c0.22,0.097,0.469,0.14,0.634,0.339C18.109,13.204,17.834,13.445,17.537,13.657z"/>
		<path fill-rule="evenodd" clip-rule="evenodd" fill="#242020" d="M18.331,15.643c-0.225-0.12-0.449-0.239-0.675-0.358
			c0.251-0.25,0.502-0.499,0.753-0.748c0.29,0.018,0.539,0.156,0.796,0.269c0.032,0.014,0.052,0.046,0.034,0.087
			C18.937,15.144,18.634,15.393,18.331,15.643z"/>
		<path fill-rule="evenodd" clip-rule="evenodd" fill="#94959A" d="M21.699,35.145c-0.002-0.187-0.004-0.375-0.006-0.562
			c0.208-0.183,0.434-0.342,0.663-0.498c0.076,0.053,0.166,0.012,0.246,0.033C22.32,34.478,22.022,34.822,21.699,35.145z"/>
		<path fill-rule="evenodd" clip-rule="evenodd" fill="#242020" d="M19.146,16.523c0.234,0.09,0.468,0.179,0.701,0.27
			c0.053,0.021,0.137,0.029,0.068,0.122c-0.286,0.229-0.57,0.459-0.855,0.689c-0.225-0.118-0.45-0.235-0.674-0.353
			C18.626,16.994,18.88,16.751,19.146,16.523z"/>
		<path fill-rule="evenodd" clip-rule="evenodd" fill="#242021" d="M19.748,18.654c0.247,0.088,0.493,0.177,0.739,0.265
			c-0.317,0.259-0.629,0.526-0.982,0.737c-0.164-0.091-0.328-0.182-0.491-0.272C19.258,19.142,19.502,18.898,19.748,18.654z"/>
		<path fill-rule="evenodd" clip-rule="evenodd" fill="#94959A" d="M14.839,30.424c0.024-0.15,0.021-0.303,0.043-0.455
			c0.02-0.13,0.07-0.161,0.186-0.153c0.132,0.009,0.264,0.008,0.396,0.011C15.266,30.036,15.079,30.258,14.839,30.424z"/>
		<path fill-rule="evenodd" clip-rule="evenodd" fill="#94959A" d="M17.486,32.506c0.028-0.284,0.057-0.568,0.086-0.851
			c0.025-0.024,0.051-0.049,0.077-0.073c0.154,0.059,0.314,0.014,0.47,0.029c0.075,0.006,0.154-0.017,0.217,0.043
			C18.067,31.953,17.787,32.239,17.486,32.506z"/>
		<path fill-rule="evenodd" clip-rule="evenodd" fill="#939599" d="M16.178,31.529c0.012-0.188,0.025-0.376,0.036-0.564
			c0.005-0.091,0.058-0.119,0.14-0.118c0.154,0.003,0.309,0.004,0.464,0.007C16.635,31.107,16.404,31.315,16.178,31.529z"/>
		<path fill-rule="evenodd" clip-rule="evenodd" fill="#94959A" d="M18.728,33.519c0.024-0.253,0.048-0.506,0.071-0.759
			c0.159-0.145,0.321-0.285,0.51-0.391c0.16,0.004,0.352-0.043,0.356,0.216C19.369,32.912,19.052,33.219,18.728,33.519z"/>
		<path fill-rule="evenodd" clip-rule="evenodd" fill="#94959A" d="M20.213,34.488c0.025-0.296,0.05-0.592,0.075-0.887
			c0.188-0.19,0.411-0.334,0.64-0.468c0.124-0.004,0.129,0.097,0.161,0.178c0.028,0.07-0.004,0.153,0.053,0.215
			C20.833,33.846,20.523,34.167,20.213,34.488z"/>
	</g>
</g>
</svg>
