<?xml version="1.0" encoding="utf-8"?>
<!-- Generator: Adobe Illustrator 16.0.0, SVG Export Plug-In . SVG Version: 6.00 Build 0)  -->
<!DOCTYPE svg PUBLIC "-//W3C//DTD SVG 1.1//EN" "http://www.w3.org/Graphics/SVG/1.1/DTD/svg11.dtd">
<svg version="1.1" xmlns="http://www.w3.org/2000/svg" xmlns:xlink="http://www.w3.org/1999/xlink" x="0px" y="0px" width="47.52px"
	 height="46.289px" viewBox="0 0 47.52 46.289" enable-background="new 0 0 47.52 46.289" xml:space="preserve">
<g id="logoTecsia" display="none">
	<g display="inline">
		<circle fill-rule="evenodd" clip-rule="evenodd" fill="#ADC90E" cx="-84.297" cy="23.145" r="22.442"/>
		<path fill="#13110C" d="M-98.869,11.663c0.033,0.561,0.022,0.816,0.064,1.094s0.259,0.496,0.583,0.784
			c0.323,0.287,0.485,0.43,0.492,0.558c0.008,0.127-0.312,0.759-0.349,1.017c-0.036,0.257,0.122,0.324,0.159,0.526
			s0.069,0.303,0.192,0.652c0.123,0.351,0.073,1.248,0.094,1.604c0.021,0.356,0.104,0.479,0.212,0.574s0.175-0.061,0.205,0.013
			c0.031,0.076,0.093,0.276,0.175,0.373c0.083,0.097,0.286,0.085,0.514,0.047c0.228-0.04,0.37-0.226,0.338-0.327
			c-0.031-0.1-0.219-0.243-0.253-0.394c-0.034-0.151-0.07-0.328-0.134-0.553c-0.064-0.227,0.027-0.845-0.019-1.174
			c-0.044-0.33,0.012-0.665,0.243-1.087c0.23-0.422,0.531-0.951,0.531-0.951s-0.042,0.59-0.058,0.744
			c-0.016,0.154,0.168,0.271,0.273,0.316c0.105,0.044,0.278,0.392,0.397,0.666c0.118,0.274,0.375,0.718,0.546,1.04
			c0.172,0.322,0.341,0.593,0.448,0.663c0.105,0.07,0.201-0.037,0.201-0.037s0.27,0.239,0.351,0.312
			c0.081,0.072,0.335,0.057,0.512,0.021c0.176-0.036,0.347-0.173,0.312-0.35c-0.036-0.177-0.58-0.298-0.719-0.494
			c-0.14-0.196-0.258-0.47-0.322-0.696c-0.064-0.226-0.241-0.625-0.338-0.977c-0.098-0.352-0.006-0.536,0.06-0.718
			c0.066-0.183-0.007-0.562,0.018-0.997c0.025-0.436,0.196-1.007,0.196-1.007s0.72,0.085,1.064,0.295
			c0.345,0.209,0.711,0.366,0.967,0.376c0.256,0.01,0.141-0.213,0.132-0.365c-0.009-0.153,0.142-0.187,0.365-0.302
			c0.223-0.115,0.506-0.081,0.864-0.076s1.024,0.042,1.382,0.046c0.357,0.004,1.118,0.343,1.222,0.363
			c0.103,0.02,0.151,0.399,0.219,0.702c0.07,0.302,0.281,0.417,0.259,0.495c-0.021,0.078,0.111,0.581,0.2,0.806
			c0.09,0.225-0.051,0.412-0.089,0.644c-0.038,0.232,0.075,0.404,0.16,0.553c0.085,0.148,0.223-0.116,0.223-0.116
			s-0.009,0.282,0.026,0.433c0.034,0.151,0.16,0.118,0.244,0.241c0.084,0.123,0.301-0.094,0.301-0.094s0.073-0.056,0.109,0.121
			c0.037,0.176,0.071,0.328,0.234,0.497c0.164,0.169,0.149-0.06,0.183,0.066c0.033,0.126,0.312,0.083,0.491,0.098
			c0.18,0.015,0.435,0.025,0.53-0.107c0.094-0.133-0.218-0.243-0.335-0.491c-0.117-0.249-0.246-0.701-0.34-1.002
			c-0.094-0.301-0.099-0.811-0.118-1.142c-0.02-0.331,0.293-1.09,0.293-1.09s0.335,0.057,0.52,0.148
			c0.184,0.091,0.392,0.156,0.522,0.199c0.13,0.043,0.303,0.365,0.441,0.562c0.139,0.196,0.236,0.114,0.217,0.217
			c-0.019,0.103,0.372,0.258,0.612,0.423c0.24,0.165,0.786,0.337,0.941,0.379c0.156,0.042,0.31,0.058,0.506-0.081
			c0.196-0.14,0.52-0.286,0.588-0.418s-0.259-0.495-0.351-0.745c-0.09-0.25-0.146-0.758-0.165-1.063
			c-0.018-0.305,0.195-0.598,0.316-0.708c0.122-0.109,0.265,0.163,0.443,0.153c0.179-0.011,0.328-0.07,0.479-0.105
			c0.151-0.035,0.369,0.208,0.369,0.208s-0.16-0.552-0.194-0.703c-0.034-0.151-0.334-0.466-0.549-0.658
			c-0.216-0.192-0.562-0.426-0.562-0.426s-0.199-0.347-0.413-0.512c-0.214-0.166-0.666-0.905-1.075-1.341
			c-0.409-0.436-1.539-1.416-2.039-1.667c-0.5-0.252-2.027-1.03-5.003-1.264c-2.976-0.233-3.404-0.132-4.814,0.207
			c-1.41,0.338-2.019,0.907-2.557,1.249c-0.222,0.14-0.531,0.516-0.656,0.575c-0.124,0.058-0.559,0.058-0.838,0.075
			c-0.28,0.016-0.448,0.205-0.539,0.389c-0.092,0.184,0.042,0.278,0.179,0.449c0.138,0.171,0.55,0.223,0.556,0.325
			c0.006,0.102-0.066,0.183-0.174,0.521C-98.702,10.58-98.901,11.103-98.869,11.663z M-98.564,9.015
			c-0.108-0.096-0.006-0.102,0.093-0.159c0.099-0.056,0.501-0.157,0.501-0.157s-0.162,0.291-0.286,0.349
			C-98.349,9.09-98.457,9.11-98.564,9.015z"/>
		<path fill="#13110C" d="M-85.754,5.727c0.016,0.114,0.139,0.122,0.171,0.139c0.033,0.016,0.163,0.016,0.188,0.041
			c0.025,0.024-0.139,0.049-0.155,0.074c-0.016,0.024,0.041,0.016,0.074,0.033c0.033,0.016,0.154,0.073,0.154,0.073
			s-0.016,0.074,0,0.098c0.016,0.025-0.024,0.058-0.048,0.098c-0.025,0.041,0.032,0.065,0.032,0.065s-0.008,0.09,0.025,0.139
			c0.032,0.049,0.082,0.016,0.171,0.033c0.089,0.016,0.146,0.057,0.146,0.057s-0.008,0.049-0.025,0.098
			c-0.016,0.049,0.033,0.058,0.057,0.098c0.025,0.041,0.245,0.082,0.393,0.098c0.146,0.016,0.367,0.098,0.367,0.098
			s-0.082,0.024-0.155,0.024c-0.075,0-0.156-0.041-0.196,0.065c-0.041,0.106,0.18,0.073,0.18,0.073l-0.106,0.082
			c0,0,0.073,0.058,0.138,0.074s0.146,0,0.293,0.008c0.146,0.008,0.27-0.016,0.409-0.008c0.139,0.008,0.17,0.041,0.277,0.073
			c0.106,0.033,0.204,0.017,0.31-0.008c0.106-0.024,0.188-0.016,0.237,0.008c0.049,0.025,0.064,0.139,0.024,0.18
			c-0.041,0.041-0.033,0.212-0.049,0.334c-0.016,0.122,0.025,0.188,0.123,0.196c0.098,0.008,0.147,0.196,0.212,0.327
			c0.065,0.13,0.163,0.155,0.245,0.163c0.082,0.009,0.146,0.204,0.212,0.36c0.066,0.155,0.139,0.04,0.302,0.089
			c0.163,0.049,0.277,0.041,0.375,0.114c0.098,0.073,0.18,0.131,0.22,0.171c0.041,0.041,0.179,0.326,0.245,0.522
			c0.065,0.196,0.065,0.294,0.049,0.368c-0.017,0.073-0.009,0.155-0.066,0.228c-0.057,0.074-0.163,0.123-0.154,0.156
			c0.008,0.033,0.138,0,0.22-0.025c0.082-0.024,0.146-0.008,0.212-0.008c0.065,0,0.138,0.065,0.196,0.082
			c0.056,0.017,0.195,0.09,0.236,0.114c0.041,0.025,0.065-0.008,0.057-0.073c-0.007-0.065-0.057-0.106-0.057-0.106
			s0.205,0.041,0.286,0.049c0.082,0.009,0.236,0.017,0.211,0.017c-0.023,0-0.105,0.106-0.065,0.123
			c0.042,0.017,0.18,0.033,0.261,0.008c0.082-0.024,0.236,0.017,0.334,0.033s0.114,0.049,0.286,0.065
			c0.171,0.016,0.31,0.074,0.417,0.082c0.106,0.008,0.188,0.058,0.22,0.058c0.033,0,0.024-0.09-0.032-0.139
			c-0.058-0.049-0.246-0.089-0.246-0.089s0.327-0.025,0.425-0.025s0.106-0.057,0.139-0.09c0.032-0.032,0.065,0.049,0.097,0.049
			c0.034,0,0.058-0.008,0.041-0.049c-0.016-0.041-0.106-0.073-0.179-0.081c-0.074-0.009-0.18,0.016-0.335,0.024
			c-0.155,0.008-0.383-0.008-0.383-0.008s-0.024-0.049-0.066-0.089c-0.041-0.041-0.105,0.041-0.171,0.032s-0.245-0.261-0.351-0.408
			c-0.106-0.147-0.252-0.351-0.277-0.448c-0.024-0.099,0.049-0.212,0.115-0.286c0.064-0.073,0.334-0.22,0.546-0.334
			c0.211-0.114,0.449-0.261,0.604-0.343c0.155-0.081,0.171-0.008,0.277,0.016c0.106,0.025,0.164-0.016,0.253-0.122
			c0.089-0.106,0.211-0.359,0.318-0.571c0.105-0.212,0.277-0.53,0.326-0.776c0.05-0.244,0-0.506-0.032-0.693
			c-0.033-0.188-0.269-0.742-0.343-0.921c-0.073-0.18-0.196-0.408-0.245-0.531c-0.049-0.123-0.114-0.229-0.114-0.229
			s0.13,0.024,0.179,0.024c0.048,0,0.171-0.163,0.22-0.252c0.049-0.09,0.008-0.294,0.008-0.294s0.081,0,0.146,0.024
			c0.065,0.025,0.171,0.041,0.188,0.017c0.016-0.024-0.024-0.131-0.074-0.204c-0.049-0.073-0.123-0.073-0.123-0.073
			s-0.008-0.058,0-0.09c0.008-0.032-0.033-0.098-0.049-0.204c-0.017-0.106-0.065-0.188-0.106-0.196
			c-0.04-0.008-0.064-0.212-0.09-0.22c-0.023-0.008-0.048,0.171-0.073,0.163c-0.024-0.008-0.073-0.343-0.105-0.335
			c-0.032,0.008-0.049,0.204-0.073,0.221c-0.025,0.017-0.049-0.326-0.074-0.326s-0.041,0.261-0.09,0.261s-0.073-0.253-0.098-0.253
			c-0.025,0-0.041,0.179-0.082,0.179c-0.041,0-0.082-0.082-0.155-0.041c-0.073,0.041-0.057,0.196,0.009,0.253
			c0.065,0.058,0.146,0.139,0.146,0.139s-0.286,0.041-0.563,0.18c-0.277,0.139-0.35,0.367-0.441,0.596
			c-0.089,0.229-0.22,0.767-0.318,0.93c-0.097,0.164-0.407,0.229-0.546,0.221c-0.139-0.008-0.383-0.082-0.571-0.074
			s-0.734,0.033-0.939,0.041c-0.203,0.008-0.905,0-1.043-0.024c-0.14-0.025-0.454-0.253-0.636-0.367
			c-0.13-0.082-0.302-0.156-0.482-0.221s-0.359-0.114-0.62-0.212c-0.261-0.098-0.727-0.163-0.84-0.18
			c-0.115-0.016-0.22,0.123-0.278,0.212c-0.057,0.09-0.139,0.22-0.171,0.302c-0.033,0.082-0.033,0.229,0,0.278
			c0.033,0.048,0.106,0.089,0.106,0.089s-0.049-0.016-0.089-0.016c-0.041,0-0.09,0.008-0.098,0.057
			C-85.729,5.523-85.771,5.613-85.754,5.727z M-80.876,9.264c0,0,0,0,0.043-0.018c0.067-0.03,0.239-0.006,0.33-0.019
			c0.092-0.012,0.178-0.067,0.208,0c0.03,0.067,0.122,0.092,0.085,0.135c-0.037,0.043-0.005,0.086,0.037,0.104
			c0.043,0.019,0.062,0.043,0.11,0.092c0.048,0.049,0.171,0.202,0.257,0.325s0.264,0.324,0.306,0.416
			c0.043,0.092,0.123,0.184,0.098,0.208c-0.024,0.024-0.122-0.049-0.189-0.073c-0.068-0.024-0.361-0.024-0.361-0.024
			s0.19-0.025,0.141-0.086c-0.049-0.061-0.208-0.03-0.307-0.03c-0.097,0-0.146,0.043-0.25-0.012s-0.141-0.024-0.245-0.3
			c-0.104-0.275-0.147-0.398-0.19-0.483C-80.845,9.411-80.876,9.264-80.876,9.264z"/>
		<path fill-rule="evenodd" clip-rule="evenodd" fill="#12100B" d="M-83.843,19.622c2.503,0.108,2.843-1.096,3.196-3.085
			c-2.5,0.039-3.657-0.097-3.566,2.043c0.861-0.629,1.183-0.822,2.163-1.242C-82.969,18.097-83.66,18.463-83.843,19.622
			L-83.843,19.622z"/>
		<path fill-rule="evenodd" clip-rule="evenodd" fill="#12100B" d="M-77.242,11.84c0.011-0.205-0.1-0.266-0.273-0.246
			c-0.645,0.773-0.54,0.818-0.709,1.746c-3.793-0.506-1.478,5.372,0.218,3.628c1.803,1.729,3.939-4.254,0.246-3.573
			C-77.741,12.719-77.635,12.376-77.242,11.84L-77.242,11.84z"/>
		<path fill-rule="evenodd" clip-rule="evenodd" d="M-88.407,15.401c-0.638-0.041-1.003,0.223-1.504,0.335
			c-1.855-0.231-1.761-0.089-2.982,0.831c1.024,2.247,0.685,1.426,2.464,3.361c0.233,0.495,0.503,0.859,1.064,0.923
			c-0.357-0.482-0.133-0.531-0.213-0.828c1.319,1.751,2.997,1.178,4.612,1.447c0.211,0.93,0.505,1.514,1.281,2.391
			c-0.262-1.547,0.169-2.859,1.253-3.241c-1.342-0.336-1.67-0.165-2.371,0.002c-0.194-0.255-0.377-0.497-0.552-0.728
			c-0.076-0.205,0.009-0.324,0.133-0.323c0.309,0-0.572-0.643-0.697-1.072c-0.015-0.05-0.305-0.327-0.571-0.127
			C-87.323,16.976-88.138,16.505-88.407,15.401L-88.407,15.401z M-91.288,16.75c0.131,0.147,0.172,0.348,0.09,0.451
			c-0.082,0.103-0.255,0.066-0.387-0.081c-0.131-0.146-0.171-0.348-0.09-0.45C-91.593,16.566-91.42,16.603-91.288,16.75
			L-91.288,16.75z"/>
		<path d="M-65.185,34.922c-0.096-0.147-3.955-2.063-5.208-2.576c-0.572-0.234-1.815-0.422-2.226-1.083
			c-0.41-0.663-0.905-2.109-3.064-4.502c-0.865-0.959-0.59-0.954-1.18-1.445c-0.589-0.491-1.011-0.639-1.271-0.883
			c-0.26-0.245-0.785-0.678-1.078-1.222c-0.292-0.545-0.478-0.783-0.611-0.98c-0.134-0.197-0.318-0.375-0.35-0.531
			c-0.064-0.31,0.176-1.048,0.025-1.266c-0.15-0.216-0.645-0.553-1.076-0.29c-0.431,0.264-1.481,1.25-0.942,3.428
			c0.241,0.969,0.532,1.104,0.802,1.405c0.164,0.182,0.363,0.588,0.473,0.858c0.109,0.269,0.359,1.108,0.359,1.108
			s-0.661,0.116-1.073,0.139c-0.412,0.024-1.286,0.01-1.548,0.026c-0.263,0.017-1.226-0.06-1.939,0.238
			c-0.712,0.298-1.829,0.961-2.133,1.545c-0.17,0.325-0.126,1.126,0.202,1.451c0.329,0.324,1.097,0.497,1.097,0.497
			s-0.923,0.84-0.882,1.496c0.041,0.655,0.329,1.031,0.556,1.218c0.228,0.186,0.315,0.267,0.315,0.267s-0.642,1.052-0.467,1.659
			c0.254,0.878,0.918,1.116,0.918,1.116s-0.269,0.748-0.247,1.006c0.018,0.203,0.231,0.632,0.376,0.799
			c0.16,0.181,0.567,0.488,0.803,0.542c0.421,0.098,1.023-0.058,1.732,0.007c0.298,0.026,2.486,0.251,3.493,0.332
			c1.093,0.088,2.477,0.046,3.112,0.021c0.635-0.023,1.056-0.209,1.413-0.204c0.246,0.002,0.311,0.08,0.901,0.388
			c0.59,0.307,2.799,1.777,2.799,1.777S-67.655,38.975-65.185,34.922z"/>
	</g>
</g>
<g id="Nosotros" display="none">
	<g display="inline">
		<circle fill="#71C8DB" cx="-27.118" cy="22.145" r="17.375"/>
		<g>
			<path fill="#FFFFFF" d="M-17.123,29.068c0,1.088-0.331,1.946-0.992,2.577c-0.663,0.631-1.543,0.945-2.64,0.945h-11.889
				c-1.098,0-1.977-0.314-2.638-0.945c-0.662-0.631-0.993-1.489-0.994-2.577c0-0.481,0.017-0.951,0.048-1.408
				c0.032-0.457,0.096-0.952,0.19-1.482c0.096-0.53,0.216-1.022,0.361-1.477c0.145-0.452,0.34-0.894,0.585-1.325
				c0.244-0.431,0.525-0.798,0.844-1.102c0.317-0.305,0.705-0.547,1.163-0.729c0.457-0.181,0.963-0.271,1.517-0.272
				c0.081,0,0.271,0.098,0.57,0.293s0.637,0.412,1.014,0.652s0.866,0.458,1.469,0.653s1.207,0.292,1.815,0.292
				c0.609,0,1.215-0.097,1.816-0.292s1.092-0.413,1.469-0.653c0.376-0.24,0.715-0.457,1.014-0.652s0.489-0.293,0.57-0.293
				c0.554,0,1.059,0.091,1.517,0.272s0.846,0.425,1.163,0.729c0.317,0.303,0.6,0.671,0.845,1.102
				c0.244,0.432,0.439,0.873,0.585,1.325c0.145,0.453,0.265,0.946,0.36,1.477c0.095,0.531,0.158,1.025,0.19,1.482
				C-17.138,28.117-17.123,28.587-17.123,29.068z M-21.475,16.921c0,1.442-0.51,2.673-1.53,3.693c-1.021,1.02-2.251,1.53-3.693,1.53
				c-1.441,0-2.672-0.511-3.692-1.53c-1.021-1.021-1.53-2.251-1.53-3.693c0-1.441,0.51-2.673,1.53-3.693
				c1.021-1.02,2.251-1.53,3.692-1.53c1.442,0,2.673,0.511,3.693,1.53C-21.985,14.248-21.475,15.479-21.475,16.921z"/>
			<path fill="#FFFFFF" d="M-11.86,26.725c0,0.606-0.185,1.086-0.554,1.438c-0.37,0.352-0.86,0.527-1.472,0.527h-6.63
				c-0.612,0-1.103-0.176-1.472-0.527c-0.369-0.352-0.553-0.831-0.554-1.438c0-0.269,0.009-0.53,0.027-0.785
				c0.018-0.255,0.053-0.531,0.106-0.827c0.053-0.296,0.12-0.569,0.201-0.823c0.081-0.252,0.19-0.498,0.326-0.738
				c0.137-0.241,0.293-0.445,0.471-0.615s0.393-0.305,0.648-0.405c0.255-0.102,0.537-0.152,0.846-0.152
				c0.045,0,0.151,0.055,0.318,0.163s0.355,0.229,0.565,0.364c0.21,0.134,0.483,0.255,0.819,0.364
				c0.336,0.108,0.674,0.163,1.013,0.163c0.339,0,0.677-0.055,1.013-0.163c0.336-0.109,0.609-0.23,0.819-0.364
				c0.21-0.135,0.399-0.256,0.566-0.364c0.166-0.108,0.272-0.163,0.317-0.163c0.309,0,0.59,0.051,0.846,0.152
				c0.256,0.101,0.472,0.236,0.648,0.405c0.177,0.169,0.334,0.374,0.471,0.615c0.137,0.24,0.245,0.486,0.327,0.738
				c0.081,0.253,0.147,0.527,0.201,0.823c0.053,0.297,0.088,0.572,0.106,0.827C-11.869,26.194-11.86,26.456-11.86,26.725z
				 M-14.288,19.95c0,0.805-0.285,1.49-0.854,2.06c-0.569,0.569-1.255,0.854-2.06,0.854c-0.804,0-1.49-0.284-2.06-0.854
				c-0.569-0.569-0.854-1.255-0.854-2.06c0-0.804,0.285-1.49,0.854-2.06c0.569-0.568,1.256-0.854,2.06-0.854
				c0.804,0,1.49,0.285,2.06,0.854C-14.572,18.46-14.288,19.146-14.288,19.95z"/>
			<path fill="#FFFFFF" d="M-29.875,25.597c0,0.71-0.216,1.271-0.648,1.682c-0.432,0.412-1.006,0.617-1.722,0.617h-7.758
				c-0.717,0-1.291-0.205-1.722-0.617c-0.432-0.411-0.648-0.972-0.648-1.682c0-0.314,0.011-0.62,0.031-0.919
				c0.021-0.299,0.062-0.622,0.124-0.968c0.062-0.347,0.141-0.667,0.236-0.964c0.094-0.295,0.222-0.583,0.381-0.864
				c0.16-0.281,0.343-0.521,0.551-0.719c0.207-0.199,0.46-0.357,0.759-0.476c0.299-0.118,0.629-0.178,0.99-0.178
				c0.053,0,0.178,0.063,0.373,0.191c0.195,0.126,0.416,0.269,0.661,0.426c0.246,0.156,0.565,0.298,0.958,0.426
				s0.789,0.19,1.185,0.19c0.397,0,0.792-0.062,1.186-0.19s0.712-0.27,0.958-0.426c0.245-0.157,0.466-0.3,0.662-0.426
				c0.194-0.128,0.319-0.191,0.372-0.191c0.361,0,0.691,0.06,0.99,0.178c0.299,0.118,0.552,0.277,0.759,0.476
				c0.207,0.197,0.391,0.438,0.551,0.719c0.16,0.281,0.287,0.569,0.382,0.864c0.094,0.297,0.173,0.617,0.235,0.964
				c0.062,0.347,0.103,0.669,0.124,0.968C-29.886,24.977-29.875,25.282-29.875,25.597z M-32.715,17.669c0,0.941-0.333,1.744-1,2.41
				c-0.666,0.666-1.469,0.999-2.41,0.999c-0.94,0-1.744-0.333-2.41-0.999c-0.666-0.666-1-1.469-1-2.41s0.333-1.744,1-2.41
				c0.666-0.666,1.469-0.999,2.41-0.999c0.941,0,1.745,0.333,2.41,0.999C-33.049,15.925-32.715,16.728-32.715,17.669z"/>
		</g>
	</g>
</g>
<g id="servicios">
	<g>
		<circle fill="#E83969" cx="23.76" cy="23.145" r="17.375"/>
		<g>
			<path fill="#FFFFFF" d="M30.762,24.984c-0.036-0.017-0.076-0.026-0.116-0.026c-0.052,0-0.104,0.015-0.147,0.044l-3.812,2.196
				l-2.743-2.626c-0.048-0.045-0.113-0.071-0.182-0.071c-0.069,0-0.134,0.026-0.182,0.071l-2.748,2.626l-3.812-2.196
				c-0.044-0.029-0.095-0.044-0.147-0.044c-0.04,0-0.08,0.009-0.116,0.026c-0.084,0.04-0.138,0.122-0.138,0.21v2.733
				c0,0.083,0.047,0.16,0.124,0.202l6.63,3.412c0.04,0.023,0.085,0.034,0.13,0.034c0.042,0,0.084-0.009,0.123-0.029l7.143-3.412
				c0.081-0.042,0.131-0.121,0.131-0.207v-2.733C30.9,25.106,30.847,25.024,30.762,24.984z"/>
			<path fill="#FFFFFF" d="M32.633,21.812l-2.164-2.363l2.105-2.054c0.062-0.06,0.09-0.147,0.075-0.233
				c-0.015-0.086-0.07-0.158-0.148-0.194l-5.458-2.231c-0.033-0.015-0.068-0.022-0.104-0.022c-0.038,0-0.076,0.008-0.111,0.026
				l-2.595,1.276c-0.085,0.042-0.14,0.127-0.145,0.223c-0.004,0.096,0.043,0.186,0.125,0.235l5.909,2.965l-5.909,2.964
				c-0.066,0.04-0.111,0.108-0.122,0.187c-0.011,0.078,0.013,0.157,0.066,0.214l2.335,2.55c0.05,0.055,0.118,0.083,0.187,0.083
				c0.045,0,0.09-0.012,0.131-0.037l5.767-3.189c0.066-0.04,0.111-0.109,0.123-0.187C32.71,21.948,32.686,21.869,32.633,21.812z"/>
			<path fill="#FFFFFF" d="M20.84,25.438c0.069,0,0.137-0.028,0.187-0.083l2.336-2.55c0.053-0.058,0.077-0.137,0.066-0.214
				c-0.011-0.079-0.056-0.147-0.122-0.187l-5.909-2.964l5.909-2.965c0.081-0.049,0.129-0.14,0.125-0.236s-0.061-0.182-0.146-0.223
				l-2.644-1.276c-0.035-0.017-0.072-0.025-0.109-0.025c-0.035,0-0.07,0.007-0.103,0.022l-5.41,2.197
				c-0.078,0.035-0.133,0.107-0.148,0.192s0.012,0.173,0.073,0.233l2.107,2.089l-2.165,2.364c-0.053,0.057-0.077,0.136-0.066,0.214
				c0.011,0.078,0.056,0.146,0.123,0.187l5.766,3.189C20.75,25.426,20.795,25.438,20.84,25.438z"/>
		</g>
	</g>
</g>
</svg>
