<?xml version="1.0" encoding="utf-8"?>
<!-- Generator: Adobe Illustrator 16.0.0, SVG Export Plug-In . SVG Version: 6.00 Build 0)  -->
<!DOCTYPE svg PUBLIC "-//W3C//DTD SVG 1.1//EN" "http://www.w3.org/Graphics/SVG/1.1/DTD/svg11.dtd">
<svg version="1.1" id="Capa_1" xmlns="http://www.w3.org/2000/svg" xmlns:xlink="http://www.w3.org/1999/xlink" x="0px" y="0px"
	 width="60.25px" height="43.75px" viewBox="0 0 60.25 43.75" enable-background="new 0 0 60.25 43.75" xml:space="preserve">
<g>
	<path fill-rule="evenodd" clip-rule="evenodd" d="M57.251,25.336c0,5.008,0,9.992,0,14.988c-18.039,0-36.066,0-54.124,0
		c0-0.093,0-0.176,0-0.259c0-2.282,0.002-4.563-0.004-6.845c0-0.188,0.052-0.271,0.235-0.334c4.097-1.427,8.266-2.6,12.505-3.51
		c2.527-0.543,5.065-1.044,7.611-1.49c2.181-0.381,4.376-0.681,6.571-0.971c1.954-0.259,3.913-0.478,5.875-0.672
		c1.812-0.18,3.629-0.312,5.445-0.45c3.385-0.257,6.775-0.391,10.167-0.458c1.858-0.037,3.717-0.009,5.574-0.009
		C57.15,25.326,57.192,25.332,57.251,25.336z"/>
	<path fill-rule="evenodd" clip-rule="evenodd" d="M28.615,18.934c0.38-0.348,0.462-0.773,0.462-1.247
		c-0.006-4.434-0.006-8.867-0.001-13.3c0.001-0.481-0.052-0.93-0.513-1.267c0.113-0.005,0.175-0.011,0.237-0.01
		c2.202,0.002,4.405-0.038,6.606,0.021c1.951,0.052,3.801,0.531,5.4,1.719c1.598,1.188,2.597,2.783,2.906,4.737
		c0.504,3.19-0.66,5.733-3.234,7.633c-1.234,0.91-2.658,1.394-4.174,1.577c-0.716,0.086-1.44,0.124-2.162,0.132
		c-1.765,0.018-3.53,0.006-5.295,0.006C28.771,18.934,28.693,18.934,28.615,18.934z M31.973,11.019c0,1.606,0,3.213,0,4.821
		c0,0.566,0.008,1.133-0.004,1.7c-0.005,0.204,0.068,0.26,0.261,0.256c0.495-0.01,0.99-0.002,1.485-0.004
		c0.797-0.001,1.588-0.063,2.363-0.255c1.674-0.415,2.994-1.315,3.752-2.893c0.96-2,1.106-4.087,0.445-6.207
		C39.811,6.951,38.917,5.78,37.54,5.01c-0.98-0.546-2.047-0.767-3.155-0.793C33.684,4.2,32.98,4.234,32.278,4.246
		c-0.305,0.005-0.306,0.005-0.306,0.315C31.973,6.714,31.973,8.867,31.973,11.019z"/>
	<path fill-rule="evenodd" clip-rule="evenodd" d="M57.25,21.221c0,0.775,0,1.512,0,2.279c-0.088,0-0.171,0-0.254,0
		c-2.361-0.013-4.723-0.067-7.081-0.026c-2.518,0.044-5.033,0.16-7.547,0.283c-1.697,0.083-3.392,0.218-5.087,0.359
		c-1.35,0.112-2.697,0.255-4.044,0.413c-1.708,0.2-3.417,0.401-5.117,0.654c-2.14,0.319-4.276,0.666-6.406,1.047
		c-3.2,0.575-6.374,1.281-9.524,2.093c-2.898,0.747-5.772,1.583-8.592,2.595c-0.032,0.012-0.064,0.022-0.113-0.003
		c0.506-0.253,1.009-0.514,1.52-0.758c3.494-1.666,7.128-2.955,10.846-4.018c3.06-0.875,6.154-1.604,9.282-2.175
		c2.368-0.433,4.745-0.823,7.128-1.159c2.156-0.305,4.324-0.549,6.494-0.75c2.505-0.232,5.017-0.414,7.527-0.572
		c3.552-0.223,7.11-0.302,10.669-0.262C57.043,21.222,57.136,21.221,57.25,21.221z"/>
	<path fill-rule="evenodd" clip-rule="evenodd" d="M2.75,3.117c1.354,0,2.709,0,4.103,0c-0.069,0.061-0.114,0.101-0.16,0.138
		C6.414,3.49,6.27,3.79,6.27,4.156c0,3.315-0.005,6.63,0.005,9.945c0.003,0.698,0.128,1.382,0.435,2.021
		c0.476,0.99,1.284,1.539,2.35,1.711c0.712,0.115,1.43,0.104,2.13-0.088c1.343-0.369,2.093-1.294,2.377-2.618
		c0.091-0.43,0.134-0.879,0.135-1.32c0.006-2.525-0.006-5.051-0.016-7.577c-0.001-0.61-0.028-1.22-0.017-1.829
		c0.008-0.491-0.044-0.944-0.528-1.279c0.838,0,1.617,0,2.396,0c0.016,0.014,0.031,0.029,0.049,0.043
		c-0.049,0.026-0.105,0.044-0.144,0.081c-0.232,0.217-0.346,0.488-0.348,0.804C15.078,5.799,15.065,7.55,15.05,9.3
		c-0.015,1.621-0.008,3.243-0.052,4.864c-0.029,1.081-0.281,2.115-0.912,3.022c-0.748,1.079-1.828,1.633-3.083,1.857
		c-1.546,0.277-3.071,0.162-4.538-0.423c-1.53-0.611-2.587-1.675-2.977-3.314c-0.091-0.387-0.152-0.792-0.155-1.188
		C3.32,10.911,3.319,7.704,3.328,4.497C3.331,3.942,3.244,3.456,2.75,3.117z"/>
	<path fill-rule="evenodd" clip-rule="evenodd" d="M57.618,18.908c-1.484,0-2.969,0-4.452,0c0,0.001-0.002-0.018,0.005-0.023
		c0.48-0.378,0.559-0.632,0.333-1.19c-0.398-0.989-0.812-1.974-1.212-2.963c-0.057-0.142-0.134-0.193-0.286-0.193
		c-1.786,0.004-3.573,0-5.359,0.009c-0.085,0-0.217,0.069-0.247,0.14c-0.432,1.038-0.852,2.08-1.27,3.123
		c-0.185,0.457-0.111,0.841,0.398,1.111c-1,0-1.94,0-2.882,0c0.69-0.438,0.996-1.132,1.289-1.839
		c0.081-0.198,0.174-0.393,0.258-0.59c1.955-4.531,3.909-9.063,5.862-13.594c0.026-0.059,0.056-0.116,0.103-0.213
		c0.045,0.085,0.078,0.141,0.104,0.2c2.127,4.886,4.254,9.772,6.378,14.659c0.212,0.485,0.438,0.955,0.923,1.233
		c0.021,0.013,0.039,0.041,0.053,0.064C57.623,18.85,57.618,18.868,57.618,18.908z M49.302,7.64c-0.018,0-0.037,0-0.056,0.001
		c-0.774,1.901-1.55,3.802-2.334,5.728c1.606,0,3.174,0,4.774,0C50.882,11.436,50.092,9.538,49.302,7.64z"/>
	<path fill-rule="evenodd" clip-rule="evenodd" d="M16.884,14.542c0.255,0.477,0.498,1.014,0.816,1.502
		c0.639,0.977,1.503,1.682,2.68,1.896c1.07,0.195,2.095,0.079,2.937-0.701c1.059-0.981,1.36-3.25-0.41-4.302
		c-0.645-0.384-1.332-0.698-2.01-1.021c-1.095-0.521-2.146-1.1-2.976-2.008c-0.6-0.658-0.934-1.432-0.989-2.326
		c-0.158-2.519,1.46-3.918,3.271-4.459c1.715-0.514,3.382-0.293,5.002,0.423c0.188,0.083,0.284,0.186,0.286,0.414
		c0.008,0.703,0.045,1.404,0.065,2.106c0.009,0.269,0.001,0.538,0.001,0.758c-0.271-0.726-0.722-1.403-1.373-1.922
		c-1.062-0.843-2.25-1.162-3.561-0.694c-0.816,0.291-1.262,0.93-1.381,1.772c-0.113,0.795,0.142,1.469,0.787,1.978
		c0.619,0.489,1.337,0.8,2.039,1.143c0.888,0.434,1.791,0.842,2.651,1.327c1.147,0.646,1.88,1.627,2.076,2.954
		c0.316,2.137-0.518,3.938-2.409,5.025c-1.08,0.622-2.252,0.829-3.494,0.75c-1.322-0.083-2.56-0.447-3.744-1.02
		c-0.073-0.035-0.161-0.136-0.164-0.208C16.942,16.782,16.914,15.635,16.884,14.542z"/>
	<path fill-rule="evenodd" clip-rule="evenodd" d="M3.112,23.366c0-0.099,0-0.177,0-0.255c0-0.616,0-1.232,0-1.862
		c0.385,0,0.755-0.015,1.123,0.003c1.203,0.06,2.407,0.113,3.608,0.204c1.151,0.086,2.302,0.189,3.446,0.335
		c1.492,0.19,2.982,0.402,4.466,0.654c1.886,0.321,3.74,0.783,5.551,1.416c0.074,0.026,0.147,0.053,0.218,0.11
		c-0.22-0.015-0.438-0.03-0.658-0.046c-0.229-0.017-0.457-0.038-0.686-0.054c-1.374-0.094-2.747-0.196-4.121-0.281
		c-1.446-0.088-2.893-0.169-4.341-0.235c-2.379-0.108-4.759-0.195-7.142-0.099C4.099,23.274,3.621,23.327,3.112,23.366z"/>
	<path fill-rule="evenodd" clip-rule="evenodd" d="M16.061,25.071c-4.321,0.611-8.663,1.049-12.938,1.989c0-0.675,0-1.368,0-2.101
		C7.443,24.822,11.755,24.729,16.061,25.071z"/>
</g>
</svg>
